<?xml version="1.0" standalone="no"?>
<!DOCTYPE svg PUBLIC "-//W3C//DTD SVG 1.1//EN" "http://www.w3.org/Graphics/SVG/1.1/DTD/svg11.dtd" >
<svg xmlns="http://www.w3.org/2000/svg" xmlns:xlink="http://www.w3.org/1999/xlink" version="1.1">
<metadata>
Created by FontForge 20170731 at Mon Aug 29 08:45:53 2005
 By ,,,
Copyright \(C\) 2001 Jason Walcott/JAW Fonts. All rights reserved.
</metadata>
<defs>
<font id="BaileywickCurlyJF" horiz-adv-x="510" >
  <font-face 
    font-family="BaileywickCurlyJF"
    font-weight="550"
    font-stretch="normal"
    units-per-em="1000"
    panose-1="2 0 6 5 6 0 0 2 0 4"
    ascent="800"
    descent="-200"
    x-height="528"
    cap-height="801"
    bbox="-317.75 -348 1354.4 1059"
    underline-thickness="20"
    underline-position="-143"
    unicode-range="U+0020-FB02"
  />
<missing-glyph horiz-adv-x="296" 
 />
    <glyph glyph-name="fi" unicode="fi" horiz-adv-x="643" 
d="M415 633q0 30 28 49q29 20 68 20t68 -20q28 -19 28 -49t-28 -49q-29 -20 -68 -20t-68 20q-28 19 -28 49zM391 520q14 -2 26.5 -4t23.5 -4q24 -3 46 -3q11 0 22.5 0.5t22.5 1.5q24 3 50 9q-5 -5 -9 -9.5t-7 -8.5q-9 -9 -13 -22q-5 -13 -8 -31.5t-6 -43.5t-4.5 -53
t-2.5 -60q-2 -63 3 -134q4 -71 18 -138q1 -9 8 -19q7 -11 21 -21q-27 4 -51 6q-12 2 -23.5 2.5t-22.5 1.5q-11 0 -22.5 -0.5t-22.5 -1.5q-21 -1 -49 -8q5 2 8.5 5.5l7.5 7.5q7 9 9 17q6 39 9 85q2 23 3.5 46.5t1.5 46.5q2 24 2 47.5v46.5t-0.5 44t-1.5 41t-2 37t-2 31
q-2 14 -3.5 25t-3.5 18q-4 14 -11 24q-5 8 -17 18zM388 719q1 -12 0 -24.5t-3 -25.5q-4 -26 -15 -49t-27 -36q-17 -14 -40 -14q-29 0 -45 14q-17 13 -21 33q-4 22 3 40q7 19 23 26t27 -2q12 -12 13 -19q1 -8 9 -6q7 1 9 11q3 13 1 33q-3 16 -11 33q-7 14 -22 24
q-13 10 -33 7q-23 -3 -38 -20q-17 -19 -17 -58l-1 -170q31 1 63 6q34 5 70 15v-113q-73 22 -133 27l-1 -223q0 -24 1 -45.5t4 -41.5q6 -38 14 -56q4 -9 11 -18q6 -6 12 -14q3 -4 6 -7l6 -6q-15 2 -30.5 3.5t-32.5 1.5q-17 2 -33.5 2h-32.5t-31.5 -0.5t-29.5 -1.5t-27 -2
t-24 -3q5 5 10 9t10 9q8 8 15.5 16.5t13.5 17.5q8 15 15 52q4 19 5.5 41t1.5 48v208q-7 -2 -14 -3.5t-14 -3.5t-14 -5t-15 -5v113q15 -4 29 -6q7 -2 14 -3l14 -2l-1 162q0 37 12 67q14 32 35 51q21 21 53 34q31 12 67 12q29 0 56 -11q26 -11 44 -30q17 -19 28 -43
q5 -12 7.5 -24t3.5 -25z" />
    <glyph glyph-name="fl" unicode="fl" horiz-adv-x="583" 
d="M387 681q-3 -22 -9 -41q-3 -10 -7 -18.5t-9 -16.5t-11.5 -14t-13.5 -11q-14 -10 -34 -10q-29 0 -45 14q-17 13 -21 33q-4 22 3 40q7 19 23 26t27 -2q12 -12 13 -19q1 -8 9 -6q7 1 9 11q3 13 1 33q-3 16 -11 33q-7 14 -22 24q-13 10 -33 7q-23 -3 -38 -20q-17 -19 -17 -58
l-1 -170q31 1 63 6q34 5 70 15v-113q-73 22 -133 27l-1 -223q0 -24 1 -45.5t4 -41.5q6 -38 14 -56q4 -9 11 -18q6 -6 12 -14q3 -4 6 -7l6 -6q-15 2 -30.5 3.5t-32.5 1.5q-17 2 -33.5 2h-32.5t-31.5 -0.5t-29.5 -1.5t-27 -2t-24 -3q5 5 10 9t10 9q8 8 15.5 16.5t13.5 17.5
q8 15 15 52q4 19 5.5 41t1.5 48v208q-7 -2 -14 -3.5t-14 -3.5t-14 -5t-15 -5v113q15 -4 29 -6q7 -2 14 -3l14 -2l-1 162q0 37 12 67q14 32 35 51q21 21 53 34q31 12 67 12q29 0 50 -8q19 -9 36 -21l16 -12l16 -12q15 -12 33 -18q25 -8 41 -7q10 1 19 2t17 3t17 5t18 5
q10 3 20.5 5t22.5 3q-4 -7 -7.5 -13.5t-7.5 -11.5q-4 -6 -7.5 -14.5t-5.5 -19.5q-2 -10 -4 -25t-4 -36t-3.5 -44.5t-3.5 -49.5t-3 -53t-2 -55t-1.5 -54t-0.5 -49q0 -41 1 -82t3 -84q3 -43 7.5 -84t9.5 -83q3 -28 28 -59q-9 2 -19.5 3t-22.5 2t-24.5 1.5t-25.5 0.5t-26 -0.5
t-26 -1.5q-25 0 -50 -5q7 7 15 20q7 13 9 24q4 39 6.5 81.5t4.5 89.5q2 48 3 94t2 93v31t1 37v40.5t-1 41.5q-2 42 -3 81q-3 42 -10 68z" />
    <glyph glyph-name=".notdef" horiz-adv-x="296" 
 />
    <glyph glyph-name=".null" horiz-adv-x="0" 
 />
    <glyph glyph-name="nonmarkingreturn" horiz-adv-x="296" 
 />
    <glyph glyph-name="space" unicode=" " horiz-adv-x="296" 
 />
    <glyph glyph-name="exclam" unicode="!" horiz-adv-x="298" 
d="M74 758q16 -5 33 -8.5t36 -5.5q20 -2 38 -1.5t35 2.5q-7 -34 -15 -83q-7 -45 -12 -100q-2 -26 -4 -53t-4 -55t-2.5 -55.5t-1.5 -54.5q-1 -28 -1 -54t2 -51q0 -26 2 -49t4 -43l-71 -9q2 29 2 62t-1 71q0 38 -2 76.5t-4 80.5q-3 42 -6.5 83t-7.5 83q-5 43 -10 83.5
t-10 80.5zM71 25q0 22 21 39q22 16 53 16q30 0 52 -16t22 -39t-22 -39t-52 -16q-32 0 -52 16q-22 16 -22 39z" />
    <glyph glyph-name="quotedbl" unicode="&#x22;" horiz-adv-x="393" 
d="M317 630q-12 -14 -22 -20q-7 -4 -13 -7.5t-11 -5.5q-14 -7 -22 -8q-11 -3 -14 -3q-9 -2 -12 6q-3 7 12 12q31 9 41 40q4 15 3 30q0 16 -25 30q-16 10 -25 20q-11 11 -11 26q0 21 19 36t49 15q29 0 47 -15q19 -15 22 -36q4 -26 -5 -60q-11 -35 -33 -60zM151 630
q-12 -14 -22 -20q-7 -4 -13 -7.5t-11 -5.5q-14 -7 -22 -8q-11 -3 -14 -3q-9 -2 -12 6q-3 7 12 12q31 9 41 40q4 15 3 30q0 16 -25 30q-16 10 -25 20q-11 11 -11 26q0 21 19 36t49 15q29 0 47 -15q19 -15 22 -36q4 -26 -5 -60q-11 -35 -33 -60z" />
    <glyph glyph-name="numbersign" unicode="#" horiz-adv-x="559" 
d="M329 121h-69l36 171h-82l-37 -171h-69l36 171h-83l15 70h83l20 90h-83l15 70h83l40 186h70l-40 -186h82l40 186h70l-40 -186h82l-15 -70h-82l-20 -90h82l-15 -70h-82zM331 452h-82l-20 -90h82z" />
    <glyph glyph-name="dollar" unicode="$" horiz-adv-x="561" 
d="M274 31q0 -12 -6 -21t-15 -9t-15 9t-6 21v56q-49 3 -85 17q-35 15 -57 37t-31 48q-10 25 -8 53q2 26 12 44q5 9 11.5 16t13.5 12q15 10 32 15q16 4 32 1q19 -3 29 -12q11 -9 17 -20q5 -9 7 -22q2 -11 0 -20q-3 -22 -21 -34q-18 -14 -34 -15q-18 -2 -26 5q-10 8 -11 15
q-1 3 -1 6.5t-2 7.5q0 7 -9 9q-6 1 -12 -3t-4 -19q3 -36 34 -61q32 -27 79 -35q18 -3 34 -3v231l-18 10q-50 28 -89 67t-46 87q-6 32 4 64q11 31 31 54q22 25 51 41q30 18 67 27v62q0 12 6 21t15 9t15 -9t6 -21v-56q4 1 7.5 1t7.5 1h16q23 -1 41.5 -3.5t34.5 -7.5
q31 -10 50 -25q19 -16 28 -35q8 -18 10 -40q1 -7 0 -14.5t-3 -15.5q-5 -17 -15 -30q-11 -15 -26 -25q-17 -11 -39 -14q-20 -2 -35 1q-18 3 -30 10q-14 7 -21 18q-8 10 -10 24q-2 27 9 38q10 12 32 12q10 0 17 -4q4 -2 6.5 -4.5l4.5 -4.5q5 -6 7 -10q3 -5 3 -7q0 -8 4 -17
q5 -12 15 -13q13 -1 22 11q10 13 9 40q-1 29 -31 54q-28 23 -85 25h-15q-4 0 -7 -0.5t-7 -1.5v-190l15 -9q15 -9 32.5 -19t37.5 -21q41 -23 74 -50q33 -28 55 -63q21 -36 15 -79q-4 -36 -25 -66t-51 -49q-33 -22 -70 -32q-41 -13 -83 -14v-56zM232 664q-23 -12 -33 -30
q-13 -21 -14 -41q0 -14 9 -32q9 -19 38 -42v145zM274 133q30 8 49 24q10 8 18 18.5t15 21.5q2 3 3.5 8t3.5 12t1.5 15t-2.5 16q-4 16 -20 37q-8 10 -19 20t-27 18l-22 12v-202z" />
    <glyph glyph-name="percent" unicode="%" horiz-adv-x="703" 
d="M583 804q12 -10 26 -10q16 -3 32 0q8 0 16 1t15 3q8 2 13.5 3t9.5 2q-35 -32 -81 -87q-23 -29 -47.5 -61t-50.5 -67q-26 -36 -52.5 -74t-53.5 -78q-28 -40 -54 -79.5t-52 -78.5q-26 -40 -49.5 -77.5t-45.5 -72.5q-23 -35 -42 -66t-35 -57q-34 8 -54 8t-52 -8
q22 24 44.5 52t47.5 60q49 64 102 135q26 36 52 72.5t52 74.5t51 75t48 74q24 37 46.5 71.5t42.5 66.5q20 33 38 62.5t33 55.5zM188 750q-24 0 -42 -41t-18 -119t18 -124t42 -46q25 0 43 46t18 124q0 77 -17 119q-18 41 -44 41zM188 374q-35 0 -66 14q-31 15 -53 43t-34 68
q-13 39 -13 91q0 50 12 91q7 20 15.5 37.5t19.5 31.5q23 29 52 42q31 15 67 15t67 -14q31 -15 53 -43q24 -30 35 -68q13 -39 13 -92q0 -51 -12 -91q-14 -43 -35 -68q-22 -28 -53 -42q-32 -15 -68 -15zM520 368q-24 0 -42 -41t-18 -119t18 -124q18 -47 42 -47q26 0 42 46
q18 46 18 125q0 77 -17 119q-17 41 -43 41zM520 -8q-35 0 -66 14q-30 14 -53 42q-22 28 -34 68q-13 39 -13 92q0 50 12 91q7 20 15.5 37.5t19.5 31.5q23 29 52 42q31 15 67 15t67 -14q31 -15 53 -43q24 -30 35 -68q13 -39 13 -92q0 -51 -12 -91q-14 -43 -35 -68
q-22 -28 -53 -42q-32 -15 -68 -15z" />
    <glyph glyph-name="ampersand" unicode="&#x26;" horiz-adv-x="841" 
d="M568 156q-11 -49 -30 -83q-10 -18 -21.5 -33t-25.5 -26q-29 -25 -69 -35q-41 -12 -96 -12q-66 0 -118 18q-53 18 -89 51q-38 33 -57 79q-20 48 -20 103q0 147 128 194q-51 22 -73 61q-25 41 -26 98q-1 23 3.5 44t12.5 41q16 38 49 70q33 30 80 48q48 18 109 18
q55 0 97 -15t70 -40q29 -26 44 -58t15 -65q0 -29 -9 -54q-5 -13 -11.5 -24.5t-14.5 -21.5q-18 -21 -37 -32q-11 -7 -22.5 -10t-23.5 -5q-27 -3 -50 4q-12 4 -22.5 8.5t-20.5 11.5q-21 15 -34 33q-13 19 -18 43q-3 18 0 36q5 20 13 32q5 7 11 12.5t14 9.5q15 7 34 6
q22 -1 36 -14t20 -27q7 -15 5 -33q0 -16 -11 -29q-17 -20 -36 -16q-2 1 -3 1t-3 2q-5 0 -7 -1q-4 -1 -1 -9q2 -5 5.5 -10t8.5 -9q12 -9 25 -10q12 -3 29 -1q15 3 28 13q16 12 24 30q4 10 6.5 19.5t2.5 19.5q2 11 0.5 21t-3.5 20q-4 20 -14 38q-23 41 -65 58q-42 16 -87 12
q-34 -3 -56 -18q-25 -17 -38 -39q-7 -12 -12 -25t-7 -27q-6 -27 -4 -56q1 -26 11 -53q9 -27 25 -45q16 -19 41 -33q24 -13 60 -16q31 -3 48 -6q17 -5 16 -21q0 -9 -5 -14q-4 -4 -15 -4q-5 0 -11.5 0.5t-14.5 1.5q-8 2 -18 3t-21 2q-38 4 -67 -10q-29 -15 -45 -40
q-17 -24 -25 -57q-8 -35 -8 -66q0 -37 10 -70q11 -35 30 -62q19 -28 47 -45q29 -19 62 -20q31 -1 58 12q14 7 25.5 16.5t21.5 20.5q19 24 30 53q10 30 9 60q-13 5 -24.5 8.5t-22.5 7.5q-21 7 -35 9q-21 3 -39 -3q-17 -5 -46 -23l-22 24q5 12 11 23t14 21q15 18 33 32
q22 16 50 17q37 3 66 -10q16 -7 31 -13.5t30 -14.5q28 -15 61 -28q31 -12 70 -7q29 5 50 18q19 14 34 35q13 19 18 44q6 24 6 47q0 21 -6 39q-8 19 -18 33q-11 15 -26 22q-17 9 -34 9q-19 0 -32 -10q-12 -9 -20 -22q-4 -7 -6.5 -13t-3.5 -13q-3 -13 0 -19q1 -4 5 -4t5 4
q4 7 15 15q12 8 25 7q24 -1 38 -19q14 -17 14 -41q0 -21 -13 -40q-16 -21 -42 -25q-15 -3 -36 2q-18 4 -34 17t-26 32q-11 20 -11 45q0 26 7 50q10 27 24 46q16 19 39 33q24 15 52 16q25 1 53 -8q26 -10 49 -33q24 -24 38 -53q14 -30 16 -69q1 -30 -8 -66q-9 -34 -30 -64
q-20 -29 -54 -52q-35 -23 -82 -30q-42 -6 -82 0z" />
    <glyph glyph-name="quotesingle" unicode="'" horiz-adv-x="241" 
d="M151 630q-12 -14 -22 -20q-7 -4 -13 -7.5t-11 -5.5q-14 -7 -22 -8q-11 -3 -14 -3q-9 -2 -12 6q-3 7 12 12q31 9 41 40q4 15 3 30q0 16 -25 30q-16 10 -25 20q-11 11 -11 26q0 21 19 36t49 15q29 0 47 -15q19 -15 22 -36q4 -26 -5 -60q-11 -35 -33 -60z" />
    <glyph glyph-name="parenleft" unicode="(" horiz-adv-x="530" 
d="M199 311q0 -130 41 -227q42 -96 105 -159q13 -13 24 -22t21 -16q19 -14 33 -21q7 -4 12 -6.5l9 -4.5q8 -5 8 -12q0 -10 -14 -10q-7 0 -29 5q-10 3 -21.5 7.5t-25.5 9.5q-28 12 -58 31q-16 10 -31.5 21t-31.5 25q-85 74 -130 174q-46 98 -46 211t45 212q45 100 130 175
q31 28 61 45q16 10 30.5 17.5t28.5 13.5q29 13 47 17q23 5 30 5q14 0 14 -10q0 -7 -6 -10q-5 -4 -17 -9q-13 -7 -28 -16q-17 -11 -39 -30q-75 -67 -118 -170q-44 -106 -44 -246z" />
    <glyph glyph-name="parenright" unicode=")" horiz-adv-x="530" 
d="M333 315q0 65 -12 122t-33 107q-21 49 -48 90q-14 20 -28.5 38t-29.5 34q-13 13 -24 22t-21 16t-18.5 12t-15.5 9q-14 7 -21 12q-8 5 -8 11q0 10 14 10q7 0 29 -5q11 -3 22.5 -7.5t25.5 -9.5q28 -12 58 -31q16 -10 31.5 -21t31.5 -25q85 -74 130 -174q46 -98 46 -211
t-45 -212q-47 -101 -131 -175q-31 -28 -61 -45q-16 -10 -30.5 -17.5t-28.5 -13.5q-29 -13 -47 -17q-23 -5 -30 -5q-14 0 -14 10q0 7 6 10q3 2 7.5 4.5t9.5 5.5q6 3 13.5 7t15.5 9t18 12t21 17q17 14 33 32t31 38q15 21 28.5 44.5t24.5 49.5q22 51 36 115t14 132z" />
    <glyph glyph-name="asterisk" unicode="*" horiz-adv-x="407" 
d="M196 672q-2 15 -6 28l-12 27q-3 7 -5.5 13t-4.5 11q-5 13 -5 22q0 17 12 26q13 10 30 10q16 0 28 -9q13 -9 13 -26q0 -4 -1 -9t-3 -11t-5 -12t-6 -13q-7 -16 -11 -29q-7 -17 -8 -29q16 9 27 23q5 8 10 14.5t10 13.5t10 12.5t10 10.5q10 10 24 10q19 0 29 -13
q12 -14 12 -30q0 -22 -12 -29q-15 -8 -31 -11q-10 -2 -19.5 -3t-20.5 -2t-21 -3.5t-19 -6.5q18 -10 41 -13q20 -4 44 -4q15 0 27 -10q11 -11 11 -28t-11 -31q-12 -14 -30 -14q-14 0 -24 9q-5 5 -10 10.5t-10 12.5t-10.5 14t-10.5 14q-10 14 -24 25q2 -15 6 -28q3 -8 6 -15
l6 -14t6 -13.5t5 -11.5q5 -13 5 -19q0 -18 -12 -28q-13 -10 -30 -10q-20 0 -30 9q-12 9 -12 29q0 9 4 20q2 6 5 12t5 13q7 15 11 28q2 7 4 13.5t3 13.5q-13 -8 -24 -23q-5 -8 -10.5 -14.5t-10.5 -13.5t-10 -12.5t-10 -10.5q-10 -10 -24 -10q-17 0 -30 12q-13 13 -13 30
q0 26 16 33t39 9q9 1 18 1.5t17 2.5q16 3 34 11q-9 4 -17.5 6.5t-16.5 4.5t-17.5 2.5t-19.5 1.5q-21 2 -36 7q-16 7 -16 32q0 18 12 32t31 14q12 0 23 -9q9 -10 20 -23l10 -14l10 -14q10 -14 25 -24z" />
    <glyph glyph-name="plus" unicode="+" horiz-adv-x="833" 
d="M709 332v-68h-258v-264h-69v264h-258v68h258v264h69v-264h258z" />
    <glyph glyph-name="comma" unicode="," horiz-adv-x="241" 
d="M151 -90q-12 -14 -22 -20q-7 -4 -13 -7.5t-11 -5.5q-14 -7 -22 -8q-11 -3 -14 -3q-9 -2 -12 6q-3 7 12 12q31 9 41 40q4 15 3 30q0 16 -25 30q-16 10 -25 20q-11 11 -11 26q0 21 19 36t49 15q29 0 47 -15q19 -15 22 -36q4 -26 -5 -60q-11 -35 -33 -60z" />
    <glyph glyph-name="hyphen" unicode="-" horiz-adv-x="449" 
d="M332 396q12 0 21 -9t9 -21v-29q0 -12 -9 -21t-21 -9h-211q-14 0 -21 9q-9 9 -9 21v29q0 11 8 21q9 9 22 9h211z" />
    <glyph glyph-name="hyphen" unicode="&#xad;" horiz-adv-x="449" 
d="M332 396q12 0 21 -9t9 -21v-29q0 -12 -9 -21t-21 -9h-211q-14 0 -21 9q-9 9 -9 21v29q0 11 8 21q9 9 22 9h211z" />
    <glyph glyph-name="period" unicode="." horiz-adv-x="288" 
d="M67 25q0 22 21 39q22 16 53 16q32 0 52 -16q22 -16 22 -39t-21 -39q-22 -16 -53 -16q-32 0 -52 16q-22 16 -22 39z" />
    <glyph glyph-name="slash" unicode="/" horiz-adv-x="342" 
d="M45 -93l269 923h74l-267 -923h-76z" />
    <glyph glyph-name="zero" unicode="0" horiz-adv-x="703" 
d="M343 742q-49 0 -84 -23q-36 -22 -59 -67q-25 -45 -35 -107q-5 -32 -8 -68t-3 -77q0 -40 3 -76.5t8 -68.5t14 -60t20 -51q23 -44 59 -71q35 -25 85 -25t85 25q37 27 59 71q11 23 20 51t14 60t8 68.5t3 76.5q0 41 -3 76.5t-8 67.5t-14 59t-20 49q-25 45 -59 67
q-37 23 -85 23zM343 -3q-67 0 -121 25q-57 25 -99 75q-42 51 -66 126q-24 76 -24 177q0 100 24 177q24 76 66 126q41 50 98 76q56 25 122 25q67 0 123 -25t99 -76q42 -51 66 -126q25 -75 25 -177q0 -101 -24 -176q-26 -77 -67 -126q-41 -50 -99 -76q-56 -25 -123 -25z" />
    <glyph glyph-name="one" unicode="1" horiz-adv-x="443" 
d="M118 0q7 3 13.5 6t12.5 7q5 3 10.5 6.5t10.5 7.5q11 9 15 19q7 13 11 50q2 20 4 43t4 49q2 27 3.5 56.5t1.5 61.5q2 32 2 63.5v62.5t-0.5 60t-1.5 57t-3 50.5t-4 41.5q-15 -8 -32 -15q-8 -4 -15.5 -6.5t-15.5 -4.5t-15.5 -4t-15.5 -4q-17 -3 -36 -6v50q11 1 22.5 2.5
t23.5 5.5q23 7 45 23q22 15 36 40q16 26 17 63q37 -2 68 4q17 3 31.5 6t26.5 7q-2 -18 -3 -39.5t-2 -47.5q-2 -26 -3 -53.5t-2 -56.5q-2 -29 -3 -59.5t-1 -62.5q-2 -32 -2 -63t-1 -62t-1 -60.5t-1 -57.5v-52.5t1 -46.5t1 -40t2 -32q0 -26 4 -34q2 -5 5.5 -10.5t7.5 -10.5
t7 -8.5t5 -5.5h-233z" />
    <glyph glyph-name="two" unicode="2" horiz-adv-x="640" 
d="M94 603q-2 27 1.5 51t11.5 46q16 43 48 75q31 31 74 48q45 19 90 20q59 2 107 -15q25 -8 45.5 -20.5t37.5 -28.5q34 -31 54 -76q19 -44 19 -98q0 -83 -45 -146q-48 -66 -127 -106l-68 -34q-41 -20 -72.5 -41t-55.5 -41q-47 -40 -64 -98q10 -1 23 -1.5t30 -0.5
q17 -2 36 -2t39 -1t41 -1h43h42.5t39.5 1h36.5t30.5 2q28 0 40 5q6 2 12 4.5t11 6.5q6 4 11 7t10 7t9 7t7 5q4 3 6 5l3 3q-5 -13 -12 -35q-8 -22 -12 -43q-2 -11 -4 -21.5t-4 -21.5q-3 -21 -3 -36q-29 4 -59 8l-60 8q-31 5 -61.5 8t-61.5 5t-63 3.5t-64 1.5q-64 0 -131 -9
q-6 -2 -15 -3q-5 -2 -9.5 -3t-9.5 -3t-9 -3l-8 -2l-7 -1q0 63 18 111q20 50 52 89q17 20 37.5 40t44.5 39q25 19 52 39t57 41l64 45q14 10 25.5 19t21.5 18q10 10 18 19t15 19t11.5 20.5t8.5 21.5t6.5 23.5t4.5 26.5q4 34 -5 68q-5 17 -12 31.5t-16 27.5q-19 25 -49 41
q-29 15 -65 12q-66 -5 -108 -48q-42 -42 -47 -111q-1 -9 0.5 -18.5t3.5 -20.5q4 -21 15 -39q11 -19 27 -29q16 -12 37 -10q20 2 29 8q9 7 15 16q4 9 6 17v13q0 5 -3 7q-4 2 -6 2q-4 0 -6 -2q-3 0 -3 -4q-1 -5 -11 -15q-11 -9 -25 -8q-16 1 -28 15q-12 13 -12 42q0 39 22 62
q23 26 52 26q42 0 65 -26q24 -27 25 -77q0 -20 -6 -42q-6 -21 -19 -43q-14 -20 -35 -35q-22 -15 -53 -19q-26 -3 -51 3q-26 6 -48 24q-23 19 -38 48q-17 33 -20 77z" />
    <glyph glyph-name="three" unicode="3" horiz-adv-x="616" 
d="M76 605q0 32 14 66q15 34 43 61q14 14 32 24.5t38 18.5q43 17 97 17q61 0 108 -18q49 -18 80 -48q33 -30 49 -70q8 -20 13 -41t4 -44q-1 -55 -25 -97q-24 -41 -74 -62q128 -47 128 -194q0 -54 -20 -102q-20 -47 -56 -80q-38 -34 -89 -51q-53 -18 -119 -18q-59 0 -104 14
q-43 15 -72 44q-31 29 -47 72q-9 22 -16 48t-12 55q-1 5 -3 11t-4 11t-5 10t-5 10q-3 5 -5.5 8.5t-4.5 6.5l-5 8q36 -18 80 -27t80 -3q-19 -29 -16 -68t21 -72q19 -33 51 -56t70 -21q34 1 61 18t47 46t30 62q11 36 11 71q0 65 -32 103q-31 37 -113 40q-24 1 -40.5 3.5
t-24.5 6.5q-19 9 -20 31q-2 16 15 30q16 13 48 15q70 3 102 38q31 34 36 91q2 14 0.5 27.5t-3.5 27.5q-6 29 -20 52q-13 23 -37 39q-23 16 -57 19q-43 4 -85 -13q-41 -18 -65 -60q-9 -17 -14 -37q-2 -10 -3.5 -20t-0.5 -20q0 -19 8 -38q7 -18 24 -30q14 -11 28 -12
q14 -3 29 -1q12 3 24 11q10 7 15 19q3 8 -1 9q-2 2 -6 1q-3 -1 -7 -3q-8 -2 -18 3q-9 4 -18 13q-11 13 -11 28q-3 15 4 33q7 16 21 28q14 13 36 14q19 1 34 -6q14 -7 24 -22q10 -13 13 -32q4 -17 1 -36q-5 -23 -18 -42q-7 -10 -14.5 -18.5t-17.5 -15.5q-21 -14 -43 -20
q-24 -7 -52 -4q-49 6 -82 43q-34 37 -34 95z" />
    <glyph glyph-name="four" unicode="4" horiz-adv-x="684" 
d="M83 296q15 -1 33 -2t39 -2q22 -1 43.5 -2t43.5 -2q23 -1 44.5 -1.5t41.5 -1.5h38t31 1q1 15 1 33.5v41.5v48t-1 52t-1.5 55.5t-1.5 57.5q-1 30 -2 59.5t-3 58.5q-31 -60 -69 -116q-20 -29 -40 -55.5t-40 -52.5t-41 -49.5t-41 -45.5t-39 -41zM339 -5q10 2 18 5.5t15 7.5
q13 7 15 25l9 168q-26 1 -65 3q-20 1 -40 1.5t-42 0.5q-44 0 -87 -3q-23 -2 -43 -4t-39 -6q-12 -2 -24 -6q-14 -5 -26 -12q7 19 10 37q3 16 3 30q0 16 -4 29q-2 8 -4.5 16.5t-5.5 18.5q24 24 48.5 51.5t50.5 58.5t51 63t49 65t46.5 66t42.5 66q40 66 69 123q8 -2 18.5 -3.5
t22.5 0.5q22 0 47 5q12 2 22.5 4t19.5 4q10 2 16 3t9 2q-2 -6 -12 -16q-9 -9 -12 -36q-1 -10 -2 -23t-2 -30t-2 -36t-2 -40t-2 -43.5t-1 -45.5q-2 -24 -2 -47.5t-1 -46.5v-88q0 -20 0.5 -38t1.5 -34h12.5t13.5 1q8 1 15 1.5t14 1.5t13.5 2t12.5 2q15 3 21 7q4 1 9 9l12 15
q3 5 6 8.5t5 7.5q6 7 11 9q0 4 -5 -21q-3 -11 -5.5 -24.5t-4.5 -29.5q-5 -32 -6 -64q0 -34 9 -53q-12 15 -21 19q-12 7 -22 8q-18 3 -42 9t-48 1l6 -161q0 -16 13 -30q13 -17 19 -22q-16 3 -41 6q-22 4 -49 6q-13 2 -27 2.5t-28 -0.5q-14 0 -29 -1.5t-30 -3.5z" />
    <glyph glyph-name="five" unicode="5" horiz-adv-x="648" 
d="M184 300q29 -1 55 -11q27 -11 42 -25q19 -17 27 -35q9 -21 8 -40q-2 -33 -21 -49q-20 -17 -47 -18q-17 0 -26 5q-11 6 -17 14q-8 9 -9 18q-3 9 -3 15q0 10 -3 24q-3 13 -16 20q-6 2 -18 4q-10 0 -22 -5q-12 -7 -19 -20q-8 -13 -10 -39q-1 -25 14 -53q8 -14 19 -25.5
t25 -21.5q28 -20 66 -30q20 -6 40.5 -6.5t43.5 2.5q18 3 34 9.5t30 17.5q27 21 46 56q10 17 17 35t12 38q10 39 10 82q0 21 -1.5 41t-5.5 40t-10.5 37t-14.5 32q-18 31 -46 49q-29 18 -71 18q-25 0 -46 -10q-11 -5 -22 -12t-21 -15t-19.5 -17t-17.5 -19q-18 -20 -33 -39
q-29 8 -64 3q-37 -6 -68 -18q20 10 37 47q17 38 27 85q11 50 18 103q4 28 7 53t5 48q4 46 6 78q1 31 3 36q29 -2 85 -3q29 -2 60 -2.5t65 -1.5q67 0 133 3q68 5 112 16q-2 -7 -2.5 -15t-1.5 -18q0 -10 0.5 -19.5t1.5 -19.5q1 -20 6 -40q5 -21 12 -34q-17 18 -49 29
q-16 5 -33.5 8.5t-37.5 5.5t-40.5 3t-42.5 1t-43 -0.5t-41 -1.5q-21 -1 -40.5 -2t-37.5 -3q-19 -2 -34.5 -2.5t-28.5 -1.5q0 -11 -0.5 -23.5t-1.5 -26.5q0 -14 -1 -28t-3 -28q-3 -29 -9 -61q-4 -16 -8.5 -31t-9.5 -31q10 6 19 12t17 11t17.5 10t20.5 9q23 10 49 14
q28 6 70 6q32 0 60 -5t54 -14q50 -19 88 -55q37 -36 57 -86q20 -52 20 -112q0 -66 -21 -118q-21 -53 -59 -91q-40 -38 -93 -59q-54 -21 -120 -21q-59 0 -110 12q-51 14 -88 37q-39 26 -59 61q-21 37 -19 85q2 35 14 59q7 13 15.5 23t18.5 18q19 15 46 23q26 8 52 6z" />
    <glyph glyph-name="six" unicode="6" horiz-adv-x="650" 
d="M163 409v-32.5t1 -34.5t3 -36t5 -35q4 -18 8.5 -35t10.5 -34q12 -34 31 -59q20 -26 47 -41q28 -15 66 -15q69 0 104 45q36 45 36 123q0 38 -11 69q-10 29 -30 49q-19 19 -47 27q-27 7 -60 0q-23 -4 -43 -21t-33 -36q-15 -22 -24 -43q-9 -22 -12 -41q-30 51 -24 89
q5 25 16 40q11 16 29 31q16 13 38 21q19 8 42 13q51 9 98 2q51 -8 90 -31t65 -66q27 -44 27 -102q0 -60 -18 -100q-10 -20 -23 -37t-30 -30q-34 -27 -83 -39q-50 -12 -109 -12q-136 0 -211 93q-77 95 -77 273q0 106 21 187q22 82 61 137t95 84t125 29q53 0 96 -17
q40 -16 70 -44q28 -27 42 -60q15 -35 15 -67q0 -58 -33 -95q-34 -37 -83 -43q-27 -3 -51 3q-24 7 -44 21q-18 12 -32 33q-13 19 -18 43q-3 18 0 36q5 20 13 32q5 7 11 12.5t14 9.5q15 7 34 6q22 -1 36 -14t20 -27q7 -15 5 -33q0 -16 -11 -29q-9 -9 -18 -13q-11 -5 -18 -2
q-2 1 -3.5 1t-3.5 1q-5 1 -6 0q-4 -1 -1 -10q3 -11 14 -19q12 -9 25 -10q12 -3 29 -1q15 3 28 13q15 11 23 30q7 18 9 38q1 10 -0.5 20t-3.5 20q-5 20 -14 37q-24 42 -64 60t-86 13q-42 -5 -72 -32q-33 -30 -55 -78q-23 -50 -36 -117q-14 -68 -15 -150z" />
    <glyph glyph-name="seven" unicode="7" horiz-adv-x="625" 
d="M123 -54q9 5 16 10t12 9q9 6 12 25q30 187 116 350q43 82 99.5 159.5t126.5 152.5q-20 3 -42 5t-47 3q-26 2 -52 2t-54 -1q-28 0 -56 -2t-56 -5q-28 -4 -54 -8.5t-51 -10.5q-5 -2 -9.5 -3.5t-8.5 -5.5l-7.5 -7.5t-5.5 -7.5q-3 -5 -5.5 -9t-4.5 -8t-4 -7t-4 -5
q2 14 3.5 27t3.5 24t3 21.5t3 20.5v19.5t-1 19.5q-2 19 -9 45q31 -5 64.5 -8t70.5 -5q75 -4 151 -3q38 0 75.5 1t72.5 3q72 4 126 12q-7 -27 -9 -59q0 -33 7 -57q-135 -144 -214 -304q-80 -161 -109 -355q-2 -6 15 -17q15 -11 36 -19q-15 2 -28.5 4t-26.5 4q-26 3 -51 3
t-50 -3q-13 -2 -26.5 -4t-27.5 -6z" />
    <glyph glyph-name="eight" unicode="8" horiz-adv-x="599" 
d="M161 232q-1 -82 31 -131q35 -50 105 -50q38 0 64 13q29 14 44 35q19 23 26 54q8 34 8 66q0 17 -2 32.5t-6 31.5q-8 31 -24 54q-16 24 -43 38q-28 14 -64 14q-35 0 -60 -12q-27 -13 -43 -33q-19 -22 -26 -50q-8 -27 -10 -62zM297 806q57 3 103 -11q45 -15 76 -43t46 -66
q16 -38 16 -82q0 -59 -23 -100q-25 -42 -76 -64q130 -52 130 -197q0 -55 -18 -100q-20 -47 -54 -78q-35 -32 -84 -50q-50 -18 -113 -18q-64 0 -113 18t-84 50t-53 77q-19 45 -19 101q0 145 130 197q-102 47 -101 164q0 20 9 43q10 25 24 43q15 21 35 38q22 17 44 29
q-2 -5 -4 -11t-3 -14q-3 -18 -2 -34q2 -21 7 -37q6 -18 18 -30q-5 -30 0 -59q2 -14 7 -27t12 -24q16 -24 38 -36q23 -14 55 -14q31 0 52 12q21 13 35 34q13 19 19 47q6 27 6 54q0 28 -6 52t-20 43q-13 17 -36 28q-24 11 -54 11q-21 0 -32 -4q-12 -5 -18 -9q-7 -6 -9 -11
q-2 -8 -2 -9q-2 -8 3 -15q5 -8 10 -1q5 6 18 11q12 4 24 3q20 -2 37 -14q18 -13 20 -38q2 -26 -15 -41q-16 -16 -46 -18q-16 0 -31 4q-19 5 -31 13q-15 11 -25 26q-11 16 -15 39q-3 13 -1 34q3 20 15 38q11 17 36 31q24 13 63 15z" />
    <glyph glyph-name="nine" unicode="9" horiz-adv-x="609" 
d="M462 420q1 23 -0.5 48.5t-3.5 53.5q-6 57 -24 105q-18 49 -52 82q-35 33 -92 33q-70 0 -104 -45q-36 -45 -36 -123q0 -40 10 -69t30 -49q18 -18 47 -26q28 -7 61 0q12 3 22.5 8t20.5 13q19 16 33 36q15 21 23 42q10 21 13 41q30 -51 24 -89q-5 -25 -17 -41
q-14 -20 -33 -33q-10 -7 -20 -12.5t-21 -9.5q-23 -9 -43 -12q-51 -8 -99 0q-48 7 -87 32q-39 27 -61 66q-11 21 -17.5 46.5t-6.5 55.5q0 58 18 99q20 44 53 68q34 27 83 39t109 12q66 0 120 -23q54 -24 91 -70t57 -115q20 -71 20 -158q0 -107 -21 -188q-23 -81 -61 -136
q-40 -57 -95 -84q-56 -29 -125 -29q-53 0 -96 17q-40 16 -70 44q-29 27 -42 60q-15 34 -15 67q0 57 33 95q34 37 83 43q27 3 51 -3q24 -7 44 -21q18 -12 32 -33q13 -19 18 -43q3 -18 0 -36q-5 -20 -13 -32q-5 -7 -11 -12.5t-14 -9.5q-15 -7 -34 -6q-22 1 -36 14t-20 27
q-8 17 -5 33q0 16 11 29q9 9 18 13q11 5 18 2q2 -1 3.5 -1t3.5 -1q4 -2 6 0t1 10q-3 11 -14 19q-12 9 -25 10q-12 3 -29 1q-15 -3 -28 -13q-17 -12 -24 -30t-9 -38q0 -18 5 -40q4 -19 14 -37q24 -42 64 -60t86 -13q41 5 71 32q34 29 56 78q23 50 36 116q13 67 15 151z" />
    <glyph glyph-name="colon" unicode=":" horiz-adv-x="241" 
d="M47 36q0 22 21 39q23 17 53 17t52 -16t22 -40q0 -23 -21 -39q-22 -16 -53 -16q-32 0 -52 16q-22 16 -22 39zM48 454q0 22 21 39q22 16 53 16q32 0 52 -16q22 -16 22 -39t-21 -39q-22 -16 -53 -16q-32 0 -52 16q-22 16 -22 39z" />
    <glyph glyph-name="semicolon" unicode=";" horiz-adv-x="241" 
d="M45 454q0 23 22 39t52 16q32 0 52 -16q22 -16 22 -39t-21 -39q-22 -16 -53 -16q-30 0 -52 16t-22 39zM151 -90q-12 -14 -22 -20q-7 -4 -13 -7.5t-11 -5.5q-14 -7 -22 -8q-11 -3 -14 -3q-9 -2 -12 6q-3 7 12 12q31 9 41 40q4 15 3 30q0 16 -25 30q-16 10 -25 20
q-11 11 -11 26q0 21 19 36t49 15q29 0 47 -15q19 -15 22 -36q4 -26 -5 -60q-11 -35 -33 -60z" />
    <glyph glyph-name="semicolon" unicode="&#x37e;" horiz-adv-x="241" 
d="M45 454q0 23 22 39t52 16q32 0 52 -16q22 -16 22 -39t-21 -39q-22 -16 -53 -16q-30 0 -52 16t-22 39zM151 -90q-12 -14 -22 -20q-7 -4 -13 -7.5t-11 -5.5q-14 -7 -22 -8q-11 -3 -14 -3q-9 -2 -12 6q-3 7 12 12q31 9 41 40q4 15 3 30q0 16 -25 30q-16 10 -25 20
q-11 11 -11 26q0 21 19 36t49 15q29 0 47 -15q19 -15 22 -36q4 -26 -5 -60q-11 -35 -33 -60z" />
    <glyph glyph-name="less" unicode="&#x3c;" horiz-adv-x="833" 
d="M704 106v-75l-575 236v63l575 236v-75l-473 -193z" />
    <glyph glyph-name="equal" unicode="=" horiz-adv-x="833" 
d="M124 167v68h585v-68h-585zM124 361v68h585v-68h-585z" />
    <glyph glyph-name="greater" unicode="&#x3e;" horiz-adv-x="833" 
d="M129 31v75l474 192l-474 193v75l575 -236v-63z" />
    <glyph glyph-name="question" unicode="?" horiz-adv-x="516" 
d="M35 612q-1 31 12 62q7 16 17 29.5t24 26.5t30 23t35 18q20 8 41.5 12t44.5 5q50 1 95 -14q23 -8 42 -18t36 -22q34 -26 50 -60q18 -34 15 -71q-4 -51 -31 -93q-28 -43 -58 -82q-16 -20 -30.5 -41t-28.5 -43q-14 -23 -22.5 -48.5t-10.5 -54.5l-10 -111l-67 -3l-10 119
q-3 28 8 61q11 30 30 61q10 16 20 31t21 30q11 16 22 31t21 29q10 15 18.5 30t15.5 29q13 28 15 57q1 32 -10 58q-11 24 -32 40q-20 15 -45 21q-13 4 -26 5t-27 1q-28 0 -52 -10q-27 -11 -45 -25q-21 -18 -31 -36q-12 -20 -12 -41q0 -22 10 -33t25 -18q16 -7 27 -7
q12 -3 21 -1q-2 5 -4.5 11.5t-4.5 13.5q-5 11 -3 36q2 17 15 35q13 19 41 22q33 3 52 -12q21 -16 23 -45q0 -8 -1 -16t-4 -17q-3 -10 -8 -19t-11 -17q-13 -16 -35 -30q-24 -14 -52 -17q-26 -3 -55 2q-25 6 -49 20q-23 15 -36 36q-15 22 -16 50zM172 25q0 22 21 39
q22 16 52 16q32 0 52 -16q22 -16 22 -39t-21 -39q-22 -16 -53 -16t-51 16q-22 16 -22 39z" />
    <glyph glyph-name="at" unicode="@" horiz-adv-x="1000" 
d="M719 473l-71 -281q-1 -4 -1.5 -7t-1.5 -7q-1 -5 -1 -15q0 -24 13 -34q13 -12 36 -12q29 0 55 15q14 8 25.5 16.5t21.5 18.5q43 40 62 93q21 55 21 112q0 73 -28 125q-29 54 -75 88q-47 37 -108 53q-62 18 -126 18q-85 0 -163 -29q-76 -28 -134 -82q-57 -53 -89 -127
q-33 -74 -33 -164q0 -83 30 -147q29 -63 81 -107q51 -42 121 -65q69 -22 148 -22t159 23q79 24 144 70l27 -40q-143 -109 -324 -109q-93 0 -174 25q-84 26 -145 75q-32 25 -56.5 56t-43.5 68q-37 74 -37 174q0 103 39 189q41 86 107 145q66 60 157 94q90 33 190 33
q74 0 146 -21q74 -23 130 -64q58 -43 92 -105q36 -63 36 -145q0 -59 -18 -117q-19 -57 -54 -104q-35 -45 -87 -74t-116 -29q-48 0 -73 18t-25 68q-25 -41 -61 -63q-35 -22 -86 -22q-78 0 -115 43q-38 44 -38 119q0 52 16 99q17 51 46 87q15 19 33 34.5t40 26.5q44 23 98 23
q41 0 71 -18q31 -19 47 -55l28 56h64zM610 347q-7 37 -31 64q-24 26 -66 26q-41 0 -71 -21q-32 -24 -49 -54q-20 -32 -29 -71q-10 -37 -10 -73q0 -45 21 -76t70 -31q46 0 75 24q30 25 46 60q17 38 26 77q10 40 18 75z" />
    <glyph glyph-name="A" unicode="A" horiz-adv-x="695" 
d="M491 197q-2 8 -5.5 16t-8.5 18q-9 19 -22 35q-7 8 -15 15t-16 12q-17 11 -37 11q-16 0 -28 -5q-11 -5 -16 -11q-7 -9 -8 -14q-2 -4 -2.5 -7.5t-1.5 -5.5q-3 -9 5 -11q9 -1 23 5q7 3 14 2q5 -1 9 -1.5t8 -2.5t7.5 -4.5t6.5 -6.5q4 -4 5.5 -8.5t3.5 -9.5q3 -16 -8 -32
q-12 -18 -50 -24q-14 -3 -30 2q-15 4 -27 12q-7 4 -12 9l-10 10q-9 10 -12 22q-5 -18 -9 -35t-8 -33q-9 -33 -15 -57q-3 -13 -5.5 -23l-4.5 -18q-4 -15 -4 -20q-2 -17 3 -31q6 -13 14 -23l10 -10t11 -9q-27 4 -60 6q-17 1 -34.5 1.5t-35.5 0.5q-17 0 -34 -0.5t-34 -1.5
q-35 -2 -60 -6q8 2 16 5l16 6q13 4 27 12q7 4 13.5 7.5t11.5 8.5q12 9 30 51q9 21 18 46.5t19 55.5q10 31 19.5 64t19.5 70t18 74l16 74t13.5 68.5t9.5 57.5t6.5 48.5t3.5 40.5q3 37 0 60q-5 22 -12 39q-4 10 -14 18l-18 15q-5 4 -11 7t-12 7q23 -4 46 -6t48 -4t49.5 -3
t49.5 -1q49 0 94 3q23 2 43.5 4.5t38.5 6.5q-5 -4 -9 -7.5t-9 -8.5q-7 -7 -14 -19q-7 -10 -12 -25q-5 -14 -3 -47q2 -17 4 -35.5t4 -38.5q3 -20 6 -41t7 -43t7.5 -41.5t5.5 -36.5q4 -26 12 -63q4 -19 8 -39t9 -40l21 -84q6 -22 12 -41.5t11 -36.5q10 -34 21 -61
q10 -26 18 -33q9 -8 18 -15.5t18 -12.5q10 -5 18 -9.5t16 -8.5q19 -8 34 -12q-42 10 -79 15q-18 2 -35 3.5t-34 1.5q-16 0 -32 -1.5t-32 -3.5q-34 -5 -71 -15q5 4 10.5 8t10.5 9q7 7 14 19q6 10 6 26q0 5 -1.5 15.5t-3.5 26.5t-7.5 39t-14.5 54zM296 343q12 14 38 25
q13 5 28.5 7t34.5 2q17 0 29 -4q7 -2 13.5 -4.5t13.5 -5.5q-7 29 -13.5 56.5t-13.5 53.5q-7 27 -12.5 51t-10.5 45q-6 25 -11.5 48t-10.5 45q-7 -24 -13.5 -49.5t-13.5 -51.5q-12 -45 -27 -102q-8 -29 -15.5 -58t-15.5 -58z" />
    <glyph glyph-name="B" unicode="B" horiz-adv-x="644" 
d="M222 0q-52 12 -99 10q-23 -1 -46.5 -3.5t-48.5 -6.5q7 7 15 20q7 13 9 24q4 39 6.5 81.5t4.5 89.5q2 48 3.5 94t1.5 93v56.5t-1 53.5v51.5t-2 46.5q0 22 -1 41t-3 36q-3 34 -6 50q-2 11 -5 20t-5 16q-3 7 -7.5 13t-9.5 13q65 -14 140 -14q38 0 83.5 3.5t98.5 10.5
q58 7 96 -8q37 -15 57 -42q20 -26 28 -60q7 -31 7 -60q0 -31 -10 -58q-5 -14 -11 -28t-14 -27q-15 -27 -33 -48q-17 -21 -36 -37q34 -6 66 -21q16 -8 30 -18t27 -23q25 -26 39 -60q15 -35 15 -80q0 -56 -21 -99q-23 -45 -56 -72q-35 -30 -76 -45q-42 -16 -86 -16
q-29 0 -54 6q-28 7 -49 15q-11 5 -21.5 9.5t-20.5 9.5t-18 10t-15 10q1 -13 8 -28q4 -7 8.5 -14t11.5 -15zM191 700q-2 -11 -3.5 -24.5t-3.5 -30.5q-5 -35 -6 -75q-1 -20 -2 -41.5t-1 -44.5q-2 -23 -2 -46v-46v-47t2 -45q0 -23 1.5 -46.5t3.5 -49.5q5 -10 12 -20t17 -20
q21 -22 45 -38q27 -19 54 -29q31 -11 62 -11q17 0 33 2t31 7q29 10 52 30t36 46q14 30 14 62q0 38 -14 66q-13 28 -35 45q-11 8 -23 14.5t-25 10.5q-29 8 -52 8q-26 0 -47 -7q-22 -7 -38 -19q-16 -13 -25 -30t-9 -37q0 -16 5 -28q4 -12 12 -18q6 -6 16 -10q7 -3 14 -3
q-2 17 1 30q5 17 13 26q8 11 21 19q7 4 14 6.5t15 3.5q27 3 51 -18q24 -22 25 -52q1 -10 -2 -28q-5 -18 -13 -30q-11 -15 -26 -24q-18 -12 -42 -13q-28 -1 -58 6q-28 7 -55 26q-24 17 -41 46t-17 64t24 65q23 30 59 55q12 8 24 18t23 22q22 25 42 54q10 14 17.5 29.5
t14.5 32.5q14 35 18 68q3 29 -5 47q-9 20 -26 32q-16 13 -41 18q-24 6 -51 6t-54 -10q-29 -10 -55 -24z" />
    <glyph glyph-name="C" unicode="C" horiz-adv-x="699" 
d="M555 603q-5 29 -18 56t-34 48q-21 20 -49 31q-28 10 -61 6q-20 -3 -38.5 -11t-37.5 -22t-36 -32t-31 -41q-31 -46 -47 -105q-18 -60 -18 -129q0 -68 14 -127q15 -58 39 -100q25 -42 57 -70q31 -27 69 -38q32 -8 58 -8q14 0 27 1.5t26 3.5q13 3 25 7t23 9t20.5 10.5
t17.5 10.5q21 15 40 36q19 19 33 41q13 22 24 42q5 11 9 20.5t8 17.5q3 8 6 5q1 0 0 -6q-3 -11 -6 -24t-7 -30q-8 -35 -12 -70q-6 -36 -9 -69q-5 -33 -3 -53q-10 13 -25 21t-39 4q-7 -1 -14.5 -3.5t-15.5 -6.5q-20 -10 -45 -17q-27 -7 -65 -12q-19 -3 -42 -2t-49 5
q-68 9 -129 39t-106 81q-45 49 -71 123q-26 72 -24 165q1 89 35 162q35 74 86 124q52 50 117 79q32 14 64 22t64 9q63 2 108 -16q46 -18 78 -48q31 -32 48 -69q16 -39 18 -77q1 -51 -14 -101q-15 -47 -42 -85q-14 -19 -29.5 -33.5t-32.5 -25.5q-34 -22 -73 -22q-41 0 -67 19
q-28 19 -45 47q-8 14 -14.5 27.5t-10.5 27.5q-8 30 -8 47v20.5t2 21.5q5 24 13 42q10 22 25 34q8 7 18.5 11.5t23.5 6.5q22 3 37 -3q16 -7 25 -19q9 -10 14 -27q4 -15 4 -30q0 -31 -15 -52q-15 -22 -33 -23q-15 -2 -20 6q-6 8 -13 9q-3 2 -7 -1q-4 -2 -5 -9t2 -22
q4 -14 12 -27q10 -14 22 -24q13 -10 34 -10q30 0 51 20q24 24 38 53q8 16 13.5 33t9.5 34q8 35 3 62z" />
    <glyph glyph-name="D" unicode="D" horiz-adv-x="778" 
d="M228 710q-2 -13 -3.5 -28t-3.5 -34t-3 -38.5t-2 -40.5q-2 -22 -3 -44t-1 -45q-2 -23 -2 -45v-43v-27t-1 -26v-53q22 51 64 84q43 32 90 32q36 0 60 -15q26 -15 39 -37q15 -23 21 -46q6 -24 6 -40q0 -26 -10 -51q-5 -11 -10.5 -20t-11.5 -17q-13 -16 -31 -24t-33 -8
q-33 0 -55 16q-23 17 -23 55q0 19 6 34q8 17 16 28q10 14 19 20q11 8 19 11q6 1 11 10q5 8 5 16t-7 14q-8 6 -24 5q-42 -2 -70 -43q-29 -43 -29 -113q0 -34 10 -58q10 -26 31 -45q21 -20 51 -27q33 -8 70 -2q32 4 61 42t48 91q10 28 18 57.5t13 61.5q6 32 9.5 63.5t3.5 62.5
q0 59 -14 112q-13 51 -35 90q-23 38 -49 60q-29 24 -52 28q-24 5 -50 3l-26 -2t-26 -3t-25.5 -4.5t-24.5 -4.5q-23 -5 -46 -12zM215 91q1 -11 2 -22.5t2 -22.5q2 -11 3 -23t3 -23q-37 10 -61 11q-13 2 -25.5 2.5t-23.5 -0.5q-12 0 -24.5 -1t-25.5 -3t-28.5 -4.5t-32.5 -4.5
q49 10 66 21q17 12 19 23q4 39 6.5 81.5t4.5 89.5q2 48 3.5 94t1.5 93v56.5t-1 53.5v51.5t-2 46.5q0 22 -1 41t-3 36q-3 34 -6 50q-5 23 -23 37q-10 7 -24 13.5t-33 11.5q76 -8 153 -9q38 -1 74 -0.5t69 0.5q33 2 61.5 2t53.5 1q50 2 73 -3q7 -2 16 -5.5t21 -8.5
q12 -6 25 -14t27 -18q14 -11 28 -23.5t28 -26.5q29 -30 52 -67q24 -38 38 -85q7 -23 10.5 -49t2.5 -54q-1 -91 -32 -170q-31 -81 -73 -138q-22 -30 -44.5 -54t-47.5 -42q-50 -36 -91 -42q-24 -4 -45.5 -4t-41.5 2t-37 7t-31 12q-29 13 -51 35q-21 20 -35 46z" />
    <glyph glyph-name="E" unicode="E" horiz-adv-x="659" 
d="M627 134q-2 -26 -9 -50q-7 -23 -23 -42q-14 -18 -38 -31q-21 -13 -53 -16q-17 -2 -35.5 -2.5t-38.5 1.5q-20 0 -41 1.5t-41 3.5q-21 2 -41.5 4t-40.5 4q-41 4 -75 6q-42 2 -83 0q-21 -1 -42.5 -3.5t-43.5 -6.5q36 10 56 25q19 13 24 37q2 8 3 20.5t2 29.5q2 17 3 36t2 41
q1 23 1.5 47.5t1.5 50.5v111q0 46 -1 92t-3 93q-2 48 -4.5 90.5t-7.5 81.5q-1 10 -19 23q-16 12 -67 21q70 -6 143 -9q36 -2 72 -3t73 -1q35 0 68.5 0.5t67.5 1.5q34 2 67 4l66 4q-2 -14 -3 -32t-2 -38t1 -40t6 -39q-2 0 -3 7q-2 4 -4 8.5t-4 9.5q-3 5 -6.5 10t-7.5 10
q-9 10 -21 15q-11 4 -33 6q-11 2 -23 2.5t-26 1.5q-28 1 -59 0h-30.5t-28.5 -1t-27.5 -1t-24.5 -1q-12 -1 -21 -1t-16 -1q-8 -63 -12 -126q-2 -32 -3 -63t-2 -63q24 -5 54 -9q15 -2 30 -3.5t29 -0.5t25.5 2t21.5 3q23 5 38 9q9 2 17.5 5t16.5 6t16.5 6t17.5 5q-5 -12 -6 -27
q-2 -8 -2.5 -16.5t-1.5 -16.5v-17.5t2 -16.5q0 -8 2 -15.5t4 -14.5q-10 2 -18.5 4t-16.5 4q-17 5 -32 6q-8 2 -17.5 2.5t-19.5 2.5q-10 0 -22 1t-26 2q-13 1 -27 0.5t-29 -2.5q-16 -2 -29.5 -5t-26.5 -5v-37.5t2 -38.5q0 -20 1 -38.5t2 -36.5q1 -19 2 -36t2 -33q3 -34 6 -56
q8 -4 19 -8t24 -8q27 -9 57 -15q32 -6 65 -9q34 -5 66 -3q14 1 25.5 2.5t21.5 5.5q20 8 33 19q12 11 19 26q7 17 8 31q1 19 -3 36q-5 18 -13 30q-9 12 -24 20q-7 4 -15 5t-18 1q-17 0 -28 -8q-12 -11 -16 -19q-5 -12 -4 -20q0 -8 5 -10q4 -1 7 2q5 5 7 8q6 6 10 8q6 4 17 1
q19 -4 27 -26q7 -20 2 -38q-4 -15 -20 -28q-15 -12 -43 -9q-11 2 -23 6q-12 6 -22 16t-16 25t-6 35q0 21 7 39q4 10 9.5 18t12.5 16q15 15 35 23q21 9 46 8q30 -1 53 -14q11 -7 20.5 -14.5t17.5 -17.5q14 -18 22 -44q4 -13 6 -25.5t1 -26.5z" />
    <glyph glyph-name="F" unicode="F" horiz-adv-x="573" 
d="M577 668q0 -26 -9 -50q-11 -25 -26 -43q-17 -20 -39 -32q-24 -13 -47 -13q-24 0 -45 8q-20 7 -34 22q-13 13 -21 32t-8 38q0 20 6 35q6 14 15 25q11 11 22 15q13 7 24 8q27 3 42 -9q16 -14 20 -28q6 -16 -2 -38q-8 -23 -27 -27q-11 -3 -17 0q-7 3 -9 7q-3 3 -7 9
q-4 4 -8 3q-5 -2 -6 -10q0 -7 5 -19t15 -19q10 -9 29 -9q20 0 33 7q14 8 23 21q8 12 13 30q4 15 4 35q-1 36 -26 61q-23 25 -81 23q-31 -2 -59 -6q-15 -3 -28.5 -6t-26.5 -6q-13 -4 -24.5 -7t-21.5 -7t-18 -7t-13 -5q-2 -12 -3 -26t-2 -30t-2 -33t-2 -35q-1 -19 -2 -37.5
t-1 -37.5q-2 -20 -2 -38.5t-1 -37.5q13 -2 26.5 -5t29.5 -5q31 -5 57 -3q29 2 47 3q10 1 19.5 2t17.5 3t16 3t16 3t16.5 4t18.5 4l-4 -14t-2 -15q-3 -15 -1 -34q0 -9 0.5 -17t1.5 -16q2 -8 4 -15t4 -13q-9 3 -17.5 6t-16.5 5q-19 7 -34 11q-16 6 -38 9q-11 2 -22.5 3
t-25.5 2t-29 0t-30 -3t-28.5 -5t-25.5 -5q1 -35 3 -70l4 -70t5.5 -70t8.5 -70q1 -13 19 -32t53 -27q-14 2 -30 4t-34 4q-38 3 -77 3q-20 0 -40 -0.5t-40 -1.5q-41 -3 -78 -9q49 10 66 21q17 12 19 23q4 39 6.5 81.5t4.5 89.5q2 48 3.5 94t1.5 93v56.5t-1 53.5v51.5t-2 46.5
q0 22 -1 41t-3 36q-3 34 -6 50q-5 23 -23 37q-10 7 -24 13.5t-33 11.5q22 -4 43.5 -6t41.5 -4h42t42 1q35 2 69 3.5t68 5.5t68 6t69 2q30 0 53 -12q25 -12 39 -31q15 -18 23 -45q7 -24 7 -51z" />
    <glyph glyph-name="G" unicode="G" horiz-adv-x="729" 
d="M696 265q-16 0 -24 -23q-7 -20 -10 -57q-1 -13 -1.5 -27t-0.5 -28v-27.5t1 -26.5v-24.5t1 -21.5t1 -17t1 -11l-3 -2l-12 21q-5 8 -12 14q-7 7 -16 9q-14 2 -31 -12q-17 -13 -47 -27q-30 -15 -74 -24q-44 -10 -114 -1q-65 9 -122 39q-59 30 -102 81q-44 51 -69 123
q-26 73 -26 165q0 87 29 165q28 75 79 134q50 57 119 91q67 34 146 36q61 1 103 -11q40 -13 65 -35q25 -23 36 -48q12 -27 15 -51q3 -22 -2 -51q-6 -27 -20 -51t-35 -41q-23 -17 -51 -20q-55 -5 -85 20q-30 24 -30 63q0 35 21 52q22 18 49 18q11 0 23 -5q12 -4 20 -11
q10 -8 18 -15q10 5 15 10q2 2 4.5 5.5t4.5 7.5q5 10 5 21q0 20 -13 38t-32 28q-20 12 -46 17q-27 5 -54 2q-46 -6 -86 -39q-41 -33 -72 -84q-32 -53 -51 -117t-19 -135q0 -35 3.5 -67t10.5 -61q13 -56 38 -100t57 -69q32 -26 70 -34q37 -7 68 6q16 7 30 16t25 22
q22 25 36 61q13 35 13 74q0 23 -10 27q-12 5 -27 5h-119v75q37 -8 81 -12q23 -2 46 -3t46 -1q22 0 42.5 1t40.5 3q38 4 74 12v-72h-21z" />
    <glyph glyph-name="H" unicode="H" horiz-adv-x="602" 
d="M222 0q-26 5 -49.5 7.5t-45.5 3.5q-43 3 -99 -11q7 7 15 20q7 13 9 24q4 39 6.5 81.5t4.5 89.5q2 48 3.5 94t1.5 93v56.5t-1 53.5v51.5t-2 46.5q0 22 -1 41t-3 36q-3 34 -6 50q-2 11 -5 20t-5 16q-3 7 -7.5 13t-9.5 13q29 -8 52 -9q24 -3 46 -3q23 0 46 3q12 2 24.5 4.5
t25.5 4.5q-4 -7 -8 -13.5t-8 -12.5q-9 -14 -13 -33q-3 -19 -6 -52q-5 -35 -6 -77q-2 -22 -3 -44.5t-2 -46.5q-1 -25 -1.5 -48t-1.5 -46q17 41 47 67q30 27 75 27q43 0 72 -28t49 -75v54t-1 52t-1 49t-2 44q0 21 -1 39t-2 34q-3 31 -6 48q-2 11 -5 20t-5 16q-3 7 -7.5 13
t-9.5 13q13 -4 25.5 -7.5t24.5 -5.5q24 -4 47 -6t47 3q12 2 24.5 6.5t25.5 9.5q-4 -7 -8 -13.5t-8 -12.5q-9 -14 -13 -33q-2 -10 -3.5 -24.5t-3.5 -34.5t-3.5 -41.5t-3.5 -45.5q-2 -25 -3 -50.5t-1 -51.5q-2 -26 -2 -51.5v-48.5v-42.5t1 -48.5t1.5 -52t1.5 -52
q2 -27 3.5 -53t3.5 -52t4.5 -49.5t5.5 -43.5q3 -28 28 -59q-29 4 -81 6q-55 0 -113 -6q7 7 15 20q7 13 9 24q2 13 3 28.5t2 35.5t1.5 41t0.5 43t-0.5 43.5t-1.5 42.5q-1 22 -3 40t-4 34q-2 17 -5.5 32.5t-7.5 29.5q-9 30 -21 51q-13 22 -30 34q-17 13 -40 13q-19 0 -38 -11
q-18 -11 -30 -30q-13 -19 -19 -46q-7 -27 -3 -58q2 -17 5.5 -31t8.5 -25q11 -22 24 -32q15 -11 25 -14q12 -5 18 -3q7 1 12 6q2 3 3 6t2 5q0 10 -11 13q-5 2 -12 5t-15 10q-15 12 -20 40q-1 7 -1.5 13t0.5 13t2 13.5t3 11.5q5 12 14 20q9 9 23 11t25 -5q10 -7 18 -20
q7 -11 12 -26q4 -15 6 -26q1 -5 1 -14v-20q0 -21 -5 -46q-6 -23 -18 -43q-14 -20 -35 -24q-26 -5 -57 13q-29 17 -53 53q2 -40 6 -77.5t9 -74.5q3 -28 28 -59z" />
    <glyph glyph-name="I" unicode="I" horiz-adv-x="326" 
d="M231 59q1 -13 19 -32t53 -27q-14 2 -30 4t-34 4q-38 3 -77 3q-20 0 -40 -0.5t-40 -1.5q-41 -3 -78 -9q49 10 66 21q17 12 19 23q4 39 6.5 81.5t4.5 89.5q2 48 3.5 94t1.5 93v56.5t-1 53.5v51.5t-2 46.5q0 22 -1 41t-3 36q-3 34 -6 50q-5 23 -23 37q-10 7 -24 13.5
t-33 11.5q16 -3 33 -5t37 -3t39 -1.5t39 0.5t39 1.5t37 1.5q18 2 33 4t28 4q-33 -10 -48 -25q-15 -16 -19 -36q-2 -10 -3.5 -24.5t-3.5 -34.5t-3.5 -41.5t-3.5 -45.5q-2 -25 -3 -50.5t-1 -51.5q-2 -26 -2 -51.5v-48.5q0 -41 1 -82t3 -84q3 -43 7.5 -84t9.5 -83z" />
    <glyph glyph-name="J" unicode="J" horiz-adv-x="489" 
d="M231 797q33 -7 71 -9q19 -1 38 -1.5t39 0.5t38.5 1.5t37.5 2.5q37 4 66 9q-17 -5 -29 -10q-5 -2 -11 -5.5t-12 -7.5q-10 -7 -17 -18q-5 -9 -7 -30q-1 -11 -1 -25v-33v-40.5t-1 -50.5q0 -28 -1 -62t-3 -74q-3 -48 -7.5 -91.5t-9.5 -83.5q-10 -80 -33 -142q-11 -31 -25 -56
t-31 -44q-34 -38 -85 -50q-49 -11 -89 1q-41 12 -72 39t-49 67q-17 39 -19 87q-1 41 11 77q11 34 32 61q20 26 46 40q25 15 54 15q40 0 61 -30q24 -32 23 -82q-2 -32 -20 -53q-19 -22 -49 -24q-19 -1 -36 11q-19 14 -23 42q-4 22 2 40l5 15t3 10q-6 0 -15 -6q-10 -7 -19 -22
t-15 -39q-7 -24 -6 -58q0 -17 8 -38q4 -10 9 -18.5t10 -16.5q13 -18 27 -29t32 -16q19 -5 36 -2q19 4 35 13q16 10 28 25q13 14 19 33q5 14 9 31t7 37q3 21 5.5 43t4.5 45t3.5 46t1.5 46q2 23 2 44v40v48t-1 51q0 26 -1 51t-3 48t-4 42.5t-4 35.5q-4 32 -11 40q-4 7 -14 12
q-5 3 -9.5 5.5t-9.5 4.5t-11 4t-11 4z" />
    <glyph glyph-name="K" unicode="K" horiz-adv-x="807" 
d="M303 0q-14 2 -30 4t-34 4q-38 3 -77 3q-20 0 -40 -0.5t-40 -1.5q-41 -3 -78 -9q49 10 66 21q17 12 19 23q4 39 6.5 81.5t4.5 89.5q2 48 3.5 94t1.5 93v56.5t-1 53.5v51.5t-2 46.5q0 22 -1 41t-3 36q-3 34 -6 50q-5 23 -23 37q-10 7 -24 13.5t-33 11.5q16 -3 33 -5t37 -3
t39 -1.5t39 0.5t39 1.5t37 1.5q18 2 33 4t28 4q-33 -10 -48 -25q-15 -16 -19 -36q-2 -10 -3.5 -24.5t-3.5 -34.5t-3.5 -41.5t-3.5 -45.5q-2 -25 -3 -50.5t-1 -51.5q-2 -26 -2 -51.5v-48.5v-35q15 14 31.5 30.5l33.5 33.5q34 34 69 72q17 19 33 37.5t32 37.5t29 36t24 34
q8 11 11 30q4 17 -4 29l-15 12q-5 4 -11 8t-11 7q-7 5 -14.5 8.5t-15.5 8.5q18 -4 37.5 -6.5t39.5 -4.5t41 -2.5t41 0.5q41 0 82 3q20 2 39 4.5t36 6.5q-10 -4 -19.5 -8t-18.5 -8l-30 -15q-8 -4 -13.5 -7.5t-9.5 -5.5q-11 -8 -24 -20t-28 -26q-32 -29 -66 -66
q-17 -19 -35.5 -39t-37.5 -42q-20 -22 -39 -43t-38 -43q7 -33 21 -69q13 -38 30 -72q8 -17 17 -33.5t17 -32.5q9 -16 17 -29t16 -24q8 -12 16.5 -23.5t16.5 -22.5q19 -24 37 -39q20 -17 40 -27q22 -10 46 -9q15 1 30 9t28 23q11 12 19 32q8 19 8 39q0 22 -8 38q-9 16 -21 23
q-13 10 -24 11q-15 3 -21 1q-9 -3 -10 -7q-2 -5 5 -10q6 -4 9 -7q8 -6 11 -9t5.5 -6.5t4.5 -7.5q4 -7 4 -19q0 -5 -1 -11t-3 -12t-5.5 -11.5t-7.5 -10.5q-9 -11 -20 -17q-10 -6 -26 -6q-29 2 -46 23q-19 23 -20 57q0 15 5 35q3 10 7.5 18.5t9.5 16.5q12 16 29 27
q18 12 42 15q25 3 49 -4q25 -7 46 -25q19 -16 33 -44q13 -27 13 -65q0 -34 -15 -62q-16 -31 -37 -49q-24 -21 -50 -31q-28 -12 -51 -11q-20 1 -37 3.5t-33 7.5t-30 12.5t-27 15.5q-27 19 -48 40q-11 11 -21.5 23.5t-21.5 25.5q-17 21 -37 49q-18 25 -37 55q-9 14 -17.5 28
t-16.5 28t-15.5 25.5t-13.5 22.5q-8 -10 -15 -18.5t-14 -16.5t-14 -16.5t-14 -16.5q6 -99 18 -190q1 -13 19 -32t53 -27z" />
    <glyph glyph-name="L" unicode="L" horiz-adv-x="571" 
d="M243 807q40 7 71 0q29 -7 52 -25q21 -18 32 -41q10 -23 10 -49q0 -22 -8 -46q-9 -22 -22 -38q-7 -8 -14.5 -14.5t-15.5 -11.5q-16 -10 -35 -10q-31 0 -48 17q-17 19 -17 46q0 19 4 31q4 11 13 22q7 8 18 13q9 4 19 4q9 0 21 -5q11 -5 14 -11q4 -9 9 -7q5 3 5 14
q0 8 -5 21q-4 11 -14 23q-12 12 -25 16q-17 6 -37 2q-16 -3 -36 -21q-18 -15 -32 -45q-7 -14 -12 -30t-8 -35q-8 -38 -3 -83q5 -51 12 -85q4 -17 7.5 -33.5t7.5 -30.5q4 -15 7.5 -30t7.5 -29q4 -15 6.5 -31.5t4.5 -35.5q2 -17 2.5 -33.5t-0.5 -32.5q0 -16 -1 -29.5t-3 -25.5
q-2 -14 -4.5 -27t-5.5 -26q12 -5 33 -8q22 -5 51 -6q14 -1 28.5 -1.5t29.5 -1.5h29t27 1t24.5 1.5t21.5 1.5q19 1 28 5q8 2 14.5 5.5t12.5 7.5q12 7 22 15q10 7 20 17q-7 -10 -12 -20l-10 -20q-8 -18 -15 -38t-8 -32q-1 -8 -1.5 -13t0.5 -9h-12t-21 2q-13 0 -28.5 0.5
t-33.5 1.5q-19 1 -38.5 1t-40.5 1q-22 1 -42.5 1h-40.5h-38t-35 -1q-33 -1 -52 -3q-16 -2 -35 -6q-10 -2 -19.5 -4.5t-17.5 -4.5q-11 -2 -21 -5t-21 -5l12 15q2 4 5 7t5 7q6 8 10 14q6 11 11 30q4 11 7 23.5t6 27.5q4 16 7 33t6 36t5.5 39.5t4.5 42.5q2 17 2.5 32t1.5 28
q0 13 -0.5 27t-1.5 28q0 14 -1 31t-2 36q-3 37 -6 96q-3 54 8 104q12 48 33 84q22 38 49 59q29 23 62 29z" />
    <glyph glyph-name="M" unicode="M" horiz-adv-x="1027" 
d="M687 -41q-17 2 -34.5 4t-36.5 3q-38 3 -77 3q-19 0 -38 -0.5t-38 -1.5q-38 -2 -71 -6l27 15q5 4 10.5 7t10.5 7q11 8 16 16q6 11 9 43q4 34 6 81q1 24 1.5 50t1.5 54v111q1 60 1 110t-2 90q-5 80 -12 116q-6 31 -27 48q-22 17 -57 14q-20 -1 -45 -20q-13 -10 -24.5 -21
t-22.5 -24q-23 -26 -42 -54q-10 -14 -17 -25.5t-12 -21.5l-3 -84q-1 -22 -1 -42v-39q0 -41 1 -82t3 -84q3 -43 7.5 -84t9.5 -83q1 -13 19 -32t53 -27q-14 2 -30 4t-34 4q-38 3 -77 3q-20 0 -40 -0.5t-40 -1.5q-41 -3 -78 -9q49 10 66 21q17 12 19 23q4 39 6.5 81.5t4.5 89.5
q2 48 3.5 94t1.5 93v56.5t-1 53.5v51.5t-2 46.5q0 22 -1 41t-3 36q-3 34 -6 50q-5 23 -23 37q-10 7 -24 13.5t-33 11.5q16 -3 33 -5t37 -3t39 -1.5t39 0.5t39 1.5t37 1.5q18 2 33 4t28 4q-33 -10 -48 -25q-15 -16 -19 -36q-1 -7 -2 -15.5t-3 -19.5t-3 -24.5t-2 -29.5
q7 11 15.5 23t19.5 26q24 28 51 50q14 12 29.5 22t32.5 18q33 16 70 16q31 0 57 -9q13 -5 24 -11.5t20 -14.5q19 -16 31 -37t18 -42q5 10 10.5 19t12.5 19q8 10 16 18.5t17 16.5t18.5 15.5t20.5 12.5q19 11 44 16q22 4 54 1q15 -2 30 -7t29 -13q32 -17 56 -46
q13 -16 24 -35.5t19 -44.5q8 -23 12 -44.5t4 -43.5q2 -22 0 -43.5t-6 -42.5q-5 -21 -11 -42t-14 -41q-8 -21 -17.5 -42t-20.5 -42q-8 -14 -15.5 -28t-15.5 -28t-15 -26.5t-14 -25.5t-12.5 -25.5t-10.5 -24.5q-9 -26 -9 -49q0 -35 21 -57q22 -23 55 -22q34 1 51 18
q16 18 18 36q0 7 -3 6q-3 0 -7 -3q-2 -2 -5 -4l-6 -4q-5 -4 -13 -7q-8 -5 -16 -3q-23 1 -33 18q-10 15 -8 38q2 18 13 34q13 17 42 22q8 1 17 0.5t18 -2.5q19 -4 34 -15q15 -10 24 -29q10 -17 10 -44q0 -26 -13 -49q-13 -22 -33 -37q-20 -14 -45 -22q-24 -7 -50 -7
q-29 0 -54 9q-13 5 -24 11.5t-21 14.5q-20 17 -31 40q-11 24 -11 50q0 30 8 59q4 14 9 27.5t11 27.5t12.5 28t13.5 28q7 15 13.5 31.5t12.5 34.5t10.5 36.5t8.5 37.5q7 37 9 74q1 19 1 36t-2 34q-3 31 -11 59q-6 20 -16 37q-5 10 -11 17.5t-13 14.5q-15 14 -31 22
q-18 8 -36 7q-38 -2 -70 -32q-32 -32 -51 -79q-1 -11 -1.5 -23t-2.5 -25q-3 -26 -6 -54q-2 -15 -3 -31.5t-3 -33.5q-2 -18 -2.5 -38t-1.5 -42q-1 -28 -1.5 -56.5t-1.5 -58.5q0 -30 0.5 -58t1.5 -54q3 -51 9 -89q8 -39 20 -47q10 -8 27 -16l15 -7.5t14 -5.5q8 -3 15.5 -5.5
t15.5 -4.5z" />
    <glyph glyph-name="N" unicode="N" horiz-adv-x="688" 
d="M184 716q7 7 15 13.5t18 14.5t21 14.5t23 13.5q26 15 51 23q27 11 55 12q33 2 68 -3q37 -7 67 -22q17 -8 31.5 -19t27.5 -25q28 -29 44 -74q9 -25 13.5 -47.5t6.5 -44.5q0 -22 -1.5 -43.5t-6.5 -41.5q-5 -21 -11.5 -41.5t-14.5 -40.5q-9 -20 -18.5 -40.5t-20.5 -41.5
q-8 -14 -15.5 -28t-15.5 -28t-15 -26.5t-14 -25.5t-12.5 -25.5t-10.5 -24.5q-9 -26 -9 -49q0 -35 21 -57q22 -23 55 -22q34 1 51 18q16 16 18 36q0 7 -3 6q-3 0 -7 -3q-2 -2 -5 -4l-6 -4q-5 -4 -13 -7q-8 -5 -16 -3q-23 1 -33 18q-10 15 -8 38q2 18 13 34q13 17 42 22
q8 1 17 0.5t18 -2.5q19 -4 34 -15q15 -10 24 -29q10 -17 10 -44q0 -26 -13 -49q-13 -22 -33 -37q-20 -14 -45 -22q-24 -7 -50 -7q-29 0 -54 9q-13 5 -24 11.5t-21 14.5q-20 17 -31 40q-11 24 -11 50q0 30 8 59q4 14 9 27.5t11 27.5q7 14 13.5 27.5t13.5 27.5q8 14 14.5 30.5
t13.5 34.5q10 29 18 65q4 18 6.5 36t3.5 37q2 19 1.5 37t-2.5 36q-4 35 -17 68q-19 45 -53 71q-35 27 -96 25q-53 -2 -93 -21t-61 -42q-2 -31 -3 -62.5t-3 -63.5q0 -33 -1 -65.5t-1 -64.5v-56.5t1 -53.5v-51.5t2 -46.5q0 -22 1 -41t3 -36q3 -34 6 -50q2 -11 5 -20t5 -16
q3 -7 7.5 -13t9.5 -13q-10 2 -20.5 3t-23.5 2t-25.5 1.5t-26.5 0.5q-13 0 -26 -0.5t-26 -1.5q-24 0 -46 -5q4 7 8 13.5t8 12.5q9 14 13 33q2 10 3.5 24t3.5 34t3.5 42t3.5 46q2 25 2.5 50.5t2.5 51.5q0 26 0.5 51.5t0.5 48.5q0 41 -1 82t-3 84q-3 43 -7.5 84t-9.5 83
q-3 28 -28 59q13 -2 25.5 -2.5t26.5 -1.5t27 -1h26h25.5t23.5 1t21.5 1.5t18.5 2.5q-7 -7 -15 -20q-8 -14 -9 -24q-1 -5 -1 -9.5t-1 -9.5t-1 -10.5t-1 -10.5z" />
    <glyph glyph-name="O" unicode="O" horiz-adv-x="712" 
d="M357 -13q-62 0 -122 29q-60 30 -105 84q-46 53 -73 129q-28 74 -28 167q0 84 22 147q11 33 24 61.5t29 52.5t33 43.5t34 34.5q17 16 32.5 27t28.5 18q-31 -38 -38 -80q-9 -41 -7 -79q1 -37 9 -64q8 -29 10 -33q-1 -2 -2 -6.5t-3 -11.5q-4 -11 -7 -31q-5 -18 -6 -40
q-1 -11 -1.5 -23t0.5 -25q1 -62 14 -126q12 -62 33 -110q23 -50 53 -79q31 -30 70 -30q40 0 72 32q31 31 54 85q11 27 20 58t14 66q10 70 9 147q-1 75 -17 137q-15 59 -38 101q-23 40 -53 64q-29 22 -62 22q-24 0 -42 -13q-17 -14 -27 -33q-11 -20 -15 -38q-5 -22 -4 -30
q1 -26 8 -42q8 -15 22 -24q5 14 23 29q17 13 44 13q32 0 55 -21q23 -23 23 -54q0 -40 -26 -60q-29 -21 -64 -21q-15 0 -31 3q-9 2 -18 5t-17 8q-19 11 -34 26q-18 18 -28 42q-13 28 -16 62q-3 35 1 63q2 16 6.5 30t9.5 27q10 24 28 42q21 20 46 30q27 11 53 11q14 2 27 1
t26 -3q14 -2 26 -5.5t23 -8.5q31 -13 67 -41q37 -30 70 -79q35 -50 57 -116q22 -67 24 -155q1 -46 -5.5 -88t-18.5 -80q-25 -74 -70 -130q-42 -54 -101 -85q-59 -32 -121 -32z" />
    <glyph glyph-name="P" unicode="P" horiz-adv-x="545" 
d="M425 637q-3 18 -13 33q-11 19 -27 32q-18 14 -39 23q-23 9 -50 9q-12 0 -27 -3q-8 -2 -15 -4.5t-15 -5.5t-15 -6.5t-14 -6.5q-15 -8 -23 -15q-2 -13 -3 -27t-2 -30t-2 -33t-2 -35q22 20 47 26q26 8 50 6q34 -1 55 -27q22 -26 27 -60q1 -7 0.5 -13.5t-1.5 -13.5
q-1 -14 -8 -27q-8 -13 -18 -20q-12 -10 -27 -10q-12 0 -21 6q-10 6 -16 15q-6 11 -9 22q-2 7 -2 13v12q2 24 7 36q7 16 10 19q-4 4 -18 2q-14 0 -30 -11q-8 -5 -14.5 -12t-11.5 -17q-11 -20 -9 -52q1 -19 12 -37q5 -10 12.5 -17.5t16.5 -14.5q17 -13 42 -19t53 0q32 7 55 30
q22 24 36 59q13 36 15 80q3 45 -6 94zM538 648q4 -50 -5 -108q-9 -56 -33 -102q-24 -47 -63 -80q-38 -34 -96 -43q-55 -9 -98 6q-45 17 -70 45q1 -75 6 -153q2 -40 6 -78t9 -76q3 -28 28 -59q-14 4 -26.5 6.5t-23.5 3.5q-11 2 -21.5 2.5t-21.5 -0.5t-22 -1.5t-23 -2.5
t-26 -4t-30 -4q7 7 15 20q7 13 9 24q4 39 6.5 81.5t4.5 89.5q2 48 3.5 94t1.5 93v56.5t-1 53.5v51.5t-2 46.5q0 22 -1 41t-3 36q-3 34 -6 50q-2 11 -5 20t-5 16q-3 7 -7.5 13t-9.5 13q34 -2 61 -4t49 -4q43 -3 81 -3q37 0 76 3q20 2 44.5 4t53.5 6q33 4 59 -11
q27 -18 44 -40q18 -22 29 -52q5 -14 8.5 -26.5t4.5 -23.5z" />
    <glyph glyph-name="Q" unicode="Q" horiz-adv-x="712" 
d="M598 -171q0 -29 -11 -57q-13 -29 -34 -47q-23 -22 -53 -33q-32 -12 -71 -12q-43 0 -81 13q-39 13 -70 38q-31 23 -49 57t-18 74q0 45 17 82q19 37 39 59q-25 8 -48 21.5t-45 30.5q-22 18 -41 39.5t-35 47.5q-33 53 -50 115q-19 63 -19 139q0 84 22 147q11 33 24 61.5
t29 52.5t33 43.5t34 34.5q17 16 32.5 27t28.5 18q-31 -38 -38 -80q-9 -41 -7 -79q1 -37 9 -64q8 -29 10 -33q-1 -2 -2 -6.5t-3 -11.5q-4 -11 -7 -31q-5 -18 -6 -40q-1 -11 -1.5 -23t0.5 -25q1 -62 14 -126q12 -62 33 -110q23 -50 53 -79q31 -30 70 -30q40 0 72 32
q31 31 54 85q11 27 20 58t14 66q10 70 9 147q-1 75 -17 137q-15 59 -38 101q-23 40 -53 64q-29 22 -62 22q-24 0 -42 -13q-17 -14 -27 -33q-11 -20 -15 -38q-5 -22 -4 -30q1 -26 8 -42q8 -15 22 -24q5 14 23 29q17 13 44 13q32 0 55 -21q23 -23 23 -54q0 -40 -26 -60
q-29 -21 -64 -21q-15 0 -31 3q-9 2 -18 5t-17 8q-19 11 -34 26q-18 18 -28 42q-13 28 -16 62q-3 35 1 63q2 16 6.5 30t9.5 27q10 24 28 42q11 10 21.5 17t23.5 12q27 11 52 11q14 2 27 1t26 -3q14 -2 26.5 -5.5t24.5 -7.5q29 -10 67 -39q39 -31 71 -79q34 -51 56 -117
q22 -69 24 -156q2 -147 -60 -251q-63 -105 -195 -156q-23 -9 -42 -21q-10 -7 -19 -14t-17 -15t-14.5 -17t-11.5 -19q-11 -20 -14 -43q-4 -34 10 -58q15 -25 37 -39q22 -15 48 -21q24 -7 45 -7q43 0 70 21q28 22 34 54q3 13 -5 21q-8 7 -12 -3q-1 -2 -6 -11q-2 -4 -5.5 -7
t-7.5 -6q-7 -7 -19 -12q-10 -4 -26 -6q-17 -2 -32 3q-15 4 -28 14t-20 21q-8 14 -8 28q0 18 8 32t21 23q14 11 29 15q18 5 31 5q27 0 51 -6q25 -6 42 -19q20 -14 30 -32q11 -20 11 -47z" />
    <glyph glyph-name="R" unicode="R" horiz-adv-x="564" 
d="M425 637q-3 15 -14 33q-11 19 -27 32q-18 14 -39 23q-23 9 -49 9q-12 0 -27 -3q-8 -2 -15 -4.5t-15 -5.5t-15 -6.5t-14 -6.5q-15 -8 -23 -15q-2 -13 -3 -27t-2 -30t-2 -33t-2 -35q22 20 47 26q26 8 50 6q34 -1 55 -27q22 -26 27 -60q1 -7 0.5 -13.5t-1.5 -13.5
q-1 -14 -8 -27q-8 -13 -18 -20q-12 -10 -27 -10q-12 0 -21 6q-10 6 -16 15q-6 11 -9 22q-2 7 -2 13v12q2 24 7 36q7 16 10 19q-4 4 -18 2q-14 0 -30 -11q-8 -5 -14.5 -12t-11.5 -17q-11 -20 -9 -52q1 -19 12 -37q5 -10 12.5 -17.5t16.5 -14.5q17 -13 42 -19t53 0q35 8 56 32
q23 24 37 62q13 37 15 81q1 22 -1 44t-7 44zM611 -1q-21 4 -39 6.5t-34 4.5t-30.5 3.5t-28.5 1.5t-28 -1t-28 -3t-31 -5.5t-36 -8.5q10 4 18 12q6 7 10 17q4 9 -1 28q-1 6 -14 25q-7 9 -14.5 19.5t-17.5 22.5q-10 13 -21 26t-22 27t-23 27.5t-23 26.5q-11 14 -21.5 26.5
t-20.5 23.5t-18 20.5t-14 16.5q1 -32 3 -64l4 -64t5.5 -64t7.5 -64q3 -28 28 -59q-14 4 -26.5 6.5t-23.5 3.5q-11 2 -21.5 2.5t-21.5 -0.5t-22 -1.5t-23 -2.5t-26 -4t-30 -4q7 7 15 20q7 13 9 24q4 39 6.5 81.5t4.5 89.5q2 48 3.5 94t1.5 93v56.5t-1 53.5v51.5t-2 46.5
q0 22 -1 41t-3 36q-3 34 -6 50q-2 11 -5 20t-5 16q-3 7 -7.5 13t-9.5 13q34 -2 61 -4t49 -4q43 -3 81 -3q37 0 76 3q20 2 44.5 4t53.5 6q33 4 59 -11q26 -17 45 -40q18 -22 29 -52q10 -28 12 -50q4 -52 -5 -111q-9 -58 -34 -105t-70 -81q-44 -33 -111 -39q12 -17 26 -36
t30 -42q17 -23 32.5 -44.5t31.5 -41.5t29.5 -38t26.5 -34q25 -31 34 -37q5 -4 11.5 -7.5t13.5 -7.5q8 -4 14.5 -7.5t13.5 -5.5z" />
    <glyph glyph-name="S" unicode="S" horiz-adv-x="651" 
d="M623 237q-2 -53 -24 -98q-24 -46 -63 -79q-20 -17 -43.5 -30t-49.5 -23q-51 -19 -114 -19q-83 0 -145 17q-62 19 -98 46q-39 30 -55 66t-16 76q0 28 13 51q13 24 36 44q24 20 54 32q16 7 33.5 11t36.5 6q37 4 70 -2t55 -18q24 -15 37 -30q15 -20 16 -37q1 -20 -5 -42
q-7 -21 -24 -38q-18 -18 -40 -26q-22 -10 -55 -8q-39 3 -56 22q-18 19 -16 44q1 25 23 36q22 12 51 12q15 0 30 -5q12 -5 24 -14q4 5 7 13q0 10 -1 13q-3 17 -31 29q-28 13 -71 7q-41 -6 -68 -36q-26 -29 -26 -73q0 -21 10 -42q5 -11 13.5 -22t21.5 -21q26 -20 67 -33
q44 -14 106 -14q39 0 77 11q36 12 61 31q26 20 39 44q13 25 7 55q-3 14 -11 29t-22 29t-30 28t-34 27q-19 13 -38 24.5t-39 22.5q-41 22 -69 36q-23 11 -44.5 22.5t-40.5 22.5q-20 11 -36.5 23.5t-30.5 26.5q-27 25 -44 60q-15 31 -17 77q-1 41 17 76q19 34 51 58
q30 23 74 37t91 15q41 1 75 -5q17 -3 31 -6.5t26 -7.5l22.5 -7.5t18.5 -6.5q17 -7 32 -7q23 0 37 3q16 5 26 27q-8 -50 -5 -109q5 -64 28 -131q-26 45 -55 77q-14 16 -31 31t-36 29q-6 5 -13.5 9.5t-16.5 9.5l-20 10t-21 9q-21 7 -49 12q-14 3 -27 3.5t-27 -0.5
q-35 -3 -60 -19q-26 -18 -24 -50q1 -27 21 -51q19 -24 49 -44q14 -11 29.5 -20t32.5 -17t32 -15.5l29 -14.5q25 -11 47.5 -24.5t44.5 -27.5t40 -30.5t34 -33.5q16 -18 28.5 -37t20.5 -39q18 -42 17 -87z" />
    <glyph glyph-name="T" unicode="T" horiz-adv-x="569" 
d="M532 0q-14 2 -30 4t-34 4q-38 3 -77 3q-20 0 -40 -0.5t-40 -1.5q-41 -3 -78 -9q49 10 66 21q17 12 19 23q4 39 6.5 81.5t4.5 89.5q2 48 3.5 94t1.5 93v53.5t-1 46.5t-1.5 41t-1.5 35q-1 17 -2 31t-2 25q-3 26 -6 41q-1 5 -2 10.5t-3 10.5t-3 10l-2 10q-14 6 -29 10.5
t-29 8.5q-30 8 -59 3q-28 -4 -49 -19q-19 -14 -34 -35q-13 -19 -18 -43q-6 -24 -6 -46q0 -41 23 -72q24 -31 61 -31q19 0 32 10q12 9 20 22q4 7 6.5 13t3.5 12q3 13 0 19q-6 11 -11 0q-3 -7 -14 -15t-26 -6q-24 2 -37 18q-15 20 -15 41q0 20 14 40q14 21 42 25q16 3 35 -2
q18 -4 34 -17q15 -11 26 -31q5 -10 8.5 -21.5t3.5 -24.5q0 -24 -8 -51q-8 -26 -24 -45q-17 -20 -39 -33q-24 -15 -52 -16q-26 -2 -53 9q-25 10 -49 32q-24 24 -38 53q-14 30 -16 69q-1 30 8 66q9 34 30 64t55 52q35 23 82 30q20 4 39 5t37 0q36 -3 69 -9q17 -3 33.5 -6.5
t32.5 -6.5q16 -4 32 -6.5t33 -4.5q36 -4 70.5 -4t66.5 2q67 5 113 33l33 -29q-18 -30 -43 -55q-22 -22 -50 -41q-31 -20 -67 -26q-32 -6 -67 -4q-17 1 -32.5 3.5t-31.5 6.5q-8 -42 -12 -112q-2 -35 -3.5 -74.5t-1.5 -84.5q0 -41 1.5 -82t3.5 -84t6.5 -84t9.5 -83
q1 -13 19 -32t53 -27z" />
    <glyph glyph-name="U" unicode="U" horiz-adv-x="644" 
d="M456 84q-7 -7 -15 -13.5t-18 -14.5t-21 -14.5t-23 -13.5q-24 -14 -51 -24q-14 -5 -27.5 -7.5t-27.5 -3.5q-39 -3 -81 6q-44 11 -78 35q-38 25 -63 69q-27 45 -34 109q-6 52 9 99q8 24 18 46t23 42q26 41 53 71q14 16 25.5 29t20.5 23q8 9 16.5 18.5t16.5 19.5
q16 21 30 42q7 11 12.5 21t9.5 20q9 21 9 41q0 34 -21 54t-55 21q-31 1 -49 -15q-18 -17 -20 -35q0 -8 3 -6q2 0 7 3q2 2 4.5 4t5.5 4q5 4 13 7q8 5 17 3q23 -2 32 -18q11 -17 9 -38q-2 -18 -13 -34q-13 -17 -42 -22q-8 -1 -17 -0.5t-18 2.5q-18 4 -33 15q-14 10 -25 29
q-10 17 -10 44q0 29 13 49q12 21 33 35q23 14 46 20q24 7 49 7q30 0 57 -8q24 -7 45 -23q19 -16 29 -38q10 -21 10 -52q0 -27 -10 -51q-5 -13 -11 -26t-14 -26q-8 -14 -16.5 -26.5t-18.5 -25.5t-20 -25.5t-21 -23.5q-23 -25 -39 -55q-9 -16 -16 -33t-12 -35q-11 -38 -14 -74
q-3 -41 4 -77q6 -32 20 -59q13 -25 34 -45q21 -18 46 -27q23 -10 53 -8q13 1 25.5 2.5t25.5 5.5q23 7 47 18t39 22q18 13 28 23q2 31 3 62.5t3 63.5q0 33 1 65.5t1 64.5v56.5t-1 53.5v51.5t-2 46.5q0 22 -1 41t-3 36q-3 34 -6 50q-2 11 -5 20t-5 16q-3 7 -7.5 13t-9.5 13
q20 -4 44 -6t50 -1q26 0 51.5 1.5t48.5 5.5q-4 -7 -8 -13.5t-8 -12.5q-9 -14 -13 -33q-2 -10 -3.5 -24.5t-3.5 -34.5t-3.5 -41.5t-3.5 -45.5q-2 -25 -3 -50.5t-1 -51.5q-2 -26 -2 -51.5v-48.5q0 -41 1 -82t3 -84q3 -43 7.5 -84t9.5 -83q3 -28 28 -59q-27 6 -51 9
q-12 2 -24 3t-23 2q-25 0 -47 -3q-21 -3 -49 -11q7 7 15 20q7 13 9 24q1 5 1 9.5t1 9.5q0 5 0.5 10.5t1.5 10.5z" />
    <glyph glyph-name="V" unicode="V" horiz-adv-x="648" 
d="M-14 799q20 -3 40.5 -5t42.5 -3q43 -3 84 -3q21 0 40.5 0.5t38.5 1.5q38 3 68 9q-8 -4 -15 -8.5t-14 -9.5q-12 -10 -21 -22q-12 -15 -16 -34q-5 -23 1 -76q3 -26 7.5 -54.5t11.5 -60.5t14.5 -64.5t15.5 -66.5t16 -65.5t16 -60.5t15 -54.5t12 -46.5q6 -21 9.5 -34.5
t5.5 -18.5q2 10 5 20t6 21q4 16 12 40q4 11 7.5 21.5t7.5 21.5q8 21 16.5 41.5t16.5 40.5q9 20 18 39.5t17 38.5q9 19 17 36l16 34t14.5 33t11.5 30t10 30t10 33q9 36 8 68q0 33 -14 59q-15 26 -52 35q-22 4 -40 0q-17 -4 -31 -15q-15 -12 -22 -24q-4 -7 -6.5 -13t-3.5 -12
q-2 -11 0 -12q3 -1 7 3q5 5 19 13q7 4 14 6.5t15 3.5q7 1 13 -0.5t13 -3.5q12 -4 23 -15q11 -12 16 -25q6 -15 3 -33q-6 -38 -33 -58q-28 -21 -67 -16q-21 3 -37 15q-10 7 -17.5 15.5t-14.5 18.5q-13 19 -19 47q-8 27 -2 52q6 26 21 49q16 24 37 38t51 22t62 5
q68 -6 107 -47q40 -40 40 -106q0 -23 -5.5 -49t-16.5 -55t-25 -59t-29 -62l-32 -64l-32 -64q-17 -32 -30 -64t-24 -63q-5 -14 -8 -27t-5 -26q-5 -27 -6 -48q0 -22 3 -37t8 -22l5 -5t7 -5q8 -7 17 -11q5 -3 10.5 -6t11.5 -6l-38 4t-39 4t-40 3l-40 2q-20 0 -39 -0.5t-38 -1.5
t-36 -3t-33 -5q0 1 2 2q1 1 3 2.5t4 3.5q5 4 10 8.5t10 9.5t10 10.5t10 10.5q8 9 10 17q1 5 0.5 15t-2.5 26t-5 35t-7 42t-9 48t-10 53q-6 28 -12.5 56.5t-13.5 57.5t-14 57.5t-15 56.5q-8 29 -15 55t-15 49q-8 24 -15.5 44.5t-14.5 37.5q-16 37 -28 49t-24 20q-7 5 -13.5 9
t-11.5 7q-7 5 -13.5 8t-13.5 6z" />
    <glyph glyph-name="W" unicode="W" horiz-adv-x="925" 
d="M455 552q-5 -11 -9.5 -23t-9.5 -26t-11 -28t-11 -28q-6 -14 -11.5 -28t-10.5 -28t-9.5 -26.5t-8.5 -23.5q-3 -8 -6.5 -19t-7.5 -25q-5 -14 -9 -28t-9 -30t-9.5 -31.5t-9.5 -31.5q-5 -17 -8.5 -31.5t-7.5 -28.5t-6 -26t-4 -23q-3 -20 -1 -29q1 -5 7 -13t13 -12
q7 -6 18 -12q-14 2 -28.5 3.5t-31.5 1.5q-17 2 -33 2t-33 -1q-17 0 -33.5 -0.5t-32.5 -1.5q-32 -2 -56 -6q8 4 15 7t14 7l21 12q11 6 14 11q3 4 3 26q0 11 -0.5 23.5t-1.5 28.5t-2 33.5t-3 36.5l-4 38t-4 39t-5 38.5t-5 36.5q-2 19 -5 35t-5 30t-5 30t-6 33q-4 18 -7.5 36.5
t-7.5 37.5t-8 37.5t-8 37.5t-8 36t-8 33t-7.5 29t-6.5 24q-8 22 -12 30q-5 8 -14 15q-4 3 -8 5.5t-8 4.5q-7 4 -19 7q16 -3 32.5 -5t33.5 -3t35 -1.5t35 0.5q34 0 69 3q17 2 33 4t30 4q-4 -1 -7.5 -2t-8.5 -3q-8 -3 -18 -9q-12 -7 -22 -14q-9 -7 -10 -29q-2 -12 -2.5 -26
t0.5 -31t1.5 -34.5t2.5 -37.5t3.5 -39.5t3.5 -38.5t3.5 -36.5t3.5 -33.5q2 -17 3 -30t2 -23q2 -15 3.5 -33t3.5 -40q3 -22 6 -43.5t5 -41.5q3 -24 6.5 -48t7.5 -49q7 21 14 41.5t14 40.5q6 17 11.5 35.5t12.5 38.5t12.5 37.5t10.5 33.5q8 24 15 52q5 15 9 30.5t8 31.5
t7.5 32t7.5 32t7.5 30.5t5.5 28.5q3 14 5 25t3 21t1.5 16t-1.5 10q-6 20 -17 31q-12 13 -34 23q53 -12 122 -10q34 2 65.5 5.5t61.5 8.5q-14 -7 -23 -16q-9 -7 -17 -22q-9 -14 -14 -34q-4 -17 -1 -47q2 -14 5 -30.5t8 -35.5t10 -38.5t11 -40.5q7 -22 13.5 -43t14.5 -43
q16 -50 33 -93q8 -22 15.5 -40.5t14.5 -35.5t12 -31t10 -25q10 -24 11 -32q1 8 2 17.5t3 19.5q2 8 4 18.5t4 21.5q4 24 15 51q12 35 28 68l16 34l16 34t16 33l16 32q14 30 24 61q5 15 9.5 31.5t8.5 34.5q9 36 7 70q0 33 -16 60q-17 26 -54 35q-22 4 -40 0q-17 -4 -31 -15
t-21 -24q-4 -7 -6.5 -13t-3.5 -12q-2 -11 0 -12q1 -2 6 3t19 13q7 4 14 6.5t15 3.5q7 1 13 -0.5t13 -3.5q12 -4 23 -15q11 -12 16 -25q6 -15 3 -33q-6 -38 -33 -58q-28 -21 -67 -16q-21 3 -37 15q-10 7 -17.5 15.5t-14.5 18.5q-13 19 -19 47q-6 25 -1 52q10 55 58 87
q23 16 51.5 23t61.5 4q66 -6 106 -47q38 -40 40 -106q2 -47 -18 -107q-10 -30 -21 -61t-24 -63t-26 -64.5t-27 -64.5t-24.5 -62t-18.5 -58q-7 -26 -12 -53t-6 -49q-1 -11 -0.5 -20t1.5 -17q3 -14 8 -21l5 -5t7 -5q8 -7 17 -11q5 -3 10.5 -6t11.5 -6l-38 4t-39 4t-40 3l-40 2
q-20 0 -39 -0.5t-38 -1.5t-36 -3t-33 -5q0 1 2 2q1 1 3 2.5t4 3.5q5 4 10 8.5t10 9.5t10 10.5t10 10.5q9 9 11 17q1 5 0.5 13t-1.5 20q-2 13 -4 28t-6 33t-8 38t-9 42t-10.5 45t-11.5 46q-7 29 -15 57l-16 56q-8 29 -17 55.5t-18 51.5z" />
    <glyph glyph-name="X" unicode="X" horiz-adv-x="720" 
d="M740 664q-2 -11 -6.5 -20.5t-9.5 -17.5q-11 -18 -26 -29q-17 -11 -35 -15q-20 -5 -39 1q-29 8 -41 30q-14 23 -11 45q3 24 15 41q14 17 33 17q18 0 27 -9q10 -11 9 -21q0 -15 7 -19q8 -5 14 -4q8 2 14 10q6 7 6 26q0 6 -3 17t-10 19q-8 9 -19 15q-13 6 -29 5
q-21 -2 -39 -15q-17 -14 -33 -38q-15 -24 -27 -54q-7 -15 -12.5 -30t-10.5 -31q-8 -25 -15.5 -49t-13.5 -47q-12 -47 -21 -72q29 -51 58 -98.5t59 -95.5t58.5 -89t55.5 -77q6 -8 13 -15q9 -9 21 -18q7 -5 13.5 -9t14.5 -7q17 -8 34 -12q-28 6 -68 9q-20 2 -41 2.5t-43 1.5
q-23 0 -45 -0.5t-44 -1.5q-44 -3 -82 -9q49 10 69 21q21 12 16 23q-11 25 -25 54.5t-31 64.5q-18 35 -37.5 71.5t-41.5 74.5q-13 -29 -26.5 -57.5t-27.5 -57.5t-29.5 -54.5t-31.5 -48.5q-32 -48 -68 -76q-37 -31 -76 -32q-34 -1 -58 9q-22 10 -39 28q-15 15 -22 37
q-7 20 -7 38q0 20 8 41q7 19 23 35q14 16 36 25t49 6q10 -1 17.5 -3.5t14.5 -6.5t11.5 -9t8.5 -10q7 -10 9 -23q3 -12 1 -24q-5 -30 -21 -43q-18 -14 -39 -13q-18 1 -30 13q-11 11 -11 22q0 12 -5 17q-5 7 -9 8q-3 1 -12 -4q-8 -5 -8 -26q0 -12 4 -24q4 -11 14 -23
q12 -12 26 -17q18 -6 41 -2q39 6 63 48q25 43 51 111q18 48 36 105q9 29 19.5 60t23.5 63q-14 23 -27 46t-27 46t-27 44.5t-26 41.5t-25.5 39.5t-23.5 36.5t-21.5 32.5t-20.5 29.5l-12 18q-4 5 -7.5 9t-7.5 8q-9 7 -21 15q-14 8 -32 12q16 -3 33 -5t37 -3t39 -1.5t39 0.5
t39 1.5t37 1.5q18 2 33 4t28 4q-35 -11 -55 -26t-11 -35q11 -22 22 -46t24 -50q14 -26 28.5 -53.5t30.5 -56.5q13 28 25.5 54t25.5 49q25 48 53 83q14 17 27.5 31t27.5 25q28 22 59 27q33 5 58 -4q27 -11 42 -29q17 -20 23 -47q6 -29 -1 -59z" />
    <glyph glyph-name="Y" unicode="Y" horiz-adv-x="573" 
d="M-14 799q20 -3 40.5 -5t42.5 -3q43 -3 84 -3q21 0 40.5 0.5t38.5 1.5q38 3 68 9q-8 -4 -15 -8.5t-14 -9.5q-12 -10 -21 -22q-12 -15 -16 -34q-6 -26 0 -57q4 -16 8.5 -32.5t11.5 -33.5t14 -33.5t15 -33.5t16 -33t16 -30q8 -15 15 -28t12 -24q12 -23 15 -33q2 8 5.5 16.5
t7.5 17.5q4 8 8.5 16t9.5 18q10 19 27 39q8 10 16.5 18.5t18.5 16.5t19 15t17 14q9 7 17 14t16 15q15 14 25 35q7 14 10 36q4 19 -1 42q-4 20 -20 39q-17 19 -48 26q-11 3 -21 2.5t-19 -2.5q-17 -4 -31 -15q-15 -12 -22 -24q-4 -7 -6.5 -13t-3.5 -12q-2 -11 0 -12q3 -1 7 3
q5 5 19 13q7 4 14 6.5t15 3.5q7 1 13 -0.5t13 -3.5q12 -4 23 -15q11 -12 16 -25q6 -15 3 -33q-6 -38 -33 -58q-28 -21 -67 -16q-21 3 -37 15q-10 7 -17.5 15.5t-14.5 18.5q-13 19 -19 47q-8 27 -2 52q6 26 21 49q16 24 37 38t51 22t62 5q68 -6 104 -44q38 -40 38 -104
q0 -48 -18 -79q-10 -16 -21 -30.5t-24 -27.5q-14 -13 -28 -25.5t-28 -23.5q-30 -23 -51 -51q-32 -42 -45 -81q-14 -43 -17 -69q-5 -38 -6 -81q-3 -44 -3 -83q0 -20 0.5 -36.5t1.5 -30.5q1 -26 7 -32l5 -5t7 -5t8 -4.5t8 -4.5l18 -9q-19 2 -35.5 4t-32.5 4t-30.5 3t-28.5 2
q-14 0 -28.5 -0.5t-28.5 -1.5t-28.5 -3t-30.5 -5q1 0 2 1t2 1t3 2q4 2 8 4.5t9 6.5q9 7 19 18q9 11 14 25q5 15 10 50q2 17 3 35.5t3 38.5v39.5t-1 38.5q0 19 -2 34.5t-5 27.5t-14 46q-6 16 -13.5 34.5t-15.5 38.5t-17.5 41.5t-19.5 44.5q-11 23 -21 45t-21 43
q-11 22 -21.5 41t-20.5 36q-11 17 -20 31t-18 23q-5 6 -11 10.5t-13 9.5t-13.5 9t-11.5 7q-7 5 -13.5 8t-13.5 6z" />
    <glyph glyph-name="Z" unicode="Z" horiz-adv-x="716" 
d="M98 797q34 -2 64 -3t58 -3q12 -1 24 -1t23 -1q12 -1 23 -1t21 -1h18.5t16.5 -1h21h32h26t30 1h33t35 1t35 1t34 2q17 0 32 1t28 2q14 1 23.5 2t15.5 3q-14 -17 -39 -51q-13 -17 -26.5 -36.5t-28.5 -41.5q-16 -22 -31.5 -45t-32.5 -46t-33 -45.5t-31 -44.5t-28.5 -41
t-24.5 -36q-12 -17 -21 -29.5t-15 -20.5q-5 -7 -10.5 -15t-12.5 -17q-7 -10 -13.5 -20t-14.5 -21t-15.5 -22.5t-15.5 -22.5t-15.5 -22.5t-15.5 -22.5q-17 -26 -35.5 -53t-37.5 -56q5 1 11.5 1t14.5 1q6 1 13.5 1h15.5q9 0 18.5 -0.5t19.5 -1.5q14 -2 27.5 -3.5t26.5 -3.5
t25.5 -5t25.5 -5l26 -6t26 -5q27 -4 59 -6q24 -1 49 7q24 10 40 24q19 18 29 37q12 21 15 45q5 44 -19 73q-25 31 -70 31q-19 0 -32 -6q-7 -4 -12.5 -8t-10.5 -9q-10 -11 -14 -23q-5 -15 -5 -25q0 -21 7 -25q8 -5 13 -3q5 1 9 10q0 4 1 9t2 11q1 11 12 19t26 6q18 -2 29 -11
q13 -10 15 -34q1 -6 0 -12.5t-3 -13.5q-5 -15 -15 -25q-10 -12 -26 -19t-40 -4q-30 3 -53 29q-24 27 -24 67q0 23 9 44t25 37q15 15 39 26q21 10 50 10q37 0 63 -11q30 -12 51 -33q21 -20 34 -50q12 -31 11 -64q-1 -46 -20 -83q-20 -38 -47 -60q-27 -24 -64 -37
q-35 -12 -69 -12q-30 0 -64 6q-35 7 -66 15q-17 4 -32 7.5t-29 6.5q-14 4 -26.5 5.5t-22.5 2.5q-24 1 -54 0q-15 0 -29.5 -0.5t-28.5 -1.5t-27.5 -2t-24.5 -2q-24 -3 -36 -6q-10 -3 -19 2q-10 4 -14 14q-4 9 1 27q4 16 23 41q7 9 30 45q12 19 25.5 40t29.5 45q16 25 33 50.5
t34 52.5t34 51.5t33 46.5q18 26 36.5 50.5t38.5 49.5t38 46.5t35 41.5q20 23 38.5 45t37.5 42h-48t-45 1q-19 1 -37 1h-36h-52q-13 0 -25 -0.5t-23 -0.5t-22 -0.5t-21 -1.5q-21 -3 -37 -9q-18 -8 -30 -20q-4 -4 -12 -17q-7 -13 -13 -26q-4 -8 -7 -16t-7 -17q2 15 4 29t4 27
q2 14 4 26.5t4 24.5q2 13 2.5 25t-0.5 24q0 27 -7 52z" />
    <glyph glyph-name="bracketleft" unicode="[" horiz-adv-x="354" 
d="M316 839v-68h-107v-783h107v-68h-195v919h195z" />
    <glyph glyph-name="backslash" unicode="\" horiz-adv-x="387" 
d="M88 830l269 -923h-76l-267 923h74z" />
    <glyph glyph-name="bracketright" unicode="]" horiz-adv-x="354" 
d="M38 -76v68h107v783h-107v68h195v-919h-195z" />
    <glyph glyph-name="asciicircum" unicode="^" horiz-adv-x="740" 
d="M560 640l-206 205l-207 -205h-88l249 272h91l249 -272h-88z" />
    <glyph glyph-name="underscore" unicode="_" horiz-adv-x="500" 
d="M0 -236v70h500v-70h-500z" />
    <glyph glyph-name="grave" unicode="`" 
d="M350 827q-27 5 -51 12t-44 16q-41 18 -69 39q-29 22 -42 45q-15 24 -15 44q0 18 12 30q13 13 30 13q29 0 44 -23q8 -11 15 -27.5t15 -36.5q15 -43 40 -69q25 -27 65 -43z" />
    <glyph glyph-name="a" unicode="a" horiz-adv-x="549" 
d="M553 130q-3 -13 -11 -29q-4 -8 -9 -15t-11 -14q-13 -15 -28 -23q-8 -5 -17 -7.5t-19 -4.5q-32 -3 -57 7q-13 5 -24.5 14.5t-22.5 22.5q-37 -22 -80 -33q-42 -12 -86 -12q-16 0 -31 2t-31 6q-16 5 -29.5 11.5t-26.5 14.5q-26 16 -42 42q-15 24 -17 60q-1 37 15 65t42 48
q24 18 58 28q35 11 66 11q23 0 46 -6q22 -6 39 -18q8 -7 15.5 -14.5t12.5 -16.5q11 -19 11 -40q0 -46 -29 -69q-30 -24 -73 -24q-26 0 -42 13q-17 14 -17 39q0 24 20 35q19 12 40 12q18 0 32 -7q15 -8 27 -18q0 2 1 4v3q0 13 -7 23l-8 10t-9 9q-10 7 -23 12q-12 4 -25 4
q-22 0 -35 -9q-15 -11 -24 -24t-14 -33q-2 -10 -3.5 -19t-0.5 -18q1 -38 25 -62q25 -23 67 -23q33 0 65 16q34 16 55 40q-1 2 -1 3.5t-1 3.5v9q2 13 3.5 27.5t3.5 31.5t2.5 34.5t1.5 35.5q0 18 -0.5 36t-1.5 35q-3 35 -9 67q-9 49 -35 72q-28 24 -66 23q-10 0 -19 -2t-17 -4
q-18 -6 -31 -16q-14 -11 -21 -23q-8 -14 -8 -28q0 -3 3 -6q2 0 3.5 -1t3.5 -2q3 -2 7 -6t4 -12q0 -23 -16 -33q-18 -12 -40 -13q-29 -2 -45 17q-18 21 -18 47q0 39 21 68q21 28 53 48q34 20 72 29q37 10 75 10q34 0 72 -9q40 -9 68 -28q29 -19 48 -52q18 -32 14 -78
q-1 -6 -1.5 -15.5t-0.5 -23.5q-2 -14 -2 -29t-1 -32v-35t2 -37q0 -19 1.5 -35.5t3.5 -32.5q4 -29 14 -52q9 -21 23 -23t26 5q7 4 12 8l10 8z" />
    <glyph glyph-name="b" unicode="b" horiz-adv-x="599" 
d="M222 0q-53 12 -98 10q-22 0 -46 -2.5t-50 -7.5q7 7 15 20q7 13 9 24q4 39 6.5 81.5t4.5 89.5q2 48 3.5 94t1.5 93v56.5t-1 53.5v51.5t-2 46.5q0 22 -1 41t-3 36q-3 34 -6 50q-2 11 -5 20t-5 16q-3 7 -7.5 13t-9.5 13q30 -6 50 -9q22 -3 45 -3q22 0 45 3q24 3 54 9
q-4 -7 -8 -13.5t-8 -12.5q-9 -14 -13 -33q-3 -17 -6 -46q-4 -30 -6 -68q-2 -20 -3 -40t-1 -42q-2 -22 -2 -43t-1 -43q14 14 27 24.5t24 18.5q12 8 23 14.5t21 10.5t19.5 6.5t17.5 3.5q18 3 33 3q43 1 87 -19q44 -21 75 -58q33 -37 52 -86q20 -51 20 -107q0 -57 -19 -109
q-17 -49 -47 -88t-67 -60q-37 -22 -78 -25q-14 -1 -26.5 -0.5t-23.5 2.5t-20.5 5.5t-17.5 7.5q-17 7 -27 18q-11 10 -18 21q-13 19 -21 44q-7 24 -7 50q0 28 7 50q4 12 8.5 22.5t12.5 20.5q2 3 6.5 7.5t10.5 11.5q15 15 39 19q23 3 41 0q19 -4 32 -13q16 -10 22 -22
q8 -15 11 -27q3 -14 0 -27q-5 -15 -12 -25q-9 -12 -21 -19q-14 -8 -29 -9q-17 -1 -34 2q-4 1 -7.5 2t-7.5 2q-1 -9 3 -22q5 -16 13 -26q11 -13 24 -20q13 -9 32 -9t36 18q17 20 27 49q5 16 9.5 33t6.5 37q6 40 6 83q0 18 -1.5 36t-3.5 35q-4 35 -17 65t-31 47q-18 18 -50 20
q-23 1 -50 -13q-27 -16 -49 -41q-11 -13 -21.5 -28t-18.5 -32t-14 -35.5t-8 -38.5q-2 -19 -3.5 -37.5t0.5 -36.5q0 -19 1.5 -35.5t3.5 -31.5q4 -32 9 -54q3 -11 5.5 -20t4.5 -14q2 -7 5 -14t5 -14q4 -14 18 -31z" />
    <glyph glyph-name="c" unicode="c" horiz-adv-x="517" 
d="M466 409q1 -15 -5 -33q-7 -19 -19 -31q-15 -15 -33 -22q-19 -9 -45 -7q-26 1 -45 16q-19 16 -26 34q-9 19 -7 39q2 21 15 33q14 12 5 26q-2 4 -5.5 6.5t-7.5 4.5q-8 4 -17 4q-29 0 -51 -19q-23 -20 -38 -48t-25 -65t-11 -67q-2 -22 -1.5 -43t2.5 -42q3 -45 16 -78
q13 -35 36 -61q24 -25 62 -33q41 -8 70 7q31 16 50 41t27 51q8 27 1 38q-6 -8 -18 -16q-7 -5 -21 -10t-27 -4q-23 2 -36 16q-13 15 -11 34q1 15 13 30t27 22q17 9 37 11q21 3 40 -1q10 -2 19 -5.5t17 -8.5q19 -11 29 -27q13 -18 17 -37q4 -22 0 -47q-4 -26 -23 -54
q-18 -28 -46 -48q-27 -21 -65 -35t-81 -12q-25 1 -49.5 5.5t-47.5 14.5q-48 20 -83 55q-36 34 -59 87q-23 54 -23 118t20 118q21 52 56 90q33 36 81 56q23 10 47.5 15.5t50.5 5.5q54 0 90 -12t57 -30q22 -19 31 -41q8 -21 10 -41z" />
    <glyph glyph-name="d" unicode="d" horiz-adv-x="549" 
d="M375 394q-3 9 -6.5 18t-6.5 17q-4 8 -9 15.5t-10 14.5q-11 14 -25 22t-34 10q-23 1 -47 -13q-24 -16 -41 -39q-10 -13 -17.5 -27t-14.5 -30q-14 -33 -18 -67q-6 -49 -2 -89q4 -42 17 -75q11 -31 29 -52q18 -19 38 -19q24 0 41 20q16 19 25 47q7 23 4 39t-8 27q-2 6 -6 7
q-4 3 -6 1q-4 -1 -5 -11q-2 -16 -13 -27q-12 -12 -30 -9q-20 4 -30 24q-10 19 -8 44q2 29 20 52q19 22 51 21q21 -2 37 -15q17 -14 28 -37q10 -22 15 -53q5 -32 -1 -63q-2 -14 -6.5 -27t-10.5 -26q-14 -26 -31 -43q-20 -20 -43 -30q-25 -11 -52 -11q-32 0 -63 16t-57 50
q-26 35 -39 85q-15 51 -12 119q3 67 28 121q25 55 63 93q37 38 82 57q43 19 85 13q36 -5 57 -21t32 -37q0 22 -0.5 42.5t-1.5 40.5q0 20 -1 38t-2 35q0 17 -1 31t-2 26q-1 22 -5 38q-2 11 -5 20t-5 16q-3 7 -7.5 13t-9.5 13q15 -4 28.5 -6t25.5 -4t23.5 -3t22.5 -1
q21 0 44 3q11 2 23.5 4.5t26.5 6.5q-4 -7 -7.5 -13.5t-7.5 -12.5q-9 -14 -13 -33q-2 -10 -4 -24.5t-4 -34.5t-3.5 -41.5t-3.5 -45.5q-2 -25 -3 -50.5t-2 -51.5t-1.5 -51.5t-0.5 -48.5q0 -41 1.5 -82t3.5 -84q3 -43 7.5 -84t9.5 -83q3 -28 28 -59q-32 8 -53 9q-25 3 -44 2
q-11 -1 -21.5 -1.5t-21.5 -2.5t-24.5 -3.5t-29.5 -3.5q7 7 15 20q7 13 9 24q4 36 6.5 75.5t4.5 82.5t3 86z" />
    <glyph glyph-name="e" unicode="e" horiz-adv-x="535" 
d="M269 499q-30 0 -50 -13q-11 -7 -19.5 -14.5t-15.5 -17.5q-16 -20 -23 -44q-4 -13 -6.5 -24.5t-3.5 -22.5l219 -1q-1 11 -3 22.5t-5 23.5q-8 27 -19 45q-14 20 -31 33q-19 13 -43 13zM145 300q-3 -33 0 -74q3 -43 15 -80q7 -19 16 -36t21 -31q24 -28 62 -36q41 -8 70 7
q31 16 50 41t27 51q8 27 1 38q-6 -8 -18 -16q-9 -7 -20 -10q-7 -2 -13.5 -3.5t-14.5 -0.5q-23 2 -35 16q-13 15 -11 34q1 16 12 30q12 15 27 22q17 9 37 11q23 3 41 -1q10 -2 19 -5.5t17 -8.5q18 -12 28 -27q13 -18 17 -37q4 -22 0 -47q-4 -26 -23 -54q-18 -28 -46 -48
q-27 -21 -65 -35t-81 -12q-25 1 -49.5 5.5t-47.5 14.5q-48 20 -83 55q-36 34 -59 87q-23 54 -23 118q0 65 20 119q21 52 56 89q36 38 82 57q48 20 97 20q55 0 95 -22q41 -22 70 -57q29 -37 44 -81q16 -45 19 -93h-354z" />
    <glyph glyph-name="f" unicode="f" horiz-adv-x="371" 
d="M388 719q1 -12 0 -24.5t-3 -25.5q-4 -26 -15 -49t-27 -36q-17 -14 -40 -14q-29 0 -45 14q-17 13 -21 33q-4 22 3 40q7 19 23 26t27 -2q12 -12 13 -19q1 -8 9 -6q7 1 9 11q3 13 1 33q-3 16 -11 33q-7 14 -22 24q-13 10 -33 7q-23 -3 -38 -20q-17 -19 -17 -58l-1 -170
q31 1 63 6q34 5 70 15q-2 -14 -2.5 -30.5t-1.5 -34.5q0 -37 10 -66q-38 24 -72 33q-36 11 -67 12l-1 -223q0 -24 1 -45.5t4 -41.5q6 -38 14 -56q4 -9 11 -18q6 -6 12 -14q3 -4 6 -7l6 -6q-15 2 -30.5 3.5t-32.5 1.5q-17 2 -33.5 2h-32.5t-31.5 -0.5t-29.5 -1.5t-27 -2
t-24 -3q5 5 10 9t10 9q8 8 15.5 16.5t13.5 17.5q8 15 15 52q4 19 5.5 41t1.5 48v208q-7 -2 -14 -3.5t-14 -3.5t-14 -5t-15 -5q5 18 6 31q1 7 1.5 13.5t0.5 13.5t-0.5 13t-1.5 12q-2 13 -6 30q15 -4 29 -6q7 -2 14 -3l14 -2l-1 162q0 37 12 67q14 32 35 51q21 21 53 34
q31 12 67 12q29 0 56 -11q26 -11 44 -30q17 -19 28 -43q5 -12 7.5 -24t3.5 -25z" />
    <glyph glyph-name="g" unicode="g" horiz-adv-x="483" 
d="M288 387q0 50 -19 79q-21 31 -50 31t-49 -29q-20 -31 -20 -81q0 -46 20 -78t49 -32t49 30q20 31 20 80zM468 551q1 -11 0 -21q-2 -12 -6 -21q-5 -9 -15 -17q-8 -7 -22 -7q-11 0 -18 3q-4 2 -7 4.5t-5 4.5q-6 5 -7 10q-3 6 -3 10q-2 16 6 24q6 8 17 13q-4 2 -14 4
q-8 2 -15 -1q-9 0 -20 -8q-8 -5 -14 -15q-8 -11 -9 -18q37 -23 60 -57q23 -35 23 -75q0 -35 -15 -63q-16 -30 -43 -52q-25 -21 -63 -35q-36 -13 -78 -13q-11 0 -23.5 1t-26.5 3q-30 5 -48 17q-7 -22 6 -32q14 -11 39 -17q13 -3 28.5 -5.5t33.5 -4.5q37 -5 78 -15
q23 -5 41.5 -13t34.5 -18q30 -20 49 -47q18 -24 26 -57t5 -62q-9 -98 -68 -154q-59 -57 -160 -65q-31 -2 -58.5 0t-50.5 7q-49 11 -80 33q-33 23 -48 52q-16 30 -14 66q1 22 12 42t30 35q20 16 44 24q25 10 54 15q30 4 57 0q14 -2 25.5 -6.5t21.5 -9.5q20 -11 32 -27
q13 -18 13 -34q2 -47 -29 -71q-31 -25 -77 -21q-33 3 -49 19q-18 16 -16 36q3 28 22 38q20 10 44 10q12 0 24 -5t19 -12q5 17 -4 27q-5 6 -15 11q-11 5 -20 6q-5 1 -11 1.5t-11 0.5q-12 0 -16 -1q-34 -5 -52 -26q-19 -20 -19 -55q0 -17 7 -34q7 -18 27 -35q18 -15 52 -26
q17 -5 37.5 -7t46.5 -1q33 2 58 12q26 12 44 30q18 19 27 42q9 21 7 47q-2 23 -11 40q-8 16 -26 31q-18 13 -45 24q-14 5 -30 11t-35 11q-74 21 -111 48q-39 30 -49 56q-11 30 -1 56t34 45q-34 22 -54 56t-20 71q0 34 15 63q16 30 43 52q25 21 63 35q36 13 78 13q19 0 39 -3
q10 -2 19.5 -4.5t18.5 -5.5q7 20 29 42t48 28q24 5 39 2q18 -5 28 -12q12 -9 18 -21q8 -12 9 -22z" />
    <glyph glyph-name="h" unicode="h" horiz-adv-x="544" 
d="M28 799q30 -7 53 -9q22 -3 44 -3q21 0 44 3q21 4 53 9q-4 -7 -8 -13.5t-8 -12.5q-9 -14 -13 -33q-5 -20 -8 -48t-5 -65q-3 -38 -5 -80.5t-3 -90.5q5 5 10.5 11t12.5 14q13 15 34 29q20 14 43 23q23 10 50 10q34 0 61 -16t40 -41q15 -27 18 -61q2 -17 1 -36t-5 -39
q-6 -29 -20 -59q-8 -15 -15 -29.5t-15 -28.5t-14.5 -28.5t-11.5 -28.5q-11 -30 -11 -55q0 -27 9 -43q10 -18 22 -25q7 -5 14 -7l14 -4h13.5t11.5 2q13 4 23 13q9 9 16 21q6 11 8 22q2 12 -2 18q-4 7 -10 3q-7 -5 -14 -15q-9 -10 -28 -9q-15 2 -26 14q-11 13 -6 33
q5 21 24 31t46 6q24 -4 44 -27q19 -23 18 -60q0 -8 -2 -16.5t-5 -18.5q-7 -21 -18 -37q-14 -18 -33 -30q-18 -12 -49 -14q-27 -2 -53 6q-24 7 -47 25q-22 17 -34 43q-15 29 -16 63q-1 19 0 36t5 34q8 34 18 62q5 15 11 28.5t11 25.5q5 13 9.5 24t8.5 22q7 20 8 34
q2 19 -2 30q-5 15 -14 23q-10 10 -29 13q-39 6 -70 -10q-32 -18 -54 -46q1 -81 6 -165q2 -43 6.5 -84t9.5 -83q3 -28 28 -59q-29 6 -53 9t-46 3t-44 -3q-23 -3 -51 -9q7 7 15 20q7 13 9 24q6 58 9 126q2 35 3.5 69.5t1.5 69.5q2 35 2 69.5v68.5t-0.5 65.5t-1.5 60.5t-2 54
t-2 47q-2 22 -3.5 37.5t-3.5 25.5q-2 11 -5 20t-5 16q-3 7 -7.5 13t-9.5 13z" />
    <glyph glyph-name="i" unicode="i" horiz-adv-x="276" 
d="M61 693q0 30 28 49q29 20 68 20t68 -20q28 -19 28 -49t-28 -49q-29 -20 -68 -20t-68 20q-28 19 -28 49zM37 580q14 -2 26.5 -4t23.5 -4q24 -3 46 -3q11 0 22.5 0.5t22.5 1.5q24 3 50 9q-5 -5 -9 -9.5t-7 -8.5q-9 -9 -13 -22q-5 -13 -8 -31.5t-6 -43.5t-4.5 -53t-2.5 -60
q-2 -63 3 -134q4 -71 18 -138q1 -9 8 -19q7 -11 21 -21q-27 4 -51 6q-12 2 -23.5 2.5t-22.5 1.5q-11 0 -22.5 -0.5t-22.5 -1.5q-21 -1 -49 -8q5 2 8.5 5.5l7.5 7.5q7 9 9 17q6 39 9 85q2 23 3.5 46.5t1.5 46.5q2 24 2 47.5v46.5t-0.5 44t-1.5 41t-2 37t-2 31q-2 14 -3.5 25
t-3.5 18q-4 14 -11 24q-5 8 -17 18z" />
    <glyph glyph-name="j" unicode="j" horiz-adv-x="293" 
d="M32 686q0 30 28 49q29 20 68 20t68 -20q28 -19 28 -49t-28 -49q-29 -20 -68 -20t-68 20q-28 19 -28 49zM22 540q45 -11 97 -12q53 -3 95 12q-2 -27 -3.5 -57t0.5 -62q0 -33 1 -66.5t2 -68.5q1 -70 0 -140q0 -68 -11 -132q-11 -62 -33 -117q-11 -28 -25 -52t-30 -44
q-32 -41 -71 -65t-83 -26q-34 -1 -62 9q-29 10 -48 30q-21 20 -32 46q-11 29 -10 58q2 31 12 53q12 23 30 38q17 14 39 22q25 8 42 7q20 -2 33 -10q15 -12 22 -24q9 -15 12 -31q5 -17 3 -32q-2 -30 -18 -48q-17 -18 -42 -18q-21 0 -34 16q-15 18 -16 29q-1 4 -1 15v8t1 8
q0 10 1 15q1 7 3 9q-9 1 -23 -13q-13 -13 -13 -47q0 -17 6 -32q8 -17 20 -27q13 -12 32 -19t43 -6q29 2 50 20q23 20 41 51q18 32 30 77q6 22 11 45.5t8 48.5q2 17 3 37t1 44q0 25 -0.5 50.5t-1.5 52.5q-2 54 -6 108q-4 53 -9 100q-5 45 -9 75t-8 35q-11 15 -29 22l-10 4z
" />
    <glyph glyph-name="k" unicode="k" horiz-adv-x="559" 
d="M543 15q-1 -15 -6 -35q-7 -21 -18 -37q-14 -18 -33 -30q-19 -13 -49 -15q-27 -2 -53 6q-25 9 -47 26q-21 18 -35 44q-14 28 -17 62q-2 20 1 35q2 9 4.5 18t5.5 17q3 9 6 17.5t7 16.5q7 16 12 32q4 12 6 27q2 18 -1 31q-5 17 -13 26q-10 12 -29 16q-36 7 -65 -8
q-30 -15 -51 -39q1 -47 6 -94q2 -23 5 -46l6 -46q3 -28 28 -59q-9 2 -19.5 3t-22.5 2t-24.5 1.5t-25.5 0.5t-26 -0.5t-26 -1.5q-25 0 -50 -5q7 7 15 20q7 13 9 24q4 39 6.5 81.5t4.5 89.5q2 48 3 94t2 93q1 58 0.5 103.5t-1.5 79.5q-2 34 -4 60t-6 43q-5 23 -10 35
q-3 7 -7.5 13t-9.5 13q38 3 58 13q21 10 39 23q9 6 18.5 11.5t20.5 10.5q20 10 57 10q-4 -7 -7.5 -13.5t-7.5 -11.5q-4 -6 -7.5 -14.5t-5.5 -19.5q-2 -10 -4 -25t-4 -36t-3.5 -44.5t-3.5 -49.5t-3 -53t-2 -55t-1.5 -54t-0.5 -49v-35v-18t1 -18q13 10 27 21t29 23t27 21.5
t20 17.5q8 7 16 15t18 16q10 9 18.5 18t16.5 17q15 15 25 30q10 13 5 20q-5 4 -15 9q-5 2 -11 5t-12 5q-7 3 -15 5.5t-16 5.5q28 -5 60 -5q17 -2 35 -2t37 1q19 0 37 0.5t35 1.5q35 2 59 6q-9 -3 -18 -5.5t-17 -5.5q-7 -2 -14 -5t-15 -6t-13.5 -6.5t-10.5 -6.5
q-4 -3 -10.5 -9t-16.5 -14t-20.5 -17.5t-21.5 -19.5l-45 -39q-11 -10 -19.5 -18t-15.5 -14q33 -5 57 -21q12 -8 21 -19t16 -24q15 -29 16 -59q2 -33 -9 -68q-4 -12 -8 -22t-9 -18t-9.5 -15t-9.5 -14q-9 -13 -15 -29q-5 -13 -7 -36q-1 -25 8 -42q9 -16 22 -25q14 -9 28 -11
q17 -2 26 1q13 4 23 13q9 9 16 21q6 11 8 22q2 12 -2 18q-4 7 -10 3q-7 -5 -14 -15q-9 -10 -28 -9q-15 2 -26 14q-11 13 -6 33q5 21 24 31q20 11 46 6q24 -4 44 -26q19 -21 17 -60z" />
    <glyph glyph-name="l" unicode="l" horiz-adv-x="255" 
d="M194 39q3 -28 28 -59q-9 2 -19.5 3t-22.5 2t-24.5 1.5t-25.5 0.5t-26 -0.5t-26 -1.5q-25 0 -50 -5q7 7 15 20q7 13 9 24q4 39 6.5 81.5t4.5 89.5q2 48 3 94t2 93q1 58 0.5 103.5t-1.5 79.5q-2 34 -4 60t-6 43q-5 23 -10 35q-3 7 -7.5 13t-9.5 13q38 3 58 13q21 10 39 23
q9 6 18.5 11.5t20.5 10.5q20 10 57 10q-4 -7 -7.5 -13.5t-7.5 -11.5q-4 -6 -7.5 -14.5t-5.5 -19.5q-2 -10 -4 -25t-4 -36t-3.5 -44.5t-3.5 -49.5t-3 -53t-2 -55t-1.5 -54t-0.5 -49q0 -41 1 -82t3 -84q3 -43 7.5 -84t9.5 -83z" />
    <glyph glyph-name="m" unicode="m" horiz-adv-x="847" 
d="M222 40q-51 6 -104 6q-52 0 -86 -6q4 2 7.5 5.5l7.5 7.5q7 9 9 17q6 39 9 85q2 23 3.5 46.5t1.5 46.5q2 24 2 47.5t-1 46.5v44t-2 41q0 20 -1 37t-3 31q-3 30 -6 43q-1 10 -10 22q-5 5 -9 10l-8 10q25 -4 48.5 -6.5t45.5 -3.5q47 -2 96 10q-8 -11 -15 -18q-8 -8 -14 -22
q-3 -9 -6 -32q22 27 57 51q34 25 79 25q59 0 96 -25t52 -63q1 1 1 0q4 5 9.5 11t12.5 14q8 8 16 15t18 14q20 14 44 23q23 10 50 10q34 0 61 -16t40 -41q15 -27 18 -61q2 -17 1 -36t-5 -39q-6 -29 -20 -59q-8 -15 -15 -29.5t-15 -28.5t-14.5 -28.5t-11.5 -28.5
q-11 -30 -11 -55q0 -27 9 -43q10 -18 22 -25q7 -5 14 -7l14 -4h13.5t11.5 2q13 4 23 13q9 9 16 21q6 11 8 22q2 12 -2 18q-4 7 -10 3q-7 -5 -14 -15q-9 -10 -28 -9q-15 2 -26 14q-11 13 -6 33q5 21 24 31t46 6q24 -4 44 -26q19 -21 17 -60q-1 -15 -6 -35q-7 -21 -18 -37
q-14 -18 -33 -30q-19 -13 -49 -15q-14 -1 -27 0t-26 5q-24 7 -47 25q-22 17 -34 44q-15 29 -16 63q-1 19 0 36t5 34q8 34 18 62q5 15 11 28.5t11 25.5q5 13 9.5 24t8.5 22q7 20 8 34q2 19 -2 30q-5 15 -14 23q-10 10 -29 13q-36 6 -64 -7q-29 -13 -50 -37v-7q0 -13 -1 -24.5
t-2 -21.5q-1 -11 -2 -21l-2 -20l-2 -22t-2 -23t-2 -26.5t-1 -31.5v-24.5t1 -29.5q0 -16 1 -31.5t3 -31.5q4 -29 14 -57q9 -25 25 -32q-10 2 -21 3t-24 2t-26.5 1.5t-27.5 0.5t-27.5 -0.5t-27.5 -1.5t-27 -2t-26 -3q17 6 28 29q10 22 15 52q3 15 5 30t2 31q2 16 2 29.5
t1 25.5q1 9 1 20t1 25v28.5t-1 30.5q0 30 -3 62q-3 34 -10 57q-7 25 -19 41q-11 15 -30 17q-14 1 -32 -7q-14 -8 -31 -23t-30 -33q-8 -10 -14.5 -19t-12.5 -19q-1 -11 -1.5 -23t-1.5 -24q-1 -13 -1 -25v-24q0 -18 -0.5 -36t1.5 -35q0 -18 1 -34.5t2 -32.5q2 -16 3.5 -30.5
t3.5 -27.5q2 -14 5 -25t5 -20q3 -12 8 -19q4 -5 8.5 -10.5t11.5 -10.5z" />
    <glyph glyph-name="n" unicode="n" horiz-adv-x="551" 
d="M179 456q4 5 9.5 11t12.5 14q8 8 16 15t18 14q20 14 43 23q23 10 50 10q35 0 62 -16t40 -41q15 -27 18 -61q2 -17 1 -36t-5 -39q-6 -29 -20 -59q-8 -15 -15 -29.5t-15 -28.5t-14.5 -28.5t-11.5 -28.5q-11 -30 -11 -55q0 -27 9 -43q10 -18 22 -25q7 -5 14 -7l14 -4h13.5
t11.5 2q13 4 23 13q9 9 16 21q6 11 8 22q2 12 -2 18q-4 7 -11 3q-2 -2 -5.5 -6t-7.5 -9q-9 -10 -28 -9q-15 2 -26 14q-11 13 -6 33q5 21 24 31t46 6q24 -4 44 -26q19 -21 17 -60q-1 -15 -6 -35q-7 -21 -18 -37q-14 -18 -33 -30q-19 -13 -49 -15q-14 -1 -27 0t-26 5
q-25 7 -48 25q-22 17 -34 44q-14 27 -15 63q-1 19 0 36t5 34q8 34 18 62q5 15 11 28.5t11 25.5q5 13 9.5 24t8.5 22q7 20 8 34q2 19 -2 30q-5 15 -14 23q-10 10 -29 13q-45 8 -78 -14q-34 -22 -55 -54q-2 -36 -3 -76.5t1 -85.5q4 -90 21 -177q3 -19 28 -40q-26 6 -50 9
q-26 3 -46 2q-23 0 -45 -3q-11 -2 -23.5 -4t-26.5 -4q5 2 8.5 5.5l7.5 7.5q7 9 9 17q6 39 9 85q2 23 3.5 46.5t1.5 46.5q2 24 2 47.5t-1 46.5v44t-2 41q0 20 -1 37t-3 31q-3 30 -6 43q-3 11 -11 22q-8 10 -17 20q49 -6 103 -6q53 0 88 6q-5 -5 -9 -9.5t-7 -8.5
q-9 -9 -13 -22q-1 -4 -2 -9l-2 -10q-4 -13 -5 -25z" />
    <glyph glyph-name="o" unicode="o" horiz-adv-x="523" 
d="M358 248q0 23 -2 45.5t-6 43.5q-7 41 -21 73q-13 31 -33 49t-40 18q-21 0 -39 -18q-20 -18 -33 -49q-7 -16 -12.5 -34t-9.5 -39t-6 -43.5t-2 -45.5q0 -46 8 -89q4 -21 9.5 -39t12.5 -34q13 -32 32 -50t40 -18q20 0 40 18q18 17 32 49q7 16 12.5 34.5t9.5 38.5
q4 21 6 43.5t2 46.5zM497 248q0 -59 -18 -108q-20 -52 -51 -89q-33 -38 -76 -60t-93 -22t-93 22q-45 23 -76 60t-51 88q-19 50 -19 109t19 109q20 52 51 89t75 60q43 22 94 22q49 0 92 -22q45 -23 76 -60q33 -37 51 -89q19 -50 19 -109z" />
    <glyph glyph-name="p" unicode="p" horiz-adv-x="538" 
d="M170 147q4 -18 12 -37q7 -18 18 -33q10 -14 25 -24q15 -11 34 -12q25 -3 47 16q11 10 21.5 22t20.5 28t17.5 33.5t14.5 36.5q7 20 11 38.5t6 37.5q2 15 2 31.5t-1 35.5t-3.5 35.5t-7.5 32.5q-9 31 -26 53q-18 21 -45 20q-23 -2 -40 -20q-18 -21 -26 -47q-7 -20 -4 -39
q3 -18 8 -27q7 -11 12 -9t5 12q0 12 13 27q13 13 31 9q20 -5 29 -24q10 -19 8 -44q-2 -31 -20 -52q-20 -23 -51 -21q-20 1 -36 15q-17 14 -28 37q-11 21 -16 53q-2 15 -1.5 30.5t2.5 32.5q5 29 16 53q12 25 30 43t43 29q24 11 53 9q32 -1 65 -22q32 -20 58 -57
q13 -18 23 -39t17 -46q13 -50 9 -108q-6 -67 -31 -120q-25 -52 -62 -91q-39 -39 -80 -56q-44 -18 -84 -12q-39 6 -58 21q-21 16 -32 37q1 -45 1.5 -83.5t2.5 -72.5t4 -58t5 -38q2 -11 5 -19.5t6 -15.5t7.5 -13t9.5 -13h-195q5 7 8.5 13.5t7.5 12.5q9 14 13 33q2 10 4 24
t4 34t3.5 42t3.5 46q2 25 2.5 50.5t2.5 51.5q0 26 0.5 51.5t0.5 48.5v37.5t-1 32.5t-1.5 29.5t-1.5 28.5q-2 14 -3.5 29t-3.5 30q-5 31 -9 72q-1 13 -8 28q-4 8 -8.5 15.5t-11.5 15.5q32 1 53 13q10 6 19.5 12t18.5 13q10 7 20 13t21 11q22 10 61 12q-7 -6 -16 -20
q-8 -14 -9 -24q-4 -36 -6 -75.5t-4 -82.5t-3 -86z" />
    <glyph glyph-name="q" unicode="q" horiz-adv-x="538" 
d="M519 543q-11 -11 -20 -40q-9 -33 -15 -71q-3 -20 -5.5 -42t-4.5 -45q-4 -46 -6 -89q-2 -22 -2.5 -41t-1.5 -36t-1 -29.5v-20.5q0 -23 0.5 -48.5t1.5 -51.5t2 -51.5t3 -49.5q3 -47 6 -88q2 -20 4 -34.5t4 -24.5q4 -21 12 -33q4 -6 8 -12.5t9 -13.5h-195q5 7 9.5 13t7.5 13
t6 15.5t5 19.5q3 14 4.5 38t3.5 58t3 72.5t2 83.5q-3 -5 -7.5 -10t-9.5 -10q-14 -12 -26 -19q-8 -4 -15.5 -7.5t-15.5 -5.5q-17 -6 -32 -6q-46 0 -87 14q-42 14 -77 48q-34 34 -55 87q-22 53 -22 130q0 59 18 109q19 50 48 88q28 36 64 60q34 22 68 24q40 3 73 -8
q32 -10 54 -37q41 2 62 10q22 9 38 19q8 5 16.5 9t16.5 8q15 7 49 5zM355 327q-10 -23 -22 -39t-27 -31q-8 -7 -15 -12.5t-15 -9.5q-15 -7 -29 -9q-32 -2 -51 21q-18 21 -20 52q-2 24 7 43q10 20 30 25q18 4 30 -9q14 -14 14 -27q0 -10 5 -12q3 -2 11 6q11 9 17 19
q9 12 15 27q7 14 7 30q-2 39 -21 52q-20 16 -42 17q-25 1 -47 -17q-22 -20 -36 -50q-16 -30 -25 -70q-5 -20 -7.5 -40t-2.5 -40q0 -40 12 -79q13 -39 33 -69q18 -30 44 -49q25 -18 49 -15q19 1 33 11q15 10 25 25t18 33q4 9 7.5 18t5.5 19v48.5t-1 45.5q0 22 -0.5 43.5
t-1.5 42.5z" />
    <glyph glyph-name="r" unicode="r" horiz-adv-x="505" 
d="M193 540q-6 -33 -9 -66q9 7 19.5 14t23.5 14t29 12.5t35 9.5q32 7 69 2q34 -4 61 -21q14 -8 25 -18t19 -23q17 -26 17 -59q0 -32 -10 -56q-10 -25 -29 -42q-20 -19 -44 -27q-24 -10 -53 -10q-59 1 -87 24q-29 23 -31 55q-2 30 15 44q16 14 39 16q27 1 39 -12
q13 -16 14 -36q1 -5 -1 -13q-1 -4 -2 -7t-2 -5q-4 -8 -7 -12q15 0 29 8q11 6 20 20q10 14 10 41q0 17 -8 31q-8 15 -20 22q-14 9 -29 12q-8 2 -17 2.5t-17 0.5t-23 -5q-8 -3 -15.5 -6t-15.5 -7t-15.5 -8t-15.5 -9t-15 -8.5t-13 -7.5q-5 -63 -3 -122q1 -29 2 -56t3 -50
q2 -24 4 -44t4 -37t4 -28.5t3 -17.5q4 -23 18 -36q17 -15 26 -19h-222q11 2 26 14q14 12 18 37q2 12 4 27t4 33t3.5 37.5t1.5 39.5q2 21 2 42.5v43.5t-0.5 43t-1.5 41q0 20 -1 38t-3 35q-5 34 -9 53q-6 24 -15 35q-5 5 -12 10.5t-17 10.5h176z" />
    <glyph glyph-name="s" unicode="s" horiz-adv-x="437" 
d="M311 395q-16 -2 -30.5 0t-27.5 9q-27 14 -29 40q-2 27 8 37q11 11 31 11t29 -12q9 -14 9 -18q0 -5 3 -12q3 -8 9 -9q7 -1 15 7q8 10 7 33q-2 23 -25 43q-22 19 -71 21q-45 1 -70 -21q-26 -23 -27 -51q-2 -15 15 -39q8 -12 26.5 -25.5t46.5 -30.5l76 -45q37 -22 59 -42
q24 -24 35 -43q13 -20 16 -40q3 -22 1 -36q-6 -38 -27 -66q-22 -28 -54 -46t-73 -26t-84 -6q-44 1 -75 15q-33 14 -52 33q-21 21 -28 44q-9 23 -7 48q1 22 11 40q10 16 23 26t28 13q19 3 30 1q16 -3 27 -11q12 -9 16 -18q2 -5 4 -10.5t2 -10.5q3 -10 1 -19q-3 -21 -20 -33
q-17 -13 -32 -14q-16 -1 -25 6q-9 6 -11 16q-1 2 -1.5 5t-1.5 5q-2 5 -4 6q-2 0 -6 -2q-5 -2 -3 -13q1 -27 28 -50q28 -23 66 -29q53 -9 85 8q16 8 27.5 20t19.5 26q3 5 5 16q2 12 -1 25q-5 15 -16 31q-12 17 -38 32l-71 41q-44 25 -78 59q-33 32 -41 78q-6 37 8 70t42 55
q29 24 67 36q38 13 83 13q39 0 66 -9q28 -9 45 -23q19 -16 26 -33q7 -18 9 -36q1 -14 -3 -27q-5 -15 -13 -28q-10 -14 -24 -23q-8 -5 -16.5 -7.5t-19.5 -4.5z" />
    <glyph glyph-name="t" unicode="t" horiz-adv-x="390" 
d="M376 125q-1 -13 -3.5 -25.5t-7.5 -24.5q-11 -25 -28 -42q-18 -20 -43 -30q-27 -11 -57 -11q-36 0 -67 12q-30 11 -53 33q-22 22 -34 52q-13 29 -13 67l1 334q-7 -1 -13.5 -2t-13.5 -3t-14 -3t-15 -3v113q16 -5 29.5 -9.5t26.5 -7.5v9q0 5 -0.5 10.5t-1.5 12.5
q-2 13 -6 30q-4 15 -15 29q5 0 12.5 0.5t17.5 1.5q19 1 39 9q11 4 20.5 9.5t19.5 12.5q18 14 29 41l1 -175q16 0 32 2t33 6t34.5 9t34.5 10v-113q-19 5 -36.5 8.5t-33.5 5.5q-31 4 -62 6v-341q0 -41 15 -57q17 -18 40 -21q19 -3 32 6q7 5 12.5 11t9.5 14q9 17 10 33
q2 9 2.5 17t-1.5 16q-2 10 -9 11q-3 2 -6 -1q-3 0 -3 -5q-1 -8 -13 -18q-11 -11 -27 -3q-17 8 -23 25q-7 19 -3 40q5 21 19 34q17 14 47 14q22 0 39 -14q16 -14 27 -36q10 -23 15 -48q2 -14 3.5 -26.5t0.5 -24.5z" />
    <glyph glyph-name="u" unicode="u" horiz-adv-x="550" 
d="M529 6q-23 4 -47.5 5.5t-49.5 2.5q-49 1 -96 -8v49q-10 -13 -34 -29q-24 -15 -63 -21q-41 -6 -77 -2q-37 4 -66 26q-29 21 -42 61q-14 41 -5 103q3 20 4.5 40.5t3.5 41.5q0 21 0.5 41t-1.5 40q0 20 -1.5 37.5t-3.5 34.5q-4 33 -9 55q-2 7 -10 16q-4 4 -8 7.5t-9 7.5
t-11 7.5t-12 7.5q12 -2 26 -3.5t31 -1.5q17 -2 33 -2t32 1q17 0 32 0.5t29 1.5t25.5 2t19.5 3q-2 -2 -5 -4q-2 -2 -5 -4.5t-5 -4.5l-6 -6t-5 -6q-5 -6 -6 -13q-3 -16 -6.5 -33.5l-7.5 -37.5t-7.5 -41t-6.5 -43q-6 -44 -9 -84q-2 -20 -2.5 -38.5t0.5 -34.5q2 -25 10 -43
q10 -19 24 -31q7 -7 15 -11.5t17 -8.5q17 -7 37 -7q10 0 17.5 0.5t13.5 1.5t11 3l10 4q8 4 16 12t16 19q6 45 9 100q2 28 2.5 55t-0.5 55t-2 53.5t-3 50.5t-4.5 45t-6.5 37q-1 7 -10 14q-10 7 -20 11q-6 2 -12.5 5t-14.5 6q34 -7 65 -9.5t60 -0.5t54.5 5.5t47.5 7.5
q0 -3 -4 -6q-2 -2 -5 -4t-5 -4l-5 -5t-5 -6q-5 -5 -7 -14q-2 -11 -3.5 -26.5t-3.5 -34.5q-2 -20 -3.5 -40.5t-1.5 -43.5q-2 -23 -2 -46.5v-48.5q0 -24 0.5 -46.5t1.5 -44.5q1 -44 6 -78q5 -36 12 -52q2 -4 11 -13q5 -4 9 -7t9 -6q10 -9 16 -12q8 -6 8 -10z" />
    <glyph glyph-name="v" unicode="v" horiz-adv-x="480" 
d="M-55 556q40 -5 76.5 -7t69.5 0q67 4 126 15q-13 -5 -28 -17q-12 -11 -22 -23q-10 -13 -15 -34q-6 -24 -1 -58q3 -17 7.5 -34t9.5 -34q13 -38 27 -71q8 -18 15 -34.5t14 -31.5q13 -32 24 -54q12 -26 14 -35q11 29 27 59q13 25 35 62q11 17 23.5 36t26.5 39q18 25 34 60
q8 17 13 33t7 32q6 31 -5 56q-10 23 -43 31q-26 6 -45 0q-10 -4 -18.5 -8.5t-15.5 -11.5q-15 -15 -22 -33q-9 -20 -12 -37q-3 -16 7 -9q6 7 19 16t28 7q24 -2 37 -21q13 -20 10 -49q-3 -26 -20 -41q-17 -16 -52 -13q-20 2 -34 13q-8 6 -14.5 13.5t-11.5 15.5q-5 9 -8.5 18.5
t-5.5 20.5q-4 22 0 44q6 30 21 57q16 28 38 47t51 30q31 11 61 7q34 -5 53 -19q20 -17 30 -38t13 -49q0 -14 -0.5 -27t-2.5 -27q-3 -20 -10 -38.5t-18 -37.5t-22.5 -37.5t-24.5 -37.5t-26 -39l-26 -40q-26 -39 -45 -88q-9 -24 -8 -41q0 -18 11 -31l5 -5t7 -5q8 -7 17 -11
q5 -3 10.5 -6t11.5 -6q-77 11 -151 5q-38 -3 -73 -7.5t-67 -9.5q0 1 2 2q1 1 3 2.5t4 3.5q5 4 10 8.5t10 9.5t10 10.5t10 10.5q8 9 10 17q1 7 0.5 18t-2.5 27t-5 34.5t-8 39.5t-10.5 43.5t-12.5 45.5t-14 45.5t-15 44.5t-16.5 42t-16.5 37t-16.5 31t-17.5 23q-9 11 -21 19
q-12 11 -18 14q-5 3 -9.5 6t-8.5 5z" />
    <glyph glyph-name="w" unicode="w" horiz-adv-x="788" 
d="M359 54q-14 -14 -41 -29q-26 -14 -63 -20q-41 -6 -77 -2q-37 4 -66 26q-29 21 -42 61q-14 41 -5 103q3 20 4.5 40.5t2.5 42.5t0.5 42t-1.5 40q0 20 -1.5 38t-3.5 34q-2 17 -4 30t-4 23q-2 9 -9 16q-4 4 -8 7.5t-9 7.5t-11 7.5t-12 7.5q12 -2 26 -3.5t30 -1.5q17 -2 33 -2
t32 1q17 0 32 0.5t29 1.5t25.5 2t19.5 3q-2 -2 -5 -4l-9 -9q-2 -3 -5 -6t-5 -6q-6 -8 -8 -13q-11 -29 -18 -69q-4 -20 -7.5 -40.5t-5.5 -42.5q-3 -22 -4.5 -43.5t-3.5 -42.5v-39.5t1 -34.5q2 -25 10 -43t23 -31q7 -7 15 -11.5t17 -8.5q17 -7 37 -7q30 0 42 4q15 6 26 17
q-5 17 -7 37.5t0 45.5q3 40 3.5 76.5t-2.5 69.5q-8 66 -18 105q-2 7 -10 16q-5 4 -9 7.5t-9 6.5q-9 6 -24 13q24 -3 53 -3q15 0 29.5 0.5t28.5 1.5t27.5 2t26.5 3q23 3 41 6q-2 -2 -5 -4q-2 -2 -5 -4.5t-5 -4.5q-5 -5 -9 -12q-5 -8 -6 -14q-11 -63 -12 -136t6 -137
q3 -25 15 -44q12 -22 30 -35q10 -7 20 -12t21 -7q23 -5 46 3q21 7 37 28q16 20 30 50q13 30 21 65q9 37 15 73q3 19 4.5 38.5t3.5 40.5q0 21 -1 40.5t-3 37.5q-4 36 -20 59t-42 22q-21 -2 -33 -11q-16 -11 -24 -26q-11 -17 -15 -39q-2 -11 -3.5 -22.5t-1.5 -24.5
q0 -11 3 -20q5 -10 8 -12q8 -5 6 7q-1 22 10 41q13 21 30 22q20 2 35 -15q16 -19 17 -57q1 -32 -11 -57q-14 -26 -51 -29q-15 -1 -31 6q-15 7 -29 21q-12 12 -22 34q-9 19 -11 48q-1 17 0 34t5 33q8 32 24 56q17 24 41 38q23 14 55 16q44 2 73 -20q31 -22 49 -60
q19 -40 23 -91q6 -54 -1 -110q-6 -47 -21 -94q-8 -23 -18 -45t-23 -42t-27.5 -37.5t-31.5 -31.5q-35 -29 -79 -41q-13 -4 -26 -5.5t-27 -2.5t-27 0.5t-26 3.5q-13 3 -25.5 7.5t-23.5 11.5q-23 14 -39 34z" />
    <glyph glyph-name="x" unicode="x" horiz-adv-x="628" 
d="M632 3q-29 6 -66 9q-39 3 -81 3q-21 0 -42 -0.5t-43 -1.5q-42 -3 -80 -9q52 11 70 22q20 12 16 22q-8 18 -15.5 35t-15.5 33q-8 17 -16 32.5t-16 30.5q-18 -34 -40 -64q-23 -32 -47 -56t-56 -40q-30 -17 -63 -18q-38 -2 -61 9q-22 10 -37 28q-12 16 -17 37q-3 10 -3.5 19
t0.5 17q1 16 9 30q7 14 21 25q15 12 32 16q20 5 39 1q18 -3 27 -12t14 -22q5 -15 5 -26q0 -7 -0.5 -13t-1.5 -11q-2 -11 -12 -23q-10 -13 -34 -11q-23 2 -30 16q-9 17 -8 25q1 10 -2 15q-3 4 -8 6t-9 -2q-7 -5 -5 -16q2 -8 3 -19q1 -13 9 -25q7 -12 22 -20q16 -9 42 -8
q33 2 53 22q21 20 38 55q8 17 15 36.5t14 41.5t14 45t15 47q-14 23 -29.5 46.5t-31.5 46.5q-17 23 -34 48t-36 51l-12 18q-4 5 -7.5 8.5l-7.5 7.5q-9 7 -21 15q-14 8 -32 12q16 -3 32.5 -5t35.5 -3t37 -1.5t37 0.5q37 1 72 3q17 2 32 4t28 4q-35 -11 -55 -26
q-21 -15 -12 -35q6 -13 11.5 -24.5t10.5 -22.5t11 -21.5t11 -20.5q19 39 42 74q23 34 50 63q25 28 54 45q28 16 54 18q37 1 63 -11q25 -13 38 -32q14 -20 17 -43q3 -24 -3 -45q-5 -14 -15 -26q-9 -12 -24 -20q-15 -9 -31 -10q-17 -2 -34 6q-27 12 -36 31q-10 21 -6 43
q6 33 35 33q19 0 27 -10q8 -9 10 -19q1 -9 6 -15q6 -7 16 -6q11 1 10 23q0 2 -0.5 5.5t-1.5 8.5q-1 10 -9 19q-6 9 -21 17q-13 7 -39 4q-28 -3 -47 -31q-10 -14 -19 -32t-17 -38t-15 -41.5t-13 -44.5q-7 -23 -13 -43.5t-13 -38.5q7 -11 14 -22.5t15 -22.5t16.5 -23t17.5 -25
q10 -13 19.5 -26.5t20.5 -27.5q22 -29 48 -63q6 -8 13 -14q9 -9 21 -18q6 -5 12.5 -9t14.5 -7q17 -8 34 -12z" />
    <glyph glyph-name="y" unicode="y" horiz-adv-x="564" 
d="M579 541q-4 -4 -7 -8t-7 -9l-6 -8t-6 -9q-4 -5 -6.5 -9t-4.5 -8q-8 -16 -27 -65q-18 -48 -42 -111q-13 -32 -26.5 -65.5t-27.5 -68.5q-15 -36 -30 -70t-31 -66t-32 -63.5t-33 -61.5q-35 -61 -70 -106q-36 -45 -76 -74q-39 -29 -82 -30q-38 -2 -66 9q-28 12 -47 31t-28 45
q-10 24 -10 51q0 37 17 63q16 25 40 41q25 16 49 20q24 6 43 4q37 -5 54 -27q17 -23 15 -56q-1 -37 -25 -56q-23 -18 -55 -18q-22 0 -36 14q-14 16 -20 33q-6 18 -1 29q6 11 3 14q-1 1 -6 -2q-2 -2 -5 -4.5t-5 -6.5q-6 -7 -10 -17q-5 -12 -5 -20q0 -11 3 -26q4 -15 15 -29
t31 -23q20 -11 53 -9q29 2 55 23q28 22 53 56t48 75t41 79q-2 10 -8 24.5t-14 34.5t-18 42t-21 46t-23.5 48.5t-24.5 50.5q-13 26 -25.5 50t-23.5 47q-24 45 -42 78q-9 17 -15.5 28t-10.5 17q-9 15 -21 28q-10 12 -20 21q-5 5 -10 9l-10 8q14 -2 28.5 -4t31.5 -2
q17 -2 34.5 -2t34.5 1t35 1.5t35 2.5q35 3 65 9q-8 -5 -16 -9t-16 -9q-12 -7 -24 -17q-13 -11 -14 -18q-2 -10 5 -32q4 -13 8.5 -27t11.5 -31t15 -35t16 -37q18 -39 36 -75q9 -18 17.5 -34.5t16.5 -30.5t14.5 -25t11.5 -19q5 15 11 31.5t11 33.5q6 18 11.5 36t10.5 36
t10 35.5t9 34.5q5 17 8.5 33t5.5 30q3 14 4.5 26.5t3.5 22.5v18t-2 12q-4 9 -14 19q-5 5 -10 9l-10 8q-6 4 -12.5 7.5t-13.5 7.5q24 -4 53 -6q15 -1 30 -1.5t31 -0.5h31.5t30.5 2q16 0 29.5 2t25.5 4z" />
    <glyph glyph-name="z" unicode="z" horiz-adv-x="599" 
d="M546 -21q-17 14 -52 20q-17 3 -35 5t-37 3t-35.5 1.5t-32.5 -0.5h-42h-18.5t-32.5 -1h-41t-44 -1h-45t-43 -2q-21 0 -36 -1t-24 -3q7 5 14.5 13t17.5 19t20.5 22.5t21.5 24.5t23 27t23 28q12 14 23 28l22 28t20.5 27t17.5 24t15 20.5t12 17.5q13 21 36 51q11 15 22 29.5
t22 28.5q13 17 25.5 33t26.5 33q-12 -2 -26 0q-6 1 -12.5 1t-14.5 1q-16 2 -32 6q-8 2 -16 4.5t-16 4.5q-8 3 -15.5 6t-15.5 5t-15 4t-15 4q-15 4 -33 4q-44 0 -71 -21q-29 -23 -33 -54q-3 -21 4 -38q8 -19 20 -31q7 -7 13.5 -12.5t14.5 -9.5q17 -8 29 -7q-16 13 -21 32
q-2 9 -2.5 16.5t-0.5 13.5q0 10 4 19q2 5 4.5 10t6.5 10q7 9 18 15q12 6 27 6q31 0 46 -20t15 -48q0 -9 -1 -18t-3 -18q-4 -17 -16 -34q-11 -15 -30 -26q-19 -10 -46 -10q-36 0 -64 15q-27 14 -47 37q-18 21 -28 49q-11 26 -9 49q2 32 13 56q14 27 34 44q22 18 50 28
q27 10 62 13q29 3 55 0q13 -2 25.5 -3.5t23.5 -3.5t22 -5t22 -5t21.5 -4t20.5 -4q12 -2 26 -3t30 -2t32 -1.5t32 -0.5t31 0.5t29 1.5q27 3 44 9q-9 -9 -28 -36q-10 -13 -20.5 -26.5t-21.5 -29.5t-23 -32t-24 -33q-13 -17 -24 -33t-22 -30t-20 -26.5t-17 -23.5t-13 -18
t-7 -10q-15 -21 -27.5 -38t-23.5 -30q-11 -14 -19.5 -24.5t-16.5 -18.5q-8 -9 -15.5 -16.5l-12.5 -12.5q14 -2 28.5 -3t28.5 -2q11 -1 23 -1.5t25 -2.5h43q25 1 46 2.5t38 5.5q36 8 61 25q5 3 11 11t12 17q3 5 6 10.5t7 11.5q-3 -18 -11 -46l-15 -54q-8 -27 -9 -52
q-3 -25 5 -44z" />
    <glyph glyph-name="braceleft" unicode="{" horiz-adv-x="500" 
d="M403 768q-16 0 -28 -1.5t-22 -3.5q-20 -6 -30 -19q-11 -14 -15 -34t-4 -54v-118q0 -17 -1 -32.5t-3 -28.5t-5.5 -24t-8.5 -21q-11 -20 -30 -32q-19 -13 -50 -21q29 -7 50 -20q19 -13 29 -32t15 -46q2 -13 3 -28.5t1 -32.5v-118q0 -32 3 -53q4 -21 15 -35q10 -14 30 -18
q19 -6 52 -6h19v-72h-21q-22 0 -41 1t-35 3q-32 4 -57 20q-33 20 -41 56q-4 19 -6 42t-2 52v120q0 70 -26 101q-25 31 -91 31q-7 0 -10 -1h-11v73q8 0 11 -1h11q64 0 90 30q26 31 26 101v120q0 55 8 93q7 37 41 57q27 16 58 20q17 2 36 3.5t42 1.5h18v-73h-20z" />
    <glyph glyph-name="bar" unicode="|" horiz-adv-x="500" 
d="M214 -116v1000h73v-1000h-73z" />
    <glyph glyph-name="braceright" unicode="}" horiz-adv-x="500" 
d="M281 546q0 -36 6 -60q6 -25 19 -41q12 -15 36 -23q21 -7 55 -7q7 0 10 1h12v-73q-7 0 -10 1h-11q-67 0 -91 -30q-26 -32 -26 -102v-120q0 -55 -8 -93q-7 -37 -41 -57q-26 -16 -56 -19q-17 -2 -36 -3.5t-41 -1.5h-21v72h19q29 0 51 5q20 6 30 19q11 14 15 35q4 20 4 54
v117q0 17 1 32.5t3 28.5t5.5 24t8.5 21q11 20 30 32q19 13 50 21q-28 7 -49 20q-10 7 -17.5 14.5t-12.5 17.5q-10 19 -15 46q-2 13 -3 28.5t-1 32.5v118q0 34 -4 53q-5 23 -14 35q-10 13 -31 18q-20 6 -51 6h-19v73h18q23 0 42 -1.5t36 -3.5q33 -4 58 -20q33 -20 41 -56
q4 -19 6 -42t2 -52v-120z" />
    <glyph glyph-name="asciitilde" unicode="~" horiz-adv-x="833" 
d="M747 720q-25 -17 -49 -30.5t-47 -21.5q-48 -17 -94 -17q-36 0 -72 11q-17 5 -34.5 11t-34.5 12t-34.5 11.5t-34.5 10.5q-33 10 -72 10q-43 0 -89 -19q-23 -10 -47.5 -24.5t-51.5 -33.5v76q103 70 189 70q38 0 73 -9q34 -9 69 -21q19 -7 36.5 -13t34.5 -11q34 -12 69 -12
q48 0 92 19t97 57v-76z" />
    <glyph glyph-name="nonbreakingspace" unicode="&#xa0;" horiz-adv-x="296" 
 />
    <glyph glyph-name="exclamdown" unicode="&#xa1;" horiz-adv-x="298" 
d="M224 9q-15 5 -32 8.5t-36 5.5q-41 5 -74 -1q12 55 21 132q5 38 8.5 78t5.5 82t3.5 83t1.5 81q0 41 -1.5 76.5t-5.5 66.5l71 9q-2 -29 -2.5 -62.5t0.5 -71.5q1 -74 6 -157q3 -42 6.5 -83t7.5 -83q5 -43 10 -83.5t10 -80.5zM228 743q0 -23 -21 -39q-23 -17 -53 -17
q-32 0 -52 16q-22 16 -22 40q0 22 21 39q22 16 53 16q32 0 52 -16q22 -16 22 -39z" />
    <glyph glyph-name="cent" unicode="&#xa2;" horiz-adv-x="601" 
d="M283 797q12 0 20 -8q9 -9 9 -22v-51l8 1q60 2 98 -10q40 -14 62 -33q22 -21 33 -45q10 -23 10 -44q0 -18 -6 -34q-8 -19 -21 -32q-14 -15 -34 -23q-19 -9 -47 -7q-30 2 -47 16q-20 16 -27 36q-9 19 -7 40q1 21 15 33q8 7 10 17q2 11 -4 18q-7 9 -16 13q-11 6 -22 6h-5
v-514q43 -8 78 12t55 47t28 59q7 31 -3 49q-5 -5 -10.5 -9.5t-10.5 -9.5q-5 -4 -10.5 -7.5t-12.5 -6.5q-14 -6 -29 -5q-23 2 -35 16q-13 15 -11 34q2 18 12 31q12 14 29 23q16 9 38 12q20 3 44 -2q20 -5 38 -15q17 -10 30 -28q13 -17 17 -39q5 -23 0 -50q-5 -30 -24 -58
q-20 -29 -49 -51q-16 -11 -33.5 -20.5t-37.5 -16.5q-39 -13 -88 -13h-15v-72q0 -13 -8 -21q-9 -9 -21 -9t-20 8q-9 9 -9 22v82q-45 12 -81 37q-39 26 -67 62q-14 19 -26 40t-20 45q-17 51 -17 108q0 63 16 111q17 51 45 88q14 19 31 34.5t36 28.5q41 27 83 37v60q0 13 8 21
q9 9 21 9zM254 643q-19 -18 -32 -39q-15 -22 -24 -50q-10 -25 -16 -55q-3 -14 -4.5 -28t-2.5 -27q-2 -39 0 -78q1 -20 3.5 -39t6.5 -37q10 -38 25 -65q16 -29 44 -48v466z" />
    <glyph glyph-name="sterling" unicode="&#xa3;" horiz-adv-x="571" 
d="M362 396q0 -12 -8 -20q-9 -9 -22 -9h-100q4 -13 6 -28q2 -8 3 -16l2 -16q2 -14 2 -26.5v-25.5q-2 -13 -2 -23.5t-2 -20.5q-2 -11 -3.5 -21.5t-3.5 -20.5q7 -4 27 -7q9 -2 18.5 -3t20.5 -1q11 -2 22.5 -2h23.5h23t21 1h20t17 2q14 0 22 4l11 5.5t10 4.5q10 6 18 12
q5 3 8.5 6.5l7.5 7.5q-5 -8 -9.5 -16t-8.5 -16t-6.5 -15.5t-4.5 -14.5q-2 -8 -4 -14.5t-3 -11.5q-2 -13 -1 -17h-9.5t-16.5 1q-11 1 -23.5 1t-26.5 1t-29.5 1t-32.5 1h-33t-32 1h-30.5t-27.5 -1q-28 -2 -41 -3q-6 -1 -12.5 -2t-14.5 -3q-17 -3 -30 -6q-8 -2 -16.5 -4
t-16.5 -4l9 12q2 2 4 5l4 6t3.5 6t3.5 5q4 7 9 23t10 41q6 26 10.5 55.5t8.5 64.5q2 23 3 38v34h-53q-13 0 -21 8q-9 9 -9 21q0 11 8 19q9 9 22 9h49q-1 8 -1 18t-1 21t-1.5 24.5t-1.5 27.5q-2 22 0 42.5t7 39.5t11 36t14 31q16 28 40 47q23 18 49 23q32 6 56 0
q26 -8 41 -20q18 -15 25 -33q9 -20 9 -39q0 -20 -6 -36q-4 -8 -8 -15.5t-9 -14.5q-9 -12 -24 -20q-14 -8 -29 -8q-25 0 -38 13q-12 12 -14 36q-1 28 14 42q16 14 29 14q5 -1 9 -1.5t8 -2.5q9 -5 12 -9q3 -7 7 -6q4 3 4 12q0 8 -4 17q-5 10 -12 18q-7 7 -20 12q-12 4 -29 1
q-14 -3 -29 -16q-15 -15 -25 -36q-5 -11 -9.5 -24t-6.5 -27q-5 -32 -2 -66q2 -16 3.5 -30t3.5 -26q2 -13 5 -24t5 -21h114q13 0 21 -8q9 -9 9 -20z" />
    <glyph glyph-name="currency" unicode="&#xa4;" horiz-adv-x="757" 
d="M680 238q-11 -20 -23 -38.5t-25 -34.5q-26 -33 -56 -55q-32 -23 -69 -33q-38 -12 -87 -12q-55 0 -103 17q-48 18 -84 49q-39 33 -65 73q-28 44 -41 91h-73q-11 0 -21 8q-9 9 -9 22v16q0 13 9 21q9 9 21 9h59q-1 5 -1 15v15v8t1 8v9t1 8h-60q-12 0 -21 9t-9 21v17
q0 13 9 21q9 9 21 9h77q17 45 42 83q27 40 63 69q34 29 80 46t95 16q74 -1 124 -30q50 -30 78 -70t39 -85q5 -23 6 -41.5t-1 -34.5q-3 -17 -8 -32t-13 -27q-16 -24 -49 -22q-31 2 -51 32q-22 31 -22 76q0 43 20 75q19 31 49 33q-4 8 -9.5 16t-13.5 16t-17 15t-19 14
q-21 14 -46 21q-27 8 -52 8q-40 0 -68 -15q-30 -15 -51 -39q-11 -13 -19.5 -27t-14.5 -30q-14 -34 -21 -67h181q13 0 21 -8q9 -9 9 -22v-17q0 -11 -8 -21q-9 -9 -22 -9h-192v-9.5t-1 -9.5v-20v-11q0 -8 1 -13h192q13 0 21 -8q9 -9 9 -22v-16q0 -13 -8 -21q-9 -9 -22 -9h-182
q7 -34 23 -69q16 -33 39 -57q24 -26 57 -39q33 -15 76 -15q37 0 67 11q29 10 54 29q13 10 24 20.5t21 23.5t19.5 27t19.5 29z" />
    <glyph glyph-name="yen" unicode="&#xa5;" horiz-adv-x="550" 
d="M530 545q-4 -5 -7 -11t-7 -11q-14 -23 -24 -52q-5 -14 -9.5 -31t-9.5 -37t-9 -42t-7 -45q-7 -48 -9 -101q-2 -54 3 -110q5 -52 21 -89q16 -39 33 -72q8 -17 13.5 -32.5t9.5 -31.5q8 -30 -6 -68q-25 -62 -87 -85t-150 -12q-62 8 -113 25q-26 10 -51.5 19.5t-48.5 19.5
t-45.5 18.5t-44.5 16.5q-42 16 -88 16q-42 0 -72 -11q-29 -11 -46 -26q-18 -15 -25 -31q-4 -8 -5.5 -14.5t-2.5 -11.5q-2 -6 7 -1q4 2 8.5 4.5t10.5 6.5q7 4 14 5t15 1q29 -2 39 -17q12 -16 10 -36q-1 -19 -20 -33q-20 -14 -50 -14q-13 0 -30 5q-8 3 -15 7.5t-14 9.5
q-14 11 -23 27q-11 17 -12 38q-3 28 6 57t28 51t49 38q27 16 65 19q25 3 59 -2q16 -2 32.5 -5.5t33.5 -8.5t34.5 -10.5t34.5 -12.5q18 -7 36 -13t35 -13q21 -8 41.5 -15t40.5 -14q39 -13 76 -21q34 -7 64 -4q28 3 46 21q16 16 15 37q0 23 -7 47q-4 14 -7.5 28t-8.5 30
t-8 33.5t-5 36.5q-1 5 -1 11t-1 11v23q-7 -5 -15 -9t-17 -7q-9 -4 -19.5 -7.5t-23.5 -5.5q-37 -6 -77 -1q-37 4 -66 26q-29 21 -42 61q-14 41 -5 103q5 40 7 78.5t0 76.5t-5.5 72t-8.5 63q-2 10 -8 16q-4 4 -8 7.5t-9 7.5t-11.5 7.5t-13.5 7.5q12 -2 26 -3.5t30 -1.5
q17 -2 33 -2t33 1h32t29 2q14 0 25.5 1t19.5 3q-2 -2 -5 -4q-6 -4 -10 -8l-6 -6t-5 -6q-5 -6 -6 -13q-3 -16 -7 -34t-8 -38t-7.5 -41t-6.5 -42q-6 -44 -9 -84q-2 -20 -2 -38.5t1 -34.5q2 -25 10 -43q5 -10 11 -17.5t13 -14.5t15 -11.5t17 -8.5q17 -7 37 -7q24 0 36 4
q15 5 25 12q0 51 3 104q2 26 4.5 52t5.5 52t6 50.5t7 47.5t8 45.5t8 42.5q14 -2 27.5 -2.5t27.5 0.5q20 1 48 8q25 6 45 21z" />
    <glyph glyph-name="section" unicode="&#xa7;" horiz-adv-x="500" 
d="M321 290q23 13 37 35q13 20 13 44q0 32 -22 53q-11 11 -27.5 21.5t-37.5 22.5l-106 59q-52 -31 -52 -73q0 -35 22 -54q22 -20 65 -45zM158 144q0 -42 24 -64q25 -22 70 -22q38 0 61 18q23 20 23 51q0 34 -28 58q-14 12 -34.5 25t-47.5 28l-89 49q-98 54 -98 138
q0 82 87 141q-45 37 -45 98q0 32 12 61q13 30 33 49q11 10 24 18t28 13q30 12 67 12q79 0 124 -42t45 -115v-5h-83q-2 40 -25 64t-61 24q-37 0 -56 -18q-21 -20 -21 -50q0 -27 18 -46q18 -20 55 -39l121 -65q52 -27 75 -61q24 -35 24 -86q0 -42 -24 -79q-25 -39 -66 -55
q50 -44 50 -107q0 -34 -13 -61q-14 -30 -36 -49q-22 -20 -55 -33q-33 -12 -73 -12q-37 0 -70 11q-32 12 -54 33q-24 24 -35 52q-12 30 -12 68h85v-2z" />
    <glyph glyph-name="dieresis" unicode="&#xa8;" 
d="M229 882q0 -26 -18 -44q-18 -19 -44 -19q-27 0 -45 18q-19 19 -19 45q0 27 18 45q19 19 46 19q26 0 44 -19q18 -20 18 -45zM401 882q0 -26 -18 -44q-19 -19 -46 -19q-26 0 -44 18q-19 19 -19 45q0 27 18 45q19 19 45 19q27 0 45 -18q19 -19 19 -46z" />
    <glyph glyph-name="copyright" unicode="&#xa9;" horiz-adv-x="757" 
d="M552 301q-32 -56 -69 -86q-39 -30 -105 -30q-48 0 -85 18q-19 10 -35 22t-30 28q-28 33 -41 71q-15 40 -15 86q0 40 15 79t42 69q26 31 63 49q37 19 80 19q20 0 40 -6q10 -3 19.5 -6t17.5 -6q8 -4 15.5 -7t13.5 -6q13 -6 17 -6q15 0 19 10q7 11 8 23h20v-170h-19
q-3 14 -7.5 27t-9.5 27q-11 27 -27 48q-8 11 -18.5 19.5t-21.5 15.5q-23 13 -56 13q-37 0 -62 -19q-24 -20 -38 -49q-7 -14 -12 -30t-7 -33q-6 -35 -6 -65q0 -35 7 -66q4 -17 9.5 -32t13.5 -28q17 -28 42 -44q28 -17 66 -17q27 0 45 7q10 4 19 8.5t17 11.5q16 13 29 29
q7 8 13.5 17.5t13.5 19.5zM698 395q0 65 -25 124q-26 57 -69 99q-44 43 -102 65q-59 24 -124 24q-63 0 -118 -24q-57 -26 -98 -67q-42 -41 -68 -97q-25 -54 -25 -118q0 -66 24 -123q26 -57 67 -100q43 -43 100 -67q56 -25 123 -25q65 0 123 23q55 23 100 65q42 41 67 98
q25 56 25 123zM733 392q0 -75 -27 -136q-26 -61 -74 -109q-46 -46 -110 -72q-66 -26 -137 -26q-73 0 -139 26q-65 27 -112 74q-48 48 -75 112t-27 139q0 70 27 133q28 65 73 110q47 47 110 74q62 28 134 28q75 0 141 -26q64 -27 113 -74q48 -48 75 -112q28 -63 28 -141z" />
    <glyph glyph-name="guillemotleft" unicode="&#xab;" horiz-adv-x="493" 
d="M412 250l-182 163l182 163l-84 -165zM268 250l-182 163l182 163l-84 -165z" />
    <glyph glyph-name="registered" unicode="&#xae;" horiz-adv-x="587" 
d="M363 601q0 33 -22 46t-51 13q-21 0 -31 -7t-10 -29v-90h27q9 0 17 0.5t16 1.5q17 3 28 10t19 21q7 13 7 34zM466 443q-1 -8 -1.5 -16t-2.5 -16q-3 -15 -10 -25q-8 -12 -19 -17q-14 -6 -33 -6q-28 0 -39 11q-12 12 -15 29q-2 8 -3 17t-2 19q0 19 -5 37q-6 18 -21 28
q-16 11 -49 11h-17v-95q0 -14 4 -21t11 -10t16 -3h21v-17h-155v17h20q5 0 9 0.5t8 1.5q6 2 11 9q4 7 4 21v204q0 14 -4 21q-5 9 -10 11q-4 2 -7.5 3t-8.5 2h-22v18h128q10 0 21 -0.5t24 -1.5t25.5 -3.5t23.5 -6.5q22 -7 40 -23q17 -17 17 -42q0 -21 -10 -34q-12 -15 -25 -23
q-8 -5 -16.5 -8.5t-17.5 -5.5q-18 -5 -35 -7q17 -8 30.5 -17t21.5 -20t14.5 -25.5t10.5 -33.5q1 -2 1 -4.5t1 -6.5q1 -5 3 -13q2 -5 6 -11q3 -5 9 -5q9 0 15 6t9 15q2 5 2.5 9t1.5 9t1 9v8h19v1zM531 517q0 51 -19 93q-20 43 -51 75q-34 32 -77 50q-44 18 -94 18
q-47 0 -89 -18q-21 -10 -39.5 -22t-33.5 -28q-32 -32 -50 -74q-19 -41 -19 -89q0 -50 18 -93q20 -45 51 -76q32 -32 75 -50t94 -18q47 0 91 18q43 18 74 49q32 32 50 74q19 41 19 91zM559 513q0 -57 -21 -103q-21 -47 -57 -81q-36 -33 -85 -53q-48 -19 -103 -19t-104 20
q-49 21 -83 57q-35 36 -54 84q-20 51 -20 105q0 51 20 99q19 46 55 82q34 36 81 57q46 21 99 21q57 0 108 -20q49 -20 86 -56q38 -36 57 -85q21 -50 21 -108z" />
    <glyph glyph-name="macron" unicode="&#xaf;" 
d="M404 825q-18 2 -36 3.5t-36 1.5q-19 2 -37 2h-36t-36 -0.5t-35 -1.5q-18 0 -36 -1.5t-36 -3.5q3 22 3 44q0 21 -3 44q36 -4 71 -6q18 -1 36 -1.5t36 -0.5t36 0.5t36 1.5q37 1 73 6q-1 -5 -1.5 -11t-1.5 -11t-1 -11v-11q0 -12 1 -23t3 -21z" />
    <glyph glyph-name="macron" unicode="&#x2c9;" 
d="M404 825q-18 2 -36 3.5t-36 1.5q-19 2 -37 2h-36t-36 -0.5t-35 -1.5q-18 0 -36 -1.5t-36 -3.5q3 22 3 44q0 21 -3 44q36 -4 71 -6q18 -1 36 -1.5t36 -0.5t36 0.5t36 1.5q37 1 73 6q-1 -5 -1.5 -11t-1.5 -11t-1 -11v-11q0 -12 1 -23t3 -21z" />
    <glyph glyph-name="degree" unicode="&#xb0;" horiz-adv-x="545" 
d="M393 560q3 32 0.5 58.5t-10.5 48.5q-16 43 -49 58q-14 6 -32 5q-10 -1 -19.5 -2t-20.5 -3q-20 -4 -40 -12q-19 -7 -34 -14q-2 -14 -3 -29.5t-2 -32.5q-2 -18 -3 -37t-2 -39q-2 -20 -2.5 -40.5t-1.5 -40.5t-1 -40v-39q8 -1 17.5 -2t19.5 -2q11 -1 21 -1.5t20 -1.5
q10 0 19.5 0.5t17.5 1.5q17 1 30 8q26 14 47 48q22 36 28 108zM899 -158q-1 -19 -5 -35.5t-11 -30.5q-15 -29 -37 -48q-21 -18 -50 -28q-25 -10 -52 -8q-55 5 -102 28q-24 12 -46.5 27.5t-44.5 34.5t-42 41t-40 47t-38.5 52t-37.5 56q-25 37 -49 88q-12 25 -23 49.5
t-21 48.5t-18.5 46.5t-16.5 43.5t-13.5 37.5t-9.5 29.5q-7 1 -15.5 1.5t-19.5 0.5q-11 2 -19.5 2t-14.5 1q1 -33 3 -66t4 -67t5.5 -67.5t8.5 -66.5q3 -28 28 -59h-194q7 7 15 20q7 13 9 24q4 39 6.5 81.5t4.5 89.5q2 48 3.5 94t1.5 93v56.5t-1 53.5v51.5t-2 46.5q0 22 -1 41
t-3 36q-3 34 -6 50q-2 11 -5 20t-5 16q-3 7 -7.5 13t-9.5 13q12 0 27 -0.5t32 -1.5q18 -1 38 -2t42 -1q45 -3 97 0q26 0 53 2t56 6q31 4 61 -13t49 -50t30 -80q11 -48 8 -102q-1 -21 -5 -40.5t-11 -38.5t-15.5 -36t-18.5 -32q-20 -30 -45 -52q-27 -22 -48 -29
q1 -8 3.5 -20.5t6.5 -29.5q5 -17 10 -36.5t12 -41.5t15 -44t16 -45t17.5 -43.5t19.5 -39.5q41 -76 76 -127q19 -26 36 -47.5t34 -38.5q35 -34 64 -48q31 -16 61 -16q35 0 63 23q27 24 27 73q0 21 -8 37q-9 16 -21 23q-13 10 -24 11q-12 3 -21 1q-9 -1 -10 -7q-1 -4 4 -9
q2 -2 4.5 -4t5.5 -4q8 -6 11 -10t5.5 -7.5t4.5 -7.5q4 -8 4 -22q2 -30 -16 -46q-20 -18 -47 -17q-28 1 -46 24q-19 23 -20 56q0 14 5 36q3 10 7.5 18.5t9.5 16.5q10 15 28 27q17 11 40 14q27 3 51 -4q26 -8 47 -24q20 -16 34 -44q13 -27 12 -64z" />
    <glyph glyph-name="plusminus" unicode="&#xb1;" horiz-adv-x="982" 
d="M469 244q10 25 19 51.5t17 54.5q8 29 16 57t15 57q6 23 11 46t10 45t9 42t8 37q8 36 9 61q3 27 2 34q-2 8 -10 17l-21 21q-5 5 -10 9.5t-10 8.5q-2 2 -4 3.5t-3 2.5q-2 1 -2 2q16 -3 32.5 -5t35.5 -3t38.5 -1.5t39.5 0.5q39 0 80 3q40 4 78 9q-5 -3 -11 -6t-11 -6
q-9 -4 -17 -11q-9 -6 -13 -10q-6 -8 -7 -21q-1 -8 -1.5 -17t0.5 -20t2 -23t3 -25q4 -26 12 -55q16 -59 43 -114q28 -57 54 -114q27 -59 45 -117q10 -30 14 -60.5t3 -61.5q-1 -16 -3.5 -31t-7.5 -29q-11 -29 -30 -51q-21 -24 -45 -37q-28 -14 -60 -17q-66 -6 -113 26
q-48 34 -58 88q-5 27 1 51q6 28 19 47q12 19 32 34q19 13 38 16q38 5 66 -16q28 -22 34 -58q3 -18 -3 -33t-16 -25q-11 -11 -24 -15q-7 -2 -13 -3.5t-13 -0.5q-14 1 -28 9q-14 7 -20 14q-9 9 -6 -9q1 -6 3.5 -12t6.5 -13t9 -13t12 -11q15 -12 32 -16q19 -5 40 1q35 11 50 36
q16 28 17 60q3 32 -5 70q-8 37 -18 65q-11 29 -25 59q-8 16 -15.5 32.5t-15.5 33.5l-16 34l-16 34t-15 34.5t-13 34.5q-5 14 -8.5 26.5t-5.5 23.5q-6 23 -9 41q-2 10 -3 19.5t-2 17.5q-1 -5 -3.5 -12.5t-6.5 -18.5q-5 -11 -10 -25t-12 -31t-14.5 -36t-15.5 -41t-16 -45
t-17 -49q-8 -22 -14.5 -43t-12.5 -42q-7 -22 -12 -41.5t-10 -37.5q-9 -38 -12 -66q-5 -30 0 -48q5 -21 13 -33q10 -16 18 -22q5 -5 11 -9t11 -7q-29 5 -60.5 8.5t-65.5 4.5q-68 3 -123 -9q12 5 20.5 11t13.5 11q11 13 17 32q1 6 0 25q-1 10 -3 21.5t-4 25.5q-5 29 -12 59
l-8 32l-8 32t-8 31.5t-8 30.5q-5 15 -8.5 28t-7.5 24q-5 16 -11 33.5t-13 37.5t-13 38.5t-11 35.5q-7 20 -13.5 40.5t-13.5 41.5q-4 -25 -7.5 -49.5t-6.5 -48.5q-3 -20 -6 -41t-5 -43q-3 -22 -4.5 -40t-3.5 -33q-1 -10 -2 -23t-3 -29q-2 -17 -3.5 -34.5t-3.5 -36.5t-3.5 -38
t-3.5 -39t-2.5 -38t-1.5 -35q0 -17 0.5 -31.5t1.5 -25.5q3 -23 11 -29q12 -10 21 -14q5 -3 10 -5t9 -4q5 -2 8.5 -3t7.5 -2q-30 5 -63 8t-69 3q-37 2 -70.5 -1t-65.5 -9q12 3 19 7q4 2 8 4.5t8 5.5l7.5 7.5t5.5 8.5q7 12 18 54q12 44 24 97q6 28 12 55.5t11 56.5
q6 29 10.5 54t8.5 46q2 14 5 30t5 34q2 19 4.5 37.5t4.5 38.5t4 39l4 38q5 39 6 70q1 16 1.5 28.5t0.5 23.5q0 20 -2 26q-3 5 -14 11q-5 4 -11 7t-11 6l-14 6t-15 7q12 -2 26 -3t30 -2q31 -3 65 -3h33.5t33.5 2q17 0 32 1.5t29 3.5q-11 -6 -18 -12q-7 -4 -13 -12
q-7 -9 -8 -13q-3 -11 5 -51q5 -20 10 -41.5t12 -44.5q7 -24 14 -47.5t14 -46.5q8 -23 13.5 -41t9.5 -31q4 -11 8 -23t9 -26t11 -28t11 -28q6 -14 11.5 -28t10.5 -28t10 -26.5t10 -23.5z" />
    <glyph glyph-name="acute" unicode="&#xb4;" 
d="M164 824q73 34 97 93q5 11 8.5 20.5t7.5 19.5t7.5 18.5t7.5 15.5q9 15 21 24t30 9q17 0 29 -12t12 -32t-14 -43q-16 -23 -43 -45q-27 -21 -69 -40q-20 -9 -44 -16t-50 -12z" />
    <glyph glyph-name="paragraph" unicode="&#xb6;" horiz-adv-x="500" 
d="M409 0h-54v680h-87v-680h-54v382q-86 5 -133 50q-49 46 -49 120q0 38 13 68q13 31 39 54t60 35q35 13 80 13h244v-42h-59v-680z" />
    <glyph glyph-name="periodcentered" unicode="&#xb7;" horiz-adv-x="288" 
d="M67 359q0 22 21 39q22 16 53 16q32 0 52 -16q22 -16 22 -39t-21 -39q-22 -16 -53 -16q-32 0 -52 16q-22 16 -22 39z" />
    <glyph glyph-name="periodcentered" unicode="&#x2219;" horiz-adv-x="288" 
d="M67 359q0 22 21 39q22 16 53 16q32 0 52 -16q22 -16 22 -39t-21 -39q-22 -16 -53 -16q-32 0 -52 16q-22 16 -22 39z" />
    <glyph glyph-name="cedilla" unicode="&#xb8;" horiz-adv-x="333" 
d="M205 0q0 -5 0.5 -9t1.5 -9l2 -8l2 -8q3 -10 9 -17q8 -12 18 -22q5 -5 9 -9.5t8 -9.5q6 -9 11 -23q4 -12 1 -32q-2 -15 -12 -30q-10 -16 -25 -28q-16 -12 -35 -19q-20 -8 -42 -5q-37 4 -57 29q-21 25 -16 58q4 29 25 40q20 11 41 5q20 -6 28 -21q7 -15 4 -26q-2 -5 -5 -6
t-8 1l-9 9q-5 7 -16 8q-12 0 -16 -7q-6 -8 -6 -15q0 -15 11 -24q10 -8 29 -10q21 -2 36 11q17 14 14 37q-1 14 -7 23q-2 5 -5 8.5t-6 7.5t-6 7l-7 7q-6 6 -11 21q-5 14 -7 25t-4 21q-1 5 -1.5 10t0.5 10h51z" />
    <glyph glyph-name="guillemotright" unicode="&#xbb;" horiz-adv-x="525" 
d="M292 576l182 -163l-182 -163l84 165zM126 576l182 -163l-182 -163l84 165z" />
    <glyph glyph-name="questiondown" unicode="&#xbf;" horiz-adv-x="516" 
d="M479 157q1 -29 -13 -62q-7 -16 -17 -29.5t-24 -26.5t-30 -23t-35 -18t-40.5 -12t-44.5 -5q-50 -1 -96 14q-47 16 -77 40q-34 26 -50 60q-18 34 -15 71t16 64q7 15 15 29t17 28q10 14 19.5 27t20.5 27t21 27.5t20 27.5t18 29.5t15 31.5t11.5 33.5t6.5 37.5l10 111l67 3
l10 -119q3 -28 -8 -61q-11 -30 -30 -61q-10 -16 -20 -31t-21 -30q-11 -16 -22 -31t-21 -29q-10 -15 -18.5 -30t-15.5 -29q-14 -29 -15 -57q-1 -33 10 -59q12 -23 32 -39q19 -15 45 -21q26 -8 53 -6q28 2 52 10q27 11 45 25q21 17 32 36q12 19 12 41t-10 33t-25 18
q-7 3 -14 4.5t-14 3.5q-7 0 -12 0.5t-8 -0.5q2 -5 4.5 -11.5t4.5 -13.5q3 -7 3.5 -15.5t-0.5 -19.5q-1 -15 -16 -36q-13 -19 -41 -22q-33 -3 -52 12q-22 17 -23 46q0 15 6 33q7 20 19 35q13 16 35 30t51 17q26 3 55 -2q25 -6 49 -20q22 -15 36 -36q16 -23 17 -50zM342 744
q0 -23 -21 -39q-22 -16 -53 -16q-32 0 -52 16q-22 16 -22 39q0 22 21 39q22 16 53 16q32 0 52 -16q22 -16 22 -39z" />
    <glyph glyph-name="Agrave" unicode="&#xc0;" horiz-adv-x="774" 
d="M491 197q-2 8 -5.5 16t-8.5 18q-9 19 -22 35q-7 8 -15 15t-16 12q-17 11 -37 11q-16 0 -28 -5q-11 -5 -16 -11q-7 -9 -8 -14q-2 -4 -2.5 -7.5t-1.5 -5.5q-3 -9 5 -11q9 -1 23 5q7 3 14 2q5 -1 9 -1.5t8 -2.5t7.5 -4.5t6.5 -6.5q4 -4 5.5 -8.5t3.5 -9.5q3 -16 -8 -32
q-12 -18 -50 -24q-14 -3 -30 2q-15 4 -27 12q-7 4 -12 9l-10 10q-9 10 -12 22q-5 -18 -9 -35t-8 -33q-9 -33 -15 -57q-3 -13 -5.5 -23l-4.5 -18q-4 -15 -4 -20q-2 -17 3 -31q6 -13 14 -23l10 -10t11 -9q-27 4 -60 6q-17 1 -34.5 1.5t-35.5 0.5q-17 0 -34 -0.5t-34 -1.5
q-35 -2 -60 -6q8 2 16 5l16 6q13 4 27 12q7 4 13.5 7.5t11.5 8.5q12 9 30 51q9 21 18 46.5t19 55.5q10 31 19.5 64t19.5 70t18 74l16 74t13.5 68.5t9.5 57.5t6.5 48.5t3.5 40.5q3 37 0 60q-5 22 -12 39q-4 10 -14 18l-18 15q-5 4 -11 7t-12 7q23 -4 46 -6t48 -4t49.5 -3
t49.5 -1q49 0 94 3q23 2 43.5 4.5t38.5 6.5q-5 -4 -9 -7.5t-9 -8.5q-7 -7 -14 -19q-7 -10 -12 -25q-5 -14 -3 -47q2 -17 4 -35.5t4 -38.5q3 -20 6 -41t7 -43t7.5 -41.5t5.5 -36.5q4 -26 12 -63q4 -19 8 -39t9 -40l21 -84q6 -22 12 -41.5t11 -36.5q10 -34 21 -61
q10 -26 18 -33q9 -8 18 -15.5t18 -12.5q10 -5 18 -9.5t16 -8.5q19 -8 34 -12q-42 10 -79 15q-18 2 -35 3.5t-34 1.5q-16 0 -32 -1.5t-32 -3.5q-34 -5 -71 -15q5 4 10.5 8t10.5 9q7 7 14 19q6 10 6 26q0 5 -1.5 15.5t-3.5 26.5t-7.5 39t-14.5 54zM296 343q12 14 38 25
q13 5 28.5 7t34.5 2q17 0 29 -4q7 -2 13.5 -4.5t13.5 -5.5q-7 29 -13.5 56.5t-13.5 53.5q-7 27 -12.5 51t-10.5 45q-6 25 -11.5 48t-10.5 45q-7 -24 -13.5 -49.5t-13.5 -51.5q-12 -45 -27 -102q-8 -29 -15.5 -58t-15.5 -58zM457 823q-27 5 -51 12t-44 16q-41 18 -69 39
q-29 22 -42 45q-15 24 -15 44q0 18 12 30q13 13 30 13q29 0 44 -23q14 -21 30 -64q28 -82 105 -112z" />
    <glyph glyph-name="Aacute" unicode="&#xc1;" horiz-adv-x="774" 
d="M491 197q-2 8 -5.5 16t-8.5 18q-9 19 -22 35q-7 8 -15 15t-16 12q-17 11 -37 11q-16 0 -28 -5q-11 -5 -16 -11q-7 -9 -8 -14q-2 -4 -2.5 -7.5t-1.5 -5.5q-3 -9 5 -11q9 -1 23 5q7 3 14 2q5 -1 9 -1.5t8 -2.5t7.5 -4.5t6.5 -6.5q4 -4 5.5 -8.5t3.5 -9.5q3 -16 -8 -32
q-12 -18 -50 -24q-14 -3 -30 2q-15 4 -27 12q-7 4 -12 9l-10 10q-9 10 -12 22q-5 -18 -9 -35t-8 -33q-9 -33 -15 -57q-3 -13 -5.5 -23l-4.5 -18q-4 -15 -4 -20q-2 -17 3 -31q6 -13 14 -23l10 -10t11 -9q-27 4 -60 6q-17 1 -34.5 1.5t-35.5 0.5q-17 0 -34 -0.5t-34 -1.5
q-35 -2 -60 -6q8 2 16 5l16 6q13 4 27 12q7 4 13.5 7.5t11.5 8.5q12 9 30 51q9 21 18 46.5t19 55.5q10 31 19.5 64t19.5 70t18 74l16 74t13.5 68.5t9.5 57.5t6.5 48.5t3.5 40.5q3 37 0 60q-5 22 -12 39q-4 10 -14 18l-18 15q-5 4 -11 7t-12 7q23 -4 46 -6t48 -4t49.5 -3
t49.5 -1q49 0 94 3q23 2 43.5 4.5t38.5 6.5q-5 -4 -9 -7.5t-9 -8.5q-7 -7 -14 -19q-7 -10 -12 -25q-5 -14 -3 -47q2 -17 4 -35.5t4 -38.5q3 -20 6 -41t7 -43t7.5 -41.5t5.5 -36.5q4 -26 12 -63q4 -19 8 -39t9 -40l21 -84q6 -22 12 -41.5t11 -36.5q10 -34 21 -61
q10 -26 18 -33q9 -8 18 -15.5t18 -12.5q10 -5 18 -9.5t16 -8.5q19 -8 34 -12q-42 10 -79 15q-18 2 -35 3.5t-34 1.5q-16 0 -32 -1.5t-32 -3.5q-34 -5 -71 -15q5 4 10.5 8t10.5 9q7 7 14 19q6 10 6 26q0 5 -1.5 15.5t-3.5 26.5t-7.5 39t-14.5 54zM296 343q12 14 38 25
q13 5 28.5 7t34.5 2q17 0 29 -4q7 -2 13.5 -4.5t13.5 -5.5q-7 29 -13.5 56.5t-13.5 53.5q-7 27 -12.5 51t-10.5 45q-6 25 -11.5 48t-10.5 45q-7 -24 -13.5 -49.5t-13.5 -51.5q-12 -45 -27 -102q-8 -29 -15.5 -58t-15.5 -58zM333 825q73 34 97 93q5 11 8.5 20.5t7.5 19.5
t7.5 18.5t7.5 15.5q9 15 21 24t30 9q17 0 29 -12t12 -32t-14 -43q-16 -23 -43 -45q-27 -21 -69 -40q-20 -9 -44 -16t-50 -12z" />
    <glyph glyph-name="Acircumflex" unicode="&#xc2;" horiz-adv-x="774" 
d="M491 197q-2 8 -5.5 16t-8.5 18q-9 19 -22 35q-7 8 -15 15t-16 12q-17 11 -37 11q-16 0 -28 -5q-11 -5 -16 -11q-7 -9 -8 -14q-2 -4 -2.5 -7.5t-1.5 -5.5q-3 -9 5 -11q9 -1 23 5q7 3 14 2q5 -1 9 -1.5t8 -2.5t7.5 -4.5t6.5 -6.5q4 -4 5.5 -8.5t3.5 -9.5q3 -16 -8 -32
q-12 -18 -50 -24q-14 -3 -30 2q-15 4 -27 12q-7 4 -12 9l-10 10q-9 10 -12 22q-5 -18 -9 -35t-8 -33q-9 -33 -15 -57q-3 -13 -5.5 -23l-4.5 -18q-4 -15 -4 -20q-2 -17 3 -31q6 -13 14 -23l10 -10t11 -9q-27 4 -60 6q-17 1 -34.5 1.5t-35.5 0.5q-17 0 -34 -0.5t-34 -1.5
q-35 -2 -60 -6q8 2 16 5l16 6q13 4 27 12q7 4 13.5 7.5t11.5 8.5q12 9 30 51q9 21 18 46.5t19 55.5q10 31 19.5 64t19.5 70t18 74l16 74t13.5 68.5t9.5 57.5t6.5 48.5t3.5 40.5q3 37 0 60q-5 22 -12 39q-4 10 -14 18l-18 15q-5 4 -11 7t-12 7q23 -4 46 -6t48 -4t49.5 -3
t49.5 -1q49 0 94 3q23 2 43.5 4.5t38.5 6.5q-5 -4 -9 -7.5t-9 -8.5q-7 -7 -14 -19q-7 -10 -12 -25q-5 -14 -3 -47q2 -17 4 -35.5t4 -38.5q3 -20 6 -41t7 -43t7.5 -41.5t5.5 -36.5q4 -26 12 -63q4 -19 8 -39t9 -40l21 -84q6 -22 12 -41.5t11 -36.5q10 -34 21 -61
q10 -26 18 -33q9 -8 18 -15.5t18 -12.5q10 -5 18 -9.5t16 -8.5q19 -8 34 -12q-42 10 -79 15q-18 2 -35 3.5t-34 1.5q-16 0 -32 -1.5t-32 -3.5q-34 -5 -71 -15q5 4 10.5 8t10.5 9q7 7 14 19q6 10 6 26q0 5 -1.5 15.5t-3.5 26.5t-7.5 39t-14.5 54zM296 343q12 14 38 25
q13 5 28.5 7t34.5 2q17 0 29 -4q7 -2 13.5 -4.5t13.5 -5.5q-7 29 -13.5 56.5t-13.5 53.5q-7 27 -12.5 51t-10.5 45q-6 25 -11.5 48t-10.5 45q-7 -24 -13.5 -49.5t-13.5 -51.5q-12 -45 -27 -102q-8 -29 -15.5 -58t-15.5 -58zM234 831l163 182l163 -182l-165 84z" />
    <glyph glyph-name="Atilde" unicode="&#xc3;" horiz-adv-x="774" 
d="M491 197q-2 8 -5.5 16t-8.5 18q-9 19 -22 35q-7 8 -15 15t-16 12q-17 11 -37 11q-16 0 -28 -5q-11 -5 -16 -11q-7 -9 -8 -14q-2 -4 -2.5 -7.5t-1.5 -5.5q-3 -9 5 -11q9 -1 23 5q7 3 14 2q5 -1 9 -1.5t8 -2.5t7.5 -4.5t6.5 -6.5q4 -4 5.5 -8.5t3.5 -9.5q3 -16 -8 -32
q-12 -18 -50 -24q-14 -3 -30 2q-15 4 -27 12q-7 4 -12 9l-10 10q-9 10 -12 22q-5 -18 -9 -35t-8 -33q-9 -33 -15 -57q-3 -13 -5.5 -23l-4.5 -18q-4 -15 -4 -20q-2 -17 3 -31q6 -13 14 -23l10 -10t11 -9q-27 4 -60 6q-17 1 -34.5 1.5t-35.5 0.5q-17 0 -34 -0.5t-34 -1.5
q-35 -2 -60 -6q8 2 16 5l16 6q13 4 27 12q7 4 13.5 7.5t11.5 8.5q12 9 30 51q9 21 18 46.5t19 55.5q10 31 19.5 64t19.5 70t18 74l16 74t13.5 68.5t9.5 57.5t6.5 48.5t3.5 40.5q3 37 0 60q-5 22 -12 39q-4 10 -14 18l-18 15q-5 4 -11 7t-12 7q23 -4 46 -6t48 -4t49.5 -3
t49.5 -1q49 0 94 3q23 2 43.5 4.5t38.5 6.5q-5 -4 -9 -7.5t-9 -8.5q-7 -7 -14 -19q-7 -10 -12 -25q-5 -14 -3 -47q2 -17 4 -35.5t4 -38.5q3 -20 6 -41t7 -43t7.5 -41.5t5.5 -36.5q4 -26 12 -63q4 -19 8 -39t9 -40l21 -84q6 -22 12 -41.5t11 -36.5q10 -34 21 -61
q10 -26 18 -33q9 -8 18 -15.5t18 -12.5q10 -5 18 -9.5t16 -8.5q19 -8 34 -12q-42 10 -79 15q-18 2 -35 3.5t-34 1.5q-16 0 -32 -1.5t-32 -3.5q-34 -5 -71 -15q5 4 10.5 8t10.5 9q7 7 14 19q6 10 6 26q0 5 -1.5 15.5t-3.5 26.5t-7.5 39t-14.5 54zM296 343q12 14 38 25
q13 5 28.5 7t34.5 2q17 0 29 -4q7 -2 13.5 -4.5t13.5 -5.5q-7 29 -13.5 56.5t-13.5 53.5q-7 27 -12.5 51t-10.5 45q-6 25 -11.5 48t-10.5 45q-7 -24 -13.5 -49.5t-13.5 -51.5q-12 -45 -27 -102q-8 -29 -15.5 -58t-15.5 -58zM541 1031q-18 -156 -94 -156q-16 0 -27 4
q-7 2 -13 5t-11 5q-6 3 -12 5.5t-11 4.5q-12 5 -23 5q-49 0 -73 -58q7 77 32 117t61 40q13 0 28 -5q7 -2 13 -5l12 -6q7 -3 13 -6t12 -5q13 -5 26 -5q50 0 67 60z" />
    <glyph glyph-name="Adieresis" unicode="&#xc4;" horiz-adv-x="774" 
d="M491 197q-2 8 -5.5 16t-8.5 18q-9 19 -22 35q-7 8 -15 15t-16 12q-17 11 -37 11q-16 0 -28 -5q-11 -5 -16 -11q-7 -9 -8 -14q-2 -4 -2.5 -7.5t-1.5 -5.5q-3 -9 5 -11q9 -1 23 5q7 3 14 2q5 -1 9 -1.5t8 -2.5t7.5 -4.5t6.5 -6.5q4 -4 5.5 -8.5t3.5 -9.5q3 -16 -8 -32
q-12 -18 -50 -24q-14 -3 -30 2q-15 4 -27 12q-7 4 -12 9l-10 10q-9 10 -12 22q-5 -18 -9 -35t-8 -33q-9 -33 -15 -57q-3 -13 -5.5 -23l-4.5 -18q-4 -15 -4 -20q-2 -17 3 -31q6 -13 14 -23l10 -10t11 -9q-27 4 -60 6q-17 1 -34.5 1.5t-35.5 0.5q-17 0 -34 -0.5t-34 -1.5
q-35 -2 -60 -6q8 2 16 5l16 6q13 4 27 12q7 4 13.5 7.5t11.5 8.5q12 9 30 51q9 21 18 46.5t19 55.5q10 31 19.5 64t19.5 70t18 74l16 74t13.5 68.5t9.5 57.5t6.5 48.5t3.5 40.5q3 37 0 60q-5 22 -12 39q-4 10 -14 18l-18 15q-5 4 -11 7t-12 7q23 -4 46 -6t48 -4t49.5 -3
t49.5 -1q49 0 94 3q23 2 43.5 4.5t38.5 6.5q-5 -4 -9 -7.5t-9 -8.5q-7 -7 -14 -19q-7 -10 -12 -25q-5 -14 -3 -47q2 -17 4 -35.5t4 -38.5q3 -20 6 -41t7 -43t7.5 -41.5t5.5 -36.5q4 -26 12 -63q4 -19 8 -39t9 -40l21 -84q6 -22 12 -41.5t11 -36.5q10 -34 21 -61
q10 -26 18 -33q9 -8 18 -15.5t18 -12.5q10 -5 18 -9.5t16 -8.5q19 -8 34 -12q-42 10 -79 15q-18 2 -35 3.5t-34 1.5q-16 0 -32 -1.5t-32 -3.5q-34 -5 -71 -15q5 4 10.5 8t10.5 9q7 7 14 19q6 10 6 26q0 5 -1.5 15.5t-3.5 26.5t-7.5 39t-14.5 54zM296 343q12 14 38 25
q13 5 28.5 7t34.5 2q17 0 29 -4q7 -2 13.5 -4.5t13.5 -5.5q-7 29 -13.5 56.5t-13.5 53.5q-7 27 -12.5 51t-10.5 45q-6 25 -11.5 48t-10.5 45q-7 -24 -13.5 -49.5t-13.5 -51.5q-12 -45 -27 -102q-8 -29 -15.5 -58t-15.5 -58zM376 910q0 -26 -19 -45t-46 -19q-28 0 -46 18
q-19 19 -19 46q0 28 18 46q19 19 47 19q26 0 45 -19q20 -20 20 -46zM552 910q0 -26 -19 -45t-47 -19q-27 0 -45 19q-19 19 -19 45q0 28 18 46q19 19 46 19t47 -18q19 -19 19 -47z" />
    <glyph glyph-name="Aring" unicode="&#xc5;" horiz-adv-x="774" 
d="M491 197q-2 8 -5.5 16t-8.5 18q-9 19 -22 35q-7 8 -15 15t-16 12q-17 11 -37 11q-16 0 -28 -5q-11 -5 -16 -11q-7 -9 -8 -14q-2 -4 -2.5 -7.5t-1.5 -5.5q-3 -9 5 -11q9 -1 23 5q7 3 14 2q5 -1 9 -1.5t8 -2.5t7.5 -4.5t6.5 -6.5q4 -4 5.5 -8.5t3.5 -9.5q3 -16 -8 -32
q-12 -18 -50 -24q-14 -3 -30 2q-15 4 -27 12q-7 4 -12 9l-10 10q-9 10 -12 22q-5 -18 -9 -35t-8 -33q-9 -33 -15 -57q-3 -13 -5.5 -23l-4.5 -18q-4 -15 -4 -20q-2 -17 3 -31q6 -13 14 -23l10 -10t11 -9q-27 4 -60 6q-17 1 -34.5 1.5t-35.5 0.5q-17 0 -34 -0.5t-34 -1.5
q-35 -2 -60 -6q8 2 16 5l16 6q13 4 27 12q7 4 13.5 7.5t11.5 8.5q12 9 30 51q9 21 18 46.5t19 55.5q10 31 19.5 64t19.5 70t18 74l16 74t13.5 68.5t9.5 57.5t6.5 48.5t3.5 40.5q3 37 0 60q-5 22 -12 39q-4 10 -14 18l-18 15q-5 4 -11 7t-12 7q23 -4 46 -6t48 -4t49.5 -3
t49.5 -1q49 0 94 3q23 2 43.5 4.5t38.5 6.5q-5 -4 -9 -7.5t-9 -8.5q-7 -7 -14 -19q-7 -10 -12 -25q-5 -14 -3 -47q2 -17 4 -35.5t4 -38.5q3 -20 6 -41t7 -43t7.5 -41.5t5.5 -36.5q4 -26 12 -63q4 -19 8 -39t9 -40l21 -84q6 -22 12 -41.5t11 -36.5q10 -34 21 -61
q10 -26 18 -33q9 -8 18 -15.5t18 -12.5q10 -5 18 -9.5t16 -8.5q19 -8 34 -12q-42 10 -79 15q-18 2 -35 3.5t-34 1.5q-16 0 -32 -1.5t-32 -3.5q-34 -5 -71 -15q5 4 10.5 8t10.5 9q7 7 14 19q6 10 6 26q0 5 -1.5 15.5t-3.5 26.5t-7.5 39t-14.5 54zM296 343q12 14 38 25
q13 5 28.5 7t34.5 2q17 0 29 -4q7 -2 13.5 -4.5t13.5 -5.5q-7 29 -13.5 56.5t-13.5 53.5q-7 27 -12.5 51t-10.5 45q-6 25 -11.5 48t-10.5 45q-7 -24 -13.5 -49.5t-13.5 -51.5q-12 -45 -27 -102q-8 -29 -15.5 -58t-15.5 -58zM459 937q0 21 -16 39q-17 17 -40 17
q-24 0 -40 -16q-17 -17 -17 -40q0 -24 16 -40q17 -17 41 -17q23 0 39 16q17 17 17 41zM500 937q0 -41 -28 -69t-69 -28q-42 0 -69 27q-28 28 -28 70t27 69q28 28 70 28q41 0 69 -28t28 -69z" />
    <glyph glyph-name="AE" unicode="&#xc6;" horiz-adv-x="1080" 
d="M538 683q-5 -9 -11.5 -22.5t-14.5 -32.5t-17.5 -40.5t-20.5 -45.5t-22.5 -49t-23.5 -51q-24 -53 -48 -99q17 14 45 25q14 5 29.5 7t34.5 2q29 0 52 -14v38v67v75v37.5t-1 36.5q0 19 -0.5 35.5t-1.5 30.5zM538 208q0 14 -5 32t-15 31q-11 15 -24 24q-14 9 -33 9
q-17 0 -30 -5q-10 -4 -19 -11q-7 -7 -10 -14q-2 -4 -3.5 -7.5t-3.5 -5.5q-5 -10 2 -11q8 -1 25 5q7 3 14 2q10 -2 16 -4q7 -4 11 -11q5 -8 5 -18q0 -16 -16 -32q-17 -18 -56 -24q-15 -3 -29 2q-14 4 -24 12q-10 7 -17 19q-7 10 -7 22q-10 -18 -18.5 -35l-16.5 -33
q-8 -17 -15 -31l-13 -26q-6 -13 -11 -23l-9 -18t-6 -13t-3 -7q-6 -17 -3 -31q3 -13 8 -23q7 -13 16 -19q-25 4 -59 6q-17 1 -34.5 1.5t-34.5 0.5t-34.5 -0.5t-34.5 -1.5q-34 -1 -61 -6q15 4 34 11q13 4 30 12q16 7 29 16q14 8 43 51q14 21 29.5 46.5t32.5 55.5
q17 31 34.5 64t36.5 70t36 74l34 74q33 73 54 126q11 26 19 48.5t13 40.5q5 19 8.5 34t4.5 26q3 24 -1 39q-3 11 -10 18l-15 15q-5 4 -9.5 7t-9.5 7q8 -2 15.5 -3t14.5 -2q7 -2 13.5 -3t13.5 -2q70 -6 142 -3q37 2 73 2.5t72 0.5q35 0 68.5 0.5t67.5 1.5q34 2 67 4l66 4
q-2 -14 -3 -32t-2 -38t1 -40t6 -39q-2 0 -3 7q-2 4 -4 8.5t-4 9.5q-3 5 -6.5 10t-7.5 10q-9 10 -21 15q-11 4 -33 6q-11 2 -23 2.5t-26 1.5q-28 1 -59 0h-30.5t-28.5 -1t-27.5 -1t-24.5 -1q-12 -1 -21 -1t-16 -1q-8 -63 -12 -126q-2 -32 -3 -63t-2 -63q24 -5 54 -9
q15 -2 30 -3.5t29 -0.5t25.5 2t21.5 3q23 5 38 9q9 2 17.5 5t16.5 6t16.5 6t17.5 5q-5 -12 -6 -27q-2 -8 -2.5 -16.5t-1.5 -16.5v-17.5t2 -16.5q0 -8 2 -15.5t4 -14.5q-10 2 -18.5 4t-16.5 4q-17 5 -32 6q-8 2 -17.5 2.5t-19.5 2.5q-10 0 -22 1t-26 2q-13 1 -27 0.5
t-29 -2.5q-16 -2 -29.5 -5t-26.5 -5v-37.5t2 -38.5q0 -20 1 -38.5t2 -36.5q1 -19 2 -36t2 -33q3 -34 6 -56q8 -4 19 -8t24 -8q27 -9 57 -15q32 -6 65 -9q34 -5 66 -3q14 1 25.5 2.5t21.5 5.5q20 8 33 19q12 11 19 26q7 17 8 31q1 19 -3 36q-5 18 -13 30q-9 12 -24 20
q-7 4 -15 5t-18 1q-17 0 -28 -8q-12 -11 -16 -19q-5 -12 -4 -20q0 -8 5 -10q4 -1 7 2q5 5 7 8q6 6 10 8q6 4 17 1q19 -4 27 -26q7 -20 2 -38q-4 -15 -20 -28q-15 -12 -43 -9q-11 2 -23 6q-12 6 -22 16t-16 25t-6 35q0 21 7 39q4 10 9.5 18t12.5 16q15 15 35 23q21 9 46 8
q30 -1 53 -14q11 -7 20.5 -14.5t17.5 -17.5q14 -18 22 -44q4 -13 6 -25.5t1 -26.5q-2 -26 -9 -50q-7 -23 -23 -42q-14 -18 -38 -31q-21 -13 -53 -16q-17 -2 -35.5 -2.5t-38.5 1.5q-20 0 -41 1.5t-41 3.5q-21 2 -41.5 4t-40.5 4q-41 4 -75 6q-42 2 -83 0q-21 -1 -42.5 -3.5
t-43.5 -6.5q36 10 56 25q19 13 24 37q2 9 3.5 22.5t3.5 32.5q4 37 3 88z" />
    <glyph glyph-name="Ccedilla" unicode="&#xc7;" horiz-adv-x="699" 
d="M487 -141q-2 -15 -12 -30q-10 -16 -25 -28q-16 -12 -35 -19q-20 -8 -42 -5q-37 4 -57 29q-21 25 -16 58q4 29 25 40q20 11 41 5q20 -6 28 -21q7 -15 4 -26q-2 -5 -5 -6t-8 1l-9 9q-5 7 -16 8q-12 0 -16 -7q-6 -8 -6 -15q0 -15 11 -24q10 -8 29 -10q20 -2 35 11
q18 15 15 37q-1 14 -7 23q-2 5 -5 8.5t-6 7.5t-6 7l-7 7q-6 6 -11 21q-3 10 -5.5 18.5t-3.5 16.5l-3 24q-3 1 -6 1t-6 1q-9 0 -13 1q-68 9 -129 39t-106 81q-45 49 -71 123q-26 72 -24 165q1 89 35 162q35 74 86 124q52 50 117 79q32 14 64 22t64 9q63 2 108 -16
q46 -18 78 -48q31 -32 48 -69q16 -39 18 -77q1 -51 -14 -101q-15 -47 -42 -85q-14 -19 -29.5 -33.5t-32.5 -25.5q-34 -22 -73 -22q-41 0 -67 19q-28 19 -45 47q-8 14 -14.5 27.5t-10.5 27.5q-8 30 -8 47v20.5t2 21.5q5 24 13 42q10 22 25 34q8 7 18.5 11.5t23.5 6.5
q22 3 37 -3q16 -7 25 -19q9 -10 14 -27q4 -15 4 -30q0 -31 -15 -52q-15 -22 -33 -23q-15 -2 -20 6q-6 8 -13 9q-3 2 -7 -1q-4 -2 -5 -9t2 -22q4 -14 12 -27q10 -14 22 -24q13 -10 34 -10q30 0 51 20q24 24 38 53q8 16 13.5 33t9.5 34q8 35 3 62q-5 29 -18 56t-34 48
q-21 20 -49 31q-28 10 -61 6q-20 -3 -38.5 -11t-37.5 -22t-36 -32t-31 -41q-31 -46 -47 -105q-18 -60 -18 -129q0 -68 14 -127q15 -58 39 -100q25 -42 57 -70q31 -27 69 -38q32 -8 58 -8q14 0 27 1.5t26 3.5q13 3 25 7t23 9t20.5 10.5t17.5 10.5q21 15 40 36q19 19 33 41
q13 22 24 42q5 11 9 20.5t8 17.5q3 8 6 5q1 0 0 -6q-3 -11 -6 -24t-7 -30q-8 -35 -12 -70q-6 -36 -9 -69q-5 -33 -3 -53q-10 13 -25 21q-7 5 -16.5 5.5t-22.5 -1.5q-11 -2 -23 -7q-7 -3 -15 -6t-17 -7t-19.5 -7t-22.5 -6q-23 -5 -57 -7q1 -7 3 -20q3 -12 11 -23
q8 -12 18 -22q5 -5 9 -9.5t8 -9.5q6 -9 11 -23q4 -12 1 -32z" />
    <glyph glyph-name="Egrave" unicode="&#xc8;" horiz-adv-x="659" 
d="M627 134q-2 -26 -9 -50q-7 -23 -23 -42q-14 -18 -38 -31q-21 -13 -53 -16q-17 -2 -35.5 -2.5t-38.5 1.5q-20 0 -41 1.5t-41 3.5q-21 2 -41.5 4t-40.5 4q-41 4 -75 6q-42 2 -83 0q-21 -1 -42.5 -3.5t-43.5 -6.5q36 10 56 25q19 13 24 37q2 8 3 20.5t2 29.5q2 17 3 36t2 41
q1 23 1.5 47.5t1.5 50.5v111q0 46 -1 92t-3 93q-2 48 -4.5 90.5t-7.5 81.5q-1 10 -19 23q-16 12 -67 21q70 -6 143 -9q36 -2 72 -3t73 -1q35 0 68.5 0.5t67.5 1.5q34 2 67 4l66 4q-2 -14 -3 -32t-2 -38t1 -40t6 -39q-2 0 -3 7q-2 4 -4 8.5t-4 9.5q-3 5 -6.5 10t-7.5 10
q-9 10 -21 15q-11 4 -33 6q-11 2 -23 2.5t-26 1.5q-28 1 -59 0h-30.5t-28.5 -1t-27.5 -1t-24.5 -1q-12 -1 -21 -1t-16 -1q-8 -63 -12 -126q-2 -32 -3 -63t-2 -63q24 -5 54 -9q15 -2 30 -3.5t29 -0.5t25.5 2t21.5 3q23 5 38 9q9 2 17.5 5t16.5 6t16.5 6t17.5 5q-5 -12 -6 -27
q-2 -8 -2.5 -16.5t-1.5 -16.5v-17.5t2 -16.5q0 -8 2 -15.5t4 -14.5q-10 2 -18.5 4t-16.5 4q-17 5 -32 6q-8 2 -17.5 2.5t-19.5 2.5q-10 0 -22 1t-26 2q-13 1 -27 0.5t-29 -2.5q-16 -2 -29.5 -5t-26.5 -5v-37.5t2 -38.5q0 -20 1 -38.5t2 -36.5q1 -19 2 -36t2 -33q3 -34 6 -56
q8 -4 19 -8t24 -8q27 -9 57 -15q32 -6 65 -9q34 -5 66 -3q14 1 25.5 2.5t21.5 5.5q20 8 33 19q12 11 19 26q7 17 8 31q1 19 -3 36q-5 18 -13 30q-9 12 -24 20q-7 4 -15 5t-18 1q-17 0 -28 -8q-12 -11 -16 -19q-5 -12 -4 -20q0 -8 5 -10q4 -1 7 2q5 5 7 8q6 6 10 8q6 4 17 1
q19 -4 27 -26q7 -20 2 -38q-4 -15 -20 -28q-15 -12 -43 -9q-11 2 -23 6q-12 6 -22 16t-16 25t-6 35q0 21 7 39q4 10 9.5 18t12.5 16q15 15 35 23q21 9 46 8q30 -1 53 -14q11 -7 20.5 -14.5t17.5 -17.5q14 -18 22 -44q4 -13 6 -25.5t1 -26.5zM373 842q-27 5 -51 12t-44 16
q-41 18 -69 39q-29 22 -42 45q-15 24 -15 44q0 18 12 30q13 13 30 13q29 0 44 -23q14 -21 30 -64q28 -82 105 -112z" />
    <glyph glyph-name="Eacute" unicode="&#xc9;" horiz-adv-x="659" 
d="M627 134q-2 -26 -9 -50q-7 -23 -23 -42q-14 -18 -38 -31q-21 -13 -53 -16q-17 -2 -35.5 -2.5t-38.5 1.5q-20 0 -41 1.5t-41 3.5q-21 2 -41.5 4t-40.5 4q-41 4 -75 6q-42 2 -83 0q-21 -1 -42.5 -3.5t-43.5 -6.5q36 10 56 25q19 13 24 37q2 8 3 20.5t2 29.5q2 17 3 36t2 41
q1 23 1.5 47.5t1.5 50.5v111q0 46 -1 92t-3 93q-2 48 -4.5 90.5t-7.5 81.5q-1 10 -19 23q-16 12 -67 21q70 -6 143 -9q36 -2 72 -3t73 -1q35 0 68.5 0.5t67.5 1.5q34 2 67 4l66 4q-2 -14 -3 -32t-2 -38t1 -40t6 -39q-2 0 -3 7q-2 4 -4 8.5t-4 9.5q-3 5 -6.5 10t-7.5 10
q-9 10 -21 15q-11 4 -33 6q-11 2 -23 2.5t-26 1.5q-28 1 -59 0h-30.5t-28.5 -1t-27.5 -1t-24.5 -1q-12 -1 -21 -1t-16 -1q-8 -63 -12 -126q-2 -32 -3 -63t-2 -63q24 -5 54 -9q15 -2 30 -3.5t29 -0.5t25.5 2t21.5 3q23 5 38 9q9 2 17.5 5t16.5 6t16.5 6t17.5 5q-5 -12 -6 -27
q-2 -8 -2.5 -16.5t-1.5 -16.5v-17.5t2 -16.5q0 -8 2 -15.5t4 -14.5q-10 2 -18.5 4t-16.5 4q-17 5 -32 6q-8 2 -17.5 2.5t-19.5 2.5q-10 0 -22 1t-26 2q-13 1 -27 0.5t-29 -2.5q-16 -2 -29.5 -5t-26.5 -5v-37.5t2 -38.5q0 -20 1 -38.5t2 -36.5q1 -19 2 -36t2 -33q3 -34 6 -56
q8 -4 19 -8t24 -8q27 -9 57 -15q32 -6 65 -9q34 -5 66 -3q14 1 25.5 2.5t21.5 5.5q20 8 33 19q12 11 19 26q7 17 8 31q1 19 -3 36q-5 18 -13 30q-9 12 -24 20q-7 4 -15 5t-18 1q-17 0 -28 -8q-12 -11 -16 -19q-5 -12 -4 -20q0 -8 5 -10q4 -1 7 2q5 5 7 8q6 6 10 8q6 4 17 1
q19 -4 27 -26q7 -20 2 -38q-4 -15 -20 -28q-15 -12 -43 -9q-11 2 -23 6q-12 6 -22 16t-16 25t-6 35q0 21 7 39q4 10 9.5 18t12.5 16q15 15 35 23q21 9 46 8q30 -1 53 -14q11 -7 20.5 -14.5t17.5 -17.5q14 -18 22 -44q4 -13 6 -25.5t1 -26.5zM269 828q73 34 97 93
q5 11 8.5 20.5t7.5 19.5t7.5 18.5t7.5 15.5q9 15 21 24t30 9q17 0 29 -12t12 -32t-14 -43q-16 -23 -43 -45q-27 -21 -69 -40q-20 -9 -44 -16t-50 -12z" />
    <glyph glyph-name="Ecircumflex" unicode="&#xca;" horiz-adv-x="659" 
d="M627 134q-2 -26 -9 -50q-7 -23 -23 -42q-14 -18 -38 -31q-21 -13 -53 -16q-17 -2 -35.5 -2.5t-38.5 1.5q-20 0 -41 1.5t-41 3.5q-21 2 -41.5 4t-40.5 4q-41 4 -75 6q-42 2 -83 0q-21 -1 -42.5 -3.5t-43.5 -6.5q36 10 56 25q19 13 24 37q2 8 3 20.5t2 29.5q2 17 3 36t2 41
q1 23 1.5 47.5t1.5 50.5v111q0 46 -1 92t-3 93q-2 48 -4.5 90.5t-7.5 81.5q-1 10 -19 23q-16 12 -67 21q70 -6 143 -9q36 -2 72 -3t73 -1q35 0 68.5 0.5t67.5 1.5q34 2 67 4l66 4q-2 -14 -3 -32t-2 -38t1 -40t6 -39q-2 0 -3 7q-2 4 -4 8.5t-4 9.5q-3 5 -6.5 10t-7.5 10
q-9 10 -21 15q-11 4 -33 6q-11 2 -23 2.5t-26 1.5q-28 1 -59 0h-30.5t-28.5 -1t-27.5 -1t-24.5 -1q-12 -1 -21 -1t-16 -1q-8 -63 -12 -126q-2 -32 -3 -63t-2 -63q24 -5 54 -9q15 -2 30 -3.5t29 -0.5t25.5 2t21.5 3q23 5 38 9q9 2 17.5 5t16.5 6t16.5 6t17.5 5q-5 -12 -6 -27
q-2 -8 -2.5 -16.5t-1.5 -16.5v-17.5t2 -16.5q0 -8 2 -15.5t4 -14.5q-10 2 -18.5 4t-16.5 4q-17 5 -32 6q-8 2 -17.5 2.5t-19.5 2.5q-10 0 -22 1t-26 2q-13 1 -27 0.5t-29 -2.5q-16 -2 -29.5 -5t-26.5 -5v-37.5t2 -38.5q0 -20 1 -38.5t2 -36.5q1 -19 2 -36t2 -33q3 -34 6 -56
q8 -4 19 -8t24 -8q27 -9 57 -15q32 -6 65 -9q34 -5 66 -3q14 1 25.5 2.5t21.5 5.5q20 8 33 19q12 11 19 26q7 17 8 31q1 19 -3 36q-5 18 -13 30q-9 12 -24 20q-7 4 -15 5t-18 1q-17 0 -28 -8q-12 -11 -16 -19q-5 -12 -4 -20q0 -8 5 -10q4 -1 7 2q5 5 7 8q6 6 10 8q6 4 17 1
q19 -4 27 -26q7 -20 2 -38q-4 -15 -20 -28q-15 -12 -43 -9q-11 2 -23 6q-12 6 -22 16t-16 25t-6 35q0 21 7 39q4 10 9.5 18t12.5 16q15 15 35 23q21 9 46 8q30 -1 53 -14q11 -7 20.5 -14.5t17.5 -17.5q14 -18 22 -44q4 -13 6 -25.5t1 -26.5zM168 839l163 182l163 -182
l-165 84z" />
    <glyph glyph-name="Edieresis" unicode="&#xcb;" horiz-adv-x="659" 
d="M627 134q-2 -26 -9 -50q-7 -23 -23 -42q-14 -18 -38 -31q-21 -13 -53 -16q-17 -2 -35.5 -2.5t-38.5 1.5q-20 0 -41 1.5t-41 3.5q-21 2 -41.5 4t-40.5 4q-41 4 -75 6q-42 2 -83 0q-21 -1 -42.5 -3.5t-43.5 -6.5q36 10 56 25q19 13 24 37q2 8 3 20.5t2 29.5q2 17 3 36t2 41
q1 23 1.5 47.5t1.5 50.5v111q0 46 -1 92t-3 93q-2 48 -4.5 90.5t-7.5 81.5q-1 10 -19 23q-16 12 -67 21q70 -6 143 -9q36 -2 72 -3t73 -1q35 0 68.5 0.5t67.5 1.5q34 2 67 4l66 4q-2 -14 -3 -32t-2 -38t1 -40t6 -39q-2 0 -3 7q-2 4 -4 8.5t-4 9.5q-3 5 -6.5 10t-7.5 10
q-9 10 -21 15q-11 4 -33 6q-11 2 -23 2.5t-26 1.5q-28 1 -59 0h-30.5t-28.5 -1t-27.5 -1t-24.5 -1q-12 -1 -21 -1t-16 -1q-8 -63 -12 -126q-2 -32 -3 -63t-2 -63q24 -5 54 -9q15 -2 30 -3.5t29 -0.5t25.5 2t21.5 3q23 5 38 9q9 2 17.5 5t16.5 6t16.5 6t17.5 5q-5 -12 -6 -27
q-2 -8 -2.5 -16.5t-1.5 -16.5v-17.5t2 -16.5q0 -8 2 -15.5t4 -14.5q-10 2 -18.5 4t-16.5 4q-17 5 -32 6q-8 2 -17.5 2.5t-19.5 2.5q-10 0 -22 1t-26 2q-13 1 -27 0.5t-29 -2.5q-16 -2 -29.5 -5t-26.5 -5v-37.5t2 -38.5q0 -20 1 -38.5t2 -36.5q1 -19 2 -36t2 -33q3 -34 6 -56
q8 -4 19 -8t24 -8q27 -9 57 -15q32 -6 65 -9q34 -5 66 -3q14 1 25.5 2.5t21.5 5.5q20 8 33 19q12 11 19 26q7 17 8 31q1 19 -3 36q-5 18 -13 30q-9 12 -24 20q-7 4 -15 5t-18 1q-17 0 -28 -8q-12 -11 -16 -19q-5 -12 -4 -20q0 -8 5 -10q4 -1 7 2q5 5 7 8q6 6 10 8q6 4 17 1
q19 -4 27 -26q7 -20 2 -38q-4 -15 -20 -28q-15 -12 -43 -9q-11 2 -23 6q-12 6 -22 16t-16 25t-6 35q0 21 7 39q4 10 9.5 18t12.5 16q15 15 35 23q21 9 46 8q30 -1 53 -14q11 -7 20.5 -14.5t17.5 -17.5q14 -18 22 -44q4 -13 6 -25.5t1 -26.5zM299 910q0 -26 -19 -45t-46 -19
q-28 0 -46 18q-19 19 -19 46q0 28 18 46q19 19 47 19q27 0 46 -19t19 -46zM475 910q0 -26 -19 -45t-47 -19q-27 0 -45 19q-19 19 -19 45q0 28 18 46q19 19 46 19t47 -18q19 -19 19 -47z" />
    <glyph glyph-name="Igrave" unicode="&#xcc;" horiz-adv-x="326" 
d="M231 59q1 -13 19 -32t53 -27q-14 2 -30 4t-34 4q-38 3 -77 3q-20 0 -40 -0.5t-40 -1.5q-41 -3 -78 -9q49 10 66 21q17 12 19 23q4 39 6.5 81.5t4.5 89.5q2 48 3.5 94t1.5 93v56.5t-1 53.5v51.5t-2 46.5q0 22 -1 41t-3 36q-3 34 -6 50q-5 23 -23 37q-10 7 -24 13.5
t-33 11.5q16 -3 33 -5t37 -3t39 -1.5t39 0.5t39 1.5t37 1.5q18 2 33 4t28 4q-33 -10 -48 -25q-15 -16 -19 -36q-2 -10 -3.5 -24.5t-3.5 -34.5t-3.5 -41.5t-3.5 -45.5q-2 -25 -3 -50.5t-1 -51.5q-2 -26 -2 -51.5v-48.5q0 -41 1 -82t3 -84q3 -43 7.5 -84t9.5 -83zM167 832
q-27 5 -51 12t-44 16q-41 18 -69 39q-29 22 -42 45q-15 24 -15 44q0 18 12 30q13 13 30 13q29 0 44 -23q8 -11 15 -27.5t15 -36.5q15 -43 40 -69q25 -27 65 -43z" />
    <glyph glyph-name="Iacute" unicode="&#xcd;" horiz-adv-x="326" 
d="M231 59q1 -13 19 -32t53 -27q-14 2 -30 4t-34 4q-38 3 -77 3q-20 0 -40 -0.5t-40 -1.5q-41 -3 -78 -9q49 10 66 21q17 12 19 23q4 39 6.5 81.5t4.5 89.5q2 48 3.5 94t1.5 93v56.5t-1 53.5v51.5t-2 46.5q0 22 -1 41t-3 36q-3 34 -6 50q-5 23 -23 37q-10 7 -24 13.5
t-33 11.5q16 -3 33 -5t37 -3t39 -1.5t39 0.5t39 1.5t37 1.5q18 2 33 4t28 4q-33 -10 -48 -25q-15 -16 -19 -36q-2 -10 -3.5 -24.5t-3.5 -34.5t-3.5 -41.5t-3.5 -45.5q-2 -25 -3 -50.5t-1 -51.5q-2 -26 -2 -51.5v-48.5q0 -41 1 -82t3 -84q3 -43 7.5 -84t9.5 -83zM115 825
q73 34 97 93q5 11 8.5 20.5t7.5 19.5t7.5 18.5t7.5 15.5q9 15 21 24t30 9q17 0 29 -12t12 -32t-14 -43q-16 -23 -43 -45q-27 -21 -69 -40q-20 -9 -44 -16t-50 -12z" />
    <glyph glyph-name="Icircumflex" unicode="&#xce;" horiz-adv-x="326" 
d="M231 59q1 -13 19 -32t53 -27q-14 2 -30 4t-34 4q-38 3 -77 3q-20 0 -40 -0.5t-40 -1.5q-41 -3 -78 -9q49 10 66 21q17 12 19 23q4 39 6.5 81.5t4.5 89.5q2 48 3.5 94t1.5 93v56.5t-1 53.5v51.5t-2 46.5q0 22 -1 41t-3 36q-3 34 -6 50q-5 23 -23 37q-10 7 -24 13.5
t-33 11.5q16 -3 33 -5t37 -3t39 -1.5t39 0.5t39 1.5t37 1.5q18 2 33 4t28 4q-33 -10 -48 -25q-15 -16 -19 -36q-2 -10 -3.5 -24.5t-3.5 -34.5t-3.5 -41.5t-3.5 -45.5q-2 -25 -3 -50.5t-1 -51.5q-2 -26 -2 -51.5v-48.5q0 -41 1 -82t3 -84q3 -43 7.5 -84t9.5 -83zM3 837
l163 182l163 -182l-165 84z" />
    <glyph glyph-name="Idieresis" unicode="&#xcf;" horiz-adv-x="326" 
d="M231 59q1 -13 19 -32t53 -27q-14 2 -30 4t-34 4q-38 3 -77 3q-20 0 -40 -0.5t-40 -1.5q-41 -3 -78 -9q49 10 66 21q17 12 19 23q4 39 6.5 81.5t4.5 89.5q2 48 3.5 94t1.5 93v56.5t-1 53.5v51.5t-2 46.5q0 22 -1 41t-3 36q-3 34 -6 50q-5 23 -23 37q-10 7 -24 13.5
t-33 11.5q16 -3 33 -5t37 -3t39 -1.5t39 0.5t39 1.5t37 1.5q18 2 33 4t28 4q-33 -10 -48 -25q-15 -16 -19 -36q-2 -10 -3.5 -24.5t-3.5 -34.5t-3.5 -41.5t-3.5 -45.5q-2 -25 -3 -50.5t-1 -51.5q-2 -26 -2 -51.5v-48.5q0 -41 1 -82t3 -84q3 -43 7.5 -84t9.5 -83zM145 917
q0 -27 -19 -46t-46 -19t-46 19t-19 46t19 46t46 19t46 -19t19 -46zM321 917q0 -27 -19 -46t-46 -19t-46 19t-19 46t19 46t46 19t46 -19t19 -46z" />
    <glyph glyph-name="Eth" unicode="&#xd0;" horiz-adv-x="778" 
d="M105 498q-1 42 -2 79t-3 69t-3.5 55t-4.5 36q-5 23 -23 37q-10 7 -24 13.5t-33 11.5q76 -8 153 -9q38 -1 74 -0.5t69 0.5q33 2 61.5 2t53.5 1q50 2 73 -3q7 -2 16 -5.5t21 -8.5q12 -6 25 -14t27 -18q14 -11 28 -23.5t28 -26.5q29 -30 52 -67q24 -38 38 -85
q7 -23 10.5 -49t2.5 -54q-1 -91 -32 -170q-31 -81 -73 -138q-22 -30 -44.5 -54t-47.5 -42q-50 -36 -91 -42q-24 -4 -45.5 -4t-41.5 2t-37 7t-31 12q-29 13 -51 35q-21 20 -35 46q1 -11 2 -22.5t2 -22.5q2 -11 3 -23t3 -23q-37 10 -61 11q-13 2 -25.5 2.5t-23.5 -0.5
q-12 0 -24.5 -1t-25.5 -3t-28.5 -4.5t-32.5 -4.5q49 10 66 21q17 12 19 23q4 39 6.5 81.5t4.5 89.5q2 48 3.5 94t1.5 93v14h-97v82h97zM348 416h-138v-24q0 -14 -0.5 -27t-0.5 -27v-52q22 51 64 84q43 32 90 32q36 0 60 -15q26 -15 39 -37q15 -23 21 -46q6 -24 6 -40
q0 -26 -10 -51q-5 -11 -10.5 -20t-11.5 -17q-13 -16 -31 -24t-33 -8q-33 0 -55 16q-23 17 -23 55q0 19 6 34q8 17 16 28q10 14 19 20q11 8 19 11q6 1 11 10q5 8 5 16t-7 14q-8 6 -24 5q-42 -2 -70 -43q-29 -43 -29 -113q0 -34 10 -58q10 -26 31 -45q21 -20 51 -27
q33 -8 70 -2q32 4 61 42t48 91q10 28 18 57.5t13 61.5q6 32 9.5 63.5t3.5 62.5q0 59 -14 112q-7 26 -15.5 47.5t-19.5 40.5t-23 34.5t-26 26.5q-28 23 -52 29q-19 3 -41 2l-26 -2t-27 -3t-27.5 -4.5t-27.5 -4.5q-14 -3 -26 -6t-23 -5q-4 -34 -9 -92q-2 -29 -4 -58.5
t-3 -61.5h136v-82z" />
    <glyph glyph-name="Ntilde" unicode="&#xd1;" horiz-adv-x="688" 
d="M184 716q7 7 15 13.5t18 14.5t21 14.5t23 13.5q26 15 51 23q27 11 55 12q33 2 68 -3q37 -7 67 -22q17 -8 31.5 -19t27.5 -25q28 -29 44 -74q9 -25 13.5 -47.5t6.5 -44.5q0 -22 -1.5 -43.5t-6.5 -41.5q-5 -21 -11.5 -41.5t-14.5 -40.5q-9 -20 -18.5 -40.5t-20.5 -41.5
q-8 -14 -15.5 -28t-15.5 -28t-15 -26.5t-14 -25.5t-12.5 -25.5t-10.5 -24.5q-9 -26 -9 -49q0 -35 21 -57q22 -23 55 -22q34 1 51 18q16 16 18 36q0 7 -3 6q-3 0 -7 -3q-2 -2 -5 -4l-6 -4q-5 -4 -13 -7q-8 -5 -16 -3q-23 1 -33 18q-10 15 -8 38q2 18 13 34q13 17 42 22
q8 1 17 0.5t18 -2.5q19 -4 34 -15q15 -10 24 -29q10 -17 10 -44q0 -26 -13 -49q-13 -22 -33 -37q-20 -14 -45 -22q-24 -7 -50 -7q-29 0 -54 9q-13 5 -24 11.5t-21 14.5q-20 17 -31 40q-11 24 -11 50q0 30 8 59q4 14 9 27.5t11 27.5q7 14 13.5 27.5t13.5 27.5q8 14 14.5 30.5
t13.5 34.5q10 29 18 65q4 18 6.5 36t3.5 37q2 19 1.5 37t-2.5 36q-4 35 -17 68q-19 45 -53 71q-35 27 -96 25q-53 -2 -93 -21t-61 -42q-2 -31 -3 -62.5t-3 -63.5q0 -33 -1 -65.5t-1 -64.5v-56.5t1 -53.5v-51.5t2 -46.5q0 -22 1 -41t3 -36q3 -34 6 -50q2 -11 5 -20t5 -16
q3 -7 7.5 -13t9.5 -13q-10 2 -20.5 3t-23.5 2t-25.5 1.5t-26.5 0.5q-13 0 -26 -0.5t-26 -1.5q-24 0 -46 -5q4 7 8 13.5t8 12.5q9 14 13 33q2 10 3.5 24t3.5 34t3.5 42t3.5 46q2 25 2.5 50.5t2.5 51.5q0 26 0.5 51.5t0.5 48.5q0 41 -1 82t-3 84q-3 43 -7.5 84t-9.5 83
q-3 28 -28 59q13 -2 25.5 -2.5t26.5 -1.5t27 -1h26h25.5t23.5 1t21.5 1.5t18.5 2.5q-7 -7 -15 -20q-8 -14 -9 -24q-1 -5 -1 -9.5t-1 -9.5t-1 -10.5t-1 -10.5zM480 1023q-18 -156 -94 -156q-16 0 -27 4q-7 2 -13 5t-11 5q-6 3 -12 5.5t-11 4.5q-12 5 -23 5q-49 0 -73 -58
q7 77 32 117t61 40q13 0 28 -5q7 -2 13 -5l12 -6q7 -3 13 -6t12 -5q13 -5 26 -5q50 0 67 60z" />
    <glyph glyph-name="Ograve" unicode="&#xd2;" horiz-adv-x="712" 
d="M357 -13q-62 0 -122 29q-60 30 -105 84q-46 53 -73 129q-28 74 -28 167q0 84 22 147q11 33 24 61.5t29 52.5t33 43.5t34 34.5q17 16 32.5 27t28.5 18q-31 -38 -38 -80q-9 -41 -7 -79q1 -37 9 -64q8 -29 10 -33q-1 -2 -2 -6.5t-3 -11.5q-4 -11 -7 -31q-5 -18 -6 -40
q-1 -11 -1.5 -23t0.5 -25q1 -62 14 -126q12 -62 33 -110q23 -50 53 -79q31 -30 70 -30q40 0 72 32q31 31 54 85q11 27 20 58t14 66q10 70 9 147q-1 75 -17 137q-15 59 -38 101q-23 40 -53 64q-29 22 -62 22q-24 0 -42 -13q-17 -14 -27 -33q-11 -20 -15 -38q-5 -22 -4 -30
q1 -26 8 -42q8 -15 22 -24q5 14 23 29q17 13 44 13q32 0 55 -21q23 -23 23 -54q0 -40 -26 -60q-29 -21 -64 -21q-15 0 -31 3q-9 2 -18 5t-17 8q-19 11 -34 26q-18 18 -28 42q-13 28 -16 62q-3 35 1 63q2 16 6.5 30t9.5 27q10 24 28 42q21 20 46 30q27 11 53 11q14 2 27 1
t26 -3q14 -2 26 -5.5t23 -8.5q31 -13 67 -41q37 -30 70 -79q35 -50 57 -116q22 -67 24 -155q1 -46 -5.5 -88t-18.5 -80q-25 -74 -70 -130q-42 -54 -101 -85q-59 -32 -121 -32zM385 838q-27 5 -51 12t-44 16q-41 18 -69 39q-29 22 -42 45q-15 24 -15 44q0 18 12 30
q13 13 30 13q29 0 44 -23q8 -11 15 -27.5t15 -36.5q15 -43 40 -69q25 -27 65 -43z" />
    <glyph glyph-name="Oacute" unicode="&#xd3;" horiz-adv-x="712" 
d="M357 -13q-62 0 -122 29q-60 30 -105 84q-46 53 -73 129q-28 74 -28 167q0 84 22 147q11 33 24 61.5t29 52.5t33 43.5t34 34.5q17 16 32.5 27t28.5 18q-31 -38 -38 -80q-9 -41 -7 -79q1 -37 9 -64q8 -29 10 -33q-1 -2 -2 -6.5t-3 -11.5q-4 -11 -7 -31q-5 -18 -6 -40
q-1 -11 -1.5 -23t0.5 -25q1 -62 14 -126q12 -62 33 -110q23 -50 53 -79q31 -30 70 -30q40 0 72 32q31 31 54 85q11 27 20 58t14 66q10 70 9 147q-1 75 -17 137q-15 59 -38 101q-23 40 -53 64q-29 22 -62 22q-24 0 -42 -13q-17 -14 -27 -33q-11 -20 -15 -38q-5 -22 -4 -30
q1 -26 8 -42q8 -15 22 -24q5 14 23 29q17 13 44 13q32 0 55 -21q23 -23 23 -54q0 -40 -26 -60q-29 -21 -64 -21q-15 0 -31 3q-9 2 -18 5t-17 8q-19 11 -34 26q-18 18 -28 42q-13 28 -16 62q-3 35 1 63q2 16 6.5 30t9.5 27q10 24 28 42q21 20 46 30q27 11 53 11q14 2 27 1
t26 -3q14 -2 26 -5.5t23 -8.5q31 -13 67 -41q37 -30 70 -79q35 -50 57 -116q22 -67 24 -155q1 -46 -5.5 -88t-18.5 -80q-25 -74 -70 -130q-42 -54 -101 -85q-59 -32 -121 -32zM322 839q73 34 97 93q5 11 8.5 20.5t7.5 19.5t7.5 18.5t7.5 15.5q9 15 21 24t30 9q17 0 29 -12
t12 -32t-14 -43q-16 -23 -43 -45q-27 -21 -69 -40q-20 -9 -44 -16t-50 -12z" />
    <glyph glyph-name="Ocircumflex" unicode="&#xd4;" horiz-adv-x="712" 
d="M357 -13q-62 0 -122 29q-60 30 -105 84q-46 53 -73 129q-28 74 -28 167q0 84 22 147q11 33 24 61.5t29 52.5t33 43.5t34 34.5q17 16 32.5 27t28.5 18q-31 -38 -38 -80q-9 -41 -7 -79q1 -37 9 -64q8 -29 10 -33q-1 -2 -2 -6.5t-3 -11.5q-4 -11 -7 -31q-5 -18 -6 -40
q-1 -11 -1.5 -23t0.5 -25q1 -62 14 -126q12 -62 33 -110q23 -50 53 -79q31 -30 70 -30q40 0 72 32q31 31 54 85q11 27 20 58t14 66q10 70 9 147q-1 75 -17 137q-15 59 -38 101q-23 40 -53 64q-29 22 -62 22q-24 0 -42 -13q-17 -14 -27 -33q-11 -20 -15 -38q-5 -22 -4 -30
q1 -26 8 -42q8 -15 22 -24q5 14 23 29q17 13 44 13q32 0 55 -21q23 -23 23 -54q0 -40 -26 -60q-29 -21 -64 -21q-15 0 -31 3q-9 2 -18 5t-17 8q-19 11 -34 26q-18 18 -28 42q-13 28 -16 62q-3 35 1 63q2 16 6.5 30t9.5 27q10 24 28 42q21 20 46 30q27 11 53 11q14 2 27 1
t26 -3q14 -2 26 -5.5t23 -8.5q31 -13 67 -41q37 -30 70 -79q35 -50 57 -116q22 -67 24 -155q1 -46 -5.5 -88t-18.5 -80q-25 -74 -70 -130q-42 -54 -101 -85q-59 -32 -121 -32zM193 839l163 182l163 -182l-165 84z" />
    <glyph glyph-name="Otilde" unicode="&#xd5;" horiz-adv-x="712" 
d="M357 -13q-62 0 -122 29q-60 30 -105 84q-46 53 -73 129q-28 74 -28 167q0 84 22 147q11 33 24 61.5t29 52.5t33 43.5t34 34.5q17 16 32.5 27t28.5 18q-31 -38 -38 -80q-9 -41 -7 -79q1 -37 9 -64q8 -29 10 -33q-1 -2 -2 -6.5t-3 -11.5q-4 -11 -7 -31q-5 -18 -6 -40
q-1 -11 -1.5 -23t0.5 -25q1 -62 14 -126q12 -62 33 -110q23 -50 53 -79q31 -30 70 -30q40 0 72 32q31 31 54 85q11 27 20 58t14 66q10 70 9 147q-1 75 -17 137q-15 59 -38 101q-23 40 -53 64q-29 22 -62 22q-24 0 -42 -13q-17 -14 -27 -33q-11 -20 -15 -38q-5 -22 -4 -30
q1 -26 8 -42q8 -15 22 -24q5 14 23 29q17 13 44 13q32 0 55 -21q23 -23 23 -54q0 -40 -26 -60q-29 -21 -64 -21q-15 0 -31 3q-9 2 -18 5t-17 8q-19 11 -34 26q-18 18 -28 42q-13 28 -16 62q-3 35 1 63q2 16 6.5 30t9.5 27q10 24 28 42q21 20 46 30q27 11 53 11q14 2 27 1
t26 -3q14 -2 26 -5.5t23 -8.5q31 -13 67 -41q37 -30 70 -79q35 -50 57 -116q22 -67 24 -155q1 -46 -5.5 -88t-18.5 -80q-25 -74 -70 -130q-42 -54 -101 -85q-59 -32 -121 -32zM501 1014q-18 -156 -94 -156q-16 0 -27 4q-7 2 -13 5t-11 5q-6 3 -12 5.5t-11 4.5q-12 5 -23 5
q-49 0 -73 -58q7 77 32 117t61 40q13 0 28 -5q7 -2 13 -5l12 -6q7 -3 13 -6t12 -5q13 -5 26 -5q50 0 67 60z" />
    <glyph glyph-name="Odieresis" unicode="&#xd6;" horiz-adv-x="712" 
d="M357 -13q-62 0 -122 29q-60 30 -105 84q-46 53 -73 129q-28 74 -28 167q0 84 22 147q11 33 24 61.5t29 52.5t33 43.5t34 34.5q17 16 32.5 27t28.5 18q-31 -38 -38 -80q-9 -41 -7 -79q1 -37 9 -64q8 -29 10 -33q-1 -2 -2 -6.5t-3 -11.5q-4 -11 -7 -31q-5 -18 -6 -40
q-1 -11 -1.5 -23t0.5 -25q1 -62 14 -126q12 -62 33 -110q23 -50 53 -79q31 -30 70 -30q40 0 72 32q31 31 54 85q11 27 20 58t14 66q10 70 9 147q-1 75 -17 137q-15 59 -38 101q-23 40 -53 64q-29 22 -62 22q-24 0 -42 -13q-17 -14 -27 -33q-11 -20 -15 -38q-5 -22 -4 -30
q1 -26 8 -42q8 -15 22 -24q5 14 23 29q17 13 44 13q32 0 55 -21q23 -23 23 -54q0 -40 -26 -60q-29 -21 -64 -21q-15 0 -31 3q-9 2 -18 5t-17 8q-19 11 -34 26q-18 18 -28 42q-13 28 -16 62q-3 35 1 63q2 16 6.5 30t9.5 27q10 24 28 42q21 20 46 30q27 11 53 11q14 2 27 1
t26 -3q14 -2 26 -5.5t23 -8.5q31 -13 67 -41q37 -30 70 -79q35 -50 57 -116q22 -67 24 -155q1 -46 -5.5 -88t-18.5 -80q-25 -74 -70 -130q-42 -54 -101 -85q-59 -32 -121 -32zM336 920q0 -24 -19 -45q-20 -20 -46 -20q-28 0 -46 19q-19 19 -19 46q0 28 18 46q19 19 47 19
q26 0 45 -19q20 -20 20 -46zM512 920q0 -26 -19 -45q-20 -20 -47 -20t-45 19q-19 19 -19 46q0 28 18 46q19 19 46 19t47 -18q19 -19 19 -47z" />
    <glyph glyph-name="Oslash" unicode="&#xd8;" horiz-adv-x="712" 
d="M32 71q7 6 15 13.5t16 15.5l17.5 17.5t19.5 20.5q-32 51 -52 117q-19 63 -19 141q0 84 22 147q11 33 24 61.5t29 52.5t33 43.5t34 34.5q17 16 32.5 27t28.5 18q-31 -38 -38 -80q-9 -41 -7 -79q1 -37 9 -64q8 -29 10 -33q-1 -2 -2 -6.5t-3 -11.5q-4 -11 -7 -31
q-5 -18 -6 -40q-1 -11 -1.5 -23t0.5 -25q1 -17 2 -34.5t3 -34.5t4.5 -34t6.5 -33q23 25 46 50.5t46 53.5q24 28 48 55.5t48 56.5q-5 -2 -9 -3t-9 -2t-10 -1.5t-10 -0.5q-15 0 -31 3q-9 2 -18 5t-17 8q-19 11 -34 26q-18 18 -28 42q-13 28 -16 62q-3 35 1 63q2 16 6.5 30
t9.5 27q10 24 28 42q11 10 21.5 17t23.5 12q27 11 52 11q14 2 27 1t26 -3q14 -2 26.5 -5.5t24.5 -7.5q28 -9 60 -34q17 -13 33 -29.5t32 -36.5q14 17 27.5 33t25.5 30t22.5 27.5t20.5 24.5q-1 -10 -2 -18.5t-1 -15.5q-2 -8 -2 -14.5t-1 -13.5q-2 -14 1 -26q0 -11 5 -29
q-12 -11 -27 -24l-32 -32q25 -47 39 -104q8 -29 12 -61.5t5 -67.5q1 -46 -5.5 -88t-18.5 -80q-25 -74 -70 -130q-42 -54 -101 -85q-59 -32 -121 -32q-61 0 -115 25q-56 26 -101 74q-17 -22 -33 -41t-30 -36t-26 -30.5t-20 -23.5q1 5 1.5 11.5t0.5 14.5q2 8 2 16v16v15.5
t-1 15.5q-2 16 -3 27zM442 527q8 9 15 18t15 17q8 9 15 18t14 17q-22 74 -62 116q-39 41 -83 41q-24 0 -42 -13q-17 -14 -27 -33q-11 -20 -15 -38q-5 -22 -4 -30q1 -26 8 -42q8 -15 22 -24q5 14 23 29q17 13 44 13q32 0 55 -21q23 -23 23 -54q0 -5 -1 -7v-7zM517 527
q-35 -38 -72 -81l-75 -87q-19 -23 -37.5 -45t-37.5 -44q-19 -23 -37.5 -44.5t-35.5 -42.5q21 -64 55 -102q34 -39 80 -39q40 0 72 32q31 31 54 85q11 27 20 58t14 66t8 72t1 75q-1 53 -9 97z" />
    <glyph glyph-name="Ugrave" unicode="&#xd9;" horiz-adv-x="644" 
d="M456 84q-7 -7 -15 -13.5t-18 -14.5t-21 -14.5t-23 -13.5q-24 -14 -51 -24q-14 -5 -27.5 -7.5t-27.5 -3.5q-39 -3 -81 6q-44 11 -78 35q-38 25 -63 69q-27 45 -34 109q-6 52 9 99q8 24 18 46t23 42q26 41 53 71q14 16 25.5 29t20.5 23q8 9 16.5 18.5t16.5 19.5
q16 21 30 42q7 11 12.5 21t9.5 20q9 21 9 41q0 34 -21 54t-55 21q-31 1 -49 -15q-18 -17 -20 -35q0 -8 3 -6q2 0 7 3q2 2 4.5 4t5.5 4q5 4 13 7q8 5 17 3q23 -2 32 -18q11 -17 9 -38q-2 -18 -13 -34q-13 -17 -42 -22q-8 -1 -17 -0.5t-18 2.5q-18 4 -33 15q-14 10 -25 29
q-10 17 -10 44q0 29 13 49q12 21 33 35q23 14 46 20q24 7 49 7q30 0 57 -8q24 -7 45 -23q19 -16 29 -38q10 -21 10 -52q0 -27 -10 -51q-5 -13 -11 -26t-14 -26q-8 -14 -16.5 -26.5t-18.5 -25.5t-20 -25.5t-21 -23.5q-23 -25 -39 -55q-9 -16 -16 -33t-12 -35q-11 -38 -14 -74
q-3 -41 4 -77q6 -32 20 -59q13 -25 34 -45q21 -18 46 -27q23 -10 53 -8q13 1 25.5 2.5t25.5 5.5q23 7 47 18t39 22q18 13 28 23q2 31 3 62.5t3 63.5q0 33 1 65.5t1 64.5v56.5t-1 53.5v51.5t-2 46.5q0 22 -1 41t-3 36q-3 34 -6 50q-2 11 -5 20t-5 16q-3 7 -7.5 13t-9.5 13
q20 -4 44 -6t50 -1q26 0 51.5 1.5t48.5 5.5q-4 -7 -8 -13.5t-8 -12.5q-9 -14 -13 -33q-2 -10 -3.5 -24.5t-3.5 -34.5t-3.5 -41.5t-3.5 -45.5q-2 -25 -3 -50.5t-1 -51.5q-2 -26 -2 -51.5v-48.5q0 -41 1 -82t3 -84q3 -43 7.5 -84t9.5 -83q3 -28 28 -59q-27 6 -51 9
q-12 2 -24 3t-23 2q-25 0 -47 -3q-21 -3 -49 -11q7 7 15 20q7 13 9 24q1 5 1 9.5t1 9.5q0 5 0.5 10.5t1.5 10.5zM390 842q-27 5 -51 12t-44 16q-41 18 -69 39q-29 22 -42 45q-15 24 -15 44q0 18 12 30q13 13 30 13q29 0 44 -23q8 -11 15 -27.5t15 -36.5q15 -43 40 -69
q25 -27 65 -43z" />
    <glyph glyph-name="Uacute" unicode="&#xda;" horiz-adv-x="644" 
d="M456 84q-7 -7 -15 -13.5t-18 -14.5t-21 -14.5t-23 -13.5q-24 -14 -51 -24q-14 -5 -27.5 -7.5t-27.5 -3.5q-39 -3 -81 6q-44 11 -78 35q-38 25 -63 69q-27 45 -34 109q-6 52 9 99q8 24 18 46t23 42q26 41 53 71q14 16 25.5 29t20.5 23q8 9 16.5 18.5t16.5 19.5
q16 21 30 42q7 11 12.5 21t9.5 20q9 21 9 41q0 34 -21 54t-55 21q-31 1 -49 -15q-18 -17 -20 -35q0 -8 3 -6q2 0 7 3q2 2 4.5 4t5.5 4q5 4 13 7q8 5 17 3q23 -2 32 -18q11 -17 9 -38q-2 -18 -13 -34q-13 -17 -42 -22q-8 -1 -17 -0.5t-18 2.5q-18 4 -33 15q-14 10 -25 29
q-10 17 -10 44q0 29 13 49q12 21 33 35q23 14 46 20q24 7 49 7q30 0 57 -8q24 -7 45 -23q19 -16 29 -38q10 -21 10 -52q0 -27 -10 -51q-5 -13 -11 -26t-14 -26q-8 -14 -16.5 -26.5t-18.5 -25.5t-20 -25.5t-21 -23.5q-23 -25 -39 -55q-9 -16 -16 -33t-12 -35q-11 -38 -14 -74
q-3 -41 4 -77q6 -32 20 -59q13 -25 34 -45q21 -18 46 -27q23 -10 53 -8q13 1 25.5 2.5t25.5 5.5q23 7 47 18t39 22q18 13 28 23q2 31 3 62.5t3 63.5q0 33 1 65.5t1 64.5v56.5t-1 53.5v51.5t-2 46.5q0 22 -1 41t-3 36q-3 34 -6 50q-2 11 -5 20t-5 16q-3 7 -7.5 13t-9.5 13
q20 -4 44 -6t50 -1q26 0 51.5 1.5t48.5 5.5q-4 -7 -8 -13.5t-8 -12.5q-9 -14 -13 -33q-2 -10 -3.5 -24.5t-3.5 -34.5t-3.5 -41.5t-3.5 -45.5q-2 -25 -3 -50.5t-1 -51.5q-2 -26 -2 -51.5v-48.5q0 -41 1 -82t3 -84q3 -43 7.5 -84t9.5 -83q3 -28 28 -59q-27 6 -51 9
q-12 2 -24 3t-23 2q-25 0 -47 -3q-21 -3 -49 -11q7 7 15 20q7 13 9 24q1 5 1 9.5t1 9.5q0 5 0.5 10.5t1.5 10.5zM318 836q73 34 97 93q5 11 8.5 20.5t7.5 19.5t7.5 18.5t7.5 15.5q9 15 21 24t30 9q17 0 29 -12t12 -32t-14 -43q-16 -23 -43 -45q-27 -21 -69 -40
q-20 -9 -44 -16t-50 -12z" />
    <glyph glyph-name="Ucircumflex" unicode="&#xdb;" horiz-adv-x="644" 
d="M456 84q-7 -7 -15 -13.5t-18 -14.5t-21 -14.5t-23 -13.5q-24 -14 -51 -24q-14 -5 -27.5 -7.5t-27.5 -3.5q-39 -3 -81 6q-44 11 -78 35q-38 25 -63 69q-27 45 -34 109q-6 52 9 99q8 24 18 46t23 42q26 41 53 71q14 16 25.5 29t20.5 23q8 9 16.5 18.5t16.5 19.5
q16 21 30 42q7 11 12.5 21t9.5 20q9 21 9 41q0 34 -21 54t-55 21q-31 1 -49 -15q-18 -17 -20 -35q0 -8 3 -6q2 0 7 3q2 2 4.5 4t5.5 4q5 4 13 7q8 5 17 3q23 -2 32 -18q11 -17 9 -38q-2 -18 -13 -34q-13 -17 -42 -22q-8 -1 -17 -0.5t-18 2.5q-18 4 -33 15q-14 10 -25 29
q-10 17 -10 44q0 29 13 49q12 21 33 35q23 14 46 20q24 7 49 7q30 0 57 -8q24 -7 45 -23q19 -16 29 -38q10 -21 10 -52q0 -27 -10 -51q-5 -13 -11 -26t-14 -26q-8 -14 -16.5 -26.5t-18.5 -25.5t-20 -25.5t-21 -23.5q-23 -25 -39 -55q-9 -16 -16 -33t-12 -35q-11 -38 -14 -74
q-3 -41 4 -77q6 -32 20 -59q13 -25 34 -45q21 -18 46 -27q23 -10 53 -8q13 1 25.5 2.5t25.5 5.5q23 7 47 18t39 22q18 13 28 23q2 31 3 62.5t3 63.5q0 33 1 65.5t1 64.5v56.5t-1 53.5v51.5t-2 46.5q0 22 -1 41t-3 36q-3 34 -6 50q-2 11 -5 20t-5 16q-3 7 -7.5 13t-9.5 13
q20 -4 44 -6t50 -1q26 0 51.5 1.5t48.5 5.5q-4 -7 -8 -13.5t-8 -12.5q-9 -14 -13 -33q-2 -10 -3.5 -24.5t-3.5 -34.5t-3.5 -41.5t-3.5 -45.5q-2 -25 -3 -50.5t-1 -51.5q-2 -26 -2 -51.5v-48.5q0 -41 1 -82t3 -84q3 -43 7.5 -84t9.5 -83q3 -28 28 -59q-27 6 -51 9
q-12 2 -24 3t-23 2q-25 0 -47 -3q-21 -3 -49 -11q7 7 15 20q7 13 9 24q1 5 1 9.5t1 9.5q0 5 0.5 10.5t1.5 10.5zM196 848l163 182l163 -182l-165 84z" />
    <glyph glyph-name="Udieresis" unicode="&#xdc;" horiz-adv-x="644" 
d="M456 84q-7 -7 -15 -13.5t-18 -14.5t-21 -14.5t-23 -13.5q-24 -14 -51 -24q-14 -5 -27.5 -7.5t-27.5 -3.5q-39 -3 -81 6q-44 11 -78 35q-38 25 -63 69q-27 45 -34 109q-6 52 9 99q8 24 18 46t23 42q26 41 53 71q14 16 25.5 29t20.5 23q8 9 16.5 18.5t16.5 19.5
q16 21 30 42q7 11 12.5 21t9.5 20q9 21 9 41q0 34 -21 54t-55 21q-31 1 -49 -15q-18 -17 -20 -35q0 -8 3 -6q2 0 7 3q2 2 4.5 4t5.5 4q5 4 13 7q8 5 17 3q23 -2 32 -18q11 -17 9 -38q-2 -18 -13 -34q-13 -17 -42 -22q-8 -1 -17 -0.5t-18 2.5q-18 4 -33 15q-14 10 -25 29
q-10 17 -10 44q0 29 13 49q12 21 33 35q23 14 46 20q24 7 49 7q30 0 57 -8q24 -7 45 -23q19 -16 29 -38q10 -21 10 -52q0 -27 -10 -51q-5 -13 -11 -26t-14 -26q-8 -14 -16.5 -26.5t-18.5 -25.5t-20 -25.5t-21 -23.5q-23 -25 -39 -55q-9 -16 -16 -33t-12 -35q-11 -38 -14 -74
q-3 -41 4 -77q6 -32 20 -59q13 -25 34 -45q21 -18 46 -27q23 -10 53 -8q13 1 25.5 2.5t25.5 5.5q23 7 47 18t39 22q18 13 28 23q2 31 3 62.5t3 63.5q0 33 1 65.5t1 64.5v56.5t-1 53.5v51.5t-2 46.5q0 22 -1 41t-3 36q-3 34 -6 50q-2 11 -5 20t-5 16q-3 7 -7.5 13t-9.5 13
q20 -4 44 -6t50 -1q26 0 51.5 1.5t48.5 5.5q-4 -7 -8 -13.5t-8 -12.5q-9 -14 -13 -33q-2 -10 -3.5 -24.5t-3.5 -34.5t-3.5 -41.5t-3.5 -45.5q-2 -25 -3 -50.5t-1 -51.5q-2 -26 -2 -51.5v-48.5q0 -41 1 -82t3 -84q3 -43 7.5 -84t9.5 -83q3 -28 28 -59q-27 6 -51 9
q-12 2 -24 3t-23 2q-25 0 -47 -3q-21 -3 -49 -11q7 7 15 20q7 13 9 24q1 5 1 9.5t1 9.5q0 5 0.5 10.5t1.5 10.5zM339 915q0 -26 -19 -45t-45 -19q-28 0 -46 18q-19 19 -19 46t18 47q19 19 47 19q26 0 45 -19t19 -47zM515 915q0 -26 -18 -45q-19 -19 -47 -19q-27 0 -45 19
q-19 19 -19 45q0 27 18 47q19 19 46 19q28 0 46 -19q19 -19 19 -47z" />
    <glyph glyph-name="Yacute" unicode="&#xdd;" horiz-adv-x="573" 
d="M-14 799q20 -3 40.5 -5t42.5 -3q43 -3 84 -3q21 0 40.5 0.5t38.5 1.5q38 3 68 9q-8 -4 -15 -8.5t-14 -9.5q-12 -10 -21 -22q-12 -15 -16 -34q-6 -26 0 -57q4 -16 8.5 -32.5t11.5 -33.5t14 -33.5t15 -33.5t16 -33t16 -30q8 -15 15 -28t12 -24q12 -23 15 -33q2 8 5.5 16.5
t7.5 17.5q4 8 8.5 16t9.5 18q10 19 27 39q8 10 16.5 18.5t18.5 16.5t19 15t17 14q9 7 17 14t16 15q15 14 25 35q7 14 10 36q4 19 -1 42q-4 20 -20 39q-17 19 -48 26q-11 3 -21 2.5t-19 -2.5q-17 -4 -31 -15q-15 -12 -22 -24q-4 -7 -6.5 -13t-3.5 -12q-2 -11 0 -12q3 -1 7 3
q5 5 19 13q7 4 14 6.5t15 3.5q7 1 13 -0.5t13 -3.5q12 -4 23 -15q11 -12 16 -25q6 -15 3 -33q-6 -38 -33 -58q-28 -21 -67 -16q-21 3 -37 15q-10 7 -17.5 15.5t-14.5 18.5q-13 19 -19 47q-8 27 -2 52q6 26 21 49q16 24 37 38t51 22t62 5q68 -6 104 -44q38 -40 38 -104
q0 -48 -18 -79q-10 -16 -21 -30.5t-24 -27.5q-14 -13 -28 -25.5t-28 -23.5q-30 -23 -51 -51q-32 -42 -45 -81q-14 -43 -17 -69q-5 -38 -6 -81q-3 -44 -3 -83q0 -20 0.5 -36.5t1.5 -30.5q1 -26 7 -32l5 -5t7 -5t8 -4.5t8 -4.5l18 -9q-19 2 -35.5 4t-32.5 4t-30.5 3t-28.5 2
q-14 0 -28.5 -0.5t-28.5 -1.5t-28.5 -3t-30.5 -5q1 0 2 1t2 1t3 2q4 2 8 4.5t9 6.5q9 7 19 18q9 11 14 25q5 15 10 50q2 17 3 35.5t3 38.5v39.5t-1 38.5q0 19 -2 34.5t-5 27.5t-14 46q-6 16 -13.5 34.5t-15.5 38.5t-17.5 41.5t-19.5 44.5q-11 23 -21 45t-21 43
q-11 22 -21.5 41t-20.5 36q-11 17 -20 31t-18 23q-5 6 -11 10.5t-13 9.5t-13.5 9t-11.5 7q-7 5 -13.5 8t-13.5 6zM315 859q73 34 97 93q5 11 8.5 20.5t7.5 19.5t7.5 18.5t7.5 15.5q9 15 21 24t30 9q17 0 29 -12t12 -32t-14 -43q-16 -23 -43 -45q-27 -21 -69 -40
q-20 -9 -44 -16t-50 -12z" />
    <glyph glyph-name="germandbls" unicode="&#xdf;" horiz-adv-x="485" 
d="M339 573q0 35 -7 67q-8 36 -24 61q-17 28 -39 41q-25 15 -56 8q-22 -4 -36 -25q-15 -21 -22 -49q-4 -15 -6.5 -31t-4.5 -33q-3 -35 -3 -69q0 -19 0.5 -41t-0.5 -48t-1 -55t-2 -60q0 -32 -1 -64t-2 -66t-2 -67.5t-1 -66.5q-2 -33 -2 -64.5t-1 -61.5q-1 -31 -1 -58v-51
q0 -37 -12 -67q-14 -32 -35 -51q-22 -22 -53 -34q-32 -12 -67 -12q-31 0 -56 11q-25 10 -42 29q-17 18 -28 42q-5 12 -8.5 24.5t-4.5 25.5q-1 12 -1 24.5t2 25.5t5.5 25t8.5 23q10 21 28 36t42 16q31 1 46 -13t20 -35q4 -20 -2 -39q-7 -18 -24 -26q-16 -7 -27 2
q-10 9 -13 19q-1 7 -9 5q-7 -1 -9 -10q-3 -15 0 -33q3 -17 11 -33q8 -15 22 -26t34 -9q57 3 70 61q2 7 3 20t2 33q2 20 2.5 44.5t1.5 53.5t1 61.5t1 67.5v73t-1 75q0 38 -0.5 75.5t-1.5 75.5t-2 73.5t-2 67.5q-1 33 1.5 61.5t9.5 53.5q13 48 40 83q26 34 66 52q38 19 87 22
q50 3 95 -17q43 -19 75 -53q32 -35 48 -77q17 -46 13 -87q-4 -54 -30 -95q-25 -40 -56 -68q-30 -27 -63 -43q-30 -16 -49 -21l20 -5t28 -8q31 -11 63 -30q33 -22 55 -54q24 -35 24 -85q0 -56 -22 -97q-22 -39 -55 -62q-34 -23 -70 -32q-19 -5 -35 -7t-30 0q-49 4 -71 34
q-21 29 -20 63q0 16 7 28q6 11 14 17q8 5 18 7q5 1 9.5 0.5t9.5 -1.5q18 -4 29 -18q11 -16 8 -35q-1 -10 -7 -18q-5 -7 -10 -10q-6 -5 -9 -9q-4 -4 -2 -11q1 -6 13 -9h12t11 1q20 3 41 15q20 13 37 33q18 23 25 48q9 29 5 61q-6 39 -25 61q-19 24 -43 37q-26 14 -48 20
q-24 7 -39 12q-14 5 -19 20q-4 16 -3 34q1 16 11 32q9 15 25 18q25 4 47 25q20 18 36 46q16 27 23 53q9 27 9 47z" />
    <glyph glyph-name="agrave" unicode="&#xe0;" horiz-adv-x="549" 
d="M553 130q-3 -13 -11 -29q-4 -8 -9 -15t-11 -14q-13 -15 -28 -23q-8 -5 -17 -7.5t-19 -4.5q-32 -3 -57 7q-13 5 -24.5 14.5t-22.5 22.5q-37 -22 -80 -33q-42 -12 -86 -12q-16 0 -31 2t-31 6q-16 5 -29.5 11.5t-26.5 14.5q-26 16 -42 42q-15 24 -17 60q-1 37 15 65t42 48
q24 18 58 28q35 11 66 11q23 0 46 -6q22 -6 39 -18q8 -7 15.5 -14.5t12.5 -16.5q11 -19 11 -40q0 -46 -29 -69q-30 -24 -73 -24q-26 0 -42 13q-17 14 -17 39q0 24 20 35q19 12 40 12q18 0 32 -7q15 -8 27 -18q0 2 1 4v3q0 13 -7 23l-8 10t-9 9q-10 7 -23 12q-12 4 -25 4
q-22 0 -35 -9q-15 -11 -24 -24t-14 -33q-2 -10 -3.5 -19t-0.5 -18q1 -38 25 -62q25 -23 67 -23q33 0 65 16q34 16 55 40q-1 2 -1 3.5t-1 3.5v9q2 13 3.5 27.5t3.5 31.5t2.5 34.5t1.5 35.5q0 18 -0.5 36t-1.5 35q-3 35 -9 67q-9 49 -35 72q-28 24 -66 23q-10 0 -19 -2t-17 -4
q-18 -6 -31 -16q-14 -11 -21 -23q-8 -14 -8 -28q0 -3 3 -6q2 0 3.5 -1t3.5 -2q3 -2 7 -6t4 -12q0 -23 -16 -33q-18 -12 -40 -13q-29 -2 -45 17q-18 21 -18 47q0 39 21 68q21 28 53 48q34 20 72 29q37 10 75 10q34 0 72 -9q40 -9 68 -28q29 -19 48 -52q18 -32 14 -78
q-1 -6 -1.5 -15.5t-0.5 -23.5q-2 -14 -2 -29t-1 -32v-35t2 -37q0 -19 1.5 -35.5t3.5 -32.5q4 -29 14 -52q9 -21 23 -23t26 5q7 4 12 8l10 8l2 -4v1zM344 616q-27 5 -51 12t-44 16q-41 18 -69 39q-29 22 -42 45q-15 24 -15 44q0 18 12 30q13 13 30 13q29 0 44 -23
q8 -11 15 -27.5t15 -36.5q15 -43 40 -69q25 -27 65 -43z" />
    <glyph glyph-name="aacute" unicode="&#xe1;" horiz-adv-x="549" 
d="M553 130q-3 -13 -11 -29q-4 -8 -9 -15t-11 -14q-13 -15 -28 -23q-8 -5 -17 -7.5t-19 -4.5q-32 -3 -57 7q-13 5 -24.5 14.5t-22.5 22.5q-37 -22 -80 -33q-42 -12 -86 -12q-16 0 -31 2t-31 6q-16 5 -29.5 11.5t-26.5 14.5q-26 16 -42 42q-15 24 -17 60q-1 37 15 65t42 48
q24 18 58 28q35 11 66 11q23 0 46 -6q22 -6 39 -18q8 -7 15.5 -14.5t12.5 -16.5q11 -19 11 -40q0 -46 -29 -69q-30 -24 -73 -24q-26 0 -42 13q-17 14 -17 39q0 24 20 35q19 12 40 12q18 0 32 -7q15 -8 27 -18q0 2 1 4v3q0 13 -7 23l-8 10t-9 9q-10 7 -23 12q-12 4 -25 4
q-22 0 -35 -9q-15 -11 -24 -24t-14 -33q-2 -10 -3.5 -19t-0.5 -18q1 -38 25 -62q25 -23 67 -23q33 0 65 16q34 16 55 40q-1 2 -1 3.5t-1 3.5v9q2 13 3.5 27.5t3.5 31.5t2.5 34.5t1.5 35.5q0 18 -0.5 36t-1.5 35q-3 35 -9 67q-9 49 -35 72q-28 24 -66 23q-10 0 -19 -2t-17 -4
q-18 -6 -31 -16q-14 -11 -21 -23q-8 -14 -8 -28q0 -3 3 -6q2 0 3.5 -1t3.5 -2q3 -2 7 -6t4 -12q0 -23 -16 -33q-18 -12 -40 -13q-29 -2 -45 17q-18 21 -18 47q0 39 21 68q21 28 53 48q34 20 72 29q37 10 75 10q34 0 72 -9q40 -9 68 -28q29 -19 48 -52q18 -32 14 -78
q-1 -6 -1.5 -15.5t-0.5 -23.5q-2 -14 -2 -29t-1 -32v-35t2 -37q0 -19 1.5 -35.5t3.5 -32.5q4 -29 14 -52q9 -21 23 -23t26 5q7 4 12 8l10 8l2 -4v1zM220 624q73 34 97 93q5 11 8.5 20.5t7.5 19.5t7.5 18.5t7.5 15.5q9 15 21 24t30 9q17 0 29 -12t12 -32t-14 -43
q-16 -23 -43 -45q-27 -21 -69 -40q-20 -9 -44 -16t-50 -12z" />
    <glyph glyph-name="acircumflex" unicode="&#xe2;" horiz-adv-x="549" 
d="M553 130q-3 -13 -11 -29q-4 -8 -9 -15t-11 -14q-13 -15 -28 -23q-8 -5 -17 -7.5t-19 -4.5q-32 -3 -57 7q-13 5 -24.5 14.5t-22.5 22.5q-37 -22 -80 -33q-42 -12 -86 -12q-16 0 -31 2t-31 6q-16 5 -29.5 11.5t-26.5 14.5q-26 16 -42 42q-15 24 -17 60q-1 37 15 65t42 48
q24 18 58 28q35 11 66 11q23 0 46 -6q22 -6 39 -18q8 -7 15.5 -14.5t12.5 -16.5q11 -19 11 -40q0 -46 -29 -69q-30 -24 -73 -24q-26 0 -42 13q-17 14 -17 39q0 24 20 35q19 12 40 12q18 0 32 -7q15 -8 27 -18q0 2 1 4v3q0 13 -7 23l-8 10t-9 9q-10 7 -23 12q-12 4 -25 4
q-22 0 -35 -9q-15 -11 -24 -24t-14 -33q-2 -10 -3.5 -19t-0.5 -18q1 -38 25 -62q25 -23 67 -23q33 0 65 16q34 16 55 40q-1 2 -1 3.5t-1 3.5v9q2 13 3.5 27.5t3.5 31.5t2.5 34.5t1.5 35.5q0 18 -0.5 36t-1.5 35q-3 35 -9 67q-9 49 -35 72q-28 24 -66 23q-10 0 -19 -2t-17 -4
q-18 -6 -31 -16q-14 -11 -21 -23q-8 -14 -8 -28q0 -3 3 -6q2 0 3.5 -1t3.5 -2q3 -2 7 -6t4 -12q0 -23 -16 -33q-18 -12 -40 -13q-29 -2 -45 17q-18 21 -18 47q0 39 21 68q21 28 53 48q34 20 72 29q37 10 75 10q34 0 72 -9q40 -9 68 -28q29 -19 48 -52q18 -32 14 -78
q-1 -6 -1.5 -15.5t-0.5 -23.5q-2 -14 -2 -29t-1 -32v-35t2 -37q0 -19 1.5 -35.5t3.5 -32.5q4 -29 14 -52q9 -21 23 -23t26 5q7 4 12 8l10 8l2 -4v1zM100 609l163 182l163 -182l-165 84z" />
    <glyph glyph-name="atilde" unicode="&#xe3;" horiz-adv-x="549" 
d="M553 130q-3 -13 -11 -29q-4 -8 -9 -15t-11 -14q-13 -15 -28 -23q-8 -5 -17 -7.5t-19 -4.5q-32 -3 -57 7q-13 5 -24.5 14.5t-22.5 22.5q-37 -22 -80 -33q-42 -12 -86 -12q-16 0 -31 2t-31 6q-16 5 -29.5 11.5t-26.5 14.5q-26 16 -42 42q-15 24 -17 60q-1 37 15 65t42 48
q24 18 58 28q35 11 66 11q23 0 46 -6q22 -6 39 -18q8 -7 15.5 -14.5t12.5 -16.5q11 -19 11 -40q0 -46 -29 -69q-30 -24 -73 -24q-26 0 -42 13q-17 14 -17 39q0 24 20 35q19 12 40 12q18 0 32 -7q15 -8 27 -18q0 2 1 4v3q0 13 -7 23l-8 10t-9 9q-10 7 -23 12q-12 4 -25 4
q-22 0 -35 -9q-15 -11 -24 -24t-14 -33q-2 -10 -3.5 -19t-0.5 -18q1 -38 25 -62q25 -23 67 -23q33 0 65 16q34 16 55 40q-1 2 -1 3.5t-1 3.5v9q2 13 3.5 27.5t3.5 31.5t2.5 34.5t1.5 35.5q0 18 -0.5 36t-1.5 35q-3 35 -9 67q-9 49 -35 72q-28 24 -66 23q-10 0 -19 -2t-17 -4
q-18 -6 -31 -16q-14 -11 -21 -23q-8 -14 -8 -28q0 -3 3 -6q2 0 3.5 -1t3.5 -2q3 -2 7 -6t4 -12q0 -23 -16 -33q-18 -12 -40 -13q-29 -2 -45 17q-18 21 -18 47q0 39 21 68q21 28 53 48q34 20 72 29q37 10 75 10q34 0 72 -9q40 -9 68 -28q29 -19 48 -52q18 -32 14 -78
q-1 -6 -1.5 -15.5t-0.5 -23.5q-2 -14 -2 -29t-1 -32v-35t2 -37q0 -19 1.5 -35.5t3.5 -32.5q4 -29 14 -52q9 -21 23 -23t26 5q7 4 12 8l10 8l2 -4v1zM397 800q-18 -156 -94 -156q-16 0 -27 4q-7 2 -13 5t-11 5q-6 3 -12 5.5t-11 4.5q-12 5 -23 5q-49 0 -73 -58q7 77 32 117
t61 40q13 0 28 -5q7 -2 13 -5l12 -6q7 -3 13 -6t12 -5q13 -5 26 -5q50 0 67 60z" />
    <glyph glyph-name="adieresis" unicode="&#xe4;" horiz-adv-x="549" 
d="M553 130q-3 -13 -11 -29q-4 -8 -9 -15t-11 -14q-13 -15 -28 -23q-8 -5 -17 -7.5t-19 -4.5q-32 -3 -57 7q-13 5 -24.5 14.5t-22.5 22.5q-37 -22 -80 -33q-42 -12 -86 -12q-16 0 -31 2t-31 6q-16 5 -29.5 11.5t-26.5 14.5q-26 16 -42 42q-15 24 -17 60q-1 37 15 65t42 48
q24 18 58 28q35 11 66 11q23 0 46 -6q22 -6 39 -18q8 -7 15.5 -14.5t12.5 -16.5q11 -19 11 -40q0 -46 -29 -69q-30 -24 -73 -24q-26 0 -42 13q-17 14 -17 39q0 24 20 35q19 12 40 12q18 0 32 -7q15 -8 27 -18q0 2 1 4v3q0 13 -7 23l-8 10t-9 9q-10 7 -23 12q-12 4 -25 4
q-22 0 -35 -9q-15 -11 -24 -24t-14 -33q-2 -10 -3.5 -19t-0.5 -18q1 -38 25 -62q25 -23 67 -23q33 0 65 16q34 16 55 40q-1 2 -1 3.5t-1 3.5v9q2 13 3.5 27.5t3.5 31.5t2.5 34.5t1.5 35.5q0 18 -0.5 36t-1.5 35q-3 35 -9 67q-9 49 -35 72q-28 24 -66 23q-10 0 -19 -2t-17 -4
q-18 -6 -31 -16q-14 -11 -21 -23q-8 -14 -8 -28q0 -3 3 -6q2 0 3.5 -1t3.5 -2q3 -2 7 -6t4 -12q0 -23 -16 -33q-18 -12 -40 -13q-29 -2 -45 17q-18 21 -18 47q0 39 21 68q21 28 53 48q34 20 72 29q37 10 75 10q34 0 72 -9q40 -9 68 -28q29 -19 48 -52q18 -32 14 -78
q-1 -6 -1.5 -15.5t-0.5 -23.5q-2 -14 -2 -29t-1 -32v-35t2 -37q0 -19 1.5 -35.5t3.5 -32.5q4 -29 14 -52q9 -21 23 -23t26 5q7 4 12 8l10 8l2 -4v1zM242 707q0 -26 -19 -45q-20 -20 -45 -20q-28 0 -46 19q-19 19 -19 46q0 28 18 46q19 19 47 19q26 0 45 -19t19 -46zM418 707
q0 -26 -18 -45q-20 -20 -47 -20t-45 19q-19 19 -19 46q0 28 18 46q19 19 46 19q28 0 46 -18q19 -19 19 -47z" />
    <glyph glyph-name="aring" unicode="&#xe5;" horiz-adv-x="549" 
d="M553 130q-3 -13 -11 -29q-4 -8 -9 -15t-11 -14q-13 -15 -28 -23q-8 -5 -17 -7.5t-19 -4.5q-32 -3 -57 7q-13 5 -24.5 14.5t-22.5 22.5q-37 -22 -80 -33q-42 -12 -86 -12q-16 0 -31 2t-31 6q-16 5 -29.5 11.5t-26.5 14.5q-26 16 -42 42q-15 24 -17 60q-1 37 15 65t42 48
q24 18 58 28q35 11 66 11q23 0 46 -6q22 -6 39 -18q8 -7 15.5 -14.5t12.5 -16.5q11 -19 11 -40q0 -46 -29 -69q-30 -24 -73 -24q-26 0 -42 13q-17 14 -17 39q0 24 20 35q19 12 40 12q18 0 32 -7q15 -8 27 -18q0 2 1 4v3q0 13 -7 23l-8 10t-9 9q-10 7 -23 12q-12 4 -25 4
q-22 0 -35 -9q-15 -11 -24 -24t-14 -33q-2 -10 -3.5 -19t-0.5 -18q1 -38 25 -62q25 -23 67 -23q33 0 65 16q34 16 55 40q-1 2 -1 3.5t-1 3.5v9q2 13 3.5 27.5t3.5 31.5t2.5 34.5t1.5 35.5q0 18 -0.5 36t-1.5 35q-3 35 -9 67q-9 49 -35 72q-28 24 -66 23q-10 0 -19 -2t-17 -4
q-18 -6 -31 -16q-14 -11 -21 -23q-8 -14 -8 -28q0 -3 3 -6q2 0 3.5 -1t3.5 -2q3 -2 7 -6t4 -12q0 -23 -16 -33q-18 -12 -40 -13q-29 -2 -45 17q-18 21 -18 47q0 39 21 68q21 28 53 48q34 20 72 29q37 10 75 10q34 0 72 -9q40 -9 68 -28q29 -19 48 -52q18 -32 14 -78
q-1 -6 -1.5 -15.5t-0.5 -23.5q-2 -14 -2 -29t-1 -32v-35t2 -37q0 -19 1.5 -35.5t3.5 -32.5q4 -29 14 -52q9 -21 23 -23t26 5q7 4 12 8l10 8l2 -4v1zM322 738q0 21 -16 39q-17 17 -40 17q-24 0 -40 -16q-17 -17 -17 -40q0 -24 16 -40q17 -17 41 -17q23 0 39 16q17 17 17 41z
M363 738q0 -41 -28 -69t-69 -28q-42 0 -69 27q-28 28 -28 70t27 69q28 28 70 28q41 0 69 -28t28 -69z" />
    <glyph glyph-name="ae" unicode="&#xe6;" horiz-adv-x="871" 
d="M698 362q-1 11 -3 22.5t-5 23.5q-8 27 -19 45q-14 20 -31 33q-19 13 -43 13q-30 0 -50 -13q-11 -7 -19.5 -14.5t-15.5 -17.5q-16 -20 -23 -44q-4 -13 -6.5 -24.5t-3.5 -22.5zM395 99q-41 -36 -97 -53q-54 -18 -110 -16q-32 2 -62 10q-33 11 -57 28q-13 9 -23 20t-18 24
q-15 24 -17 60q-1 37 15 65t42 48q24 18 58 28q35 11 66 11q23 0 46 -6q22 -6 39 -18q8 -7 15.5 -14.5t12.5 -16.5q11 -19 11 -40q0 -46 -29 -69q-30 -24 -73 -24q-26 0 -42 13q-17 14 -17 39q0 24 20 35q19 12 40 12q18 0 32 -7q15 -8 27 -18q0 2 1 4v3q0 13 -7 23l-8 10
t-9 9q-10 7 -23 12q-12 4 -25 4q-20 0 -35 -9q-15 -11 -24 -24t-14 -33q-2 -10 -3.5 -19t-0.5 -18q1 -38 25 -62q25 -23 67 -23q33 0 65 16q34 16 55 40q2 17 3.5 35t3.5 37q3 37 3 75q0 37 -3 72q-3 36 -9 64q-21 98 -101 95q-10 0 -19 -2t-17 -4q-18 -6 -31 -16
q-14 -11 -21 -23q-8 -14 -8 -28q0 -3 3 -6q2 0 3.5 -1t3.5 -2q3 -2 7 -6t4 -12q0 -23 -16 -33q-18 -12 -40 -13q-29 -2 -45 17q-18 21 -18 47q0 39 21 68q21 28 53 48q34 20 72 29q37 10 75 10q14 0 27.5 -1.5t27.5 -3.5t27.5 -6.5t26.5 -9.5q24 -10 47 -28q21 -16 33 -41
q67 48 148 49q53 1 95 -22q41 -22 70 -57q29 -37 44 -81q16 -45 19 -93h-354q-3 -33 0 -74q3 -43 15 -80q7 -19 16 -36t21 -31q24 -28 62 -36q41 -8 70 7q31 16 50 41t27 51q8 27 1 38q-6 -8 -18 -16q-9 -7 -20 -10q-7 -2 -13.5 -3.5t-14.5 -0.5q-23 2 -35 16q-13 15 -11 34
q1 16 12 30q12 15 27 22q17 9 37 11q23 3 41 -1q10 -2 19 -5.5t17 -8.5q18 -12 28 -27q13 -18 17 -37q4 -22 0 -47q-4 -26 -23 -54q-18 -28 -46 -48q-27 -21 -65 -35t-81 -12q-62 1 -117 30q-57 29 -94 81z" />
    <glyph glyph-name="ccedilla" unicode="&#xe7;" horiz-adv-x="535" 
d="M367 -147q-2 -15 -12 -30q-10 -16 -25 -28q-16 -12 -35 -19q-20 -8 -42 -5q-37 4 -57 29q-21 25 -16 58q4 29 25 40q20 11 41 5q20 -6 28 -21q7 -15 4 -26q-2 -5 -5 -6t-8 1l-9 9q-5 7 -16 8q-12 0 -16 -7q-6 -8 -6 -15q0 -15 11 -24q10 -8 29 -10q20 -2 35 11
q18 15 15 37q-1 14 -7 23q-2 5 -5 8.5t-6 7.5t-6 7l-7 7q-6 6 -11 21q-7 18 -8 32q-2 8 -2.5 13.5t-1.5 10.5q-44 4 -89 26q-42 20 -76 56q-34 35 -53 84q-20 51 -20 112q0 65 20 119q21 52 56 89q36 38 82 57q48 20 97 20q54 0 90 -12t57 -30q22 -20 30 -41q11 -23 12 -41
q1 -11 -5 -29q-4 -8 -8.5 -16t-11.5 -15q-13 -14 -33 -25q-18 -10 -45 -8q-26 1 -45 16q-19 16 -26 34q-8 19 -6 39q1 19 15 33q12 12 4 26q-2 4 -5.5 6.5t-7.5 4.5q-8 4 -17 4q-29 0 -51 -19q-11 -10 -20.5 -22t-17.5 -26q-16 -30 -24 -65q-10 -37 -11 -67q-3 -43 0 -85
q5 -46 16 -78q13 -35 36 -61q24 -25 62 -33q41 -8 70 7q31 16 50 41t27 51q8 27 1 38q-6 -8 -18 -16q-9 -7 -20 -10q-7 -2 -13.5 -3.5t-14.5 -0.5q-23 2 -35 16q-13 15 -11 34q1 16 12 30q12 15 27 22q17 9 37 11q23 3 41 -1q10 -2 19 -5.5t17 -8.5q18 -12 28 -27
q13 -18 17 -37q4 -22 0 -47q-4 -24 -20 -49t-40 -46q-25 -22 -56 -35q-33 -13 -71 -18q1 -4 1.5 -9t2.5 -10q3 -12 10 -21q8 -12 18 -22q5 -5 9 -9.5t8 -9.5q6 -9 11 -23q4 -12 1 -32z" />
    <glyph glyph-name="egrave" unicode="&#xe8;" horiz-adv-x="535" 
d="M269 499q-30 0 -50 -13q-11 -7 -19.5 -14.5t-15.5 -17.5q-16 -20 -23 -44q-4 -13 -6.5 -24.5t-3.5 -22.5l219 -1q-1 11 -3 22.5t-5 23.5q-8 27 -19 45q-14 20 -31 33q-19 13 -43 13zM145 300q-3 -33 0 -74q3 -43 15 -80q7 -19 16 -36t21 -31q24 -28 62 -36q41 -8 70 7
q31 16 50 41t27 51q8 27 1 38q-6 -8 -18 -16q-9 -7 -20 -10q-7 -2 -13.5 -3.5t-14.5 -0.5q-23 2 -35 16q-13 15 -11 34q1 16 12 30q12 15 27 22q17 9 37 11q23 3 41 -1q10 -2 19 -5.5t17 -8.5q18 -12 28 -27q13 -18 17 -37q4 -22 0 -47q-4 -26 -23 -54q-18 -28 -46 -48
q-27 -21 -65 -35t-81 -12q-25 1 -49.5 5.5t-47.5 14.5q-48 20 -83 55q-36 34 -59 87q-23 54 -23 118q0 65 20 119q21 52 56 89q36 38 82 57q48 20 97 20q55 0 95 -22q41 -22 70 -57q29 -37 44 -81q16 -45 19 -93h-354zM324 580q-27 5 -51 12t-44 16q-41 18 -69 39
q-29 22 -42 45q-15 24 -15 44q0 18 12 30q13 13 30 13q29 0 44 -23q8 -11 15 -27.5t15 -36.5q15 -43 40 -69q25 -27 65 -43z" />
    <glyph glyph-name="eacute" unicode="&#xe9;" horiz-adv-x="543" 
d="M277 499q-30 0 -50 -13q-11 -7 -19.5 -14.5t-15.5 -17.5q-16 -20 -23 -44q-4 -13 -6.5 -24.5t-3.5 -22.5l219 -1q-1 11 -3 22.5t-5 23.5q-8 27 -19 45q-14 20 -31 33q-19 13 -43 13zM153 300q-3 -33 0 -74q3 -43 15 -80q7 -19 16 -36t21 -31q24 -28 62 -36q41 -8 70 7
q31 16 50 41t27 51q8 27 1 38q-6 -8 -18 -16q-9 -7 -20 -10q-7 -2 -13.5 -3.5t-14.5 -0.5q-23 2 -35 16q-13 15 -11 34q1 16 12 30q12 15 27 22q17 9 37 11q23 3 41 -1q10 -2 19 -5.5t17 -8.5q18 -12 28 -27q13 -18 17 -37q4 -22 0 -47q-4 -26 -23 -54q-18 -28 -46 -48
q-27 -21 -65 -35t-81 -12q-25 1 -49.5 5.5t-47.5 14.5q-48 20 -83 55q-36 34 -59 87q-23 54 -23 118q0 65 20 119q21 52 56 89q36 38 82 57q48 20 97 20q55 0 95 -22q41 -22 70 -57q29 -37 44 -81q16 -45 19 -93h-354zM186 597q73 34 97 93q5 11 8.5 20.5t7.5 19.5t7.5 18.5
t7.5 15.5q9 15 21 24t30 9q17 0 29 -12t12 -32t-14 -43q-16 -23 -43 -45q-27 -21 -69 -40q-20 -9 -44 -16t-50 -12z" />
    <glyph glyph-name="ecircumflex" unicode="&#xea;" horiz-adv-x="535" 
d="M269 499q-30 0 -50 -13q-11 -7 -19.5 -14.5t-15.5 -17.5q-16 -20 -23 -44q-4 -13 -6.5 -24.5t-3.5 -22.5l219 -1q-1 11 -3 22.5t-5 23.5q-8 27 -19 45q-14 20 -31 33q-19 13 -43 13zM145 300q-3 -33 0 -74q3 -43 15 -80q7 -19 16 -36t21 -31q24 -28 62 -36q41 -8 70 7
q31 16 50 41t27 51q8 27 1 38q-6 -8 -18 -16q-9 -7 -20 -10q-7 -2 -13.5 -3.5t-14.5 -0.5q-23 2 -35 16q-13 15 -11 34q1 16 12 30q12 15 27 22q17 9 37 11q23 3 41 -1q10 -2 19 -5.5t17 -8.5q18 -12 28 -27q13 -18 17 -37q4 -22 0 -47q-4 -26 -23 -54q-18 -28 -46 -48
q-27 -21 -65 -35t-81 -12q-25 1 -49.5 5.5t-47.5 14.5q-48 20 -83 55q-36 34 -59 87q-23 54 -23 118q0 65 20 119q21 52 56 89q36 38 82 57q48 20 97 20q55 0 95 -22q41 -22 70 -57q29 -37 44 -81q16 -45 19 -93h-354zM108 597l163 182l163 -182l-165 84z" />
    <glyph glyph-name="edieresis" unicode="&#xeb;" horiz-adv-x="535" 
d="M269 499q-30 0 -50 -13q-11 -7 -19.5 -14.5t-15.5 -17.5q-16 -20 -23 -44q-4 -13 -6.5 -24.5t-3.5 -22.5l219 -1q-1 11 -3 22.5t-5 23.5q-8 27 -19 45q-14 20 -31 33q-19 13 -43 13zM145 300q-3 -33 0 -74q3 -43 15 -80q7 -19 16 -36t21 -31q24 -28 62 -36q41 -8 70 7
q31 16 50 41t27 51q8 27 1 38q-6 -8 -18 -16q-9 -7 -20 -10q-7 -2 -13.5 -3.5t-14.5 -0.5q-23 2 -35 16q-13 15 -11 34q1 16 12 30q12 15 27 22q17 9 37 11q23 3 41 -1q10 -2 19 -5.5t17 -8.5q18 -12 28 -27q13 -18 17 -37q4 -22 0 -47q-4 -26 -23 -54q-18 -28 -46 -48
q-27 -21 -65 -35t-81 -12q-25 1 -49.5 5.5t-47.5 14.5q-48 20 -83 55q-36 34 -59 87q-23 54 -23 118q0 65 20 119q21 52 56 89q36 38 82 57q48 20 97 20q55 0 95 -22q41 -22 70 -57q29 -37 44 -81q16 -45 19 -93h-354zM248 693q0 -26 -19 -45q-20 -20 -45 -20q-28 0 -46 19
q-19 19 -19 46q0 28 18 46q19 19 47 19q26 0 45 -19t19 -46zM424 693q0 -26 -18 -45q-20 -20 -47 -20t-45 19q-19 19 -19 46q0 28 18 46q19 19 46 19q28 0 46 -18q19 -19 19 -47z" />
    <glyph glyph-name="igrave" unicode="&#xec;" horiz-adv-x="252" 
d="M221 580q-5 -5 -9 -9.5t-7 -8.5q-9 -9 -13 -22q-5 -13 -8 -31.5t-6 -43.5t-4.5 -53t-2.5 -60q-2 -63 3 -134q4 -71 18 -138q1 -9 8 -19q7 -11 21 -21h-191q5 2 8.5 5.5l7.5 7.5q7 9 9 17q6 39 9 85q2 23 3.5 46.5t1.5 46.5q2 24 2 47.5v46.5t-0.5 44t-1.5 41t-2 37t-2 31
q-2 14 -3.5 25t-3.5 18q-4 14 -11 24q-5 8 -17 18h191zM198 623q-27 5 -51 12t-44 16q-41 18 -69 39q-29 22 -42 45q-15 24 -15 44q0 18 12 30q13 13 30 13q29 0 44 -23q8 -11 15 -27.5t15 -36.5q15 -43 40 -69q25 -27 65 -43z" />
    <glyph glyph-name="iacute" unicode="&#xed;" horiz-adv-x="252" 
d="M221 580q-5 -5 -9 -9.5t-7 -8.5q-9 -9 -13 -22q-5 -13 -8 -31.5t-6 -43.5t-4.5 -53t-2.5 -60q-2 -63 3 -134q4 -71 18 -138q1 -9 8 -19q7 -11 21 -21h-191q5 2 8.5 5.5l7.5 7.5q7 9 9 17q6 39 9 85q2 23 3.5 46.5t1.5 46.5q2 24 2 47.5v46.5t-0.5 44t-1.5 41t-2 37t-2 31
q-2 14 -3.5 25t-3.5 18q-4 14 -11 24q-5 8 -17 18h191zM48 629q73 34 97 93q5 11 8.5 20.5t7.5 19.5t7.5 18.5t7.5 15.5q9 15 21 24t30 9q17 0 29 -12t12 -32t-14 -43q-16 -23 -43 -45q-27 -21 -69 -40q-20 -9 -44 -16t-50 -12z" />
    <glyph glyph-name="icircumflex" unicode="&#xee;" horiz-adv-x="252" 
d="M221 580q-5 -5 -9 -9.5t-7 -8.5q-9 -9 -13 -22q-5 -13 -8 -31.5t-6 -43.5t-4.5 -53t-2.5 -60q-2 -63 3 -134q4 -71 18 -138q1 -9 8 -19q7 -11 21 -21h-191q5 2 8.5 5.5l7.5 7.5q7 9 9 17q6 39 9 85q2 23 3.5 46.5t1.5 46.5q2 24 2 47.5v46.5t-0.5 44t-1.5 41t-2 37t-2 31
q-2 14 -3.5 25t-3.5 18q-4 14 -11 24q-5 8 -17 18h191zM-33 635l163 182l163 -182l-165 84z" />
    <glyph glyph-name="idieresis" unicode="&#xef;" horiz-adv-x="252" 
d="M221 580q-5 -5 -9 -9.5t-7 -8.5q-9 -9 -13 -22q-5 -13 -8 -31.5t-6 -43.5t-4.5 -53t-2.5 -60q-2 -63 3 -134q4 -71 18 -138q1 -9 8 -19q7 -11 21 -21h-191q5 2 8.5 5.5l7.5 7.5q7 9 9 17q6 39 9 85q2 23 3.5 46.5t1.5 46.5q2 24 2 47.5v46.5t-0.5 44t-1.5 41t-2 37t-2 31
q-2 14 -3.5 25t-3.5 18q-4 14 -11 24q-5 8 -17 18h191zM104 728q0 -26 -19 -45t-46 -19q-28 0 -46 18q-19 19 -19 46q0 28 18 46q19 19 47 19q26 0 45 -19q20 -20 20 -46zM280 728q0 -26 -19 -45t-47 -19q-27 0 -45 19q-19 19 -19 45q0 28 18 46q19 19 46 19t47 -18
q19 -19 19 -47z" />
    <glyph glyph-name="eth" unicode="&#xf0;" horiz-adv-x="563" 
d="M357 708q-1 8 -1 15t-1 13q-2 13 -3 21q-4 20 -11 36q-3 7 -7.5 13t-9.5 13h194q-4 -7 -7.5 -13.5t-7.5 -12.5q-9 -14 -13 -33q-1 -5 -1.5 -10t-2.5 -12q0 -7 -1 -14.5t-2 -15.5h76v-82h-83q-2 -26 -3 -52.5t-2 -54.5q-3 -56 -3 -107q0 -41 1.5 -82t3.5 -84
q3 -43 7.5 -84t9.5 -83q1 -13 8 -28q4 -8 8.5 -15.5t11.5 -15.5h-194q7 7 15 20q4 7 6.5 13t3.5 11q4 36 6 75.5t4 82.5t3 86l2 86q-2 9 -5.5 18t-7.5 18q-5 10 -10 18l-10 16q-11 14 -27 26q-17 11 -35 12q-9 0 -22 -10q-7 -5 -15 -11.5t-16 -14.5q-18 -18 -34 -37
q-19 -22 -32 -41q-8 -10 -13.5 -19.5t-10.5 -17.5q-10 -16 -10 -26q-1 -42 3 -85q5 -44 18 -80q13 -35 33 -58t48 -22q23 2 40 20q18 21 26 47q7 20 4 39q-5 18 -9 27q-6 11 -12 8q-4 -1 -4 -11q-1 -14 -14 -27q-12 -14 -30 -9q-20 5 -29 24q-11 21 -9 44q2 29 20 52
q19 22 51 21q21 -2 37 -15q17 -14 28 -37q10 -22 15 -53q6 -30 0 -63q-2 -14 -6.5 -27t-10.5 -26q-14 -26 -31 -43q-20 -20 -43 -30q-27 -11 -53 -11q-32 0 -63 16t-57 50q-26 35 -39 85q-15 51 -12 119q3 67 28 121q25 55 63 93q37 38 82 57q43 19 85 13q37 -5 57 -21
q21 -16 32 -37v31.5t-1 30.5v30t-1 28h-104v82h99z" />
    <glyph glyph-name="ntilde" unicode="&#xf1;" horiz-adv-x="556" 
d="M179 456q4 5 9.5 11t12.5 14q8 8 16 15t18 14q20 14 43 23q23 10 50 10q35 0 62 -16t40 -41q15 -27 18 -61q2 -17 1 -36t-5 -39q-6 -29 -20 -59q-8 -15 -15 -29.5t-15 -28.5t-14.5 -28.5t-11.5 -28.5q-11 -30 -11 -55q0 -27 9 -43q10 -18 22 -25q7 -5 14 -7l14 -4h13.5
t11.5 2q13 4 23 13q9 9 16 21q6 11 8 22q2 12 -2 18q-4 7 -11 3q-2 -2 -5.5 -6t-7.5 -9q-9 -10 -28 -9q-15 2 -26 14q-11 13 -6 33q5 21 24 31t46 6q24 -4 44 -26q19 -21 17 -60q-1 -15 -6 -35q-7 -21 -18 -37q-14 -18 -33 -30q-19 -13 -49 -15q-14 -1 -27 0t-26 5
q-25 7 -48 25q-22 17 -34 44q-14 27 -15 63q-1 19 0 36t5 34q8 34 18 62q5 15 11 28.5t11 25.5q5 13 9.5 24t8.5 22q7 20 8 34q2 19 -2 30q-5 15 -14 23q-10 10 -29 13q-45 8 -78 -14q-34 -22 -55 -54q-2 -36 -3 -76.5t1 -85.5q4 -90 21 -177q3 -19 28 -40q-26 6 -50 9
q-26 3 -46 2q-23 0 -45 -3q-11 -2 -23.5 -4t-26.5 -4q5 2 8.5 5.5l7.5 7.5q7 9 9 17q6 39 9 85q2 23 3.5 46.5t1.5 46.5q2 24 2 47.5t-1 46.5v44t-2 41q0 20 -1 37t-3 31q-3 30 -6 43q-3 11 -11 22q-8 10 -17 20q49 -6 103 -6q53 0 88 6q-5 -5 -9 -9.5t-7 -8.5
q-9 -9 -13 -22q-1 -4 -2 -9l-2 -10q-4 -13 -5 -25zM398 772q-18 -156 -94 -156q-16 0 -27 4q-7 2 -13 5t-11 5q-6 3 -12 5.5t-11 4.5q-12 5 -23 5q-49 0 -73 -58q7 77 32 117t61 40q13 0 28 -5q7 -2 13 -5l12 -6q7 -3 13 -6t12 -5q13 -5 26 -5q50 0 67 60z" />
    <glyph glyph-name="ograve" unicode="&#xf2;" horiz-adv-x="506" 
d="M358 248q0 23 -2 45.5t-6 43.5q-7 41 -21 73q-13 31 -33 49t-40 18q-21 0 -39 -18q-20 -18 -33 -49q-7 -16 -12.5 -34t-9.5 -39t-6 -43.5t-2 -45.5q0 -46 8 -89q4 -21 9.5 -39t12.5 -34q13 -32 32 -50t40 -18q20 0 40 18q18 17 32 49q7 16 12.5 34.5t9.5 38.5
q4 21 6 43.5t2 46.5zM497 248q0 -59 -18 -108q-20 -52 -51 -89q-33 -38 -76 -60t-93 -22t-93 22q-45 23 -76 60t-51 88q-19 50 -19 109t19 109q20 52 51 89t75 60q43 22 94 22q49 0 92 -22q45 -23 76 -60q33 -37 51 -89q19 -50 19 -109zM307 560q-27 5 -51 12t-44 16
q-41 18 -69 39q-29 22 -42 45q-15 24 -15 44q0 18 12 30q13 13 30 13q29 0 44 -23q8 -11 15 -27.5t15 -36.5q15 -43 40 -69q25 -27 65 -43z" />
    <glyph glyph-name="oacute" unicode="&#xf3;" horiz-adv-x="506" 
d="M358 248q0 23 -2 45.5t-6 43.5q-7 41 -21 73q-13 31 -33 49t-40 18q-21 0 -39 -18q-20 -18 -33 -49q-7 -16 -12.5 -34t-9.5 -39t-6 -43.5t-2 -45.5q0 -46 8 -89q4 -21 9.5 -39t12.5 -34q13 -32 32 -50t40 -18q20 0 40 18q18 17 32 49q7 16 12.5 34.5t9.5 38.5
q4 21 6 43.5t2 46.5zM497 248q0 -59 -18 -108q-20 -52 -51 -89q-33 -38 -76 -60t-93 -22t-93 22q-45 23 -76 60t-51 88q-19 50 -19 109t19 109q20 52 51 89t75 60q43 22 94 22q49 0 92 -22q45 -23 76 -60q33 -37 51 -89q19 -50 19 -109zM209 580q73 34 97 93q5 11 8.5 20.5
t7.5 19.5t7.5 18.5t7.5 15.5q9 15 21 24t30 9q17 0 29 -12t12 -32t-14 -43q-16 -23 -43 -45q-27 -21 -69 -40q-20 -9 -44 -16t-50 -12z" />
    <glyph glyph-name="ocircumflex" unicode="&#xf4;" horiz-adv-x="506" 
d="M358 248q0 23 -2 45.5t-6 43.5q-7 41 -21 73q-13 31 -33 49t-40 18q-21 0 -39 -18q-20 -18 -33 -49q-7 -16 -12.5 -34t-9.5 -39t-6 -43.5t-2 -45.5q0 -46 8 -89q4 -21 9.5 -39t12.5 -34q13 -32 32 -50t40 -18q20 0 40 18q18 17 32 49q7 16 12.5 34.5t9.5 38.5
q4 21 6 43.5t2 46.5zM497 248q0 -59 -18 -108q-20 -52 -51 -89q-33 -38 -76 -60t-93 -22t-93 22q-45 23 -76 60t-51 88q-19 50 -19 109t19 109q20 52 51 89t75 60q43 22 94 22q49 0 92 -22q45 -23 76 -60q33 -37 51 -89q19 -50 19 -109zM93 550l163 182l163 -182l-165 84z
" />
    <glyph glyph-name="otilde" unicode="&#xf5;" horiz-adv-x="506" 
d="M358 248q0 23 -2 45.5t-6 43.5q-7 41 -21 73q-13 31 -33 49t-40 18q-21 0 -39 -18q-20 -18 -33 -49q-7 -16 -12.5 -34t-9.5 -39t-6 -43.5t-2 -45.5q0 -46 8 -89q4 -21 9.5 -39t12.5 -34q13 -32 32 -50t40 -18q20 0 40 18q18 17 32 49q7 16 12.5 34.5t9.5 38.5
q4 21 6 43.5t2 46.5zM497 248q0 -59 -18 -108q-20 -52 -51 -89q-33 -38 -76 -60t-93 -22t-93 22q-45 23 -76 60t-51 88q-19 50 -19 109t19 109q20 52 51 89t75 60q43 22 94 22q49 0 92 -22q45 -23 76 -60q33 -37 51 -89q19 -50 19 -109zM382 739q-18 -156 -94 -156
q-16 0 -27 4q-7 2 -13 5t-11 5q-6 3 -12 5.5t-11 4.5q-12 5 -23 5q-49 0 -73 -58q7 77 32 117t61 40q13 0 28 -5q7 -2 13 -5l12 -6q7 -3 13 -6t12 -5q13 -5 26 -5q50 0 67 60z" />
    <glyph glyph-name="odieresis" unicode="&#xf6;" horiz-adv-x="506" 
d="M358 248q0 23 -2 45.5t-6 43.5q-7 41 -21 73q-13 31 -33 49t-40 18q-21 0 -39 -18q-20 -18 -33 -49q-7 -16 -12.5 -34t-9.5 -39t-6 -43.5t-2 -45.5q0 -46 8 -89q4 -21 9.5 -39t12.5 -34q13 -32 32 -50t40 -18q20 0 40 18q18 17 32 49q7 16 12.5 34.5t9.5 38.5
q4 21 6 43.5t2 46.5zM497 248q0 -59 -18 -108q-20 -52 -51 -89q-33 -38 -76 -60t-93 -22t-93 22q-45 23 -76 60t-51 88q-19 50 -19 109t19 109q20 52 51 89t75 60q43 22 94 22q49 0 92 -22q45 -23 76 -60q33 -37 51 -89q19 -50 19 -109zM224 644q0 -26 -19 -45t-45 -19
q-28 0 -47 18q-19 19 -19 46q0 28 19 46q19 19 47 19q26 0 45 -19t19 -46zM400 644q0 -26 -18 -45q-19 -19 -47 -19q-27 0 -46 19t-19 45q0 28 19 46q19 19 46 19q28 0 46 -18q19 -19 19 -47z" />
    <glyph glyph-name="oslash" unicode="&#xf8;" horiz-adv-x="523" 
d="M30 67q15 12 30 27q-10 17 -17 34.5t-12 37.5q-11 41 -11 82q0 59 19 109q20 52 51 89t75 60q43 22 94 22q44 0 85 -18q40 -20 72 -51q10 11 19.5 22t18.5 22q10 11 19 21.5t17 21.5q-1 -10 -2 -18.5t-1 -15.5q-2 -8 -2 -14.5t-1 -13.5q-2 -14 1 -26q0 -11 5 -29l-8 -6
t-8 -7t-8 -7t-8 -7q10 -17 17 -34.5t12 -37.5q10 -37 10 -82q0 -59 -18 -108q-20 -52 -51 -89q-33 -38 -76 -60t-93 -22q-44 0 -84 17q-37 17 -70 50q-11 -12 -21 -23t-19 -22q-10 -11 -18.5 -21t-16.5 -20q1 5 1.5 11.5t0.5 14.5q2 8 2 16v16v15.5t-1 15.5q0 16 -3 28z
M158 186l44.5 44.5t45.5 46.5q46 48 93 99q-13 46 -36 73q-22 28 -49 28q-21 0 -39 -18q-20 -18 -33 -49q-7 -16 -12.5 -34t-9.5 -39t-6 -43.5t-2 -45.5v-16t1 -16q1 -17 3 -30zM355 303q-23 -23 -45.5 -46t-45.5 -48t-45.5 -49t-44.5 -48q13 -41 35 -68q21 -26 47 -26
q20 0 40 18q18 17 32 49q7 16 12.5 34.5t9.5 38.5q4 21 6 43.5t2 46.5q0 28 -3 55z" />
    <glyph glyph-name="ugrave" unicode="&#xf9;" horiz-adv-x="550" 
d="M529 6q-23 4 -47.5 5.5t-49.5 2.5q-49 1 -96 -8v49q-10 -13 -34 -29q-24 -15 -63 -21q-41 -6 -77 -2q-37 4 -66 26q-29 21 -42 61q-14 41 -5 103q3 20 4.5 40.5t3.5 41.5q0 21 0.5 41t-1.5 40q0 20 -1.5 37.5t-3.5 34.5q-4 33 -9 55q-2 7 -10 16q-4 4 -8 7.5t-9 7.5
t-11 7.5t-12 7.5q12 -2 26 -3.5t31 -1.5q17 -2 33 -2t32 1q17 0 32 0.5t29 1.5t25.5 2t19.5 3q-2 -2 -5 -4q-2 -2 -5 -4.5t-5 -4.5l-6 -6t-5 -6q-5 -6 -6 -13q-3 -16 -6.5 -33.5l-7.5 -37.5t-7.5 -41t-6.5 -43q-6 -44 -9 -84q-2 -20 -2.5 -38.5t0.5 -34.5q2 -25 10 -43
q10 -19 24 -31q7 -7 15 -11.5t17 -8.5q17 -7 37 -7q10 0 17.5 0.5t13.5 1.5t11 3l10 4q8 4 16 12t16 19q6 45 9 100q2 28 2.5 55t-0.5 55t-2 53.5t-3 50.5t-4.5 45t-6.5 37q-1 7 -10 14q-10 7 -20 11q-6 2 -12.5 5t-14.5 6q34 -7 65 -9.5t60 -0.5t54.5 5.5t47.5 7.5
q0 -3 -4 -6q-2 -2 -5 -4t-5 -4l-5 -5t-5 -6q-5 -5 -7 -14q-2 -11 -3.5 -26.5t-3.5 -34.5q-2 -20 -3.5 -40.5t-1.5 -43.5q-2 -23 -2 -46.5v-48.5q0 -24 0.5 -46.5t1.5 -44.5q1 -44 6 -78q5 -36 12 -52q2 -4 11 -13q5 -4 9 -7t9 -6q10 -9 16 -12q8 -6 8 -10zM291 612
q-27 5 -51 12t-44 16q-41 18 -69 39q-29 22 -42 45q-15 24 -15 44q0 18 12 30q13 13 30 13q29 0 44 -23q8 -11 15 -27.5t15 -36.5q15 -43 40 -69q25 -27 65 -43z" />
    <glyph glyph-name="uacute" unicode="&#xfa;" horiz-adv-x="550" 
d="M529 6q-23 4 -47.5 5.5t-49.5 2.5q-49 1 -96 -8v49q-10 -13 -34 -29q-24 -15 -63 -21q-41 -6 -77 -2q-37 4 -66 26q-29 21 -42 61q-14 41 -5 103q3 20 4.5 40.5t3.5 41.5q0 21 0.5 41t-1.5 40q0 20 -1.5 37.5t-3.5 34.5q-4 33 -9 55q-2 7 -10 16q-4 4 -8 7.5t-9 7.5
t-11 7.5t-12 7.5q12 -2 26 -3.5t31 -1.5q17 -2 33 -2t32 1q17 0 32 0.5t29 1.5t25.5 2t19.5 3q-2 -2 -5 -4q-2 -2 -5 -4.5t-5 -4.5l-6 -6t-5 -6q-5 -6 -6 -13q-3 -16 -6.5 -33.5l-7.5 -37.5t-7.5 -41t-6.5 -43q-6 -44 -9 -84q-2 -20 -2.5 -38.5t0.5 -34.5q2 -25 10 -43
q10 -19 24 -31q7 -7 15 -11.5t17 -8.5q17 -7 37 -7q10 0 17.5 0.5t13.5 1.5t11 3l10 4q8 4 16 12t16 19q6 45 9 100q2 28 2.5 55t-0.5 55t-2 53.5t-3 50.5t-4.5 45t-6.5 37q-1 7 -10 14q-10 7 -20 11q-6 2 -12.5 5t-14.5 6q34 -7 65 -9.5t60 -0.5t54.5 5.5t47.5 7.5
q0 -3 -4 -6q-2 -2 -5 -4t-5 -4l-5 -5t-5 -6q-5 -5 -7 -14q-2 -11 -3.5 -26.5t-3.5 -34.5q-2 -20 -3.5 -40.5t-1.5 -43.5q-2 -23 -2 -46.5v-48.5q0 -24 0.5 -46.5t1.5 -44.5q1 -44 6 -78q5 -36 12 -52q2 -4 11 -13q5 -4 9 -7t9 -6q10 -9 16 -12q8 -6 8 -10zM220 618
q73 34 97 93q5 11 8.5 20.5t7.5 19.5t7.5 18.5t7.5 15.5q9 15 21 24t30 9q17 0 29 -12t12 -32t-14 -43q-16 -23 -43 -45q-27 -21 -69 -40q-20 -9 -44 -16t-50 -12z" />
    <glyph glyph-name="ucircumflex" unicode="&#xfb;" horiz-adv-x="550" 
d="M529 6q-23 4 -47.5 5.5t-49.5 2.5q-49 1 -96 -8v49q-10 -13 -34 -29q-24 -15 -63 -21q-41 -6 -77 -2q-37 4 -66 26q-29 21 -42 61q-14 41 -5 103q3 20 4.5 40.5t3.5 41.5q0 21 0.5 41t-1.5 40q0 20 -1.5 37.5t-3.5 34.5q-4 33 -9 55q-2 7 -10 16q-4 4 -8 7.5t-9 7.5
t-11 7.5t-12 7.5q12 -2 26 -3.5t31 -1.5q17 -2 33 -2t32 1q17 0 32 0.5t29 1.5t25.5 2t19.5 3q-2 -2 -5 -4q-2 -2 -5 -4.5t-5 -4.5l-6 -6t-5 -6q-5 -6 -6 -13q-3 -16 -6.5 -33.5l-7.5 -37.5t-7.5 -41t-6.5 -43q-6 -44 -9 -84q-2 -20 -2.5 -38.5t0.5 -34.5q2 -25 10 -43
q10 -19 24 -31q7 -7 15 -11.5t17 -8.5q17 -7 37 -7q10 0 17.5 0.5t13.5 1.5t11 3l10 4q8 4 16 12t16 19q6 45 9 100q2 28 2.5 55t-0.5 55t-2 53.5t-3 50.5t-4.5 45t-6.5 37q-1 7 -10 14q-10 7 -20 11q-6 2 -12.5 5t-14.5 6q34 -7 65 -9.5t60 -0.5t54.5 5.5t47.5 7.5
q0 -3 -4 -6q-2 -2 -5 -4t-5 -4l-5 -5t-5 -6q-5 -5 -7 -14q-2 -11 -3.5 -26.5t-3.5 -34.5q-2 -20 -3.5 -40.5t-1.5 -43.5q-2 -23 -2 -46.5v-48.5q0 -24 0.5 -46.5t1.5 -44.5q1 -44 6 -78q5 -36 12 -52q2 -4 11 -13q5 -4 9 -7t9 -6q10 -9 16 -12q8 -6 8 -10zM100 600l163 182
l163 -182l-165 84z" />
    <glyph glyph-name="udieresis" unicode="&#xfc;" horiz-adv-x="550" 
d="M529 6q-23 4 -47.5 5.5t-49.5 2.5q-49 1 -96 -8v49q-10 -13 -34 -29q-24 -15 -63 -21q-41 -6 -77 -2q-37 4 -66 26q-29 21 -42 61q-14 41 -5 103q3 20 4.5 40.5t3.5 41.5q0 21 0.5 41t-1.5 40q0 20 -1.5 37.5t-3.5 34.5q-4 33 -9 55q-2 7 -10 16q-4 4 -8 7.5t-9 7.5
t-11 7.5t-12 7.5q12 -2 26 -3.5t31 -1.5q17 -2 33 -2t32 1q17 0 32 0.5t29 1.5t25.5 2t19.5 3q-2 -2 -5 -4q-2 -2 -5 -4.5t-5 -4.5l-6 -6t-5 -6q-5 -6 -6 -13q-3 -16 -6.5 -33.5l-7.5 -37.5t-7.5 -41t-6.5 -43q-6 -44 -9 -84q-2 -20 -2.5 -38.5t0.5 -34.5q2 -25 10 -43
q10 -19 24 -31q7 -7 15 -11.5t17 -8.5q17 -7 37 -7q10 0 17.5 0.5t13.5 1.5t11 3l10 4q8 4 16 12t16 19q6 45 9 100q2 28 2.5 55t-0.5 55t-2 53.5t-3 50.5t-4.5 45t-6.5 37q-1 7 -10 14q-10 7 -20 11q-6 2 -12.5 5t-14.5 6q34 -7 65 -9.5t60 -0.5t54.5 5.5t47.5 7.5
q0 -3 -4 -6q-2 -2 -5 -4t-5 -4l-5 -5t-5 -6q-5 -5 -7 -14q-2 -11 -3.5 -26.5t-3.5 -34.5q-2 -20 -3.5 -40.5t-1.5 -43.5q-2 -23 -2 -46.5v-48.5q0 -24 0.5 -46.5t1.5 -44.5q1 -44 6 -78q5 -36 12 -52q2 -4 11 -13q5 -4 9 -7t9 -6q10 -9 16 -12q8 -6 8 -10zM240 691
q0 -24 -19 -45q-20 -20 -46 -20q-28 0 -46 19q-19 19 -19 46q0 28 18 46q19 19 47 19q26 0 45 -19q20 -20 20 -46zM416 691q0 -26 -19 -45q-20 -20 -47 -20t-45 19q-19 19 -19 46q0 28 18 46q19 19 46 19t47 -18q19 -19 19 -47z" />
    <glyph glyph-name="yacute" unicode="&#xfd;" horiz-adv-x="597" 
d="M579 541q-4 -4 -7 -8t-7 -9l-6 -8t-6 -9q-4 -5 -6.5 -9t-4.5 -8q-8 -16 -27 -65q-18 -48 -42 -111q-13 -32 -26.5 -65.5t-27.5 -68.5q-15 -36 -30 -70t-31 -66t-32 -63.5t-33 -61.5q-35 -61 -70 -106q-36 -45 -76 -74q-39 -29 -82 -30q-38 -2 -66 9q-28 12 -47 31t-28 45
q-10 24 -10 51q0 37 17 63q16 25 40 41q25 16 49 20q24 6 43 4q37 -5 54 -27q17 -23 15 -56q-1 -37 -25 -56q-23 -18 -55 -18q-22 0 -36 14q-14 16 -20 33q-6 18 -1 29q6 11 3 14q-1 1 -6 -2q-2 -2 -5 -4.5t-5 -6.5q-6 -7 -10 -17q-5 -12 -5 -20q0 -11 3 -26q4 -15 15 -29
t31 -23q20 -11 53 -9q29 2 55 23q28 22 53 56t48 75t41 79q-2 10 -8 24.5t-14 34.5t-18 42t-21 46t-23.5 48.5t-24.5 50.5q-13 26 -25.5 50t-23.5 47q-24 45 -42 78q-9 17 -15.5 28t-10.5 17q-9 15 -21 28q-10 12 -20 21q-5 5 -10 9l-10 8q14 -2 28.5 -4t31.5 -2
q17 -2 34.5 -2t34.5 1t35 1.5t35 2.5q35 3 65 9q-8 -5 -16 -9t-16 -9q-12 -7 -24 -17q-13 -11 -14 -18q-2 -10 5 -32q4 -13 8.5 -27t11.5 -31t15 -35t16 -37q18 -39 36 -75q9 -18 17.5 -34.5t16.5 -30.5t14.5 -25t11.5 -19q5 15 11 31.5t11 33.5q6 18 11.5 36t10.5 36
t10 35.5t9 34.5q5 17 8.5 33t5.5 30q3 14 4.5 26.5t3.5 22.5v18t-2 12q-4 9 -14 19q-5 5 -10 9l-10 8q-6 4 -12.5 7.5t-13.5 7.5q24 -4 53 -6q15 -1 30 -1.5t31 -0.5h31.5t30.5 2q16 0 29.5 2t25.5 4zM284 618q73 34 97 93q5 11 8.5 20.5t7.5 19.5t7.5 18.5t7.5 15.5
q9 15 21 24t30 9q17 0 29 -12t12 -32t-14 -43q-16 -23 -43 -45q-27 -21 -69 -40q-20 -9 -44 -16t-50 -12z" />
    <glyph glyph-name="ydieresis" unicode="&#xff;" horiz-adv-x="596" 
d="M579 541q-4 -4 -7 -8t-7 -9l-6 -8t-6 -9q-4 -5 -6.5 -9t-4.5 -8q-8 -16 -27 -65q-18 -48 -42 -111q-13 -32 -26.5 -65.5t-27.5 -68.5q-15 -36 -30 -70t-31 -66t-32 -63.5t-33 -61.5q-35 -61 -70 -106q-36 -45 -76 -74q-39 -29 -82 -30q-38 -2 -66 9q-28 12 -47 31t-28 45
q-10 24 -10 51q0 37 17 63q16 25 40 41q25 16 49 20q24 6 43 4q37 -5 54 -27q17 -23 15 -56q-1 -37 -25 -56q-23 -18 -55 -18q-22 0 -36 14q-14 16 -20 33q-6 18 -1 29q6 11 3 14q-1 1 -6 -2q-2 -2 -5 -4.5t-5 -6.5q-6 -7 -10 -17q-5 -12 -5 -20q0 -11 3 -26q4 -15 15 -29
t31 -23q20 -11 53 -9q29 2 55 23q28 22 53 56t48 75t41 79q-2 10 -8 24.5t-14 34.5t-18 42t-21 46t-23.5 48.5t-24.5 50.5q-13 26 -25.5 50t-23.5 47q-24 45 -42 78q-9 17 -15.5 28t-10.5 17q-9 15 -21 28q-10 12 -20 21q-5 5 -10 9l-10 8q14 -2 28.5 -4t31.5 -2
q17 -2 34.5 -2t34.5 1t35 1.5t35 2.5q35 3 65 9q-8 -5 -16 -9t-16 -9q-12 -7 -24 -17q-13 -11 -14 -18q-2 -10 5 -32q4 -13 8.5 -27t11.5 -31t15 -35t16 -37q18 -39 36 -75q9 -18 17.5 -34.5t16.5 -30.5t14.5 -25t11.5 -19q5 15 11 31.5t11 33.5q6 18 11.5 36t10.5 36
t10 35.5t9 34.5q5 17 8.5 33t5.5 30q3 14 4.5 26.5t3.5 22.5v18t-2 12q-4 9 -14 19q-5 5 -10 9l-10 8q-6 4 -12.5 7.5t-13.5 7.5q24 -4 53 -6q15 -1 30 -1.5t31 -0.5h31.5t30.5 2q16 0 29.5 2t25.5 4zM319 671q0 -26 -19 -45q-20 -20 -46 -20q-28 0 -46 19q-19 19 -19 46
q0 28 18 46q19 19 47 19q27 0 46 -19t19 -46zM495 671q0 -26 -19 -45q-20 -20 -47 -20t-45 19q-19 19 -19 46q0 28 18 46q19 19 46 19t47 -18q19 -19 19 -47z" />
    <glyph glyph-name="dotlessi" unicode="&#x131;" horiz-adv-x="252" 
d="M221 540q-5 -5 -9 -9.5t-7 -8.5q-9 -9 -13 -22q-5 -13 -8 -31.5t-6 -43.5t-4.5 -53t-2.5 -60q-2 -63 3 -134q4 -71 18 -138q1 -9 8 -19q7 -11 21 -21h-191q5 2 8.5 5.5l7.5 7.5q7 9 9 17q6 39 9 85q2 23 3.5 46.5t1.5 46.5q2 24 2 47.5v46.5t-0.5 44t-1.5 41t-2 37t-2 31
q-2 14 -3.5 25t-3.5 18q-4 14 -11 24q-5 8 -17 18h191z" />
    <glyph glyph-name="Lslash" unicode="&#x141;" horiz-adv-x="571" 
d="M211 375q8 -25 12 -49q4 -26 9 -57q2 -17 2.5 -33.5t-0.5 -32.5q0 -16 -1 -29.5t-3 -25.5q-2 -14 -4.5 -27t-5.5 -26q14 -5 34 -8q23 -5 50 -6q14 -1 28.5 -1.5t29.5 -1.5h29t27 1t24.5 1.5t21.5 1.5q19 1 28 5q8 2 14.5 5.5t12.5 7.5q12 7 22 15q10 7 20 17
q-7 -10 -12 -20l-10 -20q-8 -18 -15 -38t-8 -32q-1 -8 -1.5 -13t0.5 -9h-12t-21 2q-13 0 -28.5 0.5t-33.5 1.5q-19 1 -38.5 1t-40.5 1q-22 1 -42.5 1h-40.5h-38t-35 -1q-33 -1 -52 -3q-16 -2 -35 -6q-10 -2 -19.5 -4.5t-17.5 -4.5q-11 -2 -21 -5t-21 -5l12 15q2 4 5 7t5 7
q6 8 10 14q6 11 11 30q4 11 7 23.5t6 27.5q4 16 7 33t6 36t5.5 39.5t4.5 42.5q1 18 3 33v15.5t1 14.5l-81 -44v54l79 43q-1 14 -2 30.5t-2 35.5q-2 19 -2.5 43t-2.5 53q-3 54 8 104q12 48 33 84q22 38 49 59q29 23 62 29q40 7 71 0q29 -7 52 -25q21 -18 32 -41
q10 -23 10 -49q0 -22 -8 -46q-9 -22 -22 -38q-7 -8 -14.5 -14.5t-15.5 -11.5q-16 -10 -35 -10q-31 0 -48 17q-17 19 -17 46q0 19 4 31q4 11 13 22q7 8 18 13q9 4 19 4q9 0 21 -5q11 -5 14 -11q4 -9 9 -7q5 3 5 14q0 8 -5 21q-4 11 -14 23q-12 12 -25 16q-17 6 -37 2
q-16 -3 -36 -21q-18 -15 -32 -45q-7 -14 -12 -30t-8 -35q-8 -38 -3 -83q2 -19 4.5 -36t4.5 -31q2 -15 5 -28.5t6 -26.5l181 98v-53z" />
    <glyph glyph-name="lslash" unicode="&#x142;" horiz-adv-x="281" 
d="M235 797q-4 -7 -8 -13.5t-8 -11.5q-4 -6 -7.5 -14.5t-5.5 -19.5q-4 -17 -7 -59q-2 -20 -3.5 -43t-3.5 -49l70 106v-67l-74 -112q-1 -19 -1.5 -37t-1.5 -36v-69q0 -41 1 -82t3 -84q3 -43 7.5 -84t9.5 -83q3 -28 28 -59h-195q7 6 16 20q7 13 9 24q4 35 6 74t4 82t3 85t2 85
l-67 -102v67l68 103q0 50 -0.5 89.5t-1.5 68.5q-3 61 -9 92q-5 23 -10 35q-3 7 -7.5 13t-9.5 13q38 3 58 13q21 10 39 23q9 6 18.5 11.5t20.5 10.5q20 10 57 10z" />
    <glyph glyph-name="OE" unicode="&#x152;" horiz-adv-x="1037" 
d="M444 8q-20 -11 -40 -15q-23 -6 -47 -6q-62 0 -122 29q-60 30 -105 84q-46 53 -73 129q-28 74 -28 167q0 84 22 147q11 33 24 61.5t29 52.5t33 43.5t34 34.5q17 16 32.5 27t28.5 18q-31 -38 -38 -80q-9 -41 -7 -79q1 -37 9 -64q8 -29 10 -33q-1 -2 -2 -6.5t-3 -11.5
q-4 -11 -7 -31q-5 -18 -6 -40q-1 -11 -1.5 -23t0.5 -25q1 -62 14 -126q12 -62 33 -110q23 -50 53 -79q31 -30 70 -30q49 0 87 48q37 47 58 125q1 21 1.5 43t1.5 45v98q0 25 -0.5 50t-1.5 50q-1 26 -1.5 51t-1.5 50q-24 73 -62 113q-38 39 -82 39q-24 0 -42 -13
q-17 -14 -27 -33q-11 -20 -15 -38q-5 -22 -4 -30q1 -26 8 -42q8 -15 22 -24q5 14 23 29q17 13 44 13q32 0 55 -21q23 -23 23 -54q0 -40 -26 -60q-29 -21 -64 -21q-15 0 -31 3q-9 2 -18 5t-17 8q-19 11 -34 26q-18 18 -28 42q-13 28 -16 62q-3 35 1 63q2 16 6.5 30t9.5 27
q10 24 28 42t40 27q21 10 45 13q11 2 23 2t24 -1q23 -3 46 -9l64 -4t64 -3q32 -2 65 -3t66 -1q35 0 68.5 0.5t67.5 1.5q34 2 67 4l66 4q-2 -14 -3 -32t-2 -38t1 -40t6 -39q-2 0 -3 7q-2 4 -4 8.5t-4 9.5q-3 5 -6.5 10t-7.5 10q-9 10 -21 15q-11 4 -33 6q-11 2 -23 2.5
t-26 1.5q-28 1 -59 0h-30.5t-28.5 -1t-27.5 -1t-24.5 -1q-12 -1 -21 -1t-16 -1q-8 -63 -12 -126q-2 -32 -3 -63t-2 -63q24 -5 54 -9q15 -2 30 -3.5t29 -0.5t25.5 2t21.5 3q23 5 38 9q9 2 17.5 5t16.5 6t16.5 6t17.5 5q-5 -12 -6 -27q-2 -8 -2.5 -16.5t-1.5 -16.5v-17.5
t2 -16.5q0 -8 2 -15.5t4 -14.5q-10 2 -18.5 4t-16.5 4q-17 5 -32 6q-8 2 -17.5 2.5t-19.5 2.5q-10 0 -22 1t-26 2q-13 1 -27 0.5t-29 -2.5q-16 -2 -29.5 -5t-26.5 -5v-37.5t2 -38.5q0 -20 1 -38.5t2 -36.5q1 -19 2 -36t2 -33q3 -34 6 -56q8 -4 19 -8t24 -8q27 -9 57 -15
q32 -6 65 -9q34 -5 66 -3q14 1 25.5 2.5t21.5 5.5q20 8 33 19q12 11 19 26q7 17 8 31q1 19 -3 36q-5 18 -13 30q-9 12 -24 20q-7 4 -15 5t-18 1q-17 0 -28 -8q-12 -11 -16 -19q-5 -12 -4 -20q0 -8 5 -10q4 -1 7 2q5 5 7 8q6 6 10 8q6 4 17 1q19 -4 27 -26q7 -20 2 -38
q-4 -15 -20 -28q-15 -12 -43 -9q-11 2 -23 6q-12 6 -22 16t-16 25t-6 35q0 21 7 39q4 10 9.5 18t12.5 16q15 15 35 23q21 9 46 8q30 -1 53 -14q11 -7 20.5 -14.5t17.5 -17.5q14 -18 22 -44q4 -13 6 -25.5t1 -26.5q-2 -26 -9 -50q-7 -23 -23 -42q-14 -18 -38 -31
q-21 -13 -53 -16q-17 -2 -35.5 -2.5t-38.5 1.5q-20 0 -41 1.5t-41 3.5q-21 2 -41.5 4t-40.5 4q-41 4 -75 6q-34 1 -68 0q-17 0 -34.5 -1.5t-34.5 -3.5z" />
    <glyph glyph-name="oe" unicode="&#x153;" horiz-adv-x="883" 
d="M256 477q-21 0 -39 -18q-20 -18 -33 -49q-7 -16 -12.5 -34t-9.5 -39t-6 -43.5t-2 -45.5q0 -46 8 -89q4 -21 9.5 -39t12.5 -34q13 -32 32 -50t40 -18q51 0 75 62q26 63 24 173q0 34 -6 73q-8 42 -19 73q-11 33 -30 56q-19 22 -44 22zM710 362q-1 11 -3 22.5t-5 23.5
q-8 27 -19 45q-14 20 -31 33q-19 13 -43 13q-30 0 -50 -13q-11 -7 -19.5 -14.5t-15.5 -17.5q-16 -20 -23 -44q-4 -13 -6.5 -24.5t-3.5 -22.5zM432 69q-27 -45 -73 -73q-45 -27 -100 -27q-50 0 -93 22q-45 23 -76 60t-51 88q-19 50 -19 109t19 109q20 52 51 89t75 60
q43 22 94 22q45 0 86 -19q38 -19 68 -55q35 47 87 73q54 26 111 26q55 0 95 -22q41 -22 70 -57q29 -37 44 -81q16 -45 19 -93h-354q-3 -33 0 -74q3 -43 15 -80q7 -19 16 -36t21 -31q24 -28 62 -36q41 -8 70 7q31 16 50 41t27 51q8 27 1 38q-6 -8 -18 -16q-9 -7 -20 -10
q-7 -2 -13.5 -3.5t-14.5 -0.5q-23 2 -35 16q-13 15 -11 34q1 16 12 30q12 15 27 22q17 9 37 11q23 3 41 -1q10 -2 19 -5.5t17 -8.5q18 -12 28 -27q13 -18 17 -37q4 -22 0 -47q-4 -26 -23 -54q-18 -28 -46 -48q-27 -21 -65 -35t-81 -12q-53 2 -100 22t-86 59z" />
    <glyph glyph-name="Scaron" unicode="&#x160;" horiz-adv-x="651" 
d="M623 237q-2 -53 -24 -98q-24 -46 -63 -79q-20 -17 -43.5 -30t-49.5 -23q-51 -19 -114 -19q-83 0 -145 17q-62 19 -98 46q-39 30 -55 66t-16 76q0 28 13 51q13 24 36 44q24 20 54 32q16 7 33.5 11t36.5 6q37 4 70 -2t55 -18q24 -15 37 -30q15 -20 16 -37q1 -20 -5 -42
q-7 -21 -24 -38q-18 -18 -40 -26q-22 -10 -55 -8q-39 3 -56 22q-18 19 -16 44q1 25 23 36q22 12 51 12q15 0 30 -5q12 -5 24 -14q4 5 7 13q0 10 -1 13q-3 17 -31 29q-28 13 -71 7q-41 -6 -68 -36q-26 -29 -26 -73q0 -21 10 -42q5 -11 13.5 -22t21.5 -21q26 -20 67 -33
q44 -14 106 -14q39 0 77 11q36 12 61 31q26 20 39 44q13 25 7 55q-3 14 -11 29t-22 29t-30 28t-34 27q-19 13 -38 24.5t-39 22.5q-41 22 -69 36q-23 11 -44.5 22.5t-40.5 22.5q-20 11 -36.5 23.5t-30.5 26.5q-27 25 -44 60q-15 31 -17 77q-1 41 17 76q19 34 51 58
q30 23 74 37t91 15q41 1 75 -5q17 -3 31 -6.5t26 -7.5l22.5 -7.5t18.5 -6.5q17 -7 32 -7q23 0 37 3q16 5 26 27q-8 -50 -5 -109q5 -64 28 -131q-26 45 -55 77q-14 16 -31 31t-36 29q-6 5 -13.5 9.5t-16.5 9.5l-20 10t-21 9q-21 7 -49 12q-14 3 -27 3.5t-27 -0.5
q-35 -3 -60 -19q-26 -18 -24 -50q1 -27 21 -51q19 -24 49 -44q14 -11 29.5 -20t32.5 -17t32 -15.5l29 -14.5q25 -11 47.5 -24.5t44.5 -27.5t40 -30.5t34 -33.5q16 -18 28.5 -37t20.5 -39q18 -42 17 -87zM500 1027l-163 -182l-163 182l165 -84z" />
    <glyph glyph-name="scaron" unicode="&#x161;" horiz-adv-x="437" 
d="M311 395q-16 -2 -30.5 0t-27.5 9q-27 14 -29 40q-2 27 8 37q11 11 31 11t29 -12q9 -14 9 -18q0 -5 3 -12q3 -8 9 -9q7 -1 15 7q8 10 7 33q-2 23 -25 43q-22 19 -71 21q-45 1 -70 -21q-26 -23 -27 -51q-2 -15 15 -39q8 -12 26.5 -25.5t46.5 -30.5l76 -45q37 -22 59 -42
q24 -24 35 -43q13 -20 16 -40q3 -22 1 -36q-6 -38 -27 -66q-22 -28 -54 -46t-73 -26t-84 -6q-44 1 -75 15q-33 14 -52 33q-21 21 -28 44q-9 23 -7 48q1 22 11 40q10 16 23 26t28 13q19 3 30 1q16 -3 27 -11q12 -9 16 -18q2 -5 4 -10.5t2 -10.5q3 -10 1 -19q-3 -21 -20 -33
q-17 -13 -32 -14q-16 -1 -25 6q-9 6 -11 16q-1 2 -1.5 5t-1.5 5q-2 5 -4 6q-2 0 -6 -2q-5 -2 -3 -13q1 -27 28 -50q28 -23 66 -29q53 -9 85 8q16 8 27.5 20t19.5 26q3 5 5 16q2 12 -1 25q-5 15 -16 31q-12 17 -38 32l-71 41q-44 25 -78 59q-33 32 -41 78q-6 37 8 70t42 55
q29 24 67 36q38 13 83 13q39 0 66 -9q28 -9 45 -23q19 -16 26 -33q7 -18 9 -36q1 -14 -3 -27q-5 -15 -13 -28q-10 -14 -24 -23q-8 -5 -16.5 -7.5t-19.5 -4.5zM378 807l-163 -182l-163 182l165 -84z" />
    <glyph glyph-name="Ydieresis" unicode="&#x178;" horiz-adv-x="573" 
d="M-14 799q20 -3 40.5 -5t42.5 -3q43 -3 84 -3q21 0 40.5 0.5t38.5 1.5q38 3 68 9q-8 -4 -15 -8.5t-14 -9.5q-12 -10 -21 -22q-12 -15 -16 -34q-6 -26 0 -57q4 -16 8.5 -32.5t11.5 -33.5t14 -33.5t15 -33.5t16 -33t16 -30q8 -15 15 -28t12 -24q12 -23 15 -33q2 8 5.5 16.5
t7.5 17.5q4 8 8.5 16t9.5 18q10 19 27 39q8 10 16.5 18.5t18.5 16.5t19 15t17 14q9 7 17 14t16 15q15 14 25 35q7 14 10 36q4 19 -1 42q-4 20 -20 39q-17 19 -48 26q-11 3 -21 2.5t-19 -2.5q-17 -4 -31 -15q-15 -12 -22 -24q-4 -7 -6.5 -13t-3.5 -12q-2 -11 0 -12q3 -1 7 3
q5 5 19 13q7 4 14 6.5t15 3.5q7 1 13 -0.5t13 -3.5q12 -4 23 -15q11 -12 16 -25q6 -15 3 -33q-6 -38 -33 -58q-28 -21 -67 -16q-21 3 -37 15q-10 7 -17.5 15.5t-14.5 18.5q-13 19 -19 47q-8 27 -2 52q6 26 21 49q16 24 37 38t51 22t62 5q68 -6 104 -44q38 -40 38 -104
q0 -48 -18 -79q-10 -16 -21 -30.5t-24 -27.5q-14 -13 -28 -25.5t-28 -23.5q-30 -23 -51 -51q-32 -42 -45 -81q-14 -43 -17 -69q-5 -38 -6 -81q-3 -44 -3 -83q0 -20 0.5 -36.5t1.5 -30.5q1 -26 7 -32l5 -5t7 -5t8 -4.5t8 -4.5l18 -9q-19 2 -35.5 4t-32.5 4t-30.5 3t-28.5 2
q-14 0 -28.5 -0.5t-28.5 -1.5t-28.5 -3t-30.5 -5q1 0 2 1t2 1t3 2q4 2 8 4.5t9 6.5q9 7 19 18q9 11 14 25q5 15 10 50q2 17 3 35.5t3 38.5v39.5t-1 38.5q0 19 -2 34.5t-5 27.5t-14 46q-6 16 -13.5 34.5t-15.5 38.5t-17.5 41.5t-19.5 44.5q-11 23 -21 45t-21 43
q-11 22 -21.5 41t-20.5 36q-11 17 -20 31t-18 23q-5 6 -11 10.5t-13 9.5t-13.5 9t-11.5 7q-7 5 -13.5 8t-13.5 6zM337 935q0 -26 -19 -45t-46 -19t-46 18q-19 19 -19 46q0 28 19 46q19 19 46 19t46 -19t19 -46zM513 935q0 -26 -19 -45t-46 -19t-46 19t-19 45q0 28 19 46
q19 19 46 19q26 0 46 -18q19 -19 19 -47z" />
    <glyph glyph-name="Zcaron" unicode="&#x17d;" horiz-adv-x="716" 
d="M98 797q34 -2 64 -3t58 -3q12 -1 24 -1t23 -1q12 -1 23 -1t21 -1h18.5t16.5 -1h21h32h26t30 1h33t35 1t35 1t34 2q17 0 32 1t28 2q14 1 23.5 2t15.5 3q-14 -17 -39 -51q-13 -17 -26.5 -36.5t-28.5 -41.5q-16 -22 -31.5 -45t-32.5 -46t-33 -45.5t-31 -44.5t-28.5 -41
t-24.5 -36q-12 -17 -21 -29.5t-15 -20.5q-5 -7 -10.5 -15t-12.5 -17q-7 -10 -13.5 -20t-14.5 -21t-15.5 -22.5t-15.5 -22.5t-15.5 -22.5t-15.5 -22.5q-17 -26 -35.5 -53t-37.5 -56q5 1 11.5 1t14.5 1q6 1 13.5 1h15.5q9 0 18.5 -0.5t19.5 -1.5q14 -2 27.5 -3.5t26.5 -3.5
t25.5 -5t25.5 -5l26 -6t26 -5q27 -4 59 -6q24 -1 49 7q24 10 40 24q19 18 29 37q12 21 15 45q5 44 -19 73q-25 31 -70 31q-19 0 -32 -6q-7 -4 -12.5 -8t-10.5 -9q-10 -11 -14 -23q-5 -15 -5 -25q0 -21 7 -25q8 -5 13 -3q5 1 9 10q0 4 1 9t2 11q1 11 12 19t26 6q18 -2 29 -11
q13 -10 15 -34q1 -6 0 -12.5t-3 -13.5q-5 -15 -15 -25q-10 -12 -26 -19t-40 -4q-30 3 -53 29q-24 27 -24 67q0 23 9 44t25 37q15 15 39 26q21 10 50 10q37 0 63 -11q30 -12 51 -33q21 -20 34 -50q12 -31 11 -64q-1 -46 -20 -83q-20 -38 -47 -60q-27 -24 -64 -37
q-35 -12 -69 -12q-30 0 -64 6q-35 7 -66 15q-17 4 -32 7.5t-29 6.5q-14 4 -26.5 5.5t-22.5 2.5q-24 1 -54 0q-15 0 -29.5 -0.5t-28.5 -1.5t-27.5 -2t-24.5 -2q-24 -3 -36 -6q-10 -3 -19 2q-10 4 -14 14q-4 9 1 27q4 16 23 41q7 9 30 45q12 19 25.5 40t29.5 45q16 25 33 50.5
t34 52.5t34 51.5t33 46.5q18 26 36.5 50.5t38.5 49.5t38 46.5t35 41.5q20 23 38.5 45t37.5 42h-48t-45 1q-19 1 -37 1h-36h-52q-13 0 -25 -0.5t-23 -0.5t-22 -0.5t-21 -1.5q-21 -3 -37 -9q-18 -8 -30 -20q-4 -4 -12 -17q-7 -13 -13 -26q-4 -8 -7 -16t-7 -17q2 15 4 29t4 27
q2 14 4 26.5t4 24.5q2 13 2.5 25t-0.5 24q0 27 -7 52zM565 1001l-163 -182l-163 182l165 -84z" />
    <glyph glyph-name="zcaron" unicode="&#x17e;" horiz-adv-x="599" 
d="M546 -21q-17 14 -52 20q-17 3 -35 5t-37 3t-35.5 1.5t-32.5 -0.5h-42h-18.5t-32.5 -1h-41t-44 -1h-45t-43 -2q-21 0 -36 -1t-24 -3q7 5 14.5 13t17.5 19t20.5 22.5t21.5 24.5t23 27t23 28q12 14 23 28l22 28t20.5 27t17.5 24t15 20.5t12 17.5q13 21 36 51q11 15 22 29.5
t22 28.5q13 17 25.5 33t26.5 33q-12 -2 -26 0q-6 1 -12.5 1t-14.5 1q-16 2 -32 6q-8 2 -16 4.5t-16 4.5q-8 3 -15.5 6t-15.5 5t-15 4t-15 4q-15 4 -33 4q-44 0 -71 -21q-29 -23 -33 -54q-3 -21 4 -38q8 -19 20 -31q7 -7 13.5 -12.5t14.5 -9.5q17 -8 29 -7q-16 13 -21 32
q-2 9 -2.5 16.5t-0.5 13.5q0 10 4 19q2 5 4.5 10t6.5 10q7 9 18 15q12 6 27 6q31 0 46 -20t15 -48q0 -9 -1 -18t-3 -18q-4 -17 -16 -34q-11 -15 -30 -26q-19 -10 -46 -10q-36 0 -64 15q-27 14 -47 37q-18 21 -28 49q-11 26 -9 49q2 32 13 56q14 27 34 44q22 18 50 28
q27 10 62 13q29 3 55 0q13 -2 25.5 -3.5t23.5 -3.5t22 -5t22 -5t21.5 -4t20.5 -4q12 -2 26 -3t30 -2t32 -1.5t32 -0.5t31 0.5t29 1.5q27 3 44 9q-9 -9 -28 -36q-10 -13 -20.5 -26.5t-21.5 -29.5t-23 -32t-24 -33q-13 -17 -24 -33t-22 -30t-20 -26.5t-17 -23.5t-13 -18
t-7 -10q-15 -21 -27.5 -38t-23.5 -30q-11 -14 -19.5 -24.5t-16.5 -18.5q-8 -9 -15.5 -16.5l-12.5 -12.5q14 -2 28.5 -3t28.5 -2q11 -1 23 -1.5t25 -2.5h43q25 1 46 2.5t38 5.5q36 8 61 25q5 3 11 11t12 17q3 5 6 10.5t7 11.5q-3 -18 -11 -46l-15 -54q-8 -27 -9 -52
q-3 -25 5 -44zM462 779l-163 -182l-163 182l165 -84z" />
    <glyph glyph-name="circumflex" unicode="&#x2c6;" 
d="M96 820l163 182l163 -182l-165 84z" />
    <glyph glyph-name="caron" unicode="&#x2c7;" 
d="M408 1011l-163 -182l-163 182l165 -84z" />
    <glyph glyph-name="breve" unicode="&#x2d8;" 
d="M412 960q-15 -70 -55 -107q-41 -38 -98 -38q-51 0 -90 36q-41 38 -63 109q38 -35 76 -51q40 -17 86 -17t79 15q34 16 65 53z" />
    <glyph glyph-name="dotaccent" unicode="&#x2d9;" 
d="M311 920q0 -32 -17 -54q-16 -22 -40 -22q-20 0 -34 17q-14 19 -14 45q0 30 19 52t44 22q18 0 30 -16q12 -17 12 -44z" />
    <glyph glyph-name="ring" unicode="&#x2da;" 
d="M303 924q0 21 -16 39q-17 17 -40 17q-24 0 -40 -16q-17 -17 -17 -40q0 -24 16 -40q17 -17 41 -17q23 0 39 16q17 17 17 41zM344 924q0 -41 -28 -69t-69 -28q-42 0 -69 27q-28 28 -28 70t27 69q28 28 70 28q41 0 69 -28t28 -69z" />
    <glyph glyph-name="ogonek" unicode="&#x2db;" 
d="M357 -105q-7 -48 -32 -74q-24 -26 -59 -26q-39 0 -63 24q-25 25 -25 66q0 35 24 65q26 32 73 54h31q-71 -42 -71 -101q0 -26 15 -41q15 -16 40 -16q40 0 67 49z" />
    <glyph glyph-name="tilde" unicode="&#x2dc;" 
d="M390 1012q-18 -156 -94 -156q-16 0 -27 4q-7 2 -13 5t-11 5q-6 3 -12 5.5t-11 4.5q-12 5 -23 5q-49 0 -73 -58q7 77 32 117t61 40q13 0 28 -5q7 -2 13 -5l12 -6q7 -3 13 -6t12 -5q13 -5 26 -5q50 0 67 60z" />
    <glyph glyph-name="hungarumlaut" unicode="&#x2dd;" 
d="M213 824q42 17 65 43q25 26 40 69q15 41 30 64q17 23 44 23q17 0 29 -12t12 -32t-14 -43q-16 -24 -43 -44q-27 -21 -69 -40q-20 -9 -44 -16t-50 -12zM77 824q42 17 65 43q25 26 40 69q15 41 30 64q17 23 44 23q17 0 29 -12t12 -32t-14 -43q-16 -24 -43 -44
q-27 -21 -69 -40q-20 -9 -44 -16t-50 -12z" />
    <glyph glyph-name="endash" unicode="&#x2013;" horiz-adv-x="513" 
d="M433 396q12 0 21 -9t9 -21v-29q0 -12 -9 -21t-21 -9h-351q-12 0 -21 9t-9 21v29q0 12 9 21t21 9h351z" />
    <glyph glyph-name="emdash" unicode="&#x2014;" horiz-adv-x="959" 
d="M860 396q13 0 21 -9q9 -9 9 -21v-29q0 -11 -8 -21q-9 -9 -22 -9h-739q-14 0 -21 9q-9 9 -9 21v29q0 11 8 21q9 9 22 9h739z" />
    <glyph glyph-name="quoteleft" unicode="&#x2018;" horiz-adv-x="241" 
d="M87 757q12 14 22 20q7 4 13 7.5t11 5.5q6 2 11 4l10 4q10 3 15 3q9 2 12 -5q3 -8 -12 -12q-14 -4 -26 -16t-16 -25q-5 -15 -3 -30t26 -29q8 -5 14 -10t11 -10q11 -11 11 -26q0 -21 -19 -36q-20 -15 -49 -15t-47 15q-19 15 -22 36q-5 29 5 60q10 33 33 59z" />
    <glyph glyph-name="quoteright" unicode="&#x2019;" horiz-adv-x="241" 
d="M151 630q-12 -14 -22 -20q-7 -4 -13 -7.5t-11 -5.5q-14 -7 -22 -8q-11 -3 -14 -3q-9 -2 -12 6q-3 7 12 12q31 9 41 40q4 15 3 30q0 16 -25 30q-16 10 -25 20q-11 11 -11 26q0 21 19 36t49 15q29 0 47 -15q19 -15 22 -36q4 -26 -5 -60q-11 -35 -33 -60z" />
    <glyph glyph-name="quotesinglbase" unicode="&#x201a;" horiz-adv-x="241" 
d="M151 -90q-12 -14 -22 -20q-7 -4 -13 -7.5t-11 -5.5q-14 -7 -22 -8q-11 -3 -14 -3q-9 -2 -12 6q-3 7 12 12q31 9 41 40q4 15 3 30q0 16 -25 30q-16 10 -25 20q-11 11 -11 26q0 21 19 36t49 15q29 0 47 -15q19 -15 22 -36q4 -26 -5 -60q-11 -35 -33 -60z" />
    <glyph glyph-name="quotedblleft" unicode="&#x201c;" horiz-adv-x="393" 
d="M78 762q12 14 22 20q7 4 13 7.5t11 5.5q13 7 21 8q10 3 15 3q9 2 12 -5q3 -8 -12 -12q-15 -5 -25 -16q-12 -12 -16 -25q-2 -7 -3.5 -14t0.5 -15q0 -16 25 -30q15 -9 26 -20t11 -26q0 -21 -20 -36t-49 -15t-47 15q-19 15 -22 36q-5 29 5 60q10 33 33 59zM244 762
q12 14 22 20q7 4 13 7.5t11 5.5q13 7 21 8q10 3 15 3q9 2 12 -5q3 -8 -12 -12q-15 -5 -25 -16q-12 -12 -16 -25q-2 -7 -3.5 -14t0.5 -15q0 -16 25 -30q15 -9 26 -20t11 -26q0 -21 -20 -36t-49 -15t-47 15q-19 15 -22 36q-5 29 5 60q10 33 33 59z" />
    <glyph glyph-name="quotedblright" unicode="&#x201d;" horiz-adv-x="393" 
d="M317 630q-12 -14 -22 -20q-7 -4 -13 -7.5t-11 -5.5q-14 -7 -22 -8q-11 -3 -14 -3q-9 -2 -12 6q-3 7 12 12q31 9 41 40q4 15 3 30q0 16 -25 30q-16 10 -25 20q-11 11 -11 26q0 21 19 36t49 15q29 0 47 -15q19 -15 22 -36q4 -26 -5 -60q-11 -35 -33 -60zM151 630
q-12 -14 -22 -20q-7 -4 -13 -7.5t-11 -5.5q-14 -7 -22 -8q-11 -3 -14 -3q-9 -2 -12 6q-3 7 12 12q31 9 41 40q4 15 3 30q0 16 -25 30q-16 10 -25 20q-11 11 -11 26q0 21 19 36t49 15q29 0 47 -15q19 -15 22 -36q4 -26 -5 -60q-11 -35 -33 -60z" />
    <glyph glyph-name="quotedblbase" unicode="&#x201e;" horiz-adv-x="393" 
d="M317 -90q-12 -14 -22 -20q-7 -4 -13 -7.5t-11 -5.5q-14 -7 -22 -8q-11 -3 -14 -3q-9 -2 -12 6q-3 7 12 12q31 9 41 40q4 15 3 30q0 16 -25 30q-16 10 -25 20q-11 11 -11 26q0 21 19 36t49 15q29 0 47 -15q19 -15 22 -36q4 -26 -5 -60q-11 -35 -33 -60zM151 -90
q-12 -14 -22 -20q-7 -4 -13 -7.5t-11 -5.5q-14 -7 -22 -8q-11 -3 -14 -3q-9 -2 -12 6q-3 7 12 12q31 9 41 40q4 15 3 30q0 16 -25 30q-16 10 -25 20q-11 11 -11 26q0 21 19 36t49 15q29 0 47 -15q19 -15 22 -36q4 -26 -5 -60q-11 -35 -33 -60z" />
    <glyph glyph-name="dagger" unicode="&#x2020;" horiz-adv-x="762" 
d="M721 164q-3 -33 -18 -64q-17 -33 -44 -57q-29 -26 -67 -39q-39 -15 -91 -13q-51 1 -108 26q-55 24 -97 66q-43 43 -64 104q-22 60 -8 136q9 48 30 91q11 22 24 43t28 41q30 40 65 77q36 37 73 67q-5 2 -9 4t-9 4q-11 5 -19 10q-34 20 -65 36t-60 27q-59 23 -107 15
q-28 -4 -49 -19q-11 -7 -19 -15.5t-15 -18.5q-13 -21 -18 -44q-6 -24 -6 -46q0 -41 23 -72q24 -31 61 -31q19 0 32 10q12 9 20 22q4 7 6.5 13t3.5 12q3 13 0 19q-6 11 -11 0q-3 -7 -14 -15t-26 -6q-24 2 -37 18q-15 20 -15 41q0 20 14 40q14 21 42 25q16 3 35 -2
q18 -4 34 -17q15 -11 26 -31q5 -10 8.5 -21.5t3.5 -24.5q0 -24 -8 -51q-8 -26 -24 -45q-16 -20 -39 -34q-22 -13 -52 -15q-25 -1 -53 10q-25 10 -49 32q-22 21 -37 52q-16 33 -17 69q-2 34 7 67q9 36 30 64q21 29 55 51q17 11 37.5 18t45.5 12q43 6 84 5q22 -2 43.5 -4
t42.5 -6q22 -4 42.5 -7.5t40.5 -7.5t38.5 -6.5t35.5 -4.5q72 -8 138 -3q66 6 112 34l33 -28q-9 -19 -19.5 -36.5t-23.5 -33.5q-11 -14 -23.5 -26.5t-26.5 -25.5q-30 -26 -66 -33q-58 -12 -112 -1q-13 -17 -25.5 -36.5t-23.5 -40.5t-21.5 -42t-18.5 -41q-9 -21 -16.5 -40.5
t-12.5 -37.5q-6 -19 -9 -34t-5 -26q-6 -55 2 -106q9 -50 27 -87q10 -19 21 -34.5t25 -26.5q28 -24 59 -28q25 -4 50 4q24 9 43 25t31 39q13 22 18 49q5 30 2 58q-5 30 -15 54t-29 40q-18 15 -41 15q-15 0 -28 -8q-12 -9 -20 -20t-11 -22q-4 -11 -4 -19q1 -5 4 -8q3 -2 6 0
q6 2 10 7q6 6 17 5q16 -2 26 -18q12 -17 10 -44q-1 -5 -2 -11t-3 -12q-2 -7 -5.5 -12.5t-7.5 -10.5q-8 -10 -21 -16t-31 -3q-21 3 -33 15q-13 12 -19 28q-8 17 -9 34q-2 18 0 35q2 16 9 38q9 24 25 46t39 39q23 16 57 16q30 0 59 -18q27 -17 47 -48q20 -32 30 -71
q10 -40 6 -83z" />
    <glyph glyph-name="daggerdbl" unicode="&#x2021;" horiz-adv-x="535" 
d="M530 545q-4 -5 -7 -11t-7 -11q-14 -23 -24 -52q-5 -14 -9.5 -31t-9.5 -37t-9 -42t-7 -45q-7 -48 -9 -101q-2 -54 3 -110q5 -52 21 -89q16 -39 33 -72q8 -17 13.5 -32.5t9.5 -31.5q8 -30 -6 -68q-25 -62 -87 -85t-150 -12q-62 8 -113 25q-26 10 -51.5 19.5t-48.5 19.5
t-45.5 18.5t-44.5 16.5q-42 16 -88 16q-42 0 -72 -11q-29 -11 -46 -26q-18 -15 -25 -31q-4 -8 -5.5 -14.5t-2.5 -11.5q-2 -6 7 -1q4 2 8.5 4.5t10.5 6.5q7 4 14 5t15 1q29 -2 39 -17q12 -16 10 -36q-1 -19 -20 -33q-20 -14 -50 -14q-13 0 -30 5q-8 3 -15 7.5t-14 9.5
q-14 11 -23 27q-11 17 -12 38q-3 28 6 57t28 51t49 38q27 16 65 19q25 3 59 -2q16 -2 32.5 -5.5t33.5 -8.5t34.5 -10.5t34.5 -12.5q18 -7 36 -13t35 -13q21 -8 41.5 -15t40.5 -14q39 -13 76 -21q34 -7 64 -4q28 3 46 21q15 15 17 34q1 17 -5 44q-4 13 -8 27t-9 30
q-5 17 -9 36t-7 41q-11 -5 -22.5 -9.5t-24.5 -6.5q-25 -6 -61 -4q-56 4 -97 30q-39 24 -65 66q-25 39 -34 92q-9 49 -4 106q5 47 19 89q8 22 17.5 41t20.5 36q24 35 55 57q32 23 70 29q29 5 53 3t44 -9q40 -14 66 -33q1 3 1 7t1 6q14 -2 27.5 -2.5t27.5 0.5q20 1 48 8
q25 6 45 21zM338 111q0 37 3 81q2 22 3.5 43t3.5 43t5 43.5t5 41.5q3 20 6 39t5 36l-6 12q-2 4 -5 7l-7 7q-6 6 -20 11q-13 5 -30 5q-13 0 -29 -9q-19 -10 -35 -31q-18 -23 -32 -61q-14 -39 -20 -96q-2 -19 -1.5 -37.5t2.5 -36.5q2 -19 6.5 -35.5t9.5 -30.5q10 -29 27 -49
t36 -23q18 -2 29 2q13 4 22 12q10 8 14 15q7 8 8 11z" />
    </font>
</defs>
</svg>
