<svg id="Layer_1" data-name="Layer 1" xmlns="http://www.w3.org/2000/svg" viewBox="0 0 146 126.16"><defs><style>.cls-2{fill:#231f20;}.cls-3{fill:#179d49;}</style></defs><title>logo-big</title><path class="cls-2" d="M614.21,418.74s5.62,5.43,3.22,14.71c0,0-1.28-7.89-4.18-7.89a2.54,2.54,0,0,0-1.69.82,18.13,18.13,0,0,0-3.91-4.23s3-2.08,3-4.48-2.08-4-3.15-6.06-0.63-4.93-4.86-4.93a4.31,4.31,0,0,0-2.51.67,6.53,6.53,0,0,0-5.61-3.32c-4.29,0-6.91,3.13-5.11,4.93s4.23,0.75,6-.82c1-.91,2.29.22,3.18,1.33a21.9,21.9,0,0,1-1.07,2.78c-0.75,1.23-1.92,2.28-2.57,3.59a7.29,7.29,0,0,1,2.51,5.32v0.12a3.19,3.19,0,0,1,.6.25,13.86,13.86,0,0,1,2.46,1.78h0v0a14.57,14.57,0,0,1,5.23,10.7,12.73,12.73,0,0,1-4.76,9.49h15.82a15.39,15.39,0,0,0,5.11-11.18C621.92,425.3,617.62,419.75,614.21,418.74ZM603,417.63s-3-1.52-3-2.48,1-1.53,3-1.53,2.77,0.77,2.77,1.53c0,1-2.76,2.48-2.76,2.48h0Z" transform="translate(-522.5 -357)"/><path class="cls-3" d="M605.82,404.76a6.58,6.58,0,0,1,5.74-3.56c4.29,0,6.91,3.12,5.11,4.92a3,3,0,0,1-2.21.95,6.14,6.14,0,0,1-3.79-1.77,1.19,1.19,0,0,0-.82-0.33,3.15,3.15,0,0,0-2,1.27,7.26,7.26,0,0,1,1.26,2.33,8.5,8.5,0,0,1,.69-0.85,7.89,7.89,0,0,0,4.69,1.79,5.48,5.48,0,0,0,3.94-1.65,4.27,4.27,0,0,0,.93-4.79c-1.06-2.57-4.19-4.29-7.77-4.29a9,9,0,0,0-8.21,5.47A7.44,7.44,0,0,1,605.82,404.76Z" transform="translate(-522.5 -357)"/><path class="cls-2" d="M596.69,423.63a1,1,0,0,0-.46-0.11c-1.08,0-2.53,1.4-.71,2.69,2.1,1.48,4.93,3.2,4.93,7.89a7.09,7.09,0,0,1-3.83,6.41s-0.08-6.33-1.49-8.83a3.09,3.09,0,0,0-2.58-1.9,1.7,1.7,0,0,0-1.26.5s-2.35-3.75-3.36-4.14c0,0,3.36-2.42,4.15-3.68H594L593.8,421l1,0.15a4.78,4.78,0,0,0-2.74-4.14s0-5.08-3.21-5.62c0,0-.32,2.81-2,3.83h-4.46a3.82,3.82,0,0,1-2-3.6s-3.91.63-3.21,5.47c0,0-2.74,1.64-2.66,3.44l1,0.47a4.24,4.24,0,0,0-.31,1.48l1.72-.16s2.82,3.83,4.77,3.83L577.29,441,577,441a2.22,2.22,0,0,0-2.41,2.44h22.06s6.49-3.36,6.49-9.45S597.71,424.18,596.69,423.63Zm-11.91-1.94s-2-1-2-1.68,0.65-1,2-1,1.87,0.53,1.87,1c0,0.69-1.87,1.68-1.87,1.68h0Z" transform="translate(-522.5 -357)"/><path class="cls-2" d="M548.19,451.61a17.46,17.46,0,0,1,2.67-.2,5.72,5.72,0,0,1,3.61.94,3.89,3.89,0,0,1,1.48,3.31,4.49,4.49,0,0,1-1.44,3.56,6.27,6.27,0,0,1-4.07,1.13,17.1,17.1,0,0,1-2.25-.13v-8.61h0Zm2,7.15a3.72,3.72,0,0,0,.69,0,2.74,2.74,0,0,0,3-3.07,2.53,2.53,0,0,0-2.79-2.79,4.25,4.25,0,0,0-.9.08v5.75h0Z" transform="translate(-522.5 -357)"/><path class="cls-2" d="M562.46,456.55h-3.22v2.08h3.61v1.63h-5.59v-8.78h5.41v1.63h-3.43v1.82h3.22v1.62h0Z" transform="translate(-522.5 -357)"/><path class="cls-3" d="M567,451.61a17.47,17.47,0,0,1,2.67-.2,5.72,5.72,0,0,1,3.61.94,3.89,3.89,0,0,1,1.48,3.31,4.49,4.49,0,0,1-1.44,3.56,6.27,6.27,0,0,1-4.07,1.13,17.11,17.11,0,0,1-2.25-.13v-8.61h0Zm2,7.15a3.72,3.72,0,0,0,.69,0,2.74,2.74,0,0,0,3-3.07,2.53,2.53,0,0,0-2.79-2.79,4.25,4.25,0,0,0-.9.08v5.75h0Z" transform="translate(-522.5 -357)"/><path class="cls-3" d="M578,451.48v8.78h-2v-8.78h2Z" transform="translate(-522.5 -357)"/><path class="cls-3" d="M585,456.55h-3.23v2.08h3.61v1.63h-5.59v-8.78h5.4v1.63h-3.43v1.82H585v1.62h0Z" transform="translate(-522.5 -357)"/><path class="cls-3" d="M586.7,451.6a17.31,17.31,0,0,1,2.64-.18,4.49,4.49,0,0,1,2.84.69A2.23,2.23,0,0,1,593,454a2.33,2.33,0,0,1-1.57,2.15v0a2.21,2.21,0,0,1,1.18,1.63c0.27,1,.53,2.15.7,2.49h-2a11.77,11.77,0,0,1-.6-2c-0.25-1.11-.62-1.39-1.45-1.4h-0.58v3.45h-2V451.6h0Zm2,3.78h0.78a1.33,1.33,0,0,0,1.57-1.26,1.24,1.24,0,0,0-1.46-1.21,4,4,0,0,0-.9.07v2.41h0Z" transform="translate(-522.5 -357)"/><path class="cls-3" d="M599.65,456.55h-3.23v2.08H600v1.63h-5.59v-8.78h5.41v1.63h-3.43v1.82h3.23v1.62h0Z" transform="translate(-522.5 -357)"/><path class="cls-3" d="M601.38,460.26v-8.78h2.32l1.82,3.22a27.64,27.64,0,0,1,1.43,3h0a36.32,36.32,0,0,1-.16-3.67v-2.55h1.82v8.78h-2.08l-1.88-3.39a29.72,29.72,0,0,1-1.52-3.1h-0.05c0.07,1.18.09,2.41,0.09,3.84v2.64h-1.83Z" transform="translate(-522.5 -357)"/><path class="cls-3" d="M618.4,455.78c0,2.89-1.73,4.62-4.32,4.62s-4.13-2-4.13-4.48,1.7-4.6,4.27-4.6S618.4,453.35,618.4,455.78Zm-6.35.11c0,1.73.81,2.94,2.13,2.94s2.11-1.28,2.11-3-0.74-2.94-2.11-2.94-2.13,1.27-2.13,3h0Z" transform="translate(-522.5 -357)"/><path class="cls-3" d="M619.7,451.6a16.27,16.27,0,0,1,2.68-.18,4.23,4.23,0,0,1,2.68.7,2.53,2.53,0,0,1,.94,2,2.75,2.75,0,0,1-.81,2.08,4.13,4.13,0,0,1-2.85.93,3.37,3.37,0,0,1-.67-0.05v3.14h-2V451.6h0Zm2,4a3,3,0,0,0,.66.05,1.46,1.46,0,0,0,1.71-1.42,1.32,1.32,0,0,0-1.57-1.29,3.53,3.53,0,0,0-.81.07v2.59h0Z" transform="translate(-522.5 -357)"/><path class="cls-3" d="M627.27,451.6a16.26,16.26,0,0,1,2.68-.18,4.23,4.23,0,0,1,2.68.7,2.53,2.53,0,0,1,.94,2,2.75,2.75,0,0,1-.81,2.08,4.13,4.13,0,0,1-2.85.93,3.37,3.37,0,0,1-.68-0.05v3.14h-2V451.6h0Zm2,4a3,3,0,0,0,.66.05,1.46,1.46,0,0,0,1.71-1.42,1.32,1.32,0,0,0-1.57-1.29,3.53,3.53,0,0,0-.81.07v2.59h0Z" transform="translate(-522.5 -357)"/><path class="cls-3" d="M636.1,458l-0.62,2.25h-2l2.67-8.78h2.61l2.75,8.78h-2.15L638.63,458H636.1Zm2.23-1.48-0.55-1.86c-0.16-.52-0.31-1.18-0.44-1.7h0c-0.13.52-.26,1.18-0.39,1.7l-0.52,1.86h1.93Z" transform="translate(-522.5 -357)"/><path class="cls-3" d="M642.67,458.22a5,5,0,0,0,2.2.56c0.91,0,1.39-.39,1.39-0.95s-0.42-.86-1.47-1.22c-1.46-.52-2.43-1.33-2.43-2.61,0-1.5,1.26-2.63,3.32-2.63a5.14,5.14,0,0,1,2.24.44l-0.44,1.57a4.1,4.1,0,0,0-1.82-.42c-0.86,0-1.28.39-1.28,0.85s0.48,0.81,1.63,1.24c1.57,0.57,2.26,1.38,2.26,2.62,0,1.47-1.12,2.72-3.53,2.72a5.73,5.73,0,0,1-2.49-.55Z" transform="translate(-522.5 -357)"/><rect class="cls-2" x="42.31" y="58.63" width="5.65" height="27.72"/><rect class="cls-3" x="103.69" y="58.63" width="5.65" height="27.72"/><path class="cls-3" d="M561.43,415.6l-4-4,41.1-41.1,41.1,41.1-4,4-37.1-37.1Z" transform="translate(-522.5 -357)"/></svg>