<svg viewBox="0 0 124 124" xmlns="http://www.w3.org/2000/svg" xmlns:xlink="http://www.w3.org/1999/xlink"><defs><circle id="a" cx="61" cy="61" r="61"/></defs><g fill="none" fill-rule="evenodd"><g transform="translate(1 1)"><circle stroke="#E3E3E3" fill="#F8F8F8" fill-rule="nonzero" cx="61" cy="61" r="61"/><mask id="b" fill="#fff"><use xlink:href="#a"/></mask><path d="M62.087 28.478c2.876.522 4.66.884 5.353 1.084 10.084 2.913 15.025 10.365 14.822 22.354-.336 19.838-5.448 30.014-7.582 32.846-2.134 2.832-4.186 14.035 14.642 16.195 12.552 1.44 26.103 7.582 40.653 18.426l5.017 50.924-82.773 5.564a665 665 0 0 1 1.006-93.244c2.516-31 5.47-49.05 8.862-54.15z" fill="#E3E3E3" mask="url(#b)"/><path d="M64.01 28.93h-4.656c-12.257 2.516-17.973 10.697-17.147 24.543 1.237 20.77 4.293 26.017 5.657 28.615 1.364 2.598 8.137 13.789-6.419 17.425-14.555 3.635-32.323 7.513-36.935 12.034-3.075 3.015 10.688 9.008 41.289 17.98l23.024-3.187V35.516L64.01 28.93z" fill="#E3E3E3" mask="url(#b)"/></g></g></svg>