<?xml version="1.0" encoding="utf-8"?>
<!-- Generator: Adobe Illustrator 16.0.0, SVG Export Plug-In . SVG Version: 6.00 Build 0)  -->
<!DOCTYPE svg PUBLIC "-//W3C//DTD SVG 1.1//EN" "http://www.w3.org/Graphics/SVG/1.1/DTD/svg11.dtd">
<svg version="1.1" id="Layer_1" xmlns="http://www.w3.org/2000/svg" xmlns:xlink="http://www.w3.org/1999/xlink" x="0px" y="0px"
	 width="443.964px" height="135.716px" viewBox="0 0 443.964 135.716" enable-background="new 0 0 443.964 135.716"
	 xml:space="preserve">
<path fill="#FFF" d="M49.156,0v0.037c-15.886,0.5-29.19,7.66-39.527,21.537C2.084,31.701-0.817,43.305,0.195,55.875
	c0.553,6.877,2.53,13.348,5.669,19.479l4.599,7.017l39.113,40.16v0.021l0.01-0.011l0.011,0.011v-0.021l39.113-40.16l4.599-7.017
	c3.139-6.131,5.117-12.602,5.669-19.479c1.012-12.57-1.889-24.174-9.434-34.301C79.206,7.697,65.902,0.537,50.016,0.037V0H49.156z"
	/>
<ellipse fill="#FFF" fill-rule="evenodd" clip-rule="evenodd" cx="48.586" cy="133.216" rx="17.587" ry="2.5"/>
<g>
	<path fill="#FFF" d="M116.064,51.01h4.226v7.151h8.208V51.01h4.226v19.179h-4.226v-8.289h-8.208v8.289h-4.226V51.01z"/>
	<path fill="#FFF" d="M141.013,60.6c0-1.535,0.258-2.926,0.772-4.172s1.232-2.307,2.153-3.183s2.014-1.549,3.277-2.019s2.646-0.704,4.145-0.704
		s2.881,0.234,4.145,0.704s2.356,1.143,3.278,2.019c0.921,0.876,1.639,1.937,2.153,3.183s0.771,2.637,0.771,4.172
		s-0.257,2.925-0.771,4.171s-1.232,2.308-2.153,3.184c-0.922,0.876-2.015,1.548-3.278,2.018s-2.646,0.704-4.145,0.704
		s-2.881-0.234-4.145-0.704s-2.356-1.142-3.277-2.018s-1.639-1.938-2.153-3.184S141.013,62.135,141.013,60.6z M145.401,60.6
		c0,0.903,0.14,1.729,0.42,2.479c0.279,0.749,0.681,1.399,1.205,1.95c0.523,0.551,1.151,0.979,1.883,1.286
		c0.731,0.308,1.548,0.461,2.451,0.461s1.721-0.153,2.452-0.461c0.73-0.307,1.358-0.735,1.882-1.286s0.926-1.201,1.206-1.95
		c0.279-0.749,0.42-1.575,0.42-2.479c0-0.885-0.141-1.707-0.42-2.466c-0.28-0.758-0.683-1.412-1.206-1.964
		c-0.523-0.55-1.151-0.979-1.882-1.286c-0.731-0.307-1.549-0.461-2.452-0.461s-1.72,0.154-2.451,0.461s-1.359,0.736-1.883,1.286
		c-0.524,0.552-0.926,1.206-1.205,1.964C145.541,58.893,145.401,59.715,145.401,60.6z"/>
	<path fill="#FFF" d="M169.996,51.01h5.743l8.153,13.328h0.054V51.01h4.227v19.179h-5.526l-8.37-13.652h-0.055v13.652h-4.226V51.01z"/>
	<path fill="#FFF" d="M197.491,51.01h6.339c1.535,0,2.993,0.172,4.375,0.515c1.381,0.344,2.587,0.898,3.616,1.666s1.846,1.766,2.451,2.993
		c0.604,1.229,0.907,2.719,0.907,4.47c0,1.554-0.293,2.921-0.88,4.104c-0.587,1.184-1.377,2.177-2.37,2.98s-2.141,1.413-3.44,1.828
		c-1.3,0.416-2.664,0.623-4.091,0.623h-6.907V51.01z M201.717,66.288h2.194c0.976,0,1.883-0.1,2.723-0.298
		c0.84-0.199,1.566-0.528,2.181-0.989c0.613-0.46,1.097-1.065,1.449-1.814c0.352-0.75,0.528-1.666,0.528-2.75
		c0-0.938-0.177-1.756-0.528-2.451c-0.353-0.695-0.826-1.269-1.422-1.721c-0.597-0.451-1.297-0.789-2.1-1.016
		c-0.804-0.226-1.648-0.338-2.533-0.338h-2.492V66.288z"/>
	<path fill="#FFF" d="M223.631,51.01h13.029v3.901h-8.804v3.575h8.315v3.9h-8.315v3.901h9.291v3.9h-13.517V51.01z"/>
	<path fill="#FFF" d="M245.951,51.01h5.743l8.153,13.328h0.054V51.01h4.227v19.179h-5.526l-8.37-13.652h-0.055v13.652h-4.226V51.01z"/>
	<path fill="#FFF" d="M272.416,60.6c0-1.535,0.258-2.926,0.772-4.172s1.232-2.307,2.153-3.183s2.014-1.549,3.277-2.019s2.646-0.704,4.145-0.704
		s2.881,0.234,4.145,0.704s2.356,1.143,3.278,2.019c0.921,0.876,1.639,1.937,2.153,3.183s0.771,2.637,0.771,4.172
		s-0.257,2.925-0.771,4.171s-1.232,2.308-2.153,3.184c-0.922,0.876-2.015,1.548-3.278,2.018s-2.646,0.704-4.145,0.704
		s-2.881-0.234-4.145-0.704s-2.356-1.142-3.277-2.018s-1.639-1.938-2.153-3.184S272.416,62.135,272.416,60.6z M276.805,60.6
		c0,0.903,0.14,1.729,0.42,2.479c0.279,0.749,0.681,1.399,1.205,1.95c0.523,0.551,1.151,0.979,1.883,1.286
		c0.731,0.308,1.548,0.461,2.451,0.461s1.721-0.153,2.452-0.461c0.73-0.307,1.358-0.735,1.882-1.286s0.926-1.201,1.206-1.95
		c0.279-0.749,0.42-1.575,0.42-2.479c0-0.885-0.141-1.707-0.42-2.466c-0.28-0.758-0.683-1.412-1.206-1.964
		c-0.523-0.55-1.151-0.979-1.882-1.286c-0.731-0.307-1.549-0.461-2.452-0.461s-1.72,0.154-2.451,0.461s-1.359,0.736-1.883,1.286
		c-0.524,0.552-0.926,1.206-1.205,1.964C276.944,58.893,276.805,59.715,276.805,60.6z"/>
	<path fill="#FFF" d="M301.4,51.01h7.124c0.993,0,1.933,0.091,2.817,0.271s1.657,0.492,2.316,0.935s1.183,1.038,1.571,1.787
		c0.388,0.75,0.582,1.693,0.582,2.831c0,1.12-0.181,2.059-0.542,2.817c-0.361,0.758-0.857,1.363-1.489,1.814
		c-0.633,0.452-1.382,0.772-2.249,0.962c-0.866,0.189-1.806,0.284-2.816,0.284h-3.089v7.477H301.4V51.01z M305.626,59.137h2.817
		c0.379,0,0.745-0.036,1.098-0.108c0.352-0.072,0.667-0.194,0.947-0.366c0.28-0.171,0.506-0.406,0.678-0.704
		c0.171-0.298,0.257-0.673,0.257-1.124c0-0.487-0.112-0.881-0.338-1.179c-0.227-0.298-0.515-0.528-0.867-0.69
		s-0.745-0.267-1.179-0.312c-0.433-0.045-0.849-0.067-1.246-0.067h-2.167V59.137z"/>
	<path fill="#FFF" d="M323.883,51.01h7.124c0.993,0,1.933,0.091,2.817,0.271s1.657,0.492,2.316,0.935s1.183,1.038,1.571,1.787
		c0.388,0.75,0.582,1.693,0.582,2.831c0,1.12-0.181,2.059-0.542,2.817c-0.361,0.758-0.857,1.363-1.489,1.814
		c-0.633,0.452-1.382,0.772-2.249,0.962c-0.866,0.189-1.806,0.284-2.816,0.284h-3.089v7.477h-4.226V51.01z M328.108,59.137h2.817
		c0.379,0,0.745-0.036,1.098-0.108c0.352-0.072,0.667-0.194,0.947-0.366c0.28-0.171,0.506-0.406,0.678-0.704
		c0.171-0.298,0.257-0.673,0.257-1.124c0-0.487-0.112-0.881-0.338-1.179c-0.227-0.298-0.515-0.528-0.867-0.69
		s-0.745-0.267-1.179-0.312c-0.433-0.045-0.849-0.067-1.246-0.067h-2.167V59.137z"/>
	<path fill="#FFF" d="M350.673,51.01h3.494l8.344,19.179h-4.768l-1.652-4.063h-7.449l-1.599,4.063h-4.659L350.673,51.01z M352.299,56.59
		l-2.33,5.96h4.687L352.299,56.59z"/>
	<path fill="#FFF" d="M379.333,55.696c-0.344-0.434-0.809-0.754-1.396-0.962c-0.587-0.207-1.143-0.312-1.666-0.312
		c-0.307,0-0.623,0.037-0.948,0.108c-0.325,0.072-0.632,0.186-0.921,0.339s-0.523,0.356-0.704,0.609s-0.271,0.56-0.271,0.921
		c0,0.578,0.217,1.021,0.649,1.327c0.434,0.308,0.979,0.569,1.64,0.786c0.658,0.217,1.367,0.434,2.126,0.649
		c0.759,0.217,1.467,0.524,2.126,0.922s1.206,0.93,1.64,1.598c0.433,0.668,0.649,1.562,0.649,2.682c0,1.066-0.198,1.996-0.596,2.79
		c-0.397,0.795-0.935,1.454-1.611,1.978c-0.678,0.524-1.463,0.912-2.357,1.165c-0.894,0.253-1.837,0.379-2.83,0.379
		c-1.246,0-2.402-0.189-3.468-0.568c-1.065-0.38-2.059-0.993-2.979-1.842l3.007-3.306c0.434,0.579,0.979,1.025,1.639,1.342
		c0.659,0.315,1.341,0.474,2.045,0.474c0.343,0,0.691-0.041,1.043-0.122c0.353-0.081,0.668-0.203,0.948-0.365
		c0.28-0.163,0.506-0.37,0.678-0.623c0.171-0.253,0.257-0.551,0.257-0.895c0-0.577-0.222-1.033-0.663-1.367
		c-0.443-0.334-0.998-0.619-1.666-0.854c-0.669-0.234-1.392-0.47-2.167-0.704c-0.777-0.235-1.5-0.551-2.167-0.948
		c-0.669-0.397-1.224-0.921-1.666-1.571c-0.443-0.65-0.664-1.508-0.664-2.573c0-1.029,0.203-1.933,0.609-2.709
		s0.948-1.427,1.625-1.95c0.678-0.523,1.459-0.917,2.344-1.179s1.797-0.393,2.735-0.393c1.084,0,2.131,0.153,3.143,0.46
		c1.011,0.308,1.923,0.822,2.736,1.545L379.333,55.696z"/>
	<path fill="#FFF" d="M390.384,67.858c0-0.343,0.063-0.667,0.19-0.975c0.126-0.307,0.302-0.573,0.527-0.799s0.492-0.402,0.8-0.528
		c0.307-0.126,0.632-0.189,0.975-0.189s0.668,0.063,0.976,0.189c0.307,0.126,0.573,0.303,0.799,0.528s0.401,0.492,0.528,0.799
		c0.126,0.308,0.189,0.632,0.189,0.975c0,0.344-0.063,0.669-0.189,0.976c-0.127,0.308-0.303,0.573-0.528,0.799
		c-0.226,0.227-0.492,0.402-0.799,0.528c-0.308,0.126-0.633,0.189-0.976,0.189s-0.668-0.063-0.975-0.189
		c-0.308-0.126-0.574-0.302-0.8-0.528c-0.226-0.226-0.401-0.491-0.527-0.799C390.447,68.527,390.384,68.202,390.384,67.858z"/>
	<path fill="#FFF" d="M404.253,51.01h5.743l8.153,13.328h0.054V51.01h4.227v19.179h-5.526l-8.37-13.652h-0.055v13.652h-4.226V51.01z"/>
	<path fill="#FFF" d="M431.91,51.01h4.226v15.278h7.828v3.9H431.91V51.01z"/>
</g>
<g>
	<path fill="#FFF" d="M121.958,88.759c0,0.405,0.003,0.769,0.009,1.09c0.006,0.321,0.015,0.619,0.027,0.894
		c0.012,0.273,0.026,0.529,0.044,0.768s0.044,0.477,0.081,0.715h-1c-0.072-0.404-0.107-0.852-0.107-1.34h-0.036
		c-0.31,0.536-0.694,0.929-1.152,1.179s-1.039,0.376-1.742,0.376c-0.357,0-0.708-0.045-1.054-0.135
		c-0.346-0.089-0.655-0.231-0.929-0.429c-0.274-0.196-0.498-0.449-0.67-0.759c-0.173-0.31-0.259-0.685-0.259-1.126
		c0-0.631,0.161-1.131,0.482-1.5c0.322-0.369,0.718-0.646,1.188-0.831c0.471-0.185,0.971-0.304,1.501-0.357
		c0.53-0.054,0.997-0.08,1.402-0.08h1.25v-0.5c0-0.715-0.221-1.227-0.661-1.536c-0.441-0.31-0.995-0.465-1.662-0.465
		c-0.953,0-1.792,0.31-2.519,0.929l-0.625-0.732c0.393-0.381,0.881-0.67,1.465-0.866s1.144-0.295,1.679-0.295
		c1,0,1.798,0.235,2.394,0.706c0.595,0.471,0.893,1.229,0.893,2.277V88.759z M119.814,88.08c-0.453,0-0.891,0.03-1.313,0.089
		c-0.423,0.061-0.804,0.161-1.144,0.304c-0.339,0.144-0.61,0.334-0.812,0.572c-0.203,0.238-0.304,0.536-0.304,0.893
		c0,0.251,0.056,0.474,0.169,0.67c0.113,0.197,0.259,0.357,0.438,0.482s0.378,0.221,0.598,0.286s0.444,0.099,0.67,0.099
		c0.572,0,1.042-0.083,1.412-0.25c0.369-0.167,0.664-0.385,0.884-0.652c0.22-0.269,0.372-0.571,0.456-0.911
		c0.083-0.34,0.125-0.682,0.125-1.027V88.08H119.814z"/>
	<path fill="#FFF" d="M128.568,78.719h1.072v13.506h-1.072V78.719z"/>
	<path fill="#FFF" d="M140.305,84.936h-2.358v5.378c0,0.369,0.101,0.654,0.304,0.857c0.202,0.202,0.482,0.304,0.84,0.304
		c0.202,0,0.407-0.027,0.616-0.081c0.208-0.054,0.407-0.122,0.599-0.205l0.089,0.965c-0.202,0.071-0.435,0.137-0.696,0.196
		c-0.263,0.06-0.494,0.09-0.697,0.09c-0.381,0-0.708-0.058-0.982-0.17c-0.274-0.113-0.494-0.266-0.661-0.456
		s-0.289-0.413-0.366-0.67c-0.077-0.256-0.116-0.532-0.116-0.83v-5.378h-1.786v-0.964h1.786v-2.376h1.072v2.376h2.358V84.936z"/>
	<path fill="#FFF" d="M145.717,80.702c0-0.227,0.077-0.417,0.232-0.571c0.154-0.155,0.345-0.232,0.571-0.232
		s0.417,0.077,0.572,0.232c0.154,0.154,0.231,0.345,0.231,0.571s-0.077,0.417-0.231,0.571c-0.155,0.155-0.346,0.232-0.572,0.232
		s-0.417-0.077-0.571-0.232C145.794,81.119,145.717,80.929,145.717,80.702z M145.984,83.972h1.072v8.253h-1.072V83.972z"/>
	<path fill="#FFF" d="M154.917,93.672c0,0.429-0.033,0.815-0.099,1.161c-0.065,0.345-0.188,0.643-0.366,0.893
		c-0.179,0.251-0.42,0.444-0.724,0.581s-0.693,0.205-1.17,0.205c-0.285,0-0.571-0.054-0.857-0.16l0.161-0.947
		c0.25,0.096,0.476,0.144,0.679,0.144c0.286,0,0.515-0.052,0.688-0.152c0.173-0.102,0.304-0.232,0.394-0.393
		c0.089-0.161,0.148-0.349,0.179-0.563c0.029-0.214,0.044-0.44,0.044-0.679v-9.789h1.072V93.672z M153.577,80.702
		c0-0.227,0.077-0.417,0.232-0.571c0.154-0.155,0.345-0.232,0.571-0.232s0.417,0.077,0.572,0.232
		c0.154,0.154,0.231,0.345,0.231,0.571s-0.077,0.417-0.231,0.571c-0.155,0.155-0.346,0.232-0.572,0.232s-0.417-0.077-0.571-0.232
		C153.654,81.119,153.577,80.929,153.577,80.702z"/>
	<path fill="#FFF" d="M168.744,90.777h-0.036c-0.167,0.286-0.375,0.533-0.625,0.741c-0.25,0.209-0.521,0.382-0.812,0.519
		c-0.292,0.137-0.599,0.238-0.92,0.304c-0.322,0.065-0.638,0.099-0.947,0.099c-0.631,0-1.215-0.107-1.751-0.322
		c-0.535-0.214-0.994-0.515-1.375-0.902c-0.382-0.387-0.679-0.845-0.894-1.375c-0.214-0.53-0.321-1.11-0.321-1.742
		c0-0.631,0.107-1.211,0.321-1.741c0.215-0.53,0.512-0.988,0.894-1.376c0.381-0.387,0.84-0.688,1.375-0.902
		c0.536-0.214,1.12-0.321,1.751-0.321c0.31,0,0.625,0.033,0.947,0.099c0.321,0.065,0.628,0.167,0.92,0.304
		c0.291,0.137,0.562,0.31,0.812,0.518c0.25,0.209,0.458,0.456,0.625,0.741h0.036v-6.699h1.071v13.506h-1.071V90.777z
		 M168.852,88.098c0-0.464-0.09-0.902-0.269-1.312c-0.179-0.411-0.423-0.769-0.732-1.072s-0.673-0.545-1.09-0.724
		s-0.869-0.268-1.357-0.268c-0.5,0-0.953,0.089-1.357,0.268c-0.405,0.179-0.751,0.42-1.036,0.724
		c-0.286,0.304-0.504,0.661-0.652,1.072c-0.149,0.41-0.224,0.849-0.224,1.312c0,0.465,0.074,0.902,0.224,1.313
		c0.148,0.411,0.366,0.768,0.652,1.071c0.285,0.304,0.631,0.545,1.036,0.724c0.404,0.179,0.857,0.269,1.357,0.269
		c0.488,0,0.94-0.09,1.357-0.269s0.78-0.42,1.09-0.724s0.554-0.66,0.732-1.071S168.852,88.562,168.852,88.098z"/>
	<path fill="#FFF" d="M191.521,90.67c-0.417,0.632-0.932,1.084-1.545,1.358c-0.614,0.273-1.29,0.411-2.028,0.411
		c-0.631,0-1.203-0.107-1.715-0.322c-0.512-0.214-0.953-0.515-1.321-0.902c-0.37-0.387-0.652-0.845-0.849-1.375
		c-0.197-0.53-0.295-1.116-0.295-1.76c0-0.619,0.101-1.19,0.304-1.715c0.202-0.524,0.488-0.979,0.857-1.367
		c0.369-0.387,0.804-0.69,1.304-0.911c0.5-0.22,1.055-0.33,1.662-0.33c0.631,0,1.188,0.11,1.67,0.33
		c0.482,0.221,0.887,0.513,1.215,0.876c0.327,0.363,0.574,0.777,0.741,1.241c0.167,0.465,0.25,0.936,0.25,1.411v0.751h-6.932
		c0,0.226,0.045,0.515,0.135,0.866c0.089,0.352,0.253,0.693,0.491,1.027c0.237,0.333,0.557,0.619,0.955,0.857
		c0.399,0.238,0.914,0.357,1.546,0.357c0.548,0,1.077-0.131,1.59-0.394c0.512-0.262,0.904-0.619,1.179-1.071L191.521,90.67z
		 M190.699,87.401c0-0.369-0.075-0.715-0.224-1.036c-0.149-0.321-0.352-0.604-0.607-0.849s-0.56-0.438-0.911-0.581
		c-0.352-0.143-0.724-0.214-1.116-0.214c-0.584,0-1.069,0.119-1.456,0.357c-0.388,0.238-0.694,0.512-0.92,0.821
		c-0.227,0.311-0.388,0.61-0.482,0.902c-0.096,0.292-0.144,0.491-0.144,0.599H190.699z"/>
	<path fill="#FFF" d="M205.026,90.67c-0.417,0.632-0.932,1.084-1.545,1.358c-0.614,0.273-1.29,0.411-2.028,0.411
		c-0.631,0-1.203-0.107-1.715-0.322c-0.512-0.214-0.953-0.515-1.321-0.902c-0.37-0.387-0.652-0.845-0.849-1.375
		c-0.197-0.53-0.295-1.116-0.295-1.76c0-0.619,0.101-1.19,0.304-1.715c0.202-0.524,0.488-0.979,0.857-1.367
		c0.369-0.387,0.804-0.69,1.304-0.911c0.5-0.22,1.055-0.33,1.662-0.33c0.631,0,1.188,0.11,1.67,0.33
		c0.482,0.221,0.887,0.513,1.215,0.876c0.327,0.363,0.574,0.777,0.741,1.241c0.167,0.465,0.25,0.936,0.25,1.411v0.751h-6.932
		c0,0.226,0.045,0.515,0.135,0.866c0.089,0.352,0.253,0.693,0.491,1.027c0.237,0.333,0.557,0.619,0.955,0.857
		c0.399,0.238,0.914,0.357,1.546,0.357c0.548,0,1.077-0.131,1.59-0.394c0.512-0.262,0.904-0.619,1.179-1.071L205.026,90.67z
		 M204.205,87.401c0-0.369-0.075-0.715-0.224-1.036c-0.149-0.321-0.352-0.604-0.607-0.849s-0.56-0.438-0.911-0.581
		c-0.352-0.143-0.724-0.214-1.116-0.214c-0.584,0-1.069,0.119-1.456,0.357c-0.388,0.238-0.694,0.512-0.92,0.821
		c-0.227,0.311-0.388,0.61-0.482,0.902c-0.096,0.292-0.144,0.491-0.144,0.599H204.205z"/>
	<path fill="#FFF" d="M211.242,86.294c0-0.155-0.006-0.343-0.018-0.563c-0.012-0.22-0.021-0.443-0.026-0.67
		c-0.007-0.226-0.016-0.438-0.027-0.634s-0.018-0.349-0.018-0.455h1.072c0.012,0.31,0.021,0.607,0.026,0.893
		c0.006,0.286,0.021,0.471,0.045,0.554h0.054c0.214-0.452,0.571-0.842,1.071-1.17c0.5-0.327,1.084-0.491,1.751-0.491
		c0.643,0,1.167,0.102,1.572,0.304c0.404,0.203,0.724,0.468,0.955,0.795c0.232,0.328,0.394,0.706,0.482,1.135
		c0.09,0.429,0.135,0.869,0.135,1.321v4.913h-1.072v-4.859c0-0.333-0.03-0.657-0.09-0.974c-0.06-0.315-0.163-0.599-0.312-0.849
		c-0.148-0.25-0.357-0.449-0.625-0.598c-0.268-0.149-0.616-0.224-1.045-0.224c-0.394,0-0.766,0.068-1.116,0.205
		c-0.352,0.138-0.655,0.346-0.911,0.626c-0.257,0.279-0.459,0.631-0.607,1.054c-0.149,0.423-0.224,0.92-0.224,1.491v4.127h-1.072
		V86.294z"/>
	<path fill="#FFF" d="M240.951,78.719h1.071v6.699h0.036c0.166-0.285,0.375-0.532,0.625-0.741
		c0.25-0.208,0.521-0.381,0.812-0.518s0.599-0.238,0.921-0.304c0.321-0.065,0.637-0.099,0.946-0.099
		c0.631,0,1.212,0.107,1.742,0.321c0.529,0.215,0.988,0.516,1.375,0.902c0.387,0.388,0.688,0.846,0.902,1.376
		s0.321,1.11,0.321,1.741c0,0.632-0.106,1.212-0.321,1.742s-0.516,0.988-0.902,1.375c-0.387,0.388-0.846,0.688-1.375,0.902
		c-0.53,0.215-1.111,0.322-1.742,0.322c-0.31,0-0.625-0.033-0.946-0.099c-0.322-0.065-0.629-0.167-0.921-0.304
		s-0.562-0.31-0.812-0.519c-0.25-0.208-0.459-0.455-0.625-0.741h-0.036v1.447h-1.071V78.719z M241.915,88.098
		c0,0.465,0.09,0.902,0.269,1.313s0.423,0.768,0.732,1.071s0.673,0.545,1.09,0.724s0.869,0.269,1.357,0.269
		c0.5,0,0.953-0.09,1.357-0.269c0.405-0.179,0.751-0.42,1.036-0.724c0.286-0.304,0.503-0.66,0.652-1.071
		c0.148-0.411,0.224-0.849,0.224-1.313c0-0.464-0.075-0.902-0.224-1.312c-0.149-0.411-0.366-0.769-0.652-1.072
		c-0.285-0.304-0.631-0.545-1.036-0.724c-0.404-0.179-0.857-0.268-1.357-0.268c-0.488,0-0.94,0.089-1.357,0.268
		s-0.78,0.42-1.09,0.724s-0.554,0.661-0.732,1.072C242.005,87.195,241.915,87.634,241.915,88.098z"/>
	<path fill="#FFF" d="M262.085,88.759c0,0.405,0.003,0.769,0.009,1.09s0.015,0.619,0.026,0.894
		c0.012,0.273,0.027,0.529,0.045,0.768s0.045,0.477,0.08,0.715h-1c-0.071-0.404-0.107-0.852-0.107-1.34h-0.035
		c-0.311,0.536-0.694,0.929-1.152,1.179c-0.459,0.25-1.039,0.376-1.742,0.376c-0.357,0-0.709-0.045-1.054-0.135
		c-0.346-0.089-0.655-0.231-0.929-0.429c-0.274-0.196-0.498-0.449-0.67-0.759c-0.173-0.31-0.26-0.685-0.26-1.126
		c0-0.631,0.161-1.131,0.482-1.5s0.718-0.646,1.188-0.831c0.47-0.185,0.971-0.304,1.5-0.357c0.53-0.054,0.998-0.08,1.402-0.08h1.251
		v-0.5c0-0.715-0.221-1.227-0.661-1.536s-0.994-0.465-1.661-0.465c-0.953,0-1.793,0.31-2.52,0.929l-0.625-0.732
		c0.394-0.381,0.882-0.67,1.465-0.866c0.584-0.196,1.144-0.295,1.68-0.295c1,0,1.798,0.235,2.394,0.706s0.894,1.229,0.894,2.277
		V88.759z M259.941,88.08c-0.453,0-0.891,0.03-1.313,0.089c-0.423,0.061-0.804,0.161-1.144,0.304
		c-0.339,0.144-0.61,0.334-0.812,0.572c-0.203,0.238-0.304,0.536-0.304,0.893c0,0.251,0.057,0.474,0.17,0.67
		c0.112,0.197,0.259,0.357,0.438,0.482s0.378,0.221,0.599,0.286c0.22,0.065,0.443,0.099,0.67,0.099c0.571,0,1.042-0.083,1.411-0.25
		s0.664-0.385,0.884-0.652c0.221-0.269,0.372-0.571,0.456-0.911c0.083-0.34,0.125-0.682,0.125-1.027V88.08H259.941z"/>
	<path fill="#FFF" d="M274.93,88.759c0,0.405,0.003,0.769,0.009,1.09s0.015,0.619,0.026,0.894
		c0.012,0.273,0.027,0.529,0.045,0.768s0.045,0.477,0.08,0.715h-1c-0.071-0.404-0.107-0.852-0.107-1.34h-0.035
		c-0.311,0.536-0.694,0.929-1.152,1.179c-0.459,0.25-1.039,0.376-1.742,0.376c-0.357,0-0.709-0.045-1.054-0.135
		c-0.346-0.089-0.655-0.231-0.929-0.429c-0.274-0.196-0.498-0.449-0.67-0.759c-0.173-0.31-0.26-0.685-0.26-1.126
		c0-0.631,0.161-1.131,0.482-1.5s0.718-0.646,1.188-0.831c0.47-0.185,0.971-0.304,1.5-0.357c0.53-0.054,0.998-0.08,1.402-0.08h1.251
		v-0.5c0-0.715-0.221-1.227-0.661-1.536s-0.994-0.465-1.661-0.465c-0.953,0-1.793,0.31-2.52,0.929l-0.625-0.732
		c0.394-0.381,0.882-0.67,1.465-0.866c0.584-0.196,1.144-0.295,1.68-0.295c1,0,1.798,0.235,2.394,0.706s0.894,1.229,0.894,2.277
		V88.759z M272.786,88.08c-0.453,0-0.891,0.03-1.313,0.089c-0.423,0.061-0.804,0.161-1.144,0.304
		c-0.339,0.144-0.61,0.334-0.812,0.572c-0.203,0.238-0.304,0.536-0.304,0.893c0,0.251,0.057,0.474,0.17,0.67
		c0.112,0.197,0.259,0.357,0.438,0.482s0.378,0.221,0.599,0.286c0.22,0.065,0.443,0.099,0.67,0.099c0.571,0,1.042-0.083,1.411-0.25
		s0.664-0.385,0.884-0.652c0.221-0.269,0.372-0.571,0.456-0.911c0.083-0.34,0.125-0.682,0.125-1.027V88.08H272.786z"/>
	<path fill="#FFF" d="M281.378,90.116c0.226,0.441,0.56,0.777,1,1.01s0.905,0.349,1.394,0.349c0.227,0,0.452-0.036,0.679-0.107
		s0.429-0.173,0.607-0.304s0.324-0.289,0.438-0.474s0.17-0.396,0.17-0.634c0-0.381-0.122-0.667-0.366-0.857s-0.545-0.34-0.902-0.447
		c-0.357-0.106-0.75-0.199-1.179-0.276s-0.822-0.196-1.179-0.357c-0.357-0.161-0.658-0.384-0.902-0.67s-0.366-0.69-0.366-1.215
		c0-0.404,0.083-0.756,0.25-1.054s0.384-0.545,0.652-0.741c0.268-0.197,0.568-0.343,0.901-0.438
		c0.334-0.095,0.673-0.143,1.019-0.143c0.679,0,1.266,0.125,1.76,0.375s0.878,0.644,1.152,1.18l-0.965,0.571
		c-0.202-0.381-0.455-0.67-0.759-0.866s-0.7-0.295-1.188-0.295c-0.19,0-0.391,0.029-0.599,0.089
		c-0.208,0.061-0.396,0.144-0.562,0.25c-0.167,0.107-0.307,0.245-0.42,0.411c-0.113,0.167-0.17,0.357-0.17,0.572
		c0,0.369,0.122,0.643,0.366,0.821s0.545,0.318,0.902,0.42s0.75,0.188,1.18,0.259c0.429,0.071,0.821,0.188,1.179,0.349
		s0.658,0.393,0.902,0.696c0.243,0.304,0.366,0.736,0.366,1.296c0,0.429-0.081,0.801-0.241,1.116
		c-0.161,0.315-0.382,0.58-0.661,0.795c-0.28,0.214-0.599,0.375-0.956,0.482s-0.732,0.161-1.125,0.161
		c-0.715,0-1.367-0.138-1.956-0.411c-0.59-0.274-1.046-0.697-1.367-1.269L281.378,90.116z"/>
	<path fill="#FFF" d="M293.794,93.672c0,0.429-0.033,0.815-0.099,1.161c-0.065,0.345-0.188,0.643-0.366,0.893
		c-0.179,0.251-0.42,0.444-0.724,0.581s-0.693,0.205-1.17,0.205c-0.285,0-0.571-0.054-0.857-0.16l0.161-0.947
		c0.25,0.096,0.476,0.144,0.679,0.144c0.286,0,0.515-0.052,0.688-0.152c0.173-0.102,0.304-0.232,0.394-0.393
		c0.089-0.161,0.148-0.349,0.179-0.563c0.029-0.214,0.044-0.44,0.044-0.679v-9.789h1.072V93.672z M292.454,80.702
		c0-0.227,0.077-0.417,0.232-0.571c0.154-0.155,0.345-0.232,0.571-0.232s0.417,0.077,0.572,0.232
		c0.154,0.154,0.231,0.345,0.231,0.571s-0.077,0.417-0.231,0.571c-0.155,0.155-0.346,0.232-0.572,0.232s-0.417-0.077-0.571-0.232
		C292.531,81.119,292.454,80.929,292.454,80.702z"/>
	<path fill="#FFF" d="M307.691,90.67c-0.417,0.632-0.932,1.084-1.545,1.358c-0.614,0.273-1.29,0.411-2.028,0.411
		c-0.631,0-1.203-0.107-1.715-0.322c-0.512-0.214-0.953-0.515-1.321-0.902c-0.37-0.387-0.652-0.845-0.849-1.375
		c-0.197-0.53-0.295-1.116-0.295-1.76c0-0.619,0.101-1.19,0.304-1.715c0.202-0.524,0.488-0.979,0.857-1.367
		c0.369-0.387,0.804-0.69,1.304-0.911c0.5-0.22,1.055-0.33,1.662-0.33c0.631,0,1.188,0.11,1.67,0.33
		c0.482,0.221,0.887,0.513,1.215,0.876c0.327,0.363,0.574,0.777,0.741,1.241c0.167,0.465,0.25,0.936,0.25,1.411v0.751h-6.932
		c0,0.226,0.045,0.515,0.135,0.866c0.089,0.352,0.253,0.693,0.491,1.027c0.237,0.333,0.557,0.619,0.955,0.857
		c0.399,0.238,0.914,0.357,1.546,0.357c0.548,0,1.077-0.131,1.59-0.394c0.512-0.262,0.904-0.619,1.179-1.071L307.691,90.67z
		 M306.87,87.401c0-0.369-0.075-0.715-0.224-1.036c-0.149-0.321-0.352-0.604-0.607-0.849s-0.56-0.438-0.911-0.581
		c-0.352-0.143-0.724-0.214-1.116-0.214c-0.584,0-1.069,0.119-1.456,0.357c-0.388,0.238-0.694,0.512-0.92,0.821
		c-0.227,0.311-0.388,0.61-0.482,0.902c-0.096,0.292-0.144,0.491-0.144,0.599H306.87z"/>
	<path fill="#FFF" d="M322.037,80.702c0-0.227,0.077-0.417,0.232-0.571c0.154-0.155,0.345-0.232,0.571-0.232
		s0.417,0.077,0.572,0.232c0.154,0.154,0.231,0.345,0.231,0.571s-0.077,0.417-0.231,0.571c-0.155,0.155-0.346,0.232-0.572,0.232
		s-0.417-0.077-0.571-0.232C322.114,81.119,322.037,80.929,322.037,80.702z M322.305,83.972h1.072v8.253h-1.072V83.972z"/>
	<path fill="#FFF" d="M329.986,86.294c0-0.155-0.006-0.343-0.018-0.563c-0.012-0.22-0.021-0.443-0.026-0.67
		c-0.007-0.226-0.016-0.438-0.027-0.634s-0.018-0.349-0.018-0.455h1.072c0.012,0.31,0.021,0.607,0.026,0.893
		c0.006,0.286,0.021,0.471,0.045,0.554h0.054c0.214-0.452,0.571-0.842,1.071-1.17c0.5-0.327,1.084-0.491,1.751-0.491
		c0.643,0,1.167,0.102,1.572,0.304c0.404,0.203,0.724,0.468,0.955,0.795c0.232,0.328,0.394,0.706,0.482,1.135
		c0.09,0.429,0.135,0.869,0.135,1.321v4.913h-1.072v-4.859c0-0.333-0.03-0.657-0.09-0.974c-0.06-0.315-0.163-0.599-0.312-0.849
		c-0.148-0.25-0.357-0.449-0.625-0.598c-0.268-0.149-0.616-0.224-1.045-0.224c-0.394,0-0.766,0.068-1.116,0.205
		c-0.352,0.138-0.655,0.346-0.911,0.626c-0.257,0.279-0.459,0.631-0.607,1.054c-0.149,0.423-0.224,0.92-0.224,1.491v4.127h-1.072
		V86.294z"/>
	<path fill="#FFF" d="M358.927,90.777h-0.036c-0.167,0.286-0.375,0.533-0.625,0.741c-0.25,0.209-0.521,0.382-0.812,0.519
		c-0.292,0.137-0.599,0.238-0.92,0.304c-0.322,0.065-0.638,0.099-0.947,0.099c-0.631,0-1.215-0.107-1.751-0.322
		c-0.535-0.214-0.994-0.515-1.375-0.902c-0.382-0.387-0.679-0.845-0.894-1.375c-0.214-0.53-0.321-1.11-0.321-1.742
		c0-0.631,0.107-1.211,0.321-1.741c0.215-0.53,0.512-0.988,0.894-1.376c0.381-0.387,0.84-0.688,1.375-0.902
		c0.536-0.214,1.12-0.321,1.751-0.321c0.31,0,0.625,0.033,0.947,0.099c0.321,0.065,0.628,0.167,0.92,0.304
		c0.291,0.137,0.562,0.31,0.812,0.518c0.25,0.209,0.458,0.456,0.625,0.741h0.036v-6.699h1.071v13.506h-1.071V90.777z
		 M359.034,88.098c0-0.464-0.09-0.902-0.269-1.312c-0.179-0.411-0.423-0.769-0.732-1.072s-0.673-0.545-1.09-0.724
		s-0.869-0.268-1.357-0.268c-0.5,0-0.953,0.089-1.357,0.268c-0.405,0.179-0.751,0.42-1.036,0.724
		c-0.286,0.304-0.504,0.661-0.652,1.072c-0.149,0.41-0.224,0.849-0.224,1.312c0,0.465,0.074,0.902,0.224,1.313
		c0.148,0.411,0.366,0.768,0.652,1.071c0.285,0.304,0.631,0.545,1.036,0.724c0.404,0.179,0.857,0.269,1.357,0.269
		c0.488,0,0.94-0.09,1.357-0.269s0.78-0.42,1.09-0.724s0.554-0.66,0.732-1.071S359.034,88.562,359.034,88.098z"/>
	<path fill="#FFF" d="M373.485,90.67c-0.417,0.632-0.932,1.084-1.545,1.358c-0.614,0.273-1.29,0.411-2.028,0.411
		c-0.631,0-1.203-0.107-1.715-0.322c-0.512-0.214-0.953-0.515-1.321-0.902c-0.37-0.387-0.652-0.845-0.849-1.375
		c-0.197-0.53-0.295-1.116-0.295-1.76c0-0.619,0.101-1.19,0.304-1.715c0.202-0.524,0.488-0.979,0.857-1.367
		c0.369-0.387,0.804-0.69,1.304-0.911c0.5-0.22,1.055-0.33,1.662-0.33c0.631,0,1.188,0.11,1.67,0.33
		c0.482,0.221,0.887,0.513,1.215,0.876c0.327,0.363,0.574,0.777,0.741,1.241c0.167,0.465,0.25,0.936,0.25,1.411v0.751h-6.932
		c0,0.226,0.045,0.515,0.135,0.866c0.089,0.352,0.253,0.693,0.491,1.027c0.237,0.333,0.557,0.619,0.955,0.857
		c0.399,0.238,0.914,0.357,1.546,0.357c0.548,0,1.077-0.131,1.59-0.394c0.512-0.262,0.904-0.619,1.179-1.071L373.485,90.67z
		 M372.664,87.401c0-0.369-0.075-0.715-0.224-1.036c-0.149-0.321-0.352-0.604-0.607-0.849s-0.56-0.438-0.911-0.581
		c-0.352-0.143-0.724-0.214-1.116-0.214c-0.584,0-1.069,0.119-1.456,0.357c-0.388,0.238-0.694,0.512-0.92,0.821
		c-0.227,0.311-0.388,0.61-0.482,0.902c-0.096,0.292-0.144,0.491-0.144,0.599H372.664z"/>
	<path fill="#FFF" d="M387.688,78.719h1.071v6.699h0.036c0.166-0.285,0.375-0.532,0.625-0.741
		c0.25-0.208,0.521-0.381,0.812-0.518s0.599-0.238,0.921-0.304c0.321-0.065,0.637-0.099,0.946-0.099
		c0.631,0,1.212,0.107,1.742,0.321c0.529,0.215,0.988,0.516,1.375,0.902c0.387,0.388,0.688,0.846,0.902,1.376
		s0.321,1.11,0.321,1.741c0,0.632-0.106,1.212-0.321,1.742s-0.516,0.988-0.902,1.375c-0.387,0.388-0.846,0.688-1.375,0.902
		c-0.53,0.215-1.111,0.322-1.742,0.322c-0.31,0-0.625-0.033-0.946-0.099c-0.322-0.065-0.629-0.167-0.921-0.304
		s-0.562-0.31-0.812-0.519c-0.25-0.208-0.459-0.455-0.625-0.741h-0.036v1.447h-1.071V78.719z M388.652,88.098
		c0,0.465,0.09,0.902,0.269,1.313s0.423,0.768,0.732,1.071s0.673,0.545,1.09,0.724s0.869,0.269,1.357,0.269
		c0.5,0,0.953-0.09,1.357-0.269c0.405-0.179,0.751-0.42,1.036-0.724c0.286-0.304,0.503-0.66,0.652-1.071
		c0.148-0.411,0.224-0.849,0.224-1.313c0-0.464-0.075-0.902-0.224-1.312c-0.149-0.411-0.366-0.769-0.652-1.072
		c-0.285-0.304-0.631-0.545-1.036-0.724c-0.404-0.179-0.857-0.268-1.357-0.268c-0.488,0-0.94,0.089-1.357,0.268
		s-0.78,0.42-1.09,0.724s-0.554,0.661-0.732,1.072C388.742,87.195,388.652,87.634,388.652,88.098z"/>
	<path fill="#FFF" d="M409.393,89.902c0,0.155,0.006,0.343,0.018,0.562c0.012,0.221,0.021,0.444,0.027,0.67
		c0.006,0.227,0.015,0.438,0.026,0.635c0.012,0.196,0.019,0.348,0.019,0.455h-1.072c-0.012-0.31-0.021-0.607-0.027-0.894
		c-0.006-0.285-0.021-0.47-0.044-0.554h-0.054c-0.215,0.453-0.571,0.843-1.072,1.17c-0.5,0.328-1.084,0.492-1.75,0.492
		c-0.644,0-1.171-0.102-1.581-0.304c-0.411-0.203-0.732-0.468-0.965-0.796c-0.232-0.327-0.391-0.705-0.474-1.134
		s-0.125-0.869-0.125-1.322v-4.912h1.072v4.858c0,0.334,0.029,0.658,0.089,0.974c0.06,0.316,0.164,0.599,0.312,0.849
		c0.149,0.25,0.357,0.45,0.625,0.599c0.269,0.149,0.617,0.224,1.046,0.224c0.393,0,0.765-0.068,1.116-0.206
		c0.351-0.137,0.654-0.345,0.911-0.625c0.256-0.279,0.458-0.631,0.607-1.054c0.148-0.423,0.223-0.92,0.223-1.492v-4.126h1.072
		V89.902z"/>
	<path fill="#FFF" d="M422.898,89.902c0,0.155,0.006,0.343,0.018,0.562c0.012,0.221,0.021,0.444,0.027,0.67
		c0.006,0.227,0.015,0.438,0.026,0.635c0.012,0.196,0.019,0.348,0.019,0.455h-1.072c-0.012-0.31-0.021-0.607-0.027-0.894
		c-0.006-0.285-0.021-0.47-0.044-0.554h-0.054c-0.215,0.453-0.571,0.843-1.072,1.17c-0.5,0.328-1.084,0.492-1.75,0.492
		c-0.644,0-1.171-0.102-1.581-0.304c-0.411-0.203-0.732-0.468-0.965-0.796c-0.232-0.327-0.391-0.705-0.474-1.134
		s-0.125-0.869-0.125-1.322v-4.912h1.072v4.858c0,0.334,0.029,0.658,0.089,0.974c0.06,0.316,0.164,0.599,0.312,0.849
		c0.149,0.25,0.357,0.45,0.625,0.599c0.269,0.149,0.617,0.224,1.046,0.224c0.393,0,0.765-0.068,1.116-0.206
		c0.351-0.137,0.654-0.345,0.911-0.625c0.256-0.279,0.458-0.631,0.607-1.054c0.148-0.423,0.223-0.92,0.223-1.492v-4.126h1.072
		V89.902z"/>
	<path fill="#FFF" d="M429.418,86.294c0-0.155-0.006-0.343-0.018-0.563c-0.012-0.22-0.021-0.443-0.026-0.67
		c-0.007-0.226-0.016-0.438-0.027-0.634s-0.018-0.349-0.018-0.455h1.072c0.012,0.31,0.021,0.607,0.026,0.893
		c0.006,0.286,0.021,0.471,0.045,0.554c0.273-0.488,0.625-0.887,1.054-1.196s0.953-0.465,1.572-0.465
		c0.107,0,0.211,0.009,0.312,0.027c0.101,0.018,0.205,0.038,0.312,0.062l-0.125,1.054c-0.143-0.048-0.28-0.071-0.411-0.071
		c-0.464,0-0.866,0.074-1.205,0.223c-0.34,0.149-0.62,0.354-0.84,0.616c-0.221,0.263-0.385,0.569-0.491,0.921
		c-0.107,0.351-0.161,0.729-0.161,1.134v4.502h-1.072V86.294z"/>
	<path fill="#FFF" d="M442.979,84.936h-2.358v5.378c0,0.369,0.101,0.654,0.304,0.857c0.202,0.202,0.482,0.304,0.84,0.304
		c0.202,0,0.407-0.027,0.616-0.081c0.208-0.054,0.407-0.122,0.599-0.205l0.089,0.965c-0.202,0.071-0.435,0.137-0.696,0.196
		c-0.263,0.06-0.494,0.09-0.697,0.09c-0.381,0-0.708-0.058-0.982-0.17c-0.274-0.113-0.494-0.266-0.661-0.456
		s-0.289-0.413-0.366-0.67c-0.077-0.256-0.116-0.532-0.116-0.83v-5.378h-1.786v-0.964h1.786v-2.376h1.072v2.376h2.358V84.936z"/>
</g>
<g>
	<path fill="#FFF" d="M95.971,45.213c-0.632-0.526-1.229-1.019-1.707-1.429c-0.53-0.456-1.689-1.55-2.145-0.145
		c-1.058,3.69-1.227,5.087-5.465,4.986c-5.811-0.135-7.881-0.838-13.66-1.772c-3.205-0.518-5.155-2.759-4.939-5.67
		c0.238-3.209,0.179-2.777,0.414-5.987c0.112-0.798,1.133-0.775,1.129,0.104c-0.075,1.676-0.166,3.038-0.206,4.714
		c-0.093,3.884,0.956,5.182,4.829,5.88c3.047,0.554,6.096,1.165,9.168,1.496c6.187,0.667,8.162-2.065,5.923-7.849
		c-1.262-3.26-2.479-6.546-3.519-9.882c-1.297-4.156-3.814-7-8.098-8.015c-5.431-1.287-10.858-2.646-16.359-3.544
		c-1.745-0.283-4.212,0.253-5.48,1.385c-2.952,2.632-6.098,3.236-9.722,2.465c-3.411-0.729-6.793-1.616-10.212-2.302
		c-0.375,1.132-0.961,2.234-1.892,2.785c-0.496,0.293-1.074,0.491-1.695,0.617c-0.417,0.086-0.855,0.131-1.3,0.159
		c-0.084,1.977-0.452,3.944-0.688,5.917c0.119,0.589,0.239,1.176,0.358,1.765c0.56,0.723,1.102,1.465,1.646,2.204
		c1.427,0.577,2.998,1.114,4.55,1.447c4.967,1.065,10.626,1.086,10.683,1.086c0.394,0,0.713,0.32,0.712,0.714
		c0,0.345-0.246,0.633-0.571,0.698c-0.046,0.009-0.095,0.016-0.143,0.015c-0.238,0-5.861-0.019-10.98-1.116
		c-0.883-0.189-1.763-0.44-2.62-0.723c0.408,0.496,0.83,0.979,1.278,1.436c1.331,1.361,2.997,3.042,4.695,3.284
		c9.41,1.338,16.176,6.939,22.621,13.215c1.349,1.313,4.311,3.888,5.989,3.546c0,0,10.818,10.598,23.519,13.954
		C92.083,70.651,97.988,58.063,95.971,45.213z M56.111,29.67c-1.5-0.052-2.683-1.021-2.645-2.161
		c0.04-1.143,1.287-2.027,2.786-1.977c1.499,0.052,2.684,1.019,2.644,2.161C58.857,28.837,57.61,29.721,56.111,29.67z"/>
	<path fill="#FFF" d="M34.938,19.452c-2.744-0.496-3.627,0.242-3.836,2.767c0.917-0.067,1.772-0.248,2.425-0.637
		C34.173,21.199,34.622,20.369,34.938,19.452z"/>
</g>
<g>
	<path fill="#FFF" d="M7.168,71.828c0.215-0.439,0.436-0.877,0.65-1.316c1.335-2.729,3.443-3.382,5.897-2.836
		c2.164,0.476,4.226,1.476,6.408,1.81c3.435,0.526,6.927,0.734,10.408,0.99c1.562,0.113,3.178,0.269,4.707-0.054
		c1.547-0.328,3.026-1.182,4.514-1.872c4.778-1.155,13.222-8.714,13.222-8.714s2.876-1.418,2.447-3.315c0,0,0.563-1.845-5.901-0.489
		c0,0-2.514,0.628-5.428,3.863c0,0-4.258-0.15-5.862,1.437c-0.597,0.596-2.935,0.342-3.925,0.069
		c-2.148-0.59-4.165-1.691-5.853-2.417c1.92-0.824,4.23-1.6,6.335-2.808c0,0,4.033-0.809,2.661-3.495c0,0-1.558-2.086-5.039-0.898
		c-5.706,2.901-11.33,0.592-16.987,0.48c-0.827-0.015-1.756-0.148-2.471,0.205c-3.475,1.714-6.944,3.34-9.907,5.986
		C3.043,58.454,3.439,63.275,7.168,71.828z"/>
</g>
</svg>
